<?xml version="1.0" encoding="UTF-8" standalone="no"?>
<!-- Created with Inkscape (http://www.inkscape.org/) -->

<svg
   version="1.1"
   id="svg1"
   width="700"
   height="700"
   viewBox="0 0 700 700.00001"
   sodipodi:docname="bishop_white.svg"
   inkscape:version="1.4 (86a8ad7, 2024-10-11)"
   xmlns:inkscape="http://www.inkscape.org/namespaces/inkscape"
   xmlns:sodipodi="http://sodipodi.sourceforge.net/DTD/sodipodi-0.dtd"
   xmlns="http://www.w3.org/2000/svg"
   xmlns:svg="http://www.w3.org/2000/svg">
  <sodipodi:namedview
     id="namedview1"
     pagecolor="#ffffff"
     bordercolor="#000000"
     borderopacity="0.25"
     inkscape:showpageshadow="2"
     inkscape:pageopacity="0.0"
     inkscape:pagecheckerboard="0"
     inkscape:deskcolor="#d1d1d1"
     inkscape:zoom="1.6671429"
     inkscape:cx="350.29991"
     inkscape:cy="350"
     inkscape:window-width="2560"
     inkscape:window-height="1369"
     inkscape:window-x="1912"
     inkscape:window-y="-8"
     inkscape:window-maximized="1"
     inkscape:current-layer="svg1" />
  <defs
     id="defs1" />
  <g
     id="layer3"
     transform="translate(189.97933,-595.12634)"
     style="display:inline">
    <path
       id="path87"
       d="m 371.29766,1240.5321 c 0,2.2 -1.8,3.9867 -3.98667,3.9867 H -47.34233 c -2.186666,0 -3.986666,-1.7867 -3.986666,-3.9867 v -26.0933 c 0,-48.56 39.506666,-88.0667 88.079998,-88.0667 l 0.426666,-0.04 c 38.919999,-3.64 78.520002,-5.5867 117.626662,-5.7467 42.58667,-0.1466 85.61333,1.76 127.98667,5.7467 l 0.42666,0.04 c 48.57334,0 88.08,39.5067 88.08,88.0667 z M 2.7776689,905.3188 2.9910019,904.34547 C 11.137669,833.87881 100.37767,753.56147 118.191,738.17214 l 0.58667,-4.684 c -8.18667,-9.276 -12.72,-21.228 -12.72,-33.60666 0,-28.01067 22.78666,-50.82 50.78666,-50.82 28.01334,0 50.82667,22.80933 50.82667,50.82 0,20.89333 -13.10667,39.96266 -32.64,47.41466 l -1.64,1.216 c -41.29333,65.75333 -43.52,207.56666 -43.61333,213.56666 l -0.0533,4.70667 69.33333,-0.36 -0.0533,-4.50667 c -1.28,-111.21333 28.06667,-172.62666 37.77333,-189.25866 103.92,113.92533 94.33334,171.232 94.21334,171.73866 l -0.0933,0.52 v 0.54667 c 2.29334,87.62663 -38.96,147.02663 -59.17333,170.74663 -38.81333,-3.2933 -78.08,-4.8667 -116.94666,-4.7467 -34.36,0.1467 -69.066667,1.7334 -103.399999,4.56 C -34.208997,1017.7055 2.3776689,906.41214 2.7776689,905.3188 Z M 283.431,1117.2388 c -0.21334,-0.027 -0.45334,-0.027 -0.66667,-0.053 21.92,-27.32 59.33333,-86.6266 57.26667,-171.5066 1.12,-6.90666 6.98666,-67.42666 -100.61334,-183.60266 l -3.77333,-4.07467 -3.28,4.50134 c -1.76,2.46266 -43.09333,62.656 -42.52,195.00266 l -50.81333,-0.0267 c 0.76,-25.24 6.17333,-144.75999 41.12,-202.45866 21.98667,-9.276 36.64,-31.14267 36.64,-55.13866 0,-33.05867 -26.88,-59.944 -59.94667,-59.944 -33.02666,0 -59.906663,26.88533 -59.906663,59.944 0,12.59066 3.986663,24.75599 11.253333,34.88399 -29.346666,25.94267 -106.0266641,99.60667 -114.1999971,168.1 -2.653334,8.33333 -34.5199989,116.41336 46.1866651,214.06666 -1.213333,0.1333 -2.426666,0.1867 -3.64,0.3067 -53.506665,0.12 -96.986659,43.68 -96.986659,97.2 v 26.0933 c 0,7.24 5.866662,13.1067 13.106661,13.1067 h 414.65332 c 7.24,0 13.10667,-5.8667 13.10667,-13.1067 v -26.0933 c 0,-53.52 -43.49333,-97.08 -96.98666,-97.2"
       style="fill:#231f20;fill-opacity:1;fill-rule:nonzero;stroke:#231f20;stroke-width:6.66667;stroke-dasharray:none;stroke-opacity:1" />
    <path
       id="path88"
       d="m 371.29766,1214.4388 v 26.0933 c 0,2.2 -1.8,3.9867 -3.98667,3.9867 H -47.34233 c -2.186666,0 -3.986666,-1.7867 -3.986666,-3.9867 v -26.0933 c 0,-48.56 39.506666,-88.0667 88.079998,-88.0667 l 0.426666,-0.04 c 38.919999,-3.64 78.520002,-5.5867 117.626662,-5.7467 42.58667,-0.1466 85.61333,1.76 127.98667,5.7467 l 0.42666,0.04 c 48.57334,0 88.08,39.5067 88.08,88.0667"
       style="fill:#f8f8f8;fill-opacity:1;fill-rule:nonzero;stroke:none;stroke-width:0.133333" />
    <path
       id="path89"
       d="m 330.89766,944.9188 v 0.54667 c 2.29334,87.62663 -38.96,147.02663 -59.17333,170.74663 -38.81333,-3.2933 -78.08,-4.8667 -116.94666,-4.7467 -34.36,0.1467 -69.06667,1.7334 -103.400002,4.56 C -34.208997,1017.7055 2.3776689,906.41214 2.7776689,905.3188 l 0.213333,-0.97333 C 11.137669,833.87881 100.37767,753.56147 118.191,738.17214 l 0.58667,-4.684 c -8.18667,-9.276 -12.72,-21.228 -12.72,-33.60666 0,-28.01067 22.78666,-50.82 50.78666,-50.82 28.01334,0 50.82667,22.80933 50.82667,50.82 0,20.89333 -13.10667,39.96266 -32.64,47.41466 l -1.64,1.216 c -41.29333,65.75333 -43.52,207.56666 -43.61333,213.56666 l -0.0533,4.70667 69.33333,-0.36 -0.0533,-4.50667 c -1.28,-111.21333 28.06667,-172.62666 37.77333,-189.25866 103.92,113.92533 94.33334,171.232 94.21334,171.73866 l -0.0933,0.52"
       style="fill:#f8f8f8;fill-opacity:1;fill-rule:nonzero;stroke:none;stroke-width:0.133333" />
    <path
       id="path90"
       d="m 284.871,831.90547 c 5.84,10.2 43.69333,78.96 15.4,161.44 -28.52,83.13333 -101.54667,114.06663 -112.34667,118.42663 l 83.8,4.44 c 0,0 30.61333,-34.3333 45.86667,-81.7067 13.64,-42.3866 17.85333,-98.13326 8.84,-122.87993 -9.98667,-27.44 -16.2,-43.36 -41.56,-79.72"
       style="fill:#d3d3d3;fill-opacity:1;fill-rule:nonzero;stroke:none;stroke-width:0.133333" />
    <path
       id="path91"
       d="m 361.92433,1174.9988 c -8.09334,-3.1067 -17,-6.24 -26.45333,-9.52 -38.08,-13.1734 -213.53333,-8.5467 -303.626665,-5.44 -37.4933321,1.2666 -62.093332,12.28 -77.999998,24.6533 12.226666,-33.96 44.7599989,-58.32 82.906665,-58.32 l 0.426666,-0.04 c 38.919999,-3.64 78.520002,-5.5867 117.626662,-5.7467 42.58667,-0.1466 85.61333,1.76 127.98667,5.7467 l 0.42666,0.04 c 34.4,0 64.26667,19.8267 78.70667,48.6267"
       style="fill:#ffffff;fill-opacity:1;fill-rule:nonzero;stroke:none;stroke-width:0.133333" />
    <path
       id="path92"
       d="m 178.24433,653.80414 c 0,0 28.53334,27.552 11.76,58.968 -16.78666,31.41733 -53.45333,44.72133 -67.42666,97.52 -13.97334,52.8 -7.64,72.34666 7.14666,156.49333 l 4.25334,-69.56 c 0,0 8.26666,-69.65333 19.16,-102.26666 11.72,-30.68267 18.61333,-46.048 23.05333,-48.13334 5.98667,-1.76266 17.45333,-9.20933 23.25333,-19.384 6.09334,-9.816 9.76,-20.48399 8.02667,-31.97733 -2.06667,-13.752 -6.30667,-29.96666 -29.22667,-41.66"
       style="fill:#d3d3d3;fill-opacity:1;fill-rule:nonzero;stroke:none;stroke-width:0.133333" />
  </g>
</svg>
