<?xml version="1.0" encoding="UTF-8" standalone="no"?>
<!-- Created with Inkscape (http://www.inkscape.org/) -->

<svg
   version="1.1"
   id="svg1"
   width="458.91064"
   height="569.70801"
   viewBox="0 0 458.91064 569.70802"
   xmlns="http://www.w3.org/2000/svg"
   xmlns:svg="http://www.w3.org/2000/svg">
  <defs
     id="defs1" />
  <g
     id="layer13"
     transform="translate(-248.22933,-381.61334)">
    <path
       id="path3"
       d="M 5210.13,8958.52 H 1955.15 v 289.92 c 0,324.81 264.14,588.95 588.95,588.95 h 2077.08 c 324.81,0 588.95,-264.14 588.95,-588.95 z M 2638.31,11640.3 c 24.41,-3.4 49.27,-5.3 74.59,-5.3 h 1689.07 c 33.08,0 65.24,3.2 96.72,8.9 l 221.94,-1745.61 c -32.39,5.02 -65.7,7.53 -99.45,7.53 H 2544.1 c -34.21,0 -67.74,-2.51 -100.36,-7.76 z m -391.88,529.9 -52.91,521.9 c -6.39,63.1 14.37,126.3 57.02,173.3 42.43,47.2 103.1,74.1 166.51,74.1 h 286.27 c 48.81,0 91.69,-32.6 104.69,-79.6 l 112.23,-404.6 221.71,8 20.53,514.1 c 1.6,37.6 32.16,67.1 69.8,67.1 h 656.24 c 36.04,0 65.92,-27.2 69.34,-63 l 52.01,-520.3 264.14,7.5 60.9,379.4 c 8.44,53.1 53.6,91.4 107.21,91.4 h 255.7 c 63.41,0 124.08,-26.9 166.74,-74.1 42.42,-47 63.18,-110.2 56.79,-173.3 l -52.69,-518.5 -0.23,-3.4 c 0,-257.3 -209.16,-466.7 -466.46,-466.7 H 2712.9 c -257.3,0 -466.47,209.4 -466.47,466.7 z M 4791.56,9883.46 4565.52,11660.8 c 214.64,69.1 370.66,270.3 371.34,507.5 l 52.47,516.9 c 8.44,82.4 -18.48,164.7 -74.14,226.3 -55.42,61.3 -134.57,96.5 -217.37,96.5 h -255.7 c -87.37,0 -161.04,-62.8 -174.73,-149 l -52,-323.7 -143.71,-4.1 -45.62,457.2 c -7.07,70.9 -66.37,124.5 -137.54,124.5 h -656.24 c -74.59,0 -135.26,-58.4 -138.23,-132.8 l -18.02,-450.9 -104.24,-3.7 -97.86,352.7 c -21.21,76.4 -91.23,129.8 -170.61,129.8 h -286.27 c -82.57,0 -161.95,-35.2 -217.38,-96.5 -55.42,-61.6 -82.57,-143.9 -74.13,-226.3 l 52.46,-516.9 c 0.69,-245.2 167.2,-451.8 393.02,-514.1 L 2373.26,9883.24 c -279.88,-75.51 -486.54,-331.43 -486.54,-634.8 v -358.35 h 3391.83 v 358.35 c 0,303.6 -206.88,559.75 -486.99,635.02"
       style="fill:#231f20;fill-opacity:1;fill-rule:nonzero;stroke:#231f20;stroke-width:50;stroke-dasharray:none;stroke-opacity:1"
       transform="matrix(0.13333333,0,0,-0.13333333,0,2133.3333)" />
    <path
       id="path4"
       d="M 5210.13,9248.44 V 8958.52 H 1955.15 v 289.92 c 0,324.81 264.14,588.95 588.95,588.95 h 2077.08 c 324.81,0 588.95,-264.14 588.95,-588.95"
       style="fill:#565352;fill-opacity:1;fill-rule:nonzero;stroke:none"
       transform="matrix(0.13333333,0,0,-0.13333333,0,2133.3333)" />
    <path
       id="path5"
       d="m 4720.63,9898.29 c -32.39,5.02 -65.7,7.53 -99.45,7.53 H 2544.1 c -34.21,0 -67.74,-2.51 -100.36,-7.76 l 194.57,1742.24 c 24.41,-3.4 49.27,-5.3 74.59,-5.3 h 1689.07 c 33.08,0 65.24,3.2 96.72,8.9 l 221.94,-1745.61"
       style="fill:#565352;fill-opacity:1;fill-rule:nonzero;stroke:none"
       transform="matrix(0.13333333,0,0,-0.13333333,0,2133.3333)" />
    <path
       id="path6"
       d="m 4921.35,12692.1 -52.69,-518.5 -0.23,-3.4 c 0,-257.3 -209.16,-466.7 -466.46,-466.7 H 2712.9 c -257.3,0 -466.47,209.4 -466.47,466.7 l -52.91,521.9 c -6.39,63.1 14.37,126.3 57.02,173.3 42.43,47.2 103.1,74.1 166.51,74.1 h 286.27 c 48.81,0 91.69,-32.6 104.69,-79.6 l 112.23,-404.6 221.71,8 20.53,514.1 c 1.6,37.6 32.16,67.1 69.8,67.1 h 656.24 c 36.04,0 65.92,-27.2 69.34,-63 l 52.01,-520.3 264.14,7.5 60.9,379.4 c 8.44,53.1 53.6,91.4 107.21,91.4 h 255.7 c 63.41,0 124.08,-26.9 166.74,-74.1 42.42,-47 63.18,-110.2 56.79,-173.3"
       style="fill:#565352;fill-opacity:1;fill-rule:nonzero;stroke:none"
       transform="matrix(0.13333333,0,0,-0.13333333,0,2133.3333)" />
    <path
       id="path7"
       d="m 2447.66,12925.5 c 5.05,6.4 16.9,14.6 -18.24,14.6 -67.69,-0.1 -255.6,-35 -236.45,-240.9 23.29,-250.4 35.57,-499.5 65.78,-599.1 27.07,-89.3 60.41,661.2 188.91,825.4"
       style="fill:#888685;fill-opacity:1;fill-rule:nonzero;stroke:none"
       transform="matrix(0.13333333,0,0,-0.13333333,0,2133.3333)" />
    <path
       id="path8"
       d="m 3163.18,12984.6 -11.45,-295.2 c 0,0 201.67,310.4 314.27,355.1 h -237.87 c -31.12,0 -62.79,-28.8 -64.95,-59.9"
       style="fill:#888685;fill-opacity:1;fill-rule:nonzero;stroke:none"
       transform="matrix(0.13333333,0,0,-0.13333333,0,2133.3333)" />
    <path
       id="path9"
       d="m 4613.99,12939.5 -310.14,-284.9 c 0,0 9.19,73.8 18.95,135.2 9.54,60.1 19.15,107.6 59.69,131.6 17.96,32 231.5,18.1 231.5,18.1"
       style="fill:#888685;fill-opacity:1;fill-rule:nonzero;stroke:none"
       transform="matrix(0.13333333,0,0,-0.13333333,0,2133.3333)" />
    <path
       id="path10"
       d="m 2969.25,11632.4 c 0,0 1176.41,-143.7 1271.77,-899.9 89.6,-710.5 123.71,-826.68 123.71,-826.68 l 355.9,-7.53 -221.94,1745.61 -85.65,-8.8 c -4.99,-0.5 -10.01,-0.8 -15.03,-0.8 l -1428.76,-1.9"
       style="fill:#454242;fill-opacity:1;fill-rule:nonzero;stroke:none"
       transform="matrix(0.13333333,0,0,-0.13333333,0,2133.3333)" />
    <path
       id="path11"
       d="m 4587.9,11883.2 c -113.31,-86.2 -247.81,-133.9 -247.82,-133.9 -76.38,-27.1 -144.04,-39.6 -194.42,-45.8 0,0 375.64,-24.8 459.65,46.7 228.38,75.2 267.67,334.2 285.8,583 12.18,167.1 30.79,365.6 30.79,365.6 -23.66,-397 -179.83,-698.4 -334,-815.6"
       style="fill:#454242;fill-opacity:1;fill-rule:nonzero;stroke:none"
       transform="matrix(0.13333333,0,0,-0.13333333,0,2133.3333)" />
    <path
       id="path12"
       d="m 5208.07,9313.44 c -31.93,294.94 -282.38,525.09 -585.53,525.09 H 3582.64 2542.73 c -303.14,0 -553.59,-230.15 -585.52,-525.09 -2.29,-20.98 -0.92,-39.46 15.73,21.9 20.53,75.28 68.89,138.46 128.65,186.59 98.77,79.83 222.63,121.35 349.45,125 216.24,6.16 668.79,17.33 1131.6,19.61 462.81,-2.28 915.36,-13.45 1131.6,-19.61 126.82,-3.65 250.68,-45.17 349.45,-125 59.76,-48.13 108.12,-111.31 128.64,-186.59 16.65,-61.36 18.02,-42.88 15.74,-21.9"
       style="fill:#888685;fill-opacity:1;fill-rule:nonzero;stroke:none"
       transform="matrix(0.13333333,0,0,-0.13333333,0,2133.3333)" />
  </g>
</svg>
