<?xml version="1.0" encoding="UTF-8" standalone="no"?>
<!-- Created with Inkscape (http://www.inkscape.org/) -->

<svg
   version="1.1"
   id="svg1"
   width="447.54666"
   height="620.37732"
   viewBox="0 0 447.54666 620.37733"
   xmlns="http://www.w3.org/2000/svg"
   xmlns:svg="http://www.w3.org/2000/svg">
  <defs
     id="defs1" />
  <g
     id="layer9"
     transform="translate(-1754.6533,-325.77335)">
    <path
       id="path42"
       d="m 16423,9027.18 c 0,-16.42 -13.4,-29.88 -29.9,-29.88 h -3109.9 c -16.4,0 -29.8,13.46 -29.8,29.88 v 195.71 c 0,364.27 296.3,660.57 660.5,660.57 l 3.2,0.23 c 292,27.37 589,41.97 882.3,43.11 319.4,1.14 642.1,-13.23 959.9,-43.11 l 3.1,-0.23 c 364.3,0 660.6,-296.3 660.6,-660.57 z m -2763.9,2514.12 1.6,7.3 c 61.2,528.5 730.4,1130.9 864.1,1246.3 l 4.3,35.2 c -61.3,69.5 -95.3,159.2 -95.3,252 0,210.1 170.8,381.2 380.9,381.2 210.1,0 381.1,-171.1 381.1,-381.2 0,-156.7 -98.3,-299.7 -244.7,-355.6 l -12.3,-9.1 c -309.8,-493.2 -326.4,-1556.8 -327.1,-1601.7 l -0.5,-35.4 520.1,2.7 -0.5,33.8 c -9.5,834.2 210.6,1294.7 283.3,1419.5 779.5,-854.5 707.6,-1284.2 706.7,-1288.1 l -0.7,-3.9 v -4.1 c 17.1,-657.2 -292.2,-1102.6 -443.9,-1280.55 -291,24.63 -585.5,36.5 -877,35.58 -257.8,-1.14 -518,-13 -775.6,-34.21 -641.8,737.48 -367.4,1572.08 -364.5,1580.28 z M 15764,9951.89 c -1.6,0.23 -3.4,0.23 -5,0.46 164.5,204.85 445,649.65 429.5,1286.25 8.5,51.8 52.5,505.7 -754.5,1377 l -28.3,30.6 -24.6,-33.8 c -13.3,-18.4 -323.3,-469.8 -318.9,-1462.5 l -381.2,0.2 c 5.7,189.3 46.3,1085.8 308.4,1518.5 164.9,69.5 274.9,233.5 274.9,413.5 0,247.9 -201.7,449.6 -449.6,449.6 -247.7,0 -449.4,-201.7 -449.4,-449.6 0,-94.4 29.9,-185.7 84.4,-261.6 -220.1,-194.6 -795.1,-747.1 -856.5,-1260.7 -19.8,-62.5 -258.9,-873.2 346.5,-1605.62 -9.1,-0.92 -18.2,-1.37 -27.4,-2.29 -401.2,-0.91 -727.4,-327.55 -727.4,-729 v -195.71 c 0,-54.29 44.1,-98.31 98.3,-98.31 h 3109.9 c 54.3,0 98.4,44.02 98.4,98.31 v 195.71 c 0,401.45 -326.2,728.09 -727.5,729"
       style="fill:#231f20;fill-opacity:1;fill-rule:nonzero;stroke:#231f20;stroke-width:50;stroke-dasharray:none;stroke-opacity:1"
       transform="matrix(0.13333333,0,0,-0.13333333,0,2133.3333)" />
    <path
       id="path43"
       d="m 16423,9222.89 v -195.71 c 0,-16.42 -13.4,-29.88 -29.9,-29.88 h -3109.9 c -16.4,0 -29.8,13.46 -29.8,29.88 v 195.71 c 0,364.27 296.3,660.57 660.5,660.57 l 3.2,0.23 c 292,27.37 589,41.97 882.3,43.11 319.4,1.14 642.1,-13.23 959.9,-43.11 l 3.1,-0.23 c 364.3,0 660.6,-296.3 660.6,-660.57"
       style="fill:#565352;fill-opacity:1;fill-rule:nonzero;stroke:none"
       transform="matrix(0.13333333,0,0,-0.13333333,0,2133.3333)" />
    <path
       id="path44"
       d="m 16120.1,11244.3 v -4.1 c 17.1,-657.2 -292.2,-1102.6 -443.9,-1280.55 -291,24.63 -585.5,36.5 -877,35.58 -257.8,-1.14 -518,-13 -775.6,-34.21 -641.8,737.48 -367.4,1572.08 -364.5,1580.28 l 1.6,7.3 c 61.2,528.5 730.4,1130.9 864.1,1246.3 l 4.3,35.2 c -61.3,69.5 -95.3,159.2 -95.3,252 0,210.1 170.8,381.2 380.9,381.2 210.1,0 381.1,-171.1 381.1,-381.2 0,-156.7 -98.3,-299.7 -244.7,-355.6 l -12.3,-9.1 c -309.8,-493.2 -326.4,-1556.8 -327.1,-1601.7 l -0.5,-35.4 520.1,2.7 -0.5,33.8 c -9.5,834.2 210.6,1294.7 283.3,1419.5 779.5,-854.5 707.6,-1284.2 706.7,-1288.1 l -0.7,-3.9"
       style="fill:#565352;fill-opacity:1;fill-rule:nonzero;stroke:none"
       transform="matrix(0.13333333,0,0,-0.13333333,0,2133.3333)" />
    <path
       id="path45"
       d="m 15774.8,12091.9 c 43.9,-76.5 327.8,-592.2 115.5,-1210.8 -213.9,-623.5 -761.6,-855.5 -842.5,-888.18 l 628.4,-33.27 c 0,0 229.7,257.55 344,612.75 102.4,318 133.9,736 66.4,921.6 -74.9,205.8 -121.5,325.2 -311.8,597.9"
       style="fill:#454242;fill-opacity:1;fill-rule:nonzero;stroke:none"
       transform="matrix(0.13333333,0,0,-0.13333333,0,2133.3333)" />
    <path
       id="path46"
       d="m 16352.8,9518.73 c -60.7,23.27 -127.5,46.76 -198.5,71.4 -285.6,98.77 -1601.5,64.09 -2277.1,40.83 -281.2,-9.58 -465.8,-92.15 -585.1,-184.99 91.7,254.79 335.8,437.49 621.8,437.49 l 3.2,0.23 c 292,27.37 589,41.97 882.3,43.11 319.4,1.14 642.1,-13.23 959.9,-43.11 l 3.1,-0.23 c 258,0 482,-148.72 590.4,-364.73"
       style="fill:#888685;fill-opacity:1;fill-rule:nonzero;stroke:none"
       transform="matrix(0.13333333,0,0,-0.13333333,0,2133.3333)" />
    <path
       id="path47"
       d="m 14975.1,13427.7 c 0,0 214.1,-206.7 88.3,-442.3 -125.9,-235.6 -400.9,-335.4 -505.7,-731.4 -104.9,-396 -57.3,-542.6 53.5,-1173.7 l 32,521.7 c 0,0 62,522.5 143.7,767 87.8,230.1 139.6,345.4 172.9,361 44.8,13.2 130.8,69.1 174.4,145.4 45.6,73.6 73.1,153.6 60.2,239.8 -15.5,103.2 -47.3,224.8 -219.3,312.5"
       style="fill:#454242;fill-opacity:1;fill-rule:nonzero;stroke:none"
       transform="matrix(0.13333333,0,0,-0.13333333,0,2133.3333)" />
    <path
       id="path48"
       d="m 14776.9,13461.4 c 0,0 -222.3,-28.4 -301.8,-207 0,0 -116.6,-233.4 54.1,-424.4 0,0 -0.1,0.1 -0.1,0.1 l -4.3,-35.2 -32.9,-28.8 -28.9,-25.7 v 0 c -13.2,-10.7 -70.4,-58.7 -169.3,-162.7 -113.6,-119.6 -429.8,-457.7 -518.6,-679.8 -88.8,-222 -212.8,-536.6 -176.8,-848.9 36.1,-312.3 39.9,-330.3 39.9,-330.3 15,114.5 40.1,265.2 84.4,439.1 39.2,153.9 104.6,460.9 276.9,785.1 158.6,298.5 359,573.1 395.1,619.3 56.9,72.8 142.7,223.2 142.7,223.3 0,0.1 -0.5,46 -0.5,46.1 0.2,-2.2 -193.7,443.6 240.1,629.8"
       style="fill:#888685;fill-opacity:1;fill-rule:nonzero;stroke:none"
       transform="matrix(0.13333333,0,0,-0.13333333,0,2133.3333)" />
  </g>
</svg>
