<?xml version="1.0" encoding="UTF-8" standalone="no"?>
<!-- Created with Inkscape (http://www.inkscape.org/) -->

<svg
   version="1.1"
   id="svg1"
   width="700"
   height="700"
   viewBox="0 0 700 700.00001"
   sodipodi:docname="bishop_black.svg"
   inkscape:version="1.4 (86a8ad7, 2024-10-11)"
   xmlns:inkscape="http://www.inkscape.org/namespaces/inkscape"
   xmlns:sodipodi="http://sodipodi.sourceforge.net/DTD/sodipodi-0.dtd"
   xmlns="http://www.w3.org/2000/svg"
   xmlns:svg="http://www.w3.org/2000/svg">
  <sodipodi:namedview
     id="namedview1"
     pagecolor="#ffffff"
     bordercolor="#000000"
     borderopacity="0.25"
     inkscape:showpageshadow="2"
     inkscape:pageopacity="0.0"
     inkscape:pagecheckerboard="0"
     inkscape:deskcolor="#d1d1d1"
     inkscape:zoom="1.6671429"
     inkscape:cx="350.29991"
     inkscape:cy="350"
     inkscape:window-width="2560"
     inkscape:window-height="1369"
     inkscape:window-x="1912"
     inkscape:window-y="-8"
     inkscape:window-maximized="1"
     inkscape:current-layer="svg1" />
  <defs
     id="defs1" />
  <g
     id="layer9"
     transform="translate(169.95933,268.40764)"
     style="display:inline">
    <path
       id="path42"
       d="m 391.31099,377.00148 c 0,2.18934 -1.78666,3.984 -3.98666,3.984 H -27.328997 c -2.186666,0 -3.973333,-1.79466 -3.973333,-3.984 v -26.09466 c 0,-48.56933 39.5066659,-88.076 88.066664,-88.076 l 0.426667,-0.0307 c 38.933332,-3.64933 78.533329,-5.596 117.639999,-5.748 42.58666,-0.152 85.61333,1.764 127.98666,5.748 l 0.41334,0.0307 c 48.57333,0 88.07999,39.50667 88.07999,88.076 z M 22.791002,41.785489 23.004335,40.812155 C 31.164335,-29.654509 120.391,-109.9745 138.21767,-125.36117 l 0.57333,-4.69333 c -8.17333,-9.26667 -12.70667,-21.22667 -12.70667,-33.6 0,-28.01334 22.77334,-50.82667 50.78667,-50.82667 28.01333,0 50.81333,22.81333 50.81333,50.82667 0,20.89333 -13.10667,39.96 -32.62666,47.41333 l -1.64,1.21333 c -41.30667,65.759998 -43.52,207.573328 -43.61334,213.559994 l -0.0667,4.720006 69.34666,-0.36 -0.0667,-4.506673 c -1.26666,-111.226663 28.08,-172.626662 37.77334,-189.26666 103.93333,113.933329 94.34666,171.226661 94.22666,171.746661 l -0.0933,0.52 v 0.546666 c 2.28,87.626666 -38.96,147.013336 -59.18667,170.739996 -38.8,-3.284 -78.06666,-4.86666 -116.93333,-4.744 -34.37333,0.152 -69.06666,1.73334 -103.413329,4.56134 C -14.18233,154.15882 22.404335,42.878822 22.791002,41.785489 Z M 303.44433,253.70682 c -0.21333,-0.0307 -0.45333,-0.0307 -0.66667,-0.0613 21.93334,-27.31334 59.33333,-86.62 57.26667,-171.500002 1.13333,-6.906667 7,-67.426665 -100.6,-183.599988 l -3.77333,-4.08 -3.28,4.50666 c -1.77334,2.453337 -43.10667,62.639997 -42.52,194.999994 l -50.82667,-0.02667 c 0.76,-25.239999 6.17334,-144.773329 41.12,-202.466654 21.98667,-9.26667 36.65333,-31.13333 36.65333,-55.13333 0,-33.05334 -26.89333,-59.94667 -59.94666,-59.94667 -33.02667,0 -59.92,26.89333 -59.92,59.94667 0,12.58666 3.98667,24.76 11.25333,34.88 -29.346663,25.94666 -106.013328,99.613321 -114.199994,168.093319 -2.64,8.333333 -34.52,116.426671 46.199998,214.082671 -1.213333,0.12266 -2.426666,0.18266 -3.653333,0.30533 -53.4933321,0.12133 -96.986664,43.67333 -96.986664,97.2 v 26.09466 c 0,7.23867 5.88,13.108 13.106666,13.108 H 387.32433 c 7.24,0 13.12,-5.86933 13.12,-13.108 v -26.09469 c 0,-53.52667 -43.49334,-97.07867 -97,-97.2"
       style="fill:#231f20;fill-opacity:1;fill-rule:nonzero;stroke:#231f20;stroke-width:6.66667;stroke-dasharray:none;stroke-opacity:1" />
    <path
       id="path43"
       d="m 391.31099,350.90682 v 26.09466 c 0,2.18934 -1.78666,3.984 -3.98666,3.984 H -27.328997 c -2.186666,0 -3.973333,-1.79466 -3.973333,-3.984 v -26.09466 c 0,-48.56933 39.5066659,-88.076 88.066664,-88.076 l 0.426667,-0.0307 c 38.933332,-3.64933 78.533329,-5.596 117.639999,-5.748 42.58666,-0.152 85.61333,1.764 127.98666,5.748 l 0.41334,0.0307 c 48.57333,0 88.07999,39.50667 88.07999,88.076"
       style="fill:#565352;fill-opacity:1;fill-rule:nonzero;stroke:none;stroke-width:0.133333" />
    <path
       id="path44"
       d="m 350.92433,81.385488 v 0.546666 c 2.28,87.626666 -38.96,147.013336 -59.18667,170.739996 -38.8,-3.284 -78.06666,-4.86666 -116.93333,-4.744 -34.37333,0.152 -69.06666,1.73334 -103.413329,4.56134 C -14.18233,154.15882 22.404335,42.878822 22.791002,41.785489 l 0.213333,-0.973334 C 31.164335,-29.654509 120.391,-109.9745 138.21767,-125.36117 l 0.57333,-4.69333 c -8.17333,-9.26667 -12.70667,-21.22667 -12.70667,-33.6 0,-28.01334 22.77334,-50.82667 50.78667,-50.82667 28.01333,0 50.81333,22.81333 50.81333,50.82667 0,20.89333 -13.10667,39.96 -32.62666,47.41333 l -1.64,1.21333 c -41.30667,65.759998 -43.52,207.573328 -43.61334,213.559994 l -0.0667,4.720006 69.34666,-0.36 -0.0667,-4.506673 c -1.26666,-111.226663 28.08,-172.626662 37.77334,-189.26666 103.93333,113.933329 94.34666,171.226661 94.22666,171.746661 l -0.0933,0.52"
       style="fill:#565352;fill-opacity:1;fill-rule:nonzero;stroke:none;stroke-width:0.133333" />
    <path
       id="path45"
       d="m 304.88433,-31.627843 c 5.85333,10.2 43.70666,78.959998 15.4,161.440003 -28.52,83.13333 -101.54667,114.06666 -112.33333,118.42399 l 83.78666,4.436 c 0,0 30.62667,-34.34 45.86667,-81.69999 13.65333,-42.4 17.85333,-98.133339 8.85333,-122.880005 -9.98666,-27.439999 -16.2,-43.3599989 -41.57333,-79.719998"
       style="fill:#454242;fill-opacity:1;fill-rule:nonzero;stroke:none;stroke-width:0.133333" />
    <path
       id="path46"
       d="m 381.95099,311.46149 c -8.09333,-3.10267 -17,-6.23467 -26.46666,-9.52 -38.08,-13.16934 -213.53333,-8.54534 -303.613329,-5.444 -37.493332,1.27733 -62.106665,12.28666 -78.013331,24.66533 12.226666,-33.972 44.773332,-58.332 82.906664,-58.332 l 0.426667,-0.0307 c 38.933332,-3.64933 78.533329,-5.596 117.639999,-5.748 42.58666,-0.152 85.61333,1.764 127.98666,5.748 l 0.41334,0.0307 c 34.4,0 64.26666,19.82933 78.71999,48.63067"
       style="fill:#888685;fill-opacity:1;fill-rule:nonzero;stroke:none;stroke-width:0.133333" />
    <path
       id="path47"
       d="m 198.25767,-209.7345 c 0,0 28.54666,27.56 11.77333,58.97333 -16.78667,31.41333 -53.45333,44.72 -67.42667,97.519995 -13.98666,52.79999805 -7.64,72.346665 7.13334,156.493335 l 4.26666,-69.560004 c 0,0 8.26667,-69.666665 19.16,-102.266664 11.70667,-30.679996 18.61334,-46.053332 23.05334,-48.133332 5.97333,-1.76 17.43999,-9.21333 23.25333,-19.38666 6.08,-9.81334 9.74666,-20.48 8.02666,-31.97334 -2.06666,-13.76 -6.30666,-29.97333 -29.23999,-41.66666"
       style="fill:#454242;fill-opacity:1;fill-rule:nonzero;stroke:none;stroke-width:0.133333" />
    <path
       id="path48"
       d="m 171.831,-214.22784 c 0,0 -29.64,3.78667 -40.24,27.6 0,0 -15.54667,31.12 7.21333,56.58667 0,0 -0.0133,-0.0133 -0.0133,-0.0133 l -0.57333,4.69333 -4.38667,3.84 -3.85333,3.42667 v 0 c -1.76,1.42666 -9.38667,7.82666 -22.57333,21.693327 C 92.257667,-80.454513 50.097668,-35.374509 38.257668,-5.7611769 26.417669,23.838823 9.8843359,65.785488 14.684336,107.42549 c 4.813333,41.64 5.319999,44.04 5.319999,44.04 2,-15.26667 5.346667,-35.36 11.253333,-58.546669 5.226667,-20.52 13.946667,-61.453332 36.92,-104.679998 21.146666,-39.799999 47.866662,-76.413326 52.680002,-82.573326 7.58666,-9.706667 19.02666,-29.759997 19.02666,-29.773337 0,-0.0133 -0.0667,-6.13333 -0.0667,-6.14666 0.0267,0.29333 -25.82666,-59.14667 32.01334,-83.97334"
       style="fill:#888685;fill-opacity:1;fill-rule:nonzero;stroke:none;stroke-width:0.133333" />
  </g>
</svg>
