<?xml version="1.0" encoding="UTF-8" standalone="no"?>
<!-- Created with Inkscape (http://www.inkscape.org/) -->

<svg
   version="1.1"
   id="svg1"
   width="447.53333"
   height="620.36798"
   viewBox="0 0 447.53332 620.36799"
   xmlns="http://www.w3.org/2000/svg"
   xmlns:svg="http://www.w3.org/2000/svg">
  <defs
     id="defs1" />
  <g
     id="layer3"
     transform="translate(-1734.64,-1189.312)">
    <path
       id="path87"
       d="m 16272.9,2550.7 c 0,-16.5 -13.5,-29.9 -29.9,-29.9 h -3109.9 c -16.4,0 -29.9,13.4 -29.9,29.9 v 195.7 c 0,364.2 296.3,660.5 660.6,660.5 l 3.2,0.3 c 291.9,27.3 588.9,41.9 882.2,43.1 319.4,1.1 642.1,-13.2 959.9,-43.1 l 3.2,-0.3 c 364.3,0 660.6,-296.3 660.6,-660.5 z m -2763.9,2514.1 1.6,7.3 c 61.1,528.5 730.4,1130.88 864,1246.3 l 4.4,35.13 c -61.4,69.57 -95.4,159.21 -95.4,252.05 0,210.08 170.9,381.15 380.9,381.15 210.1,0 381.2,-171.07 381.2,-381.15 0,-156.7 -98.3,-299.72 -244.8,-355.61 l -12.3,-9.12 C 14478.9,5747.7 14462.2,4684.1 14461.5,4639.1 l -0.4,-35.3 520,2.7 -0.4,33.8 c -9.6,834.1 210.5,1294.7 283.3,1419.44 779.4,-854.44 707.5,-1284.24 706.6,-1288.04 l -0.7,-3.9 v -4.1 c 17.2,-657.2 -292.2,-1102.7 -443.8,-1280.6 -291.1,24.7 -585.6,36.5 -877.1,35.6 -257.7,-1.1 -518,-13 -775.5,-34.2 -641.9,737.4 -367.5,1572.1 -364.5,1580.3 z m 2104.9,-1589.4 c -1.6,0.2 -3.4,0.2 -5,0.4 164.4,204.9 445,649.7 429.5,1286.3 8.4,51.8 52.4,505.7 -754.6,1377.02 l -28.3,30.56 -24.6,-33.76 C 15217.7,6117.45 14907.7,5666 14912,4673.4 l -381.1,0.2 c 5.7,189.3 46.3,1085.7 308.4,1518.44 164.9,69.57 274.8,233.57 274.8,413.54 0,247.94 -201.6,449.58 -449.6,449.58 -247.7,0 -449.3,-201.64 -449.3,-449.58 0,-94.43 29.9,-185.67 84.4,-261.63 -220.1,-194.57 -795.2,-747.05 -856.5,-1260.75 -19.9,-62.5 -258.9,-873.1 346.4,-1605.5 -9.1,-1 -18.2,-1.4 -27.3,-2.3 -401.3,-0.9 -727.4,-327.6 -727.4,-729 v -195.7 c 0,-54.3 44,-98.3 98.3,-98.3 H 16243 c 54.3,0 98.3,44 98.3,98.3 v 195.7 c 0,401.4 -326.2,728.1 -727.4,729"
       style="fill:#231f20;fill-opacity:1;fill-rule:nonzero;stroke:#231f20;stroke-width:50;stroke-dasharray:none;stroke-opacity:1"
       transform="matrix(0.13333333,0,0,-0.13333333,0,2133.3333)" />
    <path
       id="path88"
       d="m 16272.9,2746.4 v -195.7 c 0,-16.5 -13.5,-29.9 -29.9,-29.9 h -3109.9 c -16.4,0 -29.9,13.4 -29.9,29.9 v 195.7 c 0,364.2 296.3,660.5 660.6,660.5 l 3.2,0.3 c 291.9,27.3 588.9,41.9 882.2,43.1 319.4,1.1 642.1,-13.2 959.9,-43.1 l 3.2,-0.3 c 364.3,0 660.6,-296.3 660.6,-660.5"
       style="fill:#f8f8f8;fill-opacity:1;fill-rule:nonzero;stroke:none"
       transform="matrix(0.13333333,0,0,-0.13333333,0,2133.3333)" />
    <path
       id="path89"
       d="m 15969.9,4767.8 v -4.1 c 17.2,-657.2 -292.2,-1102.7 -443.8,-1280.6 -291.1,24.7 -585.6,36.5 -877.1,35.6 -257.7,-1.1 -518,-13 -775.5,-34.2 -641.9,737.4 -367.5,1572.1 -364.5,1580.3 l 1.6,7.3 c 61.1,528.5 730.4,1130.88 864,1246.3 l 4.4,35.13 c -61.4,69.57 -95.4,159.21 -95.4,252.05 0,210.08 170.9,381.15 380.9,381.15 210.1,0 381.2,-171.07 381.2,-381.15 0,-156.7 -98.3,-299.72 -244.8,-355.61 l -12.3,-9.12 C 14478.9,5747.7 14462.2,4684.1 14461.5,4639.1 l -0.4,-35.3 520,2.7 -0.4,33.8 c -9.6,834.1 210.5,1294.7 283.3,1419.44 779.4,-854.44 707.5,-1284.24 706.6,-1288.04 l -0.7,-3.9"
       style="fill:#f8f8f8;fill-opacity:1;fill-rule:nonzero;stroke:none"
       transform="matrix(0.13333333,0,0,-0.13333333,0,2133.3333)" />
    <path
       id="path90"
       d="m 15624.7,5615.4 c 43.8,-76.5 327.7,-592.2 115.5,-1210.8 -213.9,-623.5 -761.6,-855.5 -842.6,-888.2 l 628.5,-33.3 c 0,0 229.6,257.5 344,612.8 102.3,317.9 133.9,736 66.3,921.6 -74.9,205.8 -121.5,325.2 -311.7,597.9"
       style="fill:#d3d3d3;fill-opacity:1;fill-rule:nonzero;stroke:none"
       transform="matrix(0.13333333,0,0,-0.13333333,0,2133.3333)" />
    <path
       id="path91"
       d="m 16202.6,3042.2 c -60.7,23.3 -127.5,46.8 -198.4,71.4 -285.6,98.8 -1601.5,64.1 -2277.2,40.8 -281.2,-9.5 -465.7,-92.1 -585,-184.9 91.7,254.7 335.7,437.4 621.8,437.4 l 3.2,0.3 c 291.9,27.3 588.9,41.9 882.2,43.1 319.4,1.1 642.1,-13.2 959.9,-43.1 l 3.2,-0.3 c 258,0 482,-148.7 590.3,-364.7"
       style="fill:#ffffff;fill-opacity:1;fill-rule:nonzero;stroke:none"
       transform="matrix(0.13333333,0,0,-0.13333333,0,2133.3333)" />
    <path
       id="path92"
       d="m 14825,6951.16 c 0,0 214,-206.64 88.2,-442.26 -125.9,-235.63 -400.9,-335.41 -505.7,-731.4 -104.8,-396 -57.3,-542.6 53.6,-1173.7 l 31.9,521.7 c 0,0 62,522.4 143.7,767 87.9,230.12 139.6,345.36 172.9,361 44.9,13.22 130.9,69.07 174.4,145.38 45.7,73.62 73.2,153.63 60.2,239.83 -15.5,103.14 -47.3,224.75 -219.2,312.45"
       style="fill:#d3d3d3;fill-opacity:1;fill-rule:nonzero;stroke:none"
       transform="matrix(0.13333333,0,0,-0.13333333,0,2133.3333)" />
  </g>
</svg>
