<?xml version="1.0" encoding="UTF-8" standalone="no"?>
<!-- Created with Inkscape (http://www.inkscape.org/) -->

<svg
   version="1.1"
   id="svg1"
   width="583.99329"
   height="629.46533"
   viewBox="0 0 583.99329 629.46535"
   xmlns="http://www.w3.org/2000/svg"
   xmlns:svg="http://www.w3.org/2000/svg">
  <defs
     id="defs1" />
  <g
     id="layer8"
     transform="translate(-3201.6914,-318.48001)">
    <path
       id="path49"
       d="m 25731.7,10670.4 c -0.2,-19.1 -15.7,-34.7 -34.9,-34.7 h -47.2 c -103.1,0 -200.2,40.2 -273.9,113.4 -133.2,131.6 -354.3,388.2 -336.9,626.4 3.2,45.6 33.5,91.7 83,126.1 39.7,27.4 103.6,56.8 194.8,56.8 96,0 222.6,-32.6 383.4,-134.6 21.7,-13.7 35.2,-38.3 34.9,-64.3 z m 4.8,811.4 c -346.7,219.6 -558.4,141.8 -653.7,75.9 -66.6,-46.3 -107.4,-110.8 -112.4,-177.2 -18.1,-252.3 184.3,-509.1 356.9,-680 86.7,-86 201.2,-133.2 322.3,-133.2 h 47.2 c 56.6,0 102.9,46.1 103.4,102.6 l 3.2,689.1 c 0.2,49.3 -25.4,96.3 -66.9,122.8"
       style="fill:#231f20;fill-opacity:1;fill-rule:nonzero;stroke:#231f20;stroke-width:50;stroke-dasharray:none;stroke-opacity:1"
       transform="matrix(0.13333333,0,0,-0.13333333,0,2133.3333)" />
    <path
       id="path50"
       d="m 27021.6,10749.1 h -0.2 c -73.7,-73.2 -171.1,-113.4 -274.2,-113.4 h -46.9 c -19.2,0 -34.9,15.6 -34.9,34.7 l -3.2,689.1 c -0.3,26 13.2,50.6 34.6,64.3 161.1,102 287.7,134.6 383.7,134.6 91.2,0 154.9,-29.4 194.6,-56.8 49.5,-34.4 80,-80.5 83.2,-126.1 17.4,-238.2 -203.7,-494.8 -336.7,-626.4 z m 405.1,631.4 c -5,66.4 -46,130.9 -112.9,177.2 -95.1,65.9 -306.3,143.7 -653.5,-75.9 -41.5,-26.5 -66.8,-73.3 -66.6,-122.8 l 3.2,-689.1 c 0.3,-56.5 46.8,-102.6 103.4,-102.6 h 46.9 c 60.7,0 119.6,11.9 174.3,34.5 54.8,22.3 104.9,55.6 148.3,98.5 172.9,171.1 375,427.9 356.9,680.2"
       style="fill:#231f20;fill-opacity:1;fill-rule:nonzero;stroke:#231f20;stroke-width:50;stroke-dasharray:none;stroke-opacity:1"
       transform="matrix(0.13333333,0,0,-0.13333333,0,2133.3333)" />
    <path
       id="path51"
       d="m 27971,10592.9 -643.7,-691.19 c -10,2.74 -20.8,4.79 -31,7.3 -6.9,1.6 -13.5,3.2 -20.3,4.56 -21.5,4.56 -43.1,8.44 -65.5,11.64 -42.4,6.15 -84.8,11.86 -127.3,17.1 -6.1,0.69 -12.3,1.37 -18.2,2.06 -37,4.56 -73.7,8.89 -110.6,12.77 -2.8,0.23 -5.3,0.46 -8,0.68 -211.2,22.13 -424.1,34.9 -636.2,38.33 -9.6,0 -19.2,0 -28.7,0.22 -27.6,0.23 -55.5,0.69 -83.3,0.69 h -21.2 c -352.4,-1.14 -669.2,-36.04 -948.9,-66.84 l -42.7,-4.79 c -21.6,-2.5 -43.1,-5.7 -63.8,-9.58 -6.9,-1.14 -13.5,-2.73 -20.1,-4.1 -10.3,-2.05 -20.5,-3.88 -30.3,-6.39 l -636.7,687.54 c -647.1,804 -153.7,1367.6 -132.5,1391.1 l 1.6,1.9 c 464.7,591.9 1220.8,324.8 1441.6,228.7 25.1,-10.7 53.6,-10 78,2.3 24.4,12.1 42.2,34.5 48.6,61.2 l 86.7,361 h -366.4 v 482.9 h 372.8 v 396 h 475.5 v -396 h 372.8 v -482.9 h -366.4 l 86.7,-361 c 6.4,-26.7 24.2,-49.1 48.6,-61.2 24.4,-12.3 52.9,-13 78,-2.3 220.8,96.1 977,363.2 1441.6,-228.7 l 1.6,-1.9 c 21.2,-23.5 514.6,-587.1 -132.3,-1391.1 z m -174,-1326.67 v -217.61 c 0,-35.81 -29,-64.78 -64.8,-64.78 h -3069.3 c -35.8,0 -64.8,28.97 -64.8,64.78 v 217.61 c 0,273.03 180.4,490.64 470.8,567.96 39,10.5 80.7,18.25 124.1,23.27 l 42.6,4.56 c 277.9,30.8 592.9,65.47 941.6,66.61 h 21 c 334.9,0 672,-23.95 1002.7,-70.94 44.7,-6.62 87.6,-15.74 128,-27.37 293.1,-84.17 468.1,-295.16 468.1,-564.09 z m 358.1,2762.77 c -495,629.3 -1290.4,349.4 -1522.4,248.6 -8.9,-3.9 -16.4,-1.4 -20,0.5 -3.7,1.8 -10.3,6.3 -12.6,15.9 l -66.6,276.7 h 348.1 v 619.7 h -372.7 v 396 h -612.5 v -396 h -372.7 v -619.7 h 348.1 l -66.6,-276.7 c -2.3,-9.6 -8.9,-14.1 -12.6,-15.9 -3.6,-1.9 -11.1,-4.4 -20,-0.5 -232.2,100.8 -1027.4,380.7 -1522.4,-248.6 -26.9,-31.3 -539.9,-646.2 131.7,-1479.9 l 615.8,-664.95 c -290.1,-97.4 -468,-329.61 -468,-617.92 v -217.61 c 0,-73.45 59.7,-133.21 133.2,-133.21 h 3069.3 c 73.4,0 133.2,59.76 133.2,133.21 v 217.61 c 0,284.67 -172.9,510.48 -465.6,612.9 l 622.1,668.07 1.6,1.9 c 671.5,833.7 158.5,1448.8 131.6,1479.9"
       style="fill:#231f20;fill-opacity:1;fill-rule:nonzero;stroke:#231f20;stroke-width:50;stroke-dasharray:none;stroke-opacity:1"
       transform="matrix(0.13333333,0,0,-0.13333333,0,2133.3333)" />
    <path
       id="path52"
       d="m 27797,9266.23 v -217.61 c 0,-35.81 -29,-64.78 -64.8,-64.78 h -3069.3 c -35.8,0 -64.8,28.97 -64.8,64.78 v 217.61 c 0,273.03 180.4,490.64 470.8,567.96 39,10.5 80.7,18.25 124.1,23.27 l 42.6,4.56 c 277.9,30.8 592.9,65.47 941.6,66.61 h 21 c 334.9,0 672,-23.95 1002.7,-70.94 44.7,-6.62 87.6,-15.74 128,-27.37 293.1,-84.17 468.1,-295.16 468.1,-564.09"
       style="fill:#565352;fill-opacity:1;fill-rule:nonzero;stroke:none"
       transform="matrix(0.13333333,0,0,-0.13333333,0,2133.3333)" />
    <path
       id="path53"
       d="m 27069.8,10700.3 c -43.4,-42.9 -93.5,-76.2 -148.3,-98.5 -54.7,-22.6 -113.6,-34.5 -174.3,-34.5 h -46.9 c -56.6,0 -103.1,46.1 -103.4,102.6 l -3.2,689.1 c -0.2,49.5 25.1,96.3 66.6,122.8 347.2,219.6 558.4,141.8 653.5,75.9 66.9,-46.3 107.9,-110.8 112.9,-177.2 18.1,-252.3 -184,-509.1 -356.9,-680.2 z m -1269.6,-30.4 c -0.5,-56.5 -46.8,-102.6 -103.4,-102.6 h -47.2 c -121.1,0 -235.6,47.2 -322.3,133.2 -172.6,170.9 -375,427.7 -356.9,680 5,66.4 45.8,130.9 112.4,177.2 95.3,65.9 307,143.7 653.7,-75.9 41.5,-26.5 67.1,-73.5 66.9,-122.8 z m 2303.1,1314.1 -1.6,1.9 c -464.6,591.9 -1220.8,324.8 -1441.6,228.7 -25.1,-10.7 -53.6,-10 -78,2.3 -24.4,12.1 -42.2,34.5 -48.6,61.2 l -86.7,361 h 366.4 v 482.9 h -372.8 v 396 h -475.5 v -396 h -372.8 v -482.9 h 366.4 l -86.7,-361 c -6.4,-26.7 -24.2,-49.1 -48.6,-61.2 -24.4,-12.3 -52.9,-13 -78,-2.3 -220.8,96.1 -976.9,363.2 -1441.6,-228.7 l -1.6,-1.9 c -21.2,-23.5 -514.6,-587.1 132.5,-1391.1 l 636.7,-687.54 c 9.8,2.51 20,4.34 30.3,6.39 6.6,1.37 13.2,2.96 20.1,4.1 20.7,3.88 42.2,7.08 63.8,9.58 l 42.7,4.79 c 279.7,30.8 596.5,65.7 948.9,66.84 h 21.2 c 27.8,0 55.7,-0.46 83.3,-0.69 9.5,-0.22 19.1,-0.22 28.7,-0.22 212.1,-3.43 425,-16.2 636.2,-38.33 2.7,-0.22 5.2,-0.45 8,-0.68 36.9,-3.88 73.6,-8.21 110.6,-12.77 5.9,-0.69 12.1,-1.37 18.2,-2.06 42.5,-5.24 84.9,-10.95 127.3,-17.1 22.4,-3.2 44,-7.08 65.5,-11.64 6.8,-1.36 13.4,-2.96 20.3,-4.56 10.2,-2.51 21,-4.56 31,-7.3 l 643.7,691.19 c 646.9,804 153.5,1367.6 132.3,1391.1"
       style="fill:#565352;fill-opacity:1;fill-rule:nonzero;stroke:none"
       transform="matrix(0.13333333,0,0,-0.13333333,0,2133.3333)" />
    <path
       id="path54"
       d="m 25088.1,12358.4 c -70.5,-18.8 -523.4,-147.9 -757.1,-613.5 -215.2,-428.5 -88.9,-832.2 -63.3,-908.9 0,0 -305.6,454.7 -87.3,949.3 0,0 252.5,586.4 907.7,573.1"
       style="fill:#888685;fill-opacity:1;fill-rule:nonzero;stroke:none"
       transform="matrix(0.13333333,0,0,-0.13333333,0,2133.3333)" />
    <path
       id="path55"
       d="m 25592.1,12639.1 39.2,49.3 v 384.4 h 369.8 v 390.2 h 400.2 l 39.1,55 h -475.5 v -396 h -372.8 v -482.9"
       style="fill:#888685;fill-opacity:1;fill-rule:nonzero;stroke:none"
       transform="matrix(0.13333333,0,0,-0.13333333,0,2133.3333)" />
    <path
       id="path56"
       d="m 26440.4,13122 -30.3,-56.5 h 403.1 v 56.5 h -372.8"
       style="fill:#888685;fill-opacity:1;fill-rule:nonzero;stroke:none"
       transform="matrix(0.13333333,0,0,-0.13333333,0,2133.3333)" />
    <path
       id="path57"
       d="m 28000.8,12097 c 0,0 401,-484.2 61.3,-1080 -142.1,-249.3 -347.6,-497.3 -570.7,-683.4 -239.4,-199.5 -480.6,-382.73 -480.6,-382.73 l 316.5,-49.16 570.2,612.19 c 0,0 376.6,393.4 402.3,816.9 26.3,431.6 -194.9,680.2 -299,766.2"
       style="fill:#454242;fill-opacity:1;fill-rule:nonzero;stroke:none"
       transform="matrix(0.13333333,0,0,-0.13333333,0,2133.3333)" />
    <path
       id="path58"
       d="m 27733.5,9526.72 c -445.7,124.31 -1356.5,117.24 -2141.4,107.66 -562,-7.07 -842.8,-134.12 -980.3,-241.56 47,212.59 213.3,376.37 457.1,441.37 39,10.5 80.7,18.25 124.1,23.27 l 42.6,4.56 c 277.9,30.8 592.9,65.47 941.6,66.61 h 21 c 334.9,0 672,-23.95 1002.7,-70.94 44.7,-6.62 87.6,-15.74 128,-27.37 189.3,-54.29 329.4,-161.73 404.6,-303.6"
       style="fill:#888685;fill-opacity:1;fill-rule:nonzero;stroke:none"
       transform="matrix(0.13333333,0,0,-0.13333333,0,2133.3333)" />
  </g>
</svg>
