<?xml version="1.0" encoding="UTF-8" standalone="no"?>
<!-- Created with Inkscape (http://www.inkscape.org/) -->

<svg
   version="1.1"
   id="svg1"
   width="700"
   height="700"
   viewBox="0 0 700 700.00001"
   sodipodi:docname="king_white.svg"
   inkscape:version="1.4 (86a8ad7, 2024-10-11)"
   xmlns:inkscape="http://www.inkscape.org/namespaces/inkscape"
   xmlns:sodipodi="http://sodipodi.sourceforge.net/DTD/sodipodi-0.dtd"
   xmlns="http://www.w3.org/2000/svg"
   xmlns:svg="http://www.w3.org/2000/svg">
  <sodipodi:namedview
     id="namedview1"
     pagecolor="#ffffff"
     bordercolor="#000000"
     borderopacity="0.25"
     inkscape:showpageshadow="2"
     inkscape:pageopacity="0.0"
     inkscape:pagecheckerboard="0"
     inkscape:deskcolor="#d1d1d1"
     inkscape:zoom="1.6671429"
     inkscape:cx="331.1054"
     inkscape:cy="380.59126"
     inkscape:window-width="2560"
     inkscape:window-height="1369"
     inkscape:window-x="1912"
     inkscape:window-y="-8"
     inkscape:window-maximized="1"
     inkscape:current-layer="svg1" />
  <defs
     id="defs1" />
  <g
     id="layer2"
     transform="translate(-1325.2806,-592.37634)"
     style="display:inline">
    <path
       id="path93"
       d="m 1612.4576,1021.4388 c -0.027,2.56 -2.1067,4.6266 -4.6533,4.6266 h -6.2934 c -13.7466,0 -26.7066,-5.3599 -36.5333,-15.1199 -17.76,-17.5467 -47.2267,-51.76003 -44.92,-83.5067 0.4267,-6.09333 4.4667,-12.22666 11.0667,-16.82666 5.2933,-3.65334 13.8133,-7.57334 25.9733,-7.57334 12.8133,0 29.6933,4.34667 51.1333,17.94667 2.88,1.82667 4.68,5.10667 4.6534,8.57333 z m 0.64,-108.17333 c -46.2267,-29.29333 -74.4533,-18.92 -87.1733,-10.13333 -8.88,6.17333 -14.32,14.78666 -14.9867,23.62666 -2.4,33.64 24.5733,67.89333 47.6,90.6667 11.5467,11.4666 26.8133,17.7599 42.9733,17.7599 h 6.2934 c 7.5466,0 13.72,-6.1466 13.7733,-13.6799 l 0.4267,-91.88003 c 0.027,-6.57333 -3.3734,-12.84 -8.9067,-16.36"
       style="fill:#231f20;fill-opacity:1;fill-rule:nonzero;stroke:#231f20;stroke-width:6.66667;stroke-dasharray:none;stroke-opacity:1" />
    <path
       id="path94"
       d="m 1784.4443,1010.9455 h -0.027 c -9.8267,9.76 -22.8133,15.1199 -36.56,15.1199 h -6.2667 c -2.56,0 -4.6533,-2.0666 -4.6533,-4.6266 l -0.4267,-91.88 c -0.027,-3.46666 1.76,-6.74666 4.6267,-8.57333 21.4667,-13.6 38.3467,-17.94667 51.1467,-17.94667 12.1733,0 20.6533,3.92 25.9466,7.57334 6.6,4.6 10.68,10.73333 11.1067,16.82666 2.3067,31.74667 -27.16,65.96 -44.8933,83.5067 z m 54.0133,-84.1867 c -0.6667,-8.84 -6.1467,-17.45333 -15.0533,-23.62666 -12.68,-8.78667 -40.8534,-19.16 -87.1334,10.13333 -5.5333,3.52 -8.92,9.76 -8.88,16.36 l 0.4267,91.88003 c 0.027,7.5333 6.2267,13.6799 13.7733,13.6799 h 6.2667 c 8.0933,0 15.9333,-1.5733 23.2267,-4.5866 7.3066,-2.9867 14,-7.4267 19.7733,-13.1467 23.0533,-22.79997 50,-57.0533 47.6,-90.6933"
       style="fill:#231f20;fill-opacity:1;fill-rule:nonzero;stroke:#231f20;stroke-width:6.66667;stroke-dasharray:none;stroke-opacity:1" />
    <path
       id="path95"
       d="m 1911.0176,1031.7854 -85.8267,92.1467 c -1.3333,-0.36 -2.76,-0.64 -4.1333,-0.9733 -0.9067,-0.2134 -1.7867,-0.4267 -2.7067,-0.6134 -2.8533,-0.6 -5.7466,-1.12 -8.7333,-1.5466 -5.6533,-0.8134 -11.3067,-1.5734 -16.96,-2.28 -0.8267,-0.093 -1.64,-0.1867 -2.44,-0.2667 -4.92,-0.6133 -9.8267,-1.1867 -14.7467,-1.7067 -0.36,-0.027 -0.7066,-0.067 -1.0666,-0.093 -28.16,-2.9467 -56.5334,-4.6533 -84.8267,-5.1067 -1.2667,0 -2.5467,0 -3.8267,-0.04 -3.68,-0.027 -7.3866,-0.08 -11.1066,-0.08 h -2.8267 c -46.9867,0.1467 -89.2267,4.8 -126.52,8.9067 l -5.68,0.64 c -2.8933,0.3333 -5.7467,0.76 -8.52,1.28 -0.9067,0.1467 -1.7867,0.36 -2.68,0.5467 -1.36,0.2666 -2.7333,0.5066 -4.04,0.8533 l -84.88,-91.6667 c -86.28,-107.21326 -20.5067,-182.35993 -17.6667,-185.49326 l 0.2134,-0.24 c 61.9466,-78.92667 162.76,-43.30667 192.2,-30.50667 3.3466,1.42667 7.1466,1.33334 10.4,-0.30666 3.2666,-1.61334 5.6266,-4.58667 6.48,-8.14667 l 11.56,-48.148 h -48.84 v -64.38533 h 49.6933 v -52.79733 h 63.4133 v 52.79733 h 49.6934 v 64.38533 h -48.84 l 11.56,48.148 c 0.84,3.56 3.2133,6.53333 6.4666,8.14667 3.2534,1.64 7.0667,1.73333 10.4,0.30666 29.44,-12.8 130.2667,-48.42 192.2134,30.50667 l 0.2133,0.24 c 2.8267,3.13333 68.6133,78.28 -17.64,185.49326 z m -23.2,176.88 v 29.0134 c 0,4.7733 -3.8667,8.64 -8.64,8.64 h -409.24 c -4.7733,0 -8.64,-3.8667 -8.64,-8.64 v -29.0134 c 0,-36.4 24.0667,-65.4266 62.7733,-75.7333 5.2,-1.4 10.7734,-2.4267 16.5467,-3.0933 l 5.6933,-0.6134 c 37.04,-4.1066 79.04,-8.7333 125.5467,-8.88 h 2.7867 c 44.6533,0 89.6,3.1867 133.7066,9.4534 5.96,0.88 11.68,2.1066 17.0534,3.6533 39.08,11.2267 62.4133,39.36 62.4133,75.2133 z m 47.7467,-368.35993 c -66,-83.916 -172.04,-46.6 -202.9734,-33.16 -1.1866,0.52 -2.2,0.18667 -2.68,-0.0533 -0.48,-0.25333 -1.3733,-0.85333 -1.6666,-2.13333 l -8.88,-36.89067 h 46.4 v -82.63333 h -49.6934 v -52.79733 h -81.6533 v 52.79733 h -49.6933 v 82.63333 h 46.4 l -8.88,36.89067 c -0.3067,1.28 -1.1867,1.88 -1.6667,2.13333 -0.4933,0.24 -1.4933,0.57333 -2.68,0.0533 -30.96,-13.44 -136.9733,-50.756 -202.9733,33.16 -3.5867,4.16 -71.9867,86.16 17.5466,197.31993 l 82.12,88.6534 c -38.6933,12.9866 -62.4133,43.9466 -62.4133,82.3866 v 29.0134 c 0,9.7866 7.9733,17.76 17.76,17.76 h 409.24 c 9.8,0 17.76,-7.9734 17.76,-17.76 v -29.0134 c 0,-37.96 -23.0533,-68.0666 -62.0667,-81.72 l 82.9334,-89.08 0.2133,-0.24 c 89.5333,-111.15993 21.1333,-193.18659 17.5467,-197.31993"
       style="fill:#231f20;fill-opacity:1;fill-rule:nonzero;stroke:#231f20;stroke-width:6.66667;stroke-dasharray:none;stroke-opacity:1" />
    <path
       id="path96"
       d="m 1887.8176,1208.6654 v 29.0134 c 0,4.7733 -3.8667,8.64 -8.64,8.64 h -409.24 c -4.7733,0 -8.64,-3.8667 -8.64,-8.64 v -29.0134 c 0,-36.4 24.0667,-65.4266 62.7733,-75.7333 5.2,-1.4 10.7734,-2.4267 16.5467,-3.0933 l 5.6933,-0.6134 c 37.04,-4.1066 79.04,-8.7333 125.5467,-8.88 h 2.7867 c 44.6533,0 89.6,3.1867 133.7066,9.4534 5.96,0.88 11.68,2.1066 17.0534,3.6533 39.08,11.2267 62.4133,39.36 62.4133,75.2133"
       style="fill:#f8f8f8;fill-opacity:1;fill-rule:nonzero;stroke:none;stroke-width:0.133333" />
    <path
       id="path97"
       d="m 1790.8576,1017.4521 c -5.7733,5.72 -12.4667,10.16 -19.7733,13.1467 -7.2934,3.0133 -15.1334,4.5866 -23.2267,4.5866 h -6.2667 c -7.5466,0 -13.7466,-6.1466 -13.7733,-13.6799 l -0.4267,-91.88003 c -0.04,-6.6 3.3467,-12.84 8.88,-16.36 46.28,-29.29333 74.4534,-18.92 87.1334,-10.13333 8.9066,6.17333 14.3866,14.78666 15.0533,23.62666 2.4,33.64 -24.5467,67.89333 -47.6,90.6933 z m -169.28,4.0534 c -0.053,7.5333 -6.2267,13.6799 -13.7733,13.6799 h -6.2934 c -16.16,0 -31.4266,-6.2933 -42.9733,-17.7599 -23.0267,-22.77337 -50,-57.0267 -47.6,-90.6667 0.6667,-8.84 6.1067,-17.45333 14.9867,-23.62666 12.72,-8.78667 40.9466,-19.16 87.1733,10.13333 5.5333,3.52 8.9333,9.78667 8.9067,16.36 z m 307.08,-175.21336 -0.2133,-0.24 c -61.9467,-78.92667 -162.7734,-43.30667 -192.2134,-30.50667 -3.3333,1.42667 -7.1466,1.33334 -10.4,-0.30666 -3.2533,-1.61334 -5.6266,-4.58667 -6.4666,-8.14667 l -11.56,-48.148 h 48.84 v -64.38533 h -49.6934 v -52.79733 h -63.4133 v 52.79733 h -49.6933 v 64.38533 h 48.84 l -11.56,48.148 c -0.8534,3.56 -3.2134,6.53333 -6.48,8.14667 -3.2534,1.64 -7.0534,1.73333 -10.4,0.30666 -29.44,-12.8 -130.2534,-48.42 -192.2,30.50667 l -0.2134,0.24 c -2.84,3.13333 -68.6133,78.28 17.6667,185.49326 l 84.88,91.6667 c 1.3067,-0.3467 2.68,-0.5867 4.04,-0.8533 0.8933,-0.1867 1.7733,-0.4 2.68,-0.5467 2.7733,-0.52 5.6267,-0.9467 8.52,-1.28 l 5.68,-0.64 c 37.2933,-4.1067 79.5333,-8.76 126.52,-8.9067 h 2.8267 c 3.72,0 7.4266,0.053 11.1066,0.08 1.28,0.04 2.56,0.04 3.8267,0.04 28.2933,0.4534 56.6667,2.16 84.8267,5.1067 0.36,0.027 0.7066,0.067 1.0666,0.093 4.92,0.52 9.8267,1.0934 14.7467,1.7067 0.8,0.08 1.6133,0.1733 2.44,0.2667 5.6533,0.7066 11.3067,1.4666 16.96,2.28 2.9867,0.4266 5.88,0.9466 8.7333,1.5466 0.92,0.1867 1.8,0.4 2.7067,0.6134 1.3733,0.3333 2.8,0.6133 4.1333,0.9733 l 85.8267,-92.1467 c 86.2533,-107.21326 20.4667,-182.35993 17.64,-185.49326"
       style="fill:#f8f8f8;fill-opacity:1;fill-rule:nonzero;stroke:none;stroke-width:0.133333" />
    <path
       id="path98"
       d="m 1915.0043,831.22547 c 0,0 53.4666,64.57333 8.16,144.01333 -18.9467,33.2267 -46.3467,66.2933 -76.0934,91.1066 -31.9066,26.6134 -64.08,51.0267 -64.08,51.0267 l 42.2,6.56 76.0267,-81.6267 c 0,0 50.2133,-52.45327 53.6533,-108.91993 3.4934,-57.54667 -26,-90.69333 -39.8666,-102.16"
       style="fill:#d3d3d3;fill-opacity:1;fill-rule:nonzero;stroke:none;stroke-width:0.133333" />
    <path
       id="path99"
       d="m 1879.3643,1173.9321 c -59.4267,-16.5733 -180.8667,-15.6267 -285.52,-14.36 -74.9467,0.9467 -112.3734,17.8933 -130.72,32.2133 6.2666,-28.3466 28.44,-50.1866 60.9466,-58.8533 5.2,-1.4 10.7734,-2.4267 16.5467,-3.0933 l 5.6933,-0.6134 c 37.04,-4.1066 79.04,-8.7333 125.5467,-8.88 h 2.7867 c 44.6533,0 89.6,3.1867 133.7066,9.4534 5.96,0.88 11.68,2.1066 17.0534,3.6533 25.2533,7.24 43.92,21.56 53.96,40.48"
       style="fill:#ffffff;fill-opacity:1;fill-rule:nonzero;stroke:none;stroke-width:0.133333" />
  </g>
</svg>
