<?xml version="1.0" encoding="UTF-8" standalone="no"?>
<!-- Created with Inkscape (http://www.inkscape.org/) -->

<svg
   version="1.1"
   id="svg1"
   width="700"
   height="700"
   viewBox="0 0 700 700.00001"
   sodipodi:docname="king_black.svg"
   inkscape:version="1.4 (86a8ad7, 2024-10-11)"
   xmlns:inkscape="http://www.inkscape.org/namespaces/inkscape"
   xmlns:sodipodi="http://sodipodi.sourceforge.net/DTD/sodipodi-0.dtd"
   xmlns="http://www.w3.org/2000/svg"
   xmlns:svg="http://www.w3.org/2000/svg">
  <sodipodi:namedview
     id="namedview1"
     pagecolor="#ffffff"
     bordercolor="#000000"
     borderopacity="0.25"
     inkscape:showpageshadow="2"
     inkscape:pageopacity="0.0"
     inkscape:pagecheckerboard="0"
     inkscape:deskcolor="#d1d1d1"
     inkscape:zoom="1.6671429"
     inkscape:cx="350.29991"
     inkscape:cy="350"
     inkscape:window-width="2560"
     inkscape:window-height="1369"
     inkscape:window-x="1912"
     inkscape:window-y="-8"
     inkscape:window-maximized="1"
     inkscape:current-layer="svg1" />
  <defs
     id="defs1" />
  <g
     id="layer8"
     transform="translate(-1345.3021,271.15697)"
     style="display:inline">
    <path
       id="path49"
       d="m 1632.4709,157.90549 c -0.027,2.54667 -2.0933,4.62667 -4.6533,4.62667 h -6.2933 c -13.7467,0 -26.6934,-5.36 -36.52,-15.12 -17.76,-17.54667 -47.24,-51.760006 -44.92,-83.520005 0.4266,-6.08 4.4666,-12.226666 11.0666,-16.813333 5.2934,-3.653333 13.8134,-7.573333 25.9734,-7.573333 12.8,0 29.68,4.346666 51.12,17.946666 2.8933,1.826667 4.6933,5.106667 4.6533,8.573333 z m 0.64,-108.186668 c -46.2266,-29.279999 -74.4533,-18.906666 -87.16,-10.12 -8.88,6.173333 -14.32,14.773333 -14.9866,23.626666 -2.4134,33.639999 24.5733,67.880002 47.5866,90.666672 11.56,11.46666 26.8267,17.76 42.9734,17.76 h 6.2933 c 7.5467,0 13.72,-6.14667 13.7867,-13.68 l 0.4266,-91.880005 c 0.027,-6.573333 -3.3866,-12.84 -8.92,-16.373333"
       style="fill:#231f20;fill-opacity:1;fill-rule:nonzero;stroke:#231f20;stroke-width:6.66667;stroke-dasharray:none;stroke-opacity:1" />
    <path
       id="path50"
       d="m 1804.4576,147.41216 h -0.027 c -9.8266,9.76 -22.8133,15.12 -36.56,15.12 h -6.2533 c -2.56,0 -4.6533,-2.08 -4.6533,-4.62667 l -0.4267,-91.880002 c -0.04,-3.466666 1.76,-6.746666 4.6133,-8.573333 21.48,-13.6 38.36,-17.946666 51.16,-17.946666 12.16,0 20.6534,3.92 25.9467,7.573333 6.6,4.586667 10.6667,10.733333 11.0933,16.813333 2.32,31.759999 -27.16,65.973335 -44.8933,83.520005 z m 54.0133,-84.186672 c -0.6666,-8.853333 -6.1333,-17.453333 -15.0533,-23.626666 -12.68,-8.786666 -40.84,-19.159999 -87.1333,10.12 -5.5334,3.533333 -8.9067,9.773333 -8.88,16.373333 l 0.4266,91.880005 c 0.04,7.53333 6.24,13.68 13.7867,13.68 h 6.2533 c 8.0934,0 15.9467,-1.58667 23.24,-4.6 7.3067,-2.97334 13.9867,-7.41334 19.7734,-13.13334 23.0533,-22.81333 50,-57.053333 47.5866,-90.693332"
       style="fill:#231f20;fill-opacity:1;fill-rule:nonzero;stroke:#231f20;stroke-width:6.66667;stroke-dasharray:none;stroke-opacity:1" />
    <path
       id="path51"
       d="m 1931.0443,168.23882 -85.8267,92.15867 c -1.3333,-0.36534 -2.7733,-0.63867 -4.1333,-0.97334 -0.92,-0.21333 -1.8,-0.42666 -2.7067,-0.608 -2.8667,-0.608 -5.7467,-1.12533 -8.7333,-1.552 -5.6534,-0.82 -11.3067,-1.58133 -16.9734,-2.28 -0.8133,-0.092 -1.64,-0.18266 -2.4266,-0.27466 -4.9334,-0.608 -9.8267,-1.18534 -14.7467,-1.70267 -0.3733,-0.0307 -0.7067,-0.0613 -1.0667,-0.0907 -28.16,-2.95066 -56.5466,-4.65333 -84.8266,-5.11066 -1.28,0 -2.56,0 -3.8267,-0.0293 -3.68,-0.0307 -7.4,-0.092 -11.1067,-0.092 h -2.8266 c -46.9867,0.152 -89.2267,4.80534 -126.52,8.912 l -5.6934,0.63867 c -2.88,0.33333 -5.7466,0.76 -8.5066,1.27733 -0.92,0.152 -1.8,0.364 -2.68,0.54667 -1.3734,0.27333 -2.7334,0.51733 -4.04,0.852 l -84.8934,-91.672 c -86.28,-107.199998 -20.4933,-182.346663 -17.6666,-185.479996 l 0.2133,-0.253334 c 61.96,-78.919993 162.7733,-43.306665 192.2133,-30.493332 3.3467,1.426666 7.1467,1.333333 10.4,-0.306667 3.2534,-1.613333 5.6267,-4.6 6.48,-8.16 l 11.56,-48.133331 h -48.8533 v -64.38666 h 49.7067 v -52.8 h 63.4 v 52.8 h 49.7066 v 64.38666 h -48.8533 l 11.56,48.133331 c 0.8533,3.56 3.2267,6.546667 6.48,8.16 3.2533,1.64 7.0533,1.733333 10.4,0.306667 29.44,-12.813333 130.2667,-48.426661 192.2133,30.493332 l 0.2134,0.253334 c 2.8266,3.133333 68.6133,78.279998 -17.64,185.479996 z m -23.2,176.88933 v 29.01467 c 0,4.77466 -3.8667,8.63733 -8.64,8.63733 h -409.24 c -4.7734,0 -8.64,-3.86267 -8.64,-8.63733 v -29.01467 c 0,-36.404 24.0533,-65.41866 62.7733,-75.728 5.2,-1.4 10.76,-2.43333 16.5467,-3.10266 l 5.68,-0.608 c 37.0533,-4.10667 79.0533,-8.72934 125.5466,-8.88134 h 2.8 c 44.6534,0 89.6,3.19334 133.6934,9.45867 5.96,0.88267 11.68,2.09867 17.0666,3.64933 39.08,11.22267 62.4134,39.35467 62.4134,75.212 z m 47.7466,-368.369326 c -66,-83.906664 -172.0533,-46.586666 -202.9866,-33.146666 -1.1867,0.52 -2.1867,0.186667 -2.6667,-0.06667 -0.4933,-0.24 -1.3733,-0.84 -1.68,-2.12 l -8.88,-36.893331 h 46.4133 V -178.0945 h -49.6933 v -52.8 h -81.6667 v 52.8 h -49.6933 v 82.626657 h 46.4133 l -8.88,36.893331 c -0.3066,1.28 -1.1866,1.88 -1.68,2.12 -0.48,0.253334 -1.48,0.586667 -2.6666,0.06667 -30.96,-13.44 -136.9867,-50.759998 -202.9867,33.146666 -3.5867,4.173333 -71.9867,86.159998 17.56,197.319996 l 82.1067,88.66 c -38.68,12.98667 -62.4,43.948 -62.4,82.38933 v 29.01467 c 0,9.79333 7.96,17.76133 17.76,17.76133 h 409.24 c 9.7866,0 17.76,-7.968 17.76,-17.76133 v -29.01467 c 0,-37.956 -23.0534,-68.064 -62.08,-81.72 l 82.9466,-89.07599 0.2134,-0.25334 c 89.5333,-111.159998 21.1333,-193.17333 17.5466,-197.319996"
       style="fill:#231f20;fill-opacity:1;fill-rule:nonzero;stroke:#231f20;stroke-width:6.66667;stroke-dasharray:none;stroke-opacity:1" />
    <path
       id="path52"
       d="m 1907.8443,345.12815 v 29.01467 c 0,4.77466 -3.8667,8.63733 -8.64,8.63733 h -409.24 c -4.7734,0 -8.64,-3.86267 -8.64,-8.63733 v -29.01467 c 0,-36.404 24.0533,-65.41866 62.7733,-75.728 5.2,-1.4 10.76,-2.43333 16.5467,-3.10266 l 5.68,-0.608 c 37.0533,-4.10667 79.0533,-8.72934 125.5466,-8.88134 h 2.8 c 44.6534,0 89.6,3.19334 133.6934,9.45867 5.96,0.88267 11.68,2.09867 17.0666,3.64933 39.08,11.22267 62.4134,39.35467 62.4134,75.212"
       style="fill:#565352;fill-opacity:1;fill-rule:nonzero;stroke:none;stroke-width:0.133333" />
    <path
       id="path53"
       d="m 1810.8843,153.91882 c -5.7867,5.72 -12.4667,10.16 -19.7734,13.13334 -7.2933,3.01333 -15.1466,4.6 -23.24,4.6 h -6.2533 c -7.5467,0 -13.7467,-6.14667 -13.7867,-13.68 l -0.4266,-91.880005 c -0.027,-6.6 3.3466,-12.84 8.88,-16.373333 46.2933,-29.279999 74.4533,-18.906666 87.1333,-10.12 8.92,6.173333 14.3867,14.773333 15.0533,23.626666 2.4134,33.639999 -24.5333,67.880002 -47.5866,90.693332 z m -169.28,4.05334 c -0.067,7.53333 -6.24,13.68 -13.7867,13.68 h -6.2933 c -16.1467,0 -31.4134,-6.29334 -42.9734,-17.76 -23.0133,-22.78667 -50,-57.026673 -47.5866,-90.666672 0.6666,-8.853333 6.1066,-17.453333 14.9866,-23.626666 12.7067,-8.786666 40.9334,-19.159999 87.16,10.12 5.5334,3.533333 8.9467,9.8 8.92,16.373333 z m 307.08,-175.213336 -0.2134,-0.253334 c -61.9466,-78.919993 -162.7733,-43.306665 -192.2133,-30.493332 -3.3467,1.426666 -7.1467,1.333333 -10.4,-0.306667 -3.2533,-1.613333 -5.6267,-4.6 -6.48,-8.16 l -11.56,-48.133331 h 48.8533 v -64.38666 h -49.7066 v -52.8 h -63.4 v 52.8 h -49.7067 v 64.38666 h 48.8533 l -11.56,48.133331 c -0.8533,3.56 -3.2266,6.546667 -6.48,8.16 -3.2533,1.64 -7.0533,1.733333 -10.4,0.306667 -29.44,-12.813333 -130.2533,-48.426661 -192.2133,30.493332 l -0.2133,0.253334 c -2.8267,3.133333 -68.6134,78.279998 17.6666,185.479996 l 84.8934,91.672 c 1.3066,-0.33467 2.6666,-0.57867 4.04,-0.852 0.88,-0.18267 1.76,-0.39467 2.68,-0.54667 2.76,-0.51733 5.6266,-0.944 8.5066,-1.27733 l 5.6934,-0.63867 c 37.2933,-4.10666 79.5333,-8.76 126.52,-8.912 h 2.8266 c 3.7067,0 7.4267,0.0613 11.1067,0.092 1.2667,0.0293 2.5467,0.0293 3.8267,0.0293 28.28,0.45733 56.6666,2.16 84.8266,5.11066 0.36,0.0293 0.6934,0.06 1.0667,0.0907 4.92,0.51733 9.8133,1.09467 14.7467,1.70267 0.7866,0.092 1.6133,0.18266 2.4266,0.27466 5.6667,0.69867 11.32,1.46 16.9734,2.28 2.9866,0.42667 5.8666,0.944 8.7333,1.552 0.9067,0.18134 1.7867,0.39467 2.7067,0.608 1.36,0.33467 2.8,0.608 4.1333,0.97334 l 85.8267,-92.15867 c 86.2533,-107.199998 20.4666,-182.346663 17.64,-185.479996"
       style="fill:#565352;fill-opacity:1;fill-rule:nonzero;stroke:none;stroke-width:0.133333" />
    <path
       id="path54"
       d="m 1546.6576,-67.161175 c -9.4,2.506666 -69.7867,19.719999 -100.9467,81.799998 -28.6933,57.133332 -11.8533,110.959997 -8.44,121.186667 0,0 -40.7466,-60.626669 -11.64,-126.5733339 0,0 33.6667,-78.1866641 121.0267,-76.4133311"
       style="fill:#888685;fill-opacity:1;fill-rule:nonzero;stroke:none;stroke-width:0.133333" />
    <path
       id="path55"
       d="m 1613.8576,-104.58784 5.2267,-6.57333 v -51.25333 h 49.3066 v -52.02667 h 53.36 l 5.2134,-7.33333 h -63.4 v 52.8 h -49.7067 v 64.38666"
       style="fill:#888685;fill-opacity:1;fill-rule:nonzero;stroke:none;stroke-width:0.133333" />
    <path
       id="path56"
       d="m 1726.9643,-168.9745 -4.04,7.53333 h 53.7466 v -7.53333 h -49.7066"
       style="fill:#888685;fill-opacity:1;fill-rule:nonzero;stroke:none;stroke-width:0.133333" />
    <path
       id="path57"
       d="m 1935.0176,-32.307843 c 0,0 53.4667,64.559999 8.1733,144.000003 -18.9466,33.24 -46.3466,66.30666 -76.0933,91.11999 -31.92,26.6 -64.08,51.03067 -64.08,51.03067 l 42.2,6.55467 76.0267,-81.62533 c 0,0 50.2133,-52.45334 53.64,-108.920005 3.5066,-57.546665 -25.9867,-90.693331 -39.8667,-102.159998"
       style="fill:#454242;fill-opacity:1;fill-rule:nonzero;stroke:none;stroke-width:0.133333" />
    <path
       id="path58"
       d="m 1899.3776,310.39615 c -59.4267,-16.57466 -180.8667,-15.632 -285.52,-14.35466 -74.9333,0.94266 -112.3733,17.88266 -130.7067,32.20799 6.2667,-28.34533 28.44,-50.18266 60.9467,-58.84933 5.2,-1.4 10.76,-2.43333 16.5467,-3.10266 l 5.68,-0.608 c 37.0533,-4.10667 79.0533,-8.72934 125.5466,-8.88134 h 2.8 c 44.6534,0 89.6,3.19334 133.6934,9.45867 5.96,0.88267 11.68,2.09867 17.0666,3.64933 25.24,7.23867 43.92,21.564 53.9467,40.48"
       style="fill:#888685;fill-opacity:1;fill-rule:nonzero;stroke:none;stroke-width:0.133333" />
  </g>
</svg>
