<?xml version="1.0" encoding="UTF-8" standalone="no"?>
<!-- Created with Inkscape (http://www.inkscape.org/) -->

<svg
   version="1.1"
   id="svg1"
   width="700"
   height="700"
   viewBox="0 0 700 700.00001"
   xmlns="http://www.w3.org/2000/svg"
   xmlns:svg="http://www.w3.org/2000/svg">
  <defs
     id="defs1" />
  <g
     id="layer2"
     transform="translate(-1325.2806,-592.37634)"
     style="display:inline">
    <path
       id="path93"
       d="m 1612.4576,1021.4388 c -0.027,2.56 -2.1067,4.6266 -4.6533,4.6266 h -6.2934 c -13.7466,0 -26.7066,-5.3599 -36.5333,-15.1199 -17.76,-17.5467 -47.2267,-51.76003 -44.92,-83.5067 0.4267,-6.09333 4.4667,-12.22666 11.0667,-16.82666 5.2933,-3.65334 13.8133,-7.57334 25.9733,-7.57334 12.8133,0 29.6933,4.34667 51.1333,17.94667 2.88,1.82667 4.68,5.10667 4.6534,8.57333 z m 0.64,-108.17333 c -46.2267,-29.29333 -74.4533,-18.92 -87.1733,-10.13333 -8.88,6.17333 -14.32,14.78666 -14.9867,23.62666 -2.4,33.64 24.5733,67.89333 47.6,90.6667 11.5467,11.4666 26.8133,17.7599 42.9733,17.7599 h 6.2934 c 7.5466,0 13.72,-6.1466 13.7733,-13.6799 l 0.4267,-91.88003 c 0.027,-6.57333 -3.3734,-12.84 -8.9067,-16.36"
       style="fill:#231f20;fill-opacity:1;fill-rule:nonzero;stroke:#231f20;stroke-width:6.66667;stroke-dasharray:none;stroke-opacity:1" />
    <path
       id="path94"
       d="m 1784.4443,1010.9455 h -0.027 c -9.8267,9.76 -22.8133,15.1199 -36.56,15.1199 h -6.2667 c -2.56,0 -4.6533,-2.0666 -4.6533,-4.6266 l -0.4267,-91.88 c -0.027,-3.46666 1.76,-6.74666 4.6267,-8.57333 21.4667,-13.6 38.3467,-17.94667 51.1467,-17.94667 12.1733,0 20.6533,3.92 25.9466,7.57334 6.6,4.6 10.68,10.73333 11.1067,16.82666 2.3067,31.74667 -27.16,65.96 -44.8933,83.5067 z m 54.0133,-84.1867 c -0.6667,-8.84 -6.1467,-17.45333 -15.0533,-23.62666 -12.68,-8.78667 -40.8534,-19.16 -87.1334,10.13333 -5.5333,3.52 -8.92,9.76 -8.88,16.36 l 0.4267,91.88003 c 0.027,7.5333 6.2267,13.6799 13.7733,13.6799 h 6.2667 c 8.0933,0 15.9333,-1.5733 23.2267,-4.5866 7.3066,-2.9867 14,-7.4267 19.7733,-13.1467 23.0533,-22.79997 50,-57.0533 47.6,-90.6933"
       style="fill:#231f20;fill-opacity:1;fill-rule:nonzero;stroke:#231f20;stroke-width:6.66667;stroke-dasharray:none;stroke-opacity:1" />
    <path
       id="path95"
       d="m 1911.0176,1031.7854 -85.8267,92.1467 c -1.3333,-0.36 -2.76,-0.64 -4.1333,-0.9733 -0.9067,-0.2134 -1.7867,-0.4267 -2.7067,-0.6134 -2.8533,-0.6 -5.7466,-1.12 -8.7333,-1.5466 -5.6533,-0.8134 -11.3067,-1.5734 -16.96,-2.28 -0.8267,-0.093 -1.64,-0.1867 -2.44,-0.2667 -4.92,-0.6133 -9.8267,-1.1867 -14.7467,-1.7067 -0.36,-0.027 -0.7066,-0.067 -1.0666,-0.093 -28.16,-2.9467 -56.5334,-4.6533 -84.8267,-5.1067 -1.2667,0 -2.5467,0 -3.8267,-0.04 -3.68,-0.027 -7.3866,-0.08 -11.1066,-0.08 h -2.8267 c -46.9867,0.1467 -89.2267,4.8 -126.52,8.9067 l -5.68,0.64 c -2.8933,0.3333 -5.7467,0.76 -8.52,1.28 -0.9067,0.1467 -1.7867,0.36 -2.68,0.5467 -1.36,0.2666 -2.7333,0.5066 -4.04,0.8533 l -84.88,-91.6667 c -86.28,-107.21326 -20.5067,-182.35993 -17.6667,-185.49326 l 0.2134,-0.24 c 61.9466,-78.92667 162.76,-43.30667 192.2,-30.50667 3.3466,1.42667 7.1466,1.33334 10.4,-0.30666 3.2666,-1.61334 5.6266,-4.58667 6.48,-8.14667 l 11.56,-48.148 h -48.84 v -64.38533 h 49.6933 v -52.79733 h 63.4133 v 52.79733 h 49.6934 v 64.38533 h -48.84 l 11.56,48.148 c 0.84,3.56 3.2133,6.53333 6.4666,8.14667 3.2534,1.64 7.0667,1.73333 10.4,0.30666 29.44,-12.8 130.2667,-48.42 192.2134,30.50667 l 0.2133,0.24 c 2.8267,3.13333 68.6133,78.28 -17.64,185.49326 z m -23.2,176.88 v 29.0134 c 0,4.7733 -3.8667,8.64 -8.64,8.64 h -409.24 c -4.7733,0 -8.64,-3.8667 -8.64,-8.64 v -29.0134 c 0,-36.4 24.0667,-65.4266 62.7733,-75.7333 5.2,-1.4 10.7734,-2.4267 16.5467,-3.0933 l 5.6933,-0.6134 c 37.04,-4.1066 79.04,-8.7333 125.5467,-8.88 h 2.7867 c 44.6533,0 89.6,3.1867 133.7066,9.4534 5.96,0.88 11.68,2.1066 17.0534,3.6533 39.08,11.2267 62.4133,39.36 62.4133,75.2133 z m 47.7467,-368.35993 c -66,-83.916 -172.04,-46.6 -202.9734,-33.16 -1.1866,0.52 -2.2,0.18667 -2.68,-0.0533 -0.48,-0.25333 -1.3733,-0.85333 -1.6666,-2.13333 l -8.88,-36.89067 h 46.4 v -82.63333 h -49.6934 v -52.79733 h -81.6533 v 52.79733 h -49.6933 v 82.63333 h 46.4 l -8.88,36.89067 c -0.3067,1.28 -1.1867,1.88 -1.6667,2.13333 -0.4933,0.24 -1.4933,0.57333 -2.68,0.0533 -30.96,-13.44 -136.9733,-50.756 -202.9733,33.16 -3.5867,4.16 -71.9867,86.16 17.5466,197.31993 l 82.12,88.6534 c -38.6933,12.9866 -62.4133,43.9466 -62.4133,82.3866 v 29.0134 c 0,9.7866 7.9733,17.76 17.76,17.76 h 409.24 c 9.8,0 17.76,-7.9734 17.76,-17.76 v -29.0134 c 0,-37.96 -23.0533,-68.0666 -62.0667,-81.72 l 82.9334,-89.08 0.2133,-0.24 c 89.5333,-111.15993 21.1333,-193.18659 17.5467,-197.31993"
       style="fill:#231f20;fill-opacity:1;fill-rule:nonzero;stroke:#231f20;stroke-width:6.66667;stroke-dasharray:none;stroke-opacity:1" />
    <path
       id="path96"
       d="m 1887.8176,1208.6654 v 29.0134 c 0,4.7733 -3.8667,8.64 -8.64,8.64 h -409.24 c -4.7733,0 -8.64,-3.8667 -8.64,-8.64 v -29.0134 c 0,-36.4 24.0667,-65.4266 62.7733,-75.7333 5.2,-1.4 10.7734,-2.4267 16.5467,-3.0933 l 5.6933,-0.6134 c 37.04,-4.1066 79.04,-8.7333 125.5467,-8.88 h 2.7867 c 44.6533,0 89.6,3.1867 133.7066,9.4534 5.96,0.88 11.68,2.1066 17.0534,3.6533 39.08,11.2267 62.4133,39.36 62.4133,75.2133"
       style="fill:#f8f8f8;fill-opacity:1;fill-rule:nonzero;stroke:none;stroke-width:0.133333" />
    <path
       id="path97"
       d="m 1790.8576,1017.4521 c -5.7733,5.72 -12.4667,10.16 -19.7733,13.1467 -7.2934,3.0133 -15.1334,4.5866 -23.2267,4.5866 h -6.2667 c -7.5466,0 -13.7466,-6.1466 -13.7733,-13.6799 l -0.4267,-91.88003 c -0.04,-6.6 3.3467,-12.84 8.88,-16.36 46.28,-29.29333 74.4534,-18.92 87.1334,-10.13333 8.9066,6.17333 14.3866,14.78666 15.0533,23.62666 2.4,33.64 -24.5467,67.89333 -47.6,90.6933 z m -169.28,4.0534 c -0.053,7.5333 -6.2267,13.6799 -13.7733,13.6799 h -6.2934 c -16.16,0 -31.4266,-6.2933 -42.9733,-17.7599 -23.0267,-22.77337 -50,-57.0267 -47.6,-90.6667 0.6667,-8.84 6.1067,-17.45333 14.9867,-23.62666 12.72,-8.78667 40.9466,-19.16 87.1733,10.13333 5.5333,3.52 8.9333,9.78667 8.9067,16.36 z m 307.08,-175.21336 -0.2133,-0.24 c -61.9467,-78.92667 -162.7734,-43.30667 -192.2134,-30.50667 -3.3333,1.42667 -7.1466,1.33334 -10.4,-0.30666 -3.2533,-1.61334 -5.6266,-4.58667 -6.4666,-8.14667 l -11.56,-48.148 h 48.84 v -64.38533 h -49.6934 v -52.79733 h -63.4133 v 52.79733 h -49.6933 v 64.38533 h 48.84 l -11.56,48.148 c -0.8534,3.56 -3.2134,6.53333 -6.48,8.14667 -3.2534,1.64 -7.0534,1.73333 -10.4,0.30666 -29.44,-12.8 -130.2534,-48.42 -192.2,30.50667 l -0.2134,0.24 c -2.84,3.13333 -68.6133,78.28 17.6667,185.49326 l 84.88,91.6667 c 1.3067,-0.3467 2.68,-0.5867 4.04,-0.8533 0.8933,-0.1867 1.7733,-0.4 2.68,-0.5467 2.7733,-0.52 5.6267,-0.9467 8.52,-1.28 l 5.68,-0.64 c 37.2933,-4.1067 79.5333,-8.76 126.52,-8.9067 h 2.8267 c 3.72,0 7.4266,0.053 11.1066,0.08 1.28,0.04 2.56,0.04 3.8267,0.04 28.2933,0.4534 56.6667,2.16 84.8267,5.1067 0.36,0.027 0.7066,0.067 1.0666,0.093 4.92,0.52 9.8267,1.0934 14.7467,1.7067 0.8,0.08 1.6133,0.1733 2.44,0.2667 5.6533,0.7066 11.3067,1.4666 16.96,2.28 2.9867,0.4266 5.88,0.9466 8.7333,1.5466 0.92,0.1867 1.8,0.4 2.7067,0.6134 1.3733,0.3333 2.8,0.6133 4.1333,0.9733 l 85.8267,-92.1467 c 86.2533,-107.21326 20.4667,-182.35993 17.64,-185.49326"
       style="fill:#f8f8f8;fill-opacity:1;fill-rule:nonzero;stroke:none;stroke-width:0.133333" />
    <path
       id="path98"
       d="m 1915.0043,831.22547 c 0,0 53.4666,64.57333 8.16,144.01333 -18.9467,33.2267 -46.3467,66.2933 -76.0934,91.1066 -31.9066,26.6134 -64.08,51.0267 -64.08,51.0267 l 42.2,6.56 76.0267,-81.6267 c 0,0 50.2133,-52.45327 53.6533,-108.91993 3.4934,-57.54667 -26,-90.69333 -39.8666,-102.16"
       style="fill:#d3d3d3;fill-opacity:1;fill-rule:nonzero;stroke:none;stroke-width:0.133333" />
    <path
       id="path99"
       d="m 1879.3643,1173.9321 c -59.4267,-16.5733 -180.8667,-15.6267 -285.52,-14.36 -74.9467,0.9467 -112.3734,17.8933 -130.72,32.2133 6.2666,-28.3466 28.44,-50.1866 60.9466,-58.8533 5.2,-1.4 10.7734,-2.4267 16.5467,-3.0933 l 5.6933,-0.6134 c 37.04,-4.1066 79.04,-8.7333 125.5467,-8.88 h 2.7867 c 44.6533,0 89.6,3.1867 133.7066,9.4534 5.96,0.88 11.68,2.1066 17.0534,3.6533 25.2533,7.24 43.92,21.56 53.96,40.48"
       style="fill:#ffffff;fill-opacity:1;fill-rule:nonzero;stroke:none;stroke-width:0.133333" />
  </g>
  <g
     id="layer3"
     transform="translate(189.97933,-595.12634)"
     style="display:none">
    <path
       id="path87"
       d="m 371.29766,1240.5321 c 0,2.2 -1.8,3.9867 -3.98667,3.9867 H -47.34233 c -2.186666,0 -3.986666,-1.7867 -3.986666,-3.9867 v -26.0933 c 0,-48.56 39.506666,-88.0667 88.079998,-88.0667 l 0.426666,-0.04 c 38.919999,-3.64 78.520002,-5.5867 117.626662,-5.7467 42.58667,-0.1466 85.61333,1.76 127.98667,5.7467 l 0.42666,0.04 c 48.57334,0 88.08,39.5067 88.08,88.0667 z M 2.7776689,905.3188 2.9910019,904.34547 C 11.137669,833.87881 100.37767,753.56147 118.191,738.17214 l 0.58667,-4.684 c -8.18667,-9.276 -12.72,-21.228 -12.72,-33.60666 0,-28.01067 22.78666,-50.82 50.78666,-50.82 28.01334,0 50.82667,22.80933 50.82667,50.82 0,20.89333 -13.10667,39.96266 -32.64,47.41466 l -1.64,1.216 c -41.29333,65.75333 -43.52,207.56666 -43.61333,213.56666 l -0.0533,4.70667 69.33333,-0.36 -0.0533,-4.50667 c -1.28,-111.21333 28.06667,-172.62666 37.77333,-189.25866 103.92,113.92533 94.33334,171.232 94.21334,171.73866 l -0.0933,0.52 v 0.54667 c 2.29334,87.62663 -38.96,147.02663 -59.17333,170.74663 -38.81333,-3.2933 -78.08,-4.8667 -116.94666,-4.7467 -34.36,0.1467 -69.066667,1.7334 -103.399999,4.56 C -34.208997,1017.7055 2.3776689,906.41214 2.7776689,905.3188 Z M 283.431,1117.2388 c -0.21334,-0.027 -0.45334,-0.027 -0.66667,-0.053 21.92,-27.32 59.33333,-86.6266 57.26667,-171.5066 1.12,-6.90666 6.98666,-67.42666 -100.61334,-183.60266 l -3.77333,-4.07467 -3.28,4.50134 c -1.76,2.46266 -43.09333,62.656 -42.52,195.00266 l -50.81333,-0.0267 c 0.76,-25.24 6.17333,-144.75999 41.12,-202.45866 21.98667,-9.276 36.64,-31.14267 36.64,-55.13866 0,-33.05867 -26.88,-59.944 -59.94667,-59.944 -33.02666,0 -59.906663,26.88533 -59.906663,59.944 0,12.59066 3.986663,24.75599 11.253333,34.88399 -29.346666,25.94267 -106.0266641,99.60667 -114.1999971,168.1 -2.653334,8.33333 -34.5199989,116.41336 46.1866651,214.06666 -1.213333,0.1333 -2.426666,0.1867 -3.64,0.3067 -53.506665,0.12 -96.986659,43.68 -96.986659,97.2 v 26.0933 c 0,7.24 5.866662,13.1067 13.106661,13.1067 h 414.65332 c 7.24,0 13.10667,-5.8667 13.10667,-13.1067 v -26.0933 c 0,-53.52 -43.49333,-97.08 -96.98666,-97.2"
       style="fill:#231f20;fill-opacity:1;fill-rule:nonzero;stroke:#231f20;stroke-width:6.66667;stroke-dasharray:none;stroke-opacity:1" />
    <path
       id="path88"
       d="m 371.29766,1214.4388 v 26.0933 c 0,2.2 -1.8,3.9867 -3.98667,3.9867 H -47.34233 c -2.186666,0 -3.986666,-1.7867 -3.986666,-3.9867 v -26.0933 c 0,-48.56 39.506666,-88.0667 88.079998,-88.0667 l 0.426666,-0.04 c 38.919999,-3.64 78.520002,-5.5867 117.626662,-5.7467 42.58667,-0.1466 85.61333,1.76 127.98667,5.7467 l 0.42666,0.04 c 48.57334,0 88.08,39.5067 88.08,88.0667"
       style="fill:#f8f8f8;fill-opacity:1;fill-rule:nonzero;stroke:none;stroke-width:0.133333" />
    <path
       id="path89"
       d="m 330.89766,944.9188 v 0.54667 c 2.29334,87.62663 -38.96,147.02663 -59.17333,170.74663 -38.81333,-3.2933 -78.08,-4.8667 -116.94666,-4.7467 -34.36,0.1467 -69.06667,1.7334 -103.400002,4.56 C -34.208997,1017.7055 2.3776689,906.41214 2.7776689,905.3188 l 0.213333,-0.97333 C 11.137669,833.87881 100.37767,753.56147 118.191,738.17214 l 0.58667,-4.684 c -8.18667,-9.276 -12.72,-21.228 -12.72,-33.60666 0,-28.01067 22.78666,-50.82 50.78666,-50.82 28.01334,0 50.82667,22.80933 50.82667,50.82 0,20.89333 -13.10667,39.96266 -32.64,47.41466 l -1.64,1.216 c -41.29333,65.75333 -43.52,207.56666 -43.61333,213.56666 l -0.0533,4.70667 69.33333,-0.36 -0.0533,-4.50667 c -1.28,-111.21333 28.06667,-172.62666 37.77333,-189.25866 103.92,113.92533 94.33334,171.232 94.21334,171.73866 l -0.0933,0.52"
       style="fill:#f8f8f8;fill-opacity:1;fill-rule:nonzero;stroke:none;stroke-width:0.133333" />
    <path
       id="path90"
       d="m 284.871,831.90547 c 5.84,10.2 43.69333,78.96 15.4,161.44 -28.52,83.13333 -101.54667,114.06663 -112.34667,118.42663 l 83.8,4.44 c 0,0 30.61333,-34.3333 45.86667,-81.7067 13.64,-42.3866 17.85333,-98.13326 8.84,-122.87993 -9.98667,-27.44 -16.2,-43.36 -41.56,-79.72"
       style="fill:#d3d3d3;fill-opacity:1;fill-rule:nonzero;stroke:none;stroke-width:0.133333" />
    <path
       id="path91"
       d="m 361.92433,1174.9988 c -8.09334,-3.1067 -17,-6.24 -26.45333,-9.52 -38.08,-13.1734 -213.53333,-8.5467 -303.626665,-5.44 -37.4933321,1.2666 -62.093332,12.28 -77.999998,24.6533 12.226666,-33.96 44.7599989,-58.32 82.906665,-58.32 l 0.426666,-0.04 c 38.919999,-3.64 78.520002,-5.5867 117.626662,-5.7467 42.58667,-0.1466 85.61333,1.76 127.98667,5.7467 l 0.42666,0.04 c 34.4,0 64.26667,19.8267 78.70667,48.6267"
       style="fill:#ffffff;fill-opacity:1;fill-rule:nonzero;stroke:none;stroke-width:0.133333" />
    <path
       id="path92"
       d="m 178.24433,653.80414 c 0,0 28.53334,27.552 11.76,58.968 -16.78666,31.41733 -53.45333,44.72133 -67.42666,97.52 -13.97334,52.8 -7.64,72.34666 7.14666,156.49333 l 4.25334,-69.56 c 0,0 8.26666,-69.65333 19.16,-102.26666 11.72,-30.68267 18.61333,-46.048 23.05333,-48.13334 5.98667,-1.76266 17.45333,-9.20933 23.25333,-19.384 6.09334,-9.816 9.76,-20.48399 8.02667,-31.97733 -2.06667,-13.752 -6.30667,-29.96666 -29.22667,-41.66"
       style="fill:#d3d3d3;fill-opacity:1;fill-rule:nonzero;stroke:none;stroke-width:0.133333" />
  </g>
  <g
     id="layer4"
     transform="translate(947.51674,-598.62088)"
     style="display:none">
    <path
       id="path79"
       d="m -353.23565,1233.5454 c 0,6.1734 -5.02667,11.1867 -11.2,11.1867 h -401.69599 c -6.17334,0 -11.192,-5.0133 -11.192,-11.1867 v -31.9733 c 0,-34.4267 23.388,-64.1067 56.90266,-72.16 3.58933,-0.7333 130.716,-26.2533 316.81199,1.9067 30.14667,10.2533 50.37334,38.4533 50.37334,70.2533 z m -343.76666,-155.8133 c 16.75733,-27.3333 39.264,-45.68 61.1,-63.44 15.96666,-12.9866 31.052,-25.23997 42.73066,-40.2933 16.51467,-21.22666 15.38933,-44.89333 8.82,-59.97333 -0.48667,-1.16 -0.82133,-1.98667 -1.06533,-2.62667 -1.03334,-2.70666 -1.61067,-3.61333 -4.31734,-5.89333 -1.21733,-0.97333 -2.67733,-1.49333 -4.16666,-1.49333 -1.704,0 -3.40667,0.70666 -4.684,2.01333 -5.01867,5.32 -49.72533,52.09333 -72.26133,57.72 -8.608,2.13333 -15.78534,1.85333 -22.11067,1.58667 -11.496,-0.46667 -21.44133,-0.85334 -30.26133,14.62666 -8.424,14.72 -17.97467,24.6933 -22.90133,29.3467 -1.85467,1.76 -4.25734,2.8533 -6.812,3.1066 -36.40534,3.4667 -61.22267,-13.35997 -76.73334,-26.30663 -17.21333,-14.33333 -11.43466,-32.64 -10.736,-34.61333 1.916,-4.62667 37.07467,-67.45334 52.18934,-76.12 18.096,-10.32 42.36533,-86.77333 44.98133,-99.91333 2.79733,-13.96 26.58133,-34.45867 42.36533,-48.05334 l 1.67333,-1.46 c 9.00134,-7.78533 9.76267,-17.24399 10.52267,-26.45866 0.88133,-10.61467 1.79467,-21.564 13.07733,-34.39867 4.19734,-4.804 10.432,-10.248 16.21067,-9.09333 6.93467,1.4 10.736,11.344 11.13067,12.46933 l 0.33466,0.944 37.68267,38.35067 c 3.92267,3.95333 9.06267,6.41733 14.44533,6.93333 31.02133,3.19333 82.572,21.98933 121.04533,51.73333 49.57333,38.32 79.68,89.29333 92.06667,155.77333 12.73333,68.56 -14.81334,171.3866 -23.02667,199.6 -164.964,-24.48 -283.57466,-7.1467 -310.76399,-2.4 2.46266,-13.56 14.38533,-33.9334 19.464,-41.6667 z m 300.15332,46.32 c 8.45334,-29.1333 36.21334,-133.2933 23.10667,-203.4933 -12.8,-68.82666 -44,-121.58666 -95.404,-161.37199 -39.84133,-30.77734 -93.39866,-50.24267 -125.72799,-53.55733 -3.28534,-0.33467 -6.448,-1.85467 -8.85067,-4.288 l -36.31333,-36.952 c -1.612,-4.01467 -6.99467,-15.20667 -17.51867,-17.336 -8.08933,-1.612 -16.45333,2.40266 -24.908,12.01333 -13.22933,15.08533 -14.38533,28.71067 -15.29733,39.75067 -0.73067,8.63733 -1.21734,14.872 -7.42134,20.22399 l -1.67333,1.46 c -18.67333,16.08934 -41.908,36.13067 -45.31466,53.19334 -3.68,18.37066 -27.55467,86.34399 -40.54134,93.75733 -18.52133,10.58666 -55.47333,78.38666 -56.29466,80.93333 -0.912,2.68 -8.45467,26.46667 13.504,44.70666 16.75733,14.02667 43.612,32.21337 83.42266,28.37337 4.59334,-0.4267 8.94134,-2.4 12.22667,-5.5334 5.292,-4.9866 15.54133,-15.6933 24.54266,-31.47997 6.11334,-10.63999 11.07067,-10.42666 21.98934,-9.99999 6.6,0.28 14.78133,0.61333 24.66533,-1.82667 22.96133,-5.77333 62.68133,-45.68 74.664,-58.17333 0,0.08 0.0307,0.14666 0.0613,0.24 0.304,0.73333 0.66934,1.66666 1.216,2.97333 5.50533,12.69333 6.38667,32.66667 -7.63333,50.73333 -11.07067,14.24 -25.76,26.18667 -41.36267,38.8667 -22.384,18.2133 -45.49733,37.0133 -62.98533,65.5733 -2.12933,3.2266 -19.64667,30.2933 -21.228,48.5733 -35.82666,10.1867 -60.52266,42.6667 -60.52266,80.16 v 31.9733 c 0,11.1867 9.124,20.3067 20.316,20.3067 h 401.69599 c 11.2,0 20.32,-9.12 20.32,-20.3067 v -31.9733 c 0,-34.3867 -21.01334,-64.9867 -52.73334,-77.52"
       style="fill:#231f20;fill-opacity:1;fill-rule:nonzero;stroke:#231f20;stroke-width:6.66667;stroke-dasharray:none;stroke-opacity:1" />
    <path
       id="path80"
       d="m -405.70232,1121.6788 c -164.964,-24.48 -283.57466,-7.1467 -310.76399,-2.4 2.46266,-13.56 14.38533,-33.9467 19.464,-41.6667 16.75733,-27.3333 39.264,-45.68 61.1,-63.44 15.96666,-12.9866 31.052,-25.23997 42.73066,-40.2933 16.51467,-21.22666 15.38933,-44.89333 8.82,-59.97333 -0.48667,-1.16 -0.82133,-1.98667 -1.06533,-2.62667 -1.03334,-2.70666 -1.61067,-3.61333 -4.31734,-5.89333 -1.21733,-0.97333 -2.67733,-1.49333 -4.16666,-1.49333 -1.704,0 -3.40667,0.70666 -4.684,2.01333 -5.01867,5.32 -49.72533,52.09333 -72.26133,57.72 -8.608,2.13333 -15.78534,1.85333 -22.11067,1.58667 -11.496,-0.46667 -21.44133,-0.85334 -30.26133,14.62666 -8.424,14.72 -17.97467,24.6933 -22.90133,29.3467 -1.85467,1.76 -4.25734,2.8533 -6.812,3.1066 -36.40534,3.4667 -61.22267,-13.35997 -76.73334,-26.30663 -17.21333,-14.33333 -11.43466,-32.64 -10.736,-34.61333 1.916,-4.62667 37.07467,-67.46667 52.18934,-76.13334 18.096,-10.30666 42.36533,-86.75999 44.98133,-99.90133 2.79733,-13.96 26.58133,-34.45866 42.36533,-48.05333 l 1.67333,-1.46 c 9.00134,-7.78533 9.76267,-17.244 10.52267,-26.45866 0.88133,-10.61467 1.79467,-21.564 13.07733,-34.39867 4.19734,-4.804 10.432,-10.248 16.21067,-9.09333 6.93467,1.4 10.736,11.344 11.13067,12.46933 l 0.33466,0.944 37.68267,38.35067 c 3.92267,3.95333 9.06267,6.41733 14.44533,6.93333 31.02133,3.19333 82.572,21.98933 121.04533,51.73333 49.57333,38.32133 79.68,89.29466 92.06667,155.77466 12.73333,68.56 -14.81334,171.3866 -23.02667,199.6"
       style="fill:#f8f8f8;fill-opacity:1;fill-rule:nonzero;stroke:none;stroke-width:0.133333" />
    <path
       id="path81"
       d="m -678.64898,791.97214 c 0,0 -11.38933,14.24 -15.01333,31.32 0,0 10.15866,-6.69333 37.01333,-3.36 27.11333,3.36 23.81333,-27.37333 13.97733,-33.90667 -4.43866,-2.94666 -20.18933,-12.168 -35.97733,5.94667"
       style="fill:#231f20;fill-opacity:1;fill-rule:nonzero;stroke:none;stroke-width:6.66667;stroke-dasharray:none;stroke-opacity:1" />
    <path
       id="path82"
       d="m -517.87965,739.37614 c 0,0 101.17733,81.076 83.57733,181.50266 -17.61333,100.4267 -74.55066,150.12 -84.904,169.8 -5.98533,11.36 -2.85333,19.6533 -2.85333,19.6533 0,0 66.784,3.12 116.35733,11.4 0,0 40.12,-109.0266 22,-203.2533 0,0 -8.8,-66.70666 -53.84,-116.41333 0,0 -30.34133,-40.17333 -80.33733,-62.68933"
       style="fill:#d3d3d3;fill-opacity:1;fill-rule:nonzero;stroke:none;stroke-width:0.133333" />
    <path
       id="path83"
       d="m -353.23565,1201.5721 v 31.9733 c 0,6.1734 -5.02667,11.1867 -11.2,11.1867 h -401.69599 c -6.17334,0 -11.192,-5.0133 -11.192,-11.1867 v -31.9733 c 0,-34.4267 23.388,-64.1067 56.90266,-72.16 3.58933,-0.7333 130.716,-26.2533 316.81199,1.9067 30.14667,10.2533 50.37334,38.4533 50.37334,70.2533"
       style="fill:#f8f8f8;fill-opacity:1;fill-rule:nonzero;stroke:none;stroke-width:0.133333" />
    <path
       id="path84"
       d="m -358.86232,1173.1721 c -6.66667,-4.8667 -13.05333,-5.5067 -13.05333,-5.5067 -31.53334,-10.7333 -71.58667,-16.8533 -92.54667,-18.28 -20.98533,-1.4533 -235.30799,-5.56 -280.31866,9.9734 -8.608,2.96 -17.09333,6.3866 -25.21333,9.9866 9.39733,-19.5866 27.22,-34.56 49.57333,-39.9333 3.58933,-0.7333 130.716,-26.2533 316.81199,1.9067 20.68,7.0266 36.70667,22.5466 44.74667,41.8533"
       style="fill:#ffffff;fill-opacity:1;fill-rule:nonzero;stroke:none;stroke-width:0.133333" />
    <path
       id="path85"
       d="m -597.20765,904.93214 c 0,0 28.29867,-30.64 31.92533,-52.90667 3.62667,-22.25333 9.83867,17.6 6.732,31.06667 -3.10533,13.45333 -10.29466,58.88 -27.28933,79.14666 0,0 6.08933,-11.24 5.936,-24.53333 -0.148,-12.73333 -1.956,-19.77333 -8.17067,-30.24 -3.41199,-5.74667 -9.13333,-2.53333 -9.13333,-2.53333"
       style="fill:#d3d3d3;fill-opacity:1;fill-rule:nonzero;stroke:none;stroke-width:0.133333" />
    <path
       id="path86"
       d="m -746.20631,1008.6255 c 0,0 28.14933,-63.09336 36.496,-63.29336 8.348,-0.18667 47.40666,5.58666 62.82133,4.94666 0,0 -14.67733,20.04 -56.452,15.13334 0,0 -11.73333,1.30666 -22.932,19.61333 -10.87333,17.77333 -18.96266,23.01333 -19.93333,23.60003"
       style="fill:#d3d3d3;fill-opacity:1;fill-rule:nonzero;stroke:none;stroke-width:0.133333" />
  </g>
  <g
     id="layer5"
     transform="translate(-572.16065,-603.14101)"
     style="display:none">
    <path
       id="path71"
       d="m 1162.2176,898.66547 -3.5866,2.85333 -88.9334,223.7866 c -0.76,-0.2533 -1.4933,-0.4666 -2.2133,-0.7066 -41.28,-12.44 -94.79999,-14.1734 -146.53332,-14.1734 -55.26666,0 -117.42666,5.72 -143.42666,12.96 l -86.58667,-222.13326 -4.01333,-2.92 c -31.24,-1.73334 -55.69333,-27.65334 -55.69333,-58.97333 0,-32.6 26.52,-59.12534 59.09333,-59.12534 32.6,0 59.12,26.52534 59.12,59.12534 0,11.61333 -3.33334,22.81333 -9.69333,32.38666 l 0.45333,5.62667 64.26666,69.25333 c 1.02667,1.12 2.45334,1.70667 3.92,1.70667 0.64,0 1.28,-0.0933 1.92,-0.33334 2.04,-0.76 3.4,-2.68 3.46667,-4.86666 l 4.10667,-162.32 -2.86667,-4.35067 c -22.50667,-9.032 -37.04,-30.59466 -37.04,-54.86533 0,-32.572 26.52,-59.092 59.09333,-59.092 32.6,0 59.12,26.52 59.12,59.092 0,17.54933 -7.72,34.06267 -21.2,45.34667 l -1.42666,4.896 43.85333,134.91999 c 0.70666,2.21334 2.74666,3.70667 5.08,3.70667 2.32,0 4.38666,-1.46667 5.08,-3.68 l 44.68,-135.524 -1.33334,-4.89733 c -13.08,-11.22133 -20.56,-27.52267 -20.56,-44.768 0,-32.572 26.52,-59.092 59.09329,-59.092 32.6,0 59.12,26.52 59.12,59.092 0,25.304 -16.0933,47.80933 -40,55.96 l -3.0933,4.56267 8.84,156.43999 c 0.1333,2.22667 1.56,4.08 3.6267,4.78667 0.5733,0.21333 1.16,0.29333 1.7333,0.29333 1.52,0 3.0133,-0.66666 4.08,-1.88 l 57.8133,-67.94666 0.52,-5.13334 c -4.7866,-8.66666 -7.3066,-18.56 -7.3066,-28.53333 0,-32.6 26.52,-59.12 59.0933,-59.12 32.6,0 59.12,26.52 59.12,59.12 0,29.29333 -21.8267,54.46667 -50.7867,58.52 z m -8.3333,-126.76533 c -37.6267,0 -68.2133,30.632 -68.2133,68.24533 0,10.46667 2.4266,20.77333 6.9866,30.08 l -49.7466,58.45333 -8.12,-143.73333 c 25.7866,-10.308 42.9066,-35.308 42.9066,-63.34933 0,-37.62 -30.6266,-68.216 -68.24,-68.216 -37.62662,0 -68.22662,30.596 -68.22662,68.216 0,18.856 7.78667,36.76933 21.44,49.63467 l -40.13333,121.76799 -39.36,-121.12933 c 14.10666,-12.92533 22.13333,-31.052 22.13333,-50.27333 0,-37.62 -30.61333,-68.216 -68.24,-68.216 -37.62666,0 -68.21333,30.596 -68.21333,68.216 0,26.94667 15.53333,50.94267 39.84,62.016 l -3.84,150.02666 -55.62667,-59.94666 c 6.12,-10.37334 9.34667,-22.13334 9.34667,-34.33333 0,-37.62667 -30.62666,-68.24934 -68.25333,-68.24934 -37.61333,0 -68.21333,30.62267 -68.21333,68.24934 0,35.15999 26.70666,64.31999 61.30666,67.78666 l 85.4,219.09333 c -30.58666,11.0133 -68.30666,30.6666 -68.30666,73.3866 v 56.6 H 1141.391 v -56.6 c 0,-41.84 -31.6667,-60.5466 -63.0267,-71.4666 l 87.8133,-220.94666 c 32.08,-5.84 55.96,-34.16 55.96,-67.06667 0,-37.61333 -30.6266,-68.24533 -68.2533,-68.24533 z m -22.9067,414.92526 c 0.8534,4.0534 1.28,8.3067 1.28,12.8 v 47.48 H 709.64432 v -47.48 c 0,-29.68 21.16,-50.76 66.62666,-66.32 21.74667,-7.4533 87.98667,-13.7466 144.68,-13.7466 51.02667,0 103.77332,1.6666 143.88002,13.8 40.0266,12.08 61.0133,28.8666 66.1466,53.4666"
       style="fill:#231f20;fill-opacity:1;fill-rule:nonzero;stroke:#231f20;stroke-width:6.66667;stroke-dasharray:none;stroke-opacity:1" />
    <path
       id="path72"
       d="m 1213.0043,840.14547 c 0,29.29333 -21.8267,54.46667 -50.7867,58.52 l -3.5866,2.85333 -88.9334,223.7866 c -0.76,-0.2533 -1.4933,-0.4666 -2.2133,-0.7066 -41.28,-12.44 -94.79999,-14.1734 -146.53332,-14.1734 -55.26666,0 -117.42666,5.72 -143.42666,12.96 l -86.58667,-222.13326 -4.01333,-2.92 c -31.24,-1.73334 -55.69333,-27.65334 -55.69333,-58.97333 0,-32.6 26.52,-59.12534 59.09333,-59.12534 32.6,0 59.12,26.52534 59.12,59.12534 0,11.61333 -3.33334,22.81333 -9.69333,32.38666 l 0.45333,5.62667 64.26666,69.25333 c 1.02667,1.12 2.45334,1.70667 3.92,1.70667 0.64,0 1.28,-0.0933 1.92,-0.33334 2.04,-0.76 3.4,-2.68 3.46667,-4.86666 l 4.10667,-162.32 -2.86667,-4.35067 c -22.50667,-9.032 -37.04,-30.59466 -37.04,-54.86533 0,-32.572 26.52,-59.092 59.09333,-59.092 32.6,0 59.12,26.52 59.12,59.092 0,17.54933 -7.72,34.06267 -21.2,45.34667 l -1.42666,4.896 43.85333,134.91999 c 0.70666,2.21334 2.74666,3.70667 5.08,3.70667 2.32,0 4.38666,-1.46667 5.08,-3.68 l 44.68,-135.524 -1.33334,-4.89733 c -13.08,-11.22133 -20.56,-27.52267 -20.56,-44.768 0,-32.572 26.52,-59.092 59.09329,-59.092 32.6,0 59.12,26.52 59.12,59.092 0,25.304 -16.0933,47.80933 -40,55.96 l -3.0933,4.56267 8.84,156.43999 c 0.1333,2.22667 1.56,4.08 3.6267,4.78667 0.5733,0.21333 1.16,0.29333 1.7333,0.29333 1.52,0 3.0133,-0.66666 4.08,-1.88 l 57.8133,-67.94666 0.52,-5.13334 c -4.7866,-8.66666 -7.3066,-18.56 -7.3066,-28.53333 0,-32.6 26.52,-59.12 59.0933,-59.12 32.6,0 59.12,26.52 59.12,59.12"
       style="fill:#f8f8f8;fill-opacity:1;fill-rule:nonzero;stroke:none;stroke-width:0.133333" />
    <path
       id="path73"
       d="m 1130.9776,1186.8254 c -10.4,-22.1333 -64.8,-26 -150.99995,-29.1066 -86.18667,-3.0934 -178.61333,3.8666 -218.21333,6.2133 -39.6,2.3333 -52.12,35.6933 -52.12,35.6933 0,-29.68 21.16,-50.76 66.62666,-66.32 21.74667,-7.4533 87.98667,-13.7466 144.68,-13.7466 51.02667,0 103.77332,1.6666 143.88002,13.8 40.0266,12.08 61.0133,28.8666 66.1466,53.4666"
       style="fill:#ffffff;fill-opacity:1;fill-rule:nonzero;stroke:none;stroke-width:0.133333" />
    <path
       id="path74"
       d="m 1193.4843,796.27881 c 0,0 15.44,64.37333 -44.24,78.01333 0,0 -6.9867,1.54666 -10.48,11.64 -3.4933,10.09333 -46.9733,92.4 -105.9867,160.73326 -59.01329,68.3334 -99.39995,63.8134 -99.39995,63.8134 0,0 57.14666,-3.24 136.31995,14.8133 l 88.92,-223.78663 c 0,0 2.7867,-2.12 3.6,-2.82667 0.8134,-0.70666 40.88,-2.74666 50.2,-50.2 0,0 6.6534,-26.93333 -18.9333,-52.19999"
       style="fill:#d3d3d3;fill-opacity:1;fill-rule:nonzero;stroke:none;stroke-width:0.133333" />
    <path
       id="path75"
       d="M 1132.2576,1247.1054 H 709.64432 v -47.48 c 0,0 12.52,-33.36 52.12,-35.6933 39.6,-2.3467 132.02666,-9.3067 218.21333,-6.2133 86.19995,3.1066 140.59995,6.9733 150.99995,29.1066 l 1.28,60.28"
       style="fill:#f8f8f8;fill-opacity:1;fill-rule:nonzero;stroke:none;stroke-width:0.133333" />
    <path
       id="path76"
       d="m 726.31099,792.49214 c 0,0 12.16,23.04 -2.06667,46.85333 -13.81333,23.10667 0.52,42.18667 9.32,49.96 8.8,7.76 32.88,16.34667 32.88,16.34667 l -26.24,-28.28 -0.45333,-5.62667 c 0,0 9.95999,-12.2 9.65333,-34.72 -0.32,-22.53333 -15.38667,-39.22666 -23.09333,-44.53333"
       style="fill:#d3d3d3;fill-opacity:1;fill-rule:nonzero;stroke:none;stroke-width:0.133333" />
    <path
       id="path77"
       d="m 879.23098,680.22014 c 0,0 4.13333,40.34533 -17.68,62.212 -28.38666,28.46267 37.46667,107.71333 37.46667,107.71333 l -25.45333,-78.30666 1.42666,-4.896 c 0,0 8.78667,-6.91734 14.96,-18.90667 8.56,-16.608 12.94667,-42.37333 -10.72,-67.816"
       style="fill:#d3d3d3;fill-opacity:1;fill-rule:nonzero;stroke:none;stroke-width:0.133333" />
    <path
       id="path78"
       d="m 1054.6976,683.62148 c 0,0 5.7734,44.68133 -32.0133,58.65866 -37.79999,13.97733 7.6667,125.87866 7.6667,125.87866 l -4.8667,-86.03999 3.0933,-4.56267 c 0,0 22.7334,-6.2 34.8134,-31.80267 12.0933,-25.604 0.04,-50.90399 -8.6934,-62.13199"
       style="fill:#d3d3d3;fill-opacity:1;fill-rule:nonzero;stroke:none;stroke-width:0.133333" />
  </g>
  <g
     id="layer6"
     transform="translate(-2063.7629,-647.69701)"
     style="display:none">
    <path
       id="path66"
       d="m 2606.0043,1245.8654 h -385.0667 c -5.2,-42.76 9.64,-68.9733 18.5867,-84.8133 11.16,-19.6133 25.3066,-30.0267 41.7333,-42.04 14.7733,-10.8533 31.56,-23.1733 48.0133,-44.3733 17.3334,-22.3734 29.72,-48.56 36.84,-77.82667 l -4.44,-5.62666 h -46.7466 c -4.7467,0 -8.8534,-3.21334 -10.0134,-7.81334 l -5.08,-20.37333 c -0.9733,-6.24 2.1067,-12.41333 7.6934,-15.42666 l 46.9066,-25.48 0.76,-7.50667 c -20.6533,-17.42667 -32.48,-42.97333 -32.48,-70.01333 0,-50.58667 41.1467,-91.72933 91.72,-91.72933 50.5734,0 91.7334,41.14266 91.7334,91.72933 0,28.01333 -12.5334,54.10666 -34.4,71.58666 l 0.7866,7.64 43.8267,22.29334 c 6.24,3.16 9.4933,10.37333 7.6933,17.24 l -4.84,19.98666 c -1.0933,4.61333 -5.2266,7.86667 -10,7.86667 h -40.9733 l -4.4933,5.26666 c 4.3466,27.51997 13.84,52.15997 28.1866,73.29327 16.8534,24.8134 36.2934,38.44 53.4134,50.4534 17.3066,12.1333 33.6,23.5733 44.9466,44.6533 8.24,15.3867 21.9334,40.8133 15.6934,81.0133 z m -7.6667,-85.3333 c -12.3467,-22.9867 -29.5333,-35.04 -47.72,-47.8133 -17.3333,-12.1334 -35.2133,-24.6667 -51.12,-48.08 -12.68,-18.68 -21.2933,-40.2933 -25.76,-64.32 h 35.4933 c 9,0 16.7867,-6.12 18.88,-14.88 l 4.8134,-19.88 c 2.8266,-10.89333 -2.4,-22.50666 -12.4134,-27.62666 l -37.7733,-19.21334 c 20.7467,-19.04 32.5467,-45.68 32.5467,-74.14666 0,-55.6 -45.2534,-100.85333 -100.8534,-100.85333 -55.6,0 -100.8533,45.25333 -100.8533,100.85333 0,27.52 11.16,53.61333 30.84,72.56 l -41.24,22.41333 c -9.0667,4.90667 -13.9867,14.97333 -12.32,25.12 l 5.2,20.93333 c 2.16,8.66667 9.92,14.72 18.8667,14.72 h 40.7733 c -6.96,25.6933 -18.24,48.84 -33.6667,68.7333 -15.6266,20.1867 -31.1733,31.6 -46.1866,42.6 -16.52,12.1467 -32.12,23.5733 -44.2534,44.8933 -9.16,16.2134 -26.2133,46.3867 -19.1333,94.56 l 0.5467,3.8934 h 400.6666 l 0.6934,-3.7467 c 8.24,-45.52 -7.5334,-74.9333 -16.0267,-90.72"
       style="fill:#231f20;fill-opacity:1;fill-rule:nonzero;stroke:#231f20;stroke-width:6.66667;stroke-dasharray:none;stroke-opacity:1" />
    <path
       id="path67"
       d="m 2606.0043,1245.8654 h -385.0667 c -5.2,-42.76 9.64,-68.9733 18.5867,-84.8133 11.16,-19.6133 25.3066,-30.0267 41.7333,-42.04 14.7733,-10.8533 31.56,-23.1733 48.0133,-44.3733 17.3334,-22.3734 29.72,-48.56 36.84,-77.82667 l -4.44,-5.62666 h -46.7466 c -4.7467,0 -8.8534,-3.21334 -10.0134,-7.81334 l -5.08,-20.37333 c -0.9733,-6.24 2.1067,-12.41333 7.6934,-15.42666 l 46.9066,-25.48 0.76,-7.50667 c -20.6533,-17.42667 -32.48,-42.97333 -32.48,-70.01333 0,-50.58667 41.1467,-91.72933 91.72,-91.72933 50.5734,0 91.7334,41.14266 91.7334,91.72933 0,28.01333 -12.5334,54.10666 -34.4,71.58666 l 0.7866,7.64 43.8267,22.29334 c 6.24,3.16 9.4933,10.37333 7.6933,17.24 l -4.84,19.98666 c -1.0933,4.61333 -5.2266,7.86667 -10,7.86667 h -40.9733 l -4.4933,5.26666 c 4.3466,27.51997 13.84,52.15997 28.1866,73.29327 16.8534,24.8134 36.2934,38.44 53.4134,50.4534 17.3066,12.1333 33.6,23.5733 44.9466,44.6533 8.24,15.3867 21.9334,40.8133 15.6934,81.0133"
       style="fill:#f8f8f8;fill-opacity:1;fill-rule:nonzero;stroke:none;stroke-width:0.133333" />
    <path
       id="path68"
       d="m 2458.8709,764.34281 c 0,0 87.5734,103.53599 -52.72,152.18933 l 65.6134,-0.37334 c 0,0 35,-26.56 34.3866,-71.58666 0,0 3.36,-50.72 -47.28,-80.22933"
       style="fill:#d3d3d3;fill-opacity:1;fill-rule:nonzero;stroke:none;stroke-width:0.133333" />
    <path
       id="path69"
       d="m 2472.5509,923.78547 c 0,0 41.2534,44.21333 -4.2933,67.4 h 40.9867 c 0,0 7.92,0.77333 10,-7.86667 2.0933,-8.65333 4.8266,-19.98666 4.8266,-19.98666 0.2,-1.04 0.6,-3.41334 0.4,-5.42667 -0.5333,-5.14667 -0.72,-4.45333 -5,-9.70667 -6.6,-4.65333 -21.4266,-10.50666 -46.92,-24.41333"
       style="fill:#d3d3d3;fill-opacity:1;fill-rule:nonzero;stroke:none;stroke-width:0.133333" />
    <path
       id="path70"
       d="m 2361.6709,991.18547 h 106.5867 c 0,0 -1.6667,1.96 -4.4933,5.26666 1.3333,9.50667 2.8266,18.43997 15.8933,51.91997 13.5467,29.1067 26.3467,42.2933 66.7333,72.5467 18.36,13.76 25.12,19.6133 25.12,19.6133 -37.88,-10.04 -91.9066,-29.68 -146.48,-70.1467 -26.12,-19.3733 -46.9866,-39.5333 -63.36,-57.8133 l 4.44,-15.75997 -4.44,-5.62666"
       style="fill:#d3d3d3;fill-opacity:1;fill-rule:nonzero;stroke:none;stroke-width:0.133333" />
  </g>
  <g
     id="layer7"
     transform="translate(1690.7226,-625.63234)"
     style="display:none">
    <path
       id="path59"
       d="m -1123.761,1249.6921 h -433.996 v -38.6533 c 0,-43.3067 35.2187,-78.5334 78.5267,-78.5334 h 276.9426 c 43.3094,0 78.5267,35.2267 78.5267,78.5334 z m -342.908,-357.5733 c 3.2534,0.46667 6.5694,0.70667 9.944,0.70667 h 225.2107 c 4.4093,0 8.6986,-0.42667 12.8946,-1.18667 l 29.592,232.7466 c -4.3186,-0.6666 -8.7586,-1 -13.26,-1 h -276.9426 c -4.5613,0 -9.032,0.3334 -13.3813,1.04 z m -52.2506,-70.63999 -7.056,-69.59067 c -0.8507,-8.424 1.916,-16.84933 7.604,-23.11467 5.656,-6.29466 13.7466,-9.884 22.2013,-9.884 h 38.168 c 6.5093,0 12.2267,4.34934 13.96,10.61467 l 14.964,53.948 29.5613,-1.05333 2.7374,-68.55733 c 0.2133,-5.01867 4.288,-8.94134 9.3066,-8.94134 h 87.4987 c 4.8053,0 8.7893,3.61867 9.2453,8.39334 l 6.9333,69.37199 35.2187,-1 8.1213,-50.58 c 1.1254,-7.08666 7.1467,-12.196 14.2934,-12.196 h 34.0933 c 8.4547,0 16.5453,3.58934 22.232,9.884 5.6573,6.26534 8.4253,14.69067 7.5733,23.11467 l -7.0253,69.124 -0.031,0.46667 c 0,34.30666 -27.8893,62.22666 -62.1946,62.22666 h -225.2107 c -34.3053,0 -62.1946,-27.92 -62.1946,-62.22666 z m 339.3506,304.89329 -30.1387,-236.98663 c 28.6187,-9.21333 49.4214,-36.04 49.512,-67.66666 l 6.9947,-68.91867 c 1.1253,-10.97867 -2.4627,-21.95867 -9.884,-30.16933 -7.3907,-8.18134 -17.944,-12.86533 -28.984,-12.86533 h -34.0933 c -11.648,0 -21.4707,8.36399 -23.296,19.85999 l -6.9347,43.156 -19.16,0.548 -6.0827,-60.94799 c -0.9426,-9.45867 -8.8506,-16.60534 -18.3386,-16.60534 h -87.4987 c -9.9453,0 -18.036,7.78534 -18.4306,17.7 l -2.4027,60.12667 -13.8987,0.48666 -13.048,-47.01866 c -2.828,-10.188 -12.1653,-17.30533 -22.7493,-17.30533 h -38.168 c -11.0093,0 -21.5933,4.68399 -28.984,12.86533 -7.3907,8.21066 -11.0093,19.19066 -9.884,30.16933 l 6.9947,68.91867 c 0.092,32.69333 22.2933,60.25333 52.4026,68.54666 l -26.3693,236.13333 c -37.316,10.0666 -64.8707,44.1866 -64.8707,84.64 v 47.7733 h 452.244 v -47.7733 c 0,-40.48 -27.584,-74.64 -64.932,-84.6667"
       style="fill:#231f20;fill-opacity:1;fill-rule:nonzero;stroke:#231f20;stroke-width:6.66667;stroke-dasharray:none;stroke-opacity:1" />
    <path
       id="path60"
       d="m -1123.761,1211.0388 v 38.6533 h -433.996 v -38.6533 c 0,-43.3067 35.2187,-78.5334 78.5267,-78.5334 h 276.9426 c 43.3094,0 78.5267,35.2267 78.5267,78.5334"
       style="fill:#f8f8f8;fill-opacity:1;fill-rule:nonzero;stroke:none;stroke-width:0.133333" />
    <path
       id="path61"
       d="m -1189.0277,1124.3854 c -4.3186,-0.6666 -8.7586,-1 -13.26,-1 h -276.9426 c -4.5613,0 -9.032,0.3334 -13.3813,1.04 l 25.9426,-232.3066 c 3.2534,0.46667 6.5694,0.70667 9.944,0.70667 h 225.2107 c 4.4093,0 8.6986,-0.42667 12.8946,-1.18667 l 29.592,232.7466"
       style="fill:#f8f8f8;fill-opacity:1;fill-rule:nonzero;stroke:none;stroke-width:0.133333" />
    <path
       id="path62"
       d="m -1162.2637,751.88814 -7.0253,69.124 -0.031,0.46667 c 0,34.30666 -27.8893,62.22666 -62.1946,62.22666 h -225.2107 c -34.3053,0 -62.1946,-27.92 -62.1946,-62.22666 l -7.056,-69.59067 c -0.8507,-8.424 1.916,-16.84933 7.604,-23.11467 5.656,-6.29466 13.7466,-9.884 22.2013,-9.884 h 38.168 c 6.5093,0 12.2267,4.34934 13.96,10.61467 l 14.964,53.948 29.5613,-1.05333 2.7374,-68.55733 c 0.2133,-5.01867 4.288,-8.94134 9.3066,-8.94134 h 87.4987 c 4.8053,0 8.7893,3.61867 9.2453,8.39334 l 6.9333,69.37199 35.2187,-1 8.1213,-50.58 c 1.1254,-7.08666 7.1467,-12.196 14.2934,-12.196 h 34.0933 c 8.4547,0 16.5453,3.58934 22.232,9.884 5.6573,6.26534 8.4253,14.69067 7.5733,23.11467"
       style="fill:#f8f8f8;fill-opacity:1;fill-rule:nonzero;stroke:none;stroke-width:0.133333" />
    <path
       id="path63"
       d="m -1413.497,893.1588 c 0,0 147.808,12.34667 160.5227,120 11.2,94.8266 16.4946,110.2266 16.4946,110.2266 l 47.452,1 -29.592,-232.7466 -11.4186,1.18667 c -0.6654,0.0667 -1.3347,0.0933 -2.004,0.0933 l -181.4547,0.24"
       style="fill:#d3d3d3;fill-opacity:1;fill-rule:nonzero;stroke:none;stroke-width:0.133333" />
    <path
       id="path64"
       d="m -1206.7237,859.73214 c -15.108,11.49333 -33.0426,17.85333 -33.0426,17.85333 -10.184,3.61333 -19.2067,5.29333 -25.9227,6.12 0,0 50.084,3.29333 61.2867,-6.24 30.4506,-10.02667 35.6893,-44.56 38.1066,-77.72 1.624,-22.29733 4.1054,-48.76 4.1054,-48.76 -3.156,52.93334 -23.9787,93.12 -44.5334,108.74667"
       style="fill:#d3d3d3;fill-opacity:1;fill-rule:nonzero;stroke:none;stroke-width:0.133333" />
    <path
       id="path65"
       d="m -1124.0343,1202.3721 c -4.2574,-39.3333 -37.652,-70.0133 -78.0707,-70.0133 h -138.6533 -138.6547 c -40.4186,0 -73.812,30.68 -78.0706,70.0133 -0.304,2.8 -0.1214,5.2533 2.0986,-2.92 2.7374,-10.04 9.1854,-18.4667 17.1534,-24.88 13.168,-10.64 29.6826,-16.1867 46.5933,-16.6667 28.8307,-0.8266 89.1707,-2.3066 150.88,-2.6133 61.708,0.3067 122.048,1.7867 150.88,2.6133 16.9093,0.48 33.424,6.0267 46.592,16.6667 7.9693,6.4133 14.416,14.84 17.1533,24.88 2.22,8.1733 2.4027,5.72 2.0987,2.92"
       style="fill:#ffffff;fill-opacity:1;fill-rule:nonzero;stroke:none;stroke-width:0.133333" />
  </g>
  <g
     id="layer8"
     transform="translate(-1345.3021,271.15697)"
     style="display:none">
    <path
       id="path49"
       d="m 1632.4709,157.90549 c -0.027,2.54667 -2.0933,4.62667 -4.6533,4.62667 h -6.2933 c -13.7467,0 -26.6934,-5.36 -36.52,-15.12 -17.76,-17.54667 -47.24,-51.760006 -44.92,-83.520005 0.4266,-6.08 4.4666,-12.226666 11.0666,-16.813333 5.2934,-3.653333 13.8134,-7.573333 25.9734,-7.573333 12.8,0 29.68,4.346666 51.12,17.946666 2.8933,1.826667 4.6933,5.106667 4.6533,8.573333 z m 0.64,-108.186668 c -46.2266,-29.279999 -74.4533,-18.906666 -87.16,-10.12 -8.88,6.173333 -14.32,14.773333 -14.9866,23.626666 -2.4134,33.639999 24.5733,67.880002 47.5866,90.666672 11.56,11.46666 26.8267,17.76 42.9734,17.76 h 6.2933 c 7.5467,0 13.72,-6.14667 13.7867,-13.68 l 0.4266,-91.880005 c 0.027,-6.573333 -3.3866,-12.84 -8.92,-16.373333"
       style="fill:#231f20;fill-opacity:1;fill-rule:nonzero;stroke:#231f20;stroke-width:6.66667;stroke-dasharray:none;stroke-opacity:1" />
    <path
       id="path50"
       d="m 1804.4576,147.41216 h -0.027 c -9.8266,9.76 -22.8133,15.12 -36.56,15.12 h -6.2533 c -2.56,0 -4.6533,-2.08 -4.6533,-4.62667 l -0.4267,-91.880002 c -0.04,-3.466666 1.76,-6.746666 4.6133,-8.573333 21.48,-13.6 38.36,-17.946666 51.16,-17.946666 12.16,0 20.6534,3.92 25.9467,7.573333 6.6,4.586667 10.6667,10.733333 11.0933,16.813333 2.32,31.759999 -27.16,65.973335 -44.8933,83.520005 z m 54.0133,-84.186672 c -0.6666,-8.853333 -6.1333,-17.453333 -15.0533,-23.626666 -12.68,-8.786666 -40.84,-19.159999 -87.1333,10.12 -5.5334,3.533333 -8.9067,9.773333 -8.88,16.373333 l 0.4266,91.880005 c 0.04,7.53333 6.24,13.68 13.7867,13.68 h 6.2533 c 8.0934,0 15.9467,-1.58667 23.24,-4.6 7.3067,-2.97334 13.9867,-7.41334 19.7734,-13.13334 23.0533,-22.81333 50,-57.053333 47.5866,-90.693332"
       style="fill:#231f20;fill-opacity:1;fill-rule:nonzero;stroke:#231f20;stroke-width:6.66667;stroke-dasharray:none;stroke-opacity:1" />
    <path
       id="path51"
       d="m 1931.0443,168.23882 -85.8267,92.15867 c -1.3333,-0.36534 -2.7733,-0.63867 -4.1333,-0.97334 -0.92,-0.21333 -1.8,-0.42666 -2.7067,-0.608 -2.8667,-0.608 -5.7467,-1.12533 -8.7333,-1.552 -5.6534,-0.82 -11.3067,-1.58133 -16.9734,-2.28 -0.8133,-0.092 -1.64,-0.18266 -2.4266,-0.27466 -4.9334,-0.608 -9.8267,-1.18534 -14.7467,-1.70267 -0.3733,-0.0307 -0.7067,-0.0613 -1.0667,-0.0907 -28.16,-2.95066 -56.5466,-4.65333 -84.8266,-5.11066 -1.28,0 -2.56,0 -3.8267,-0.0293 -3.68,-0.0307 -7.4,-0.092 -11.1067,-0.092 h -2.8266 c -46.9867,0.152 -89.2267,4.80534 -126.52,8.912 l -5.6934,0.63867 c -2.88,0.33333 -5.7466,0.76 -8.5066,1.27733 -0.92,0.152 -1.8,0.364 -2.68,0.54667 -1.3734,0.27333 -2.7334,0.51733 -4.04,0.852 l -84.8934,-91.672 c -86.28,-107.199998 -20.4933,-182.346663 -17.6666,-185.479996 l 0.2133,-0.253334 c 61.96,-78.919993 162.7733,-43.306665 192.2133,-30.493332 3.3467,1.426666 7.1467,1.333333 10.4,-0.306667 3.2534,-1.613333 5.6267,-4.6 6.48,-8.16 l 11.56,-48.133331 h -48.8533 v -64.38666 h 49.7067 v -52.8 h 63.4 v 52.8 h 49.7066 v 64.38666 h -48.8533 l 11.56,48.133331 c 0.8533,3.56 3.2267,6.546667 6.48,8.16 3.2533,1.64 7.0533,1.733333 10.4,0.306667 29.44,-12.813333 130.2667,-48.426661 192.2133,30.493332 l 0.2134,0.253334 c 2.8266,3.133333 68.6133,78.279998 -17.64,185.479996 z m -23.2,176.88933 v 29.01467 c 0,4.77466 -3.8667,8.63733 -8.64,8.63733 h -409.24 c -4.7734,0 -8.64,-3.86267 -8.64,-8.63733 v -29.01467 c 0,-36.404 24.0533,-65.41866 62.7733,-75.728 5.2,-1.4 10.76,-2.43333 16.5467,-3.10266 l 5.68,-0.608 c 37.0533,-4.10667 79.0533,-8.72934 125.5466,-8.88134 h 2.8 c 44.6534,0 89.6,3.19334 133.6934,9.45867 5.96,0.88267 11.68,2.09867 17.0666,3.64933 39.08,11.22267 62.4134,39.35467 62.4134,75.212 z m 47.7466,-368.369326 c -66,-83.906664 -172.0533,-46.586666 -202.9866,-33.146666 -1.1867,0.52 -2.1867,0.186667 -2.6667,-0.06667 -0.4933,-0.24 -1.3733,-0.84 -1.68,-2.12 l -8.88,-36.893331 h 46.4133 V -178.0945 h -49.6933 v -52.8 h -81.6667 v 52.8 h -49.6933 v 82.626657 h 46.4133 l -8.88,36.893331 c -0.3066,1.28 -1.1866,1.88 -1.68,2.12 -0.48,0.253334 -1.48,0.586667 -2.6666,0.06667 -30.96,-13.44 -136.9867,-50.759998 -202.9867,33.146666 -3.5867,4.173333 -71.9867,86.159998 17.56,197.319996 l 82.1067,88.66 c -38.68,12.98667 -62.4,43.948 -62.4,82.38933 v 29.01467 c 0,9.79333 7.96,17.76133 17.76,17.76133 h 409.24 c 9.7866,0 17.76,-7.968 17.76,-17.76133 v -29.01467 c 0,-37.956 -23.0534,-68.064 -62.08,-81.72 l 82.9466,-89.07599 0.2134,-0.25334 c 89.5333,-111.159998 21.1333,-193.17333 17.5466,-197.319996"
       style="fill:#231f20;fill-opacity:1;fill-rule:nonzero;stroke:#231f20;stroke-width:6.66667;stroke-dasharray:none;stroke-opacity:1" />
    <path
       id="path52"
       d="m 1907.8443,345.12815 v 29.01467 c 0,4.77466 -3.8667,8.63733 -8.64,8.63733 h -409.24 c -4.7734,0 -8.64,-3.86267 -8.64,-8.63733 v -29.01467 c 0,-36.404 24.0533,-65.41866 62.7733,-75.728 5.2,-1.4 10.76,-2.43333 16.5467,-3.10266 l 5.68,-0.608 c 37.0533,-4.10667 79.0533,-8.72934 125.5466,-8.88134 h 2.8 c 44.6534,0 89.6,3.19334 133.6934,9.45867 5.96,0.88267 11.68,2.09867 17.0666,3.64933 39.08,11.22267 62.4134,39.35467 62.4134,75.212"
       style="fill:#565352;fill-opacity:1;fill-rule:nonzero;stroke:none;stroke-width:0.133333" />
    <path
       id="path53"
       d="m 1810.8843,153.91882 c -5.7867,5.72 -12.4667,10.16 -19.7734,13.13334 -7.2933,3.01333 -15.1466,4.6 -23.24,4.6 h -6.2533 c -7.5467,0 -13.7467,-6.14667 -13.7867,-13.68 l -0.4266,-91.880005 c -0.027,-6.6 3.3466,-12.84 8.88,-16.373333 46.2933,-29.279999 74.4533,-18.906666 87.1333,-10.12 8.92,6.173333 14.3867,14.773333 15.0533,23.626666 2.4134,33.639999 -24.5333,67.880002 -47.5866,90.693332 z m -169.28,4.05334 c -0.067,7.53333 -6.24,13.68 -13.7867,13.68 h -6.2933 c -16.1467,0 -31.4134,-6.29334 -42.9734,-17.76 -23.0133,-22.78667 -50,-57.026673 -47.5866,-90.666672 0.6666,-8.853333 6.1066,-17.453333 14.9866,-23.626666 12.7067,-8.786666 40.9334,-19.159999 87.16,10.12 5.5334,3.533333 8.9467,9.8 8.92,16.373333 z m 307.08,-175.213336 -0.2134,-0.253334 c -61.9466,-78.919993 -162.7733,-43.306665 -192.2133,-30.493332 -3.3467,1.426666 -7.1467,1.333333 -10.4,-0.306667 -3.2533,-1.613333 -5.6267,-4.6 -6.48,-8.16 l -11.56,-48.133331 h 48.8533 v -64.38666 h -49.7066 v -52.8 h -63.4 v 52.8 h -49.7067 v 64.38666 h 48.8533 l -11.56,48.133331 c -0.8533,3.56 -3.2266,6.546667 -6.48,8.16 -3.2533,1.64 -7.0533,1.733333 -10.4,0.306667 -29.44,-12.813333 -130.2533,-48.426661 -192.2133,30.493332 l -0.2133,0.253334 c -2.8267,3.133333 -68.6134,78.279998 17.6666,185.479996 l 84.8934,91.672 c 1.3066,-0.33467 2.6666,-0.57867 4.04,-0.852 0.88,-0.18267 1.76,-0.39467 2.68,-0.54667 2.76,-0.51733 5.6266,-0.944 8.5066,-1.27733 l 5.6934,-0.63867 c 37.2933,-4.10666 79.5333,-8.76 126.52,-8.912 h 2.8266 c 3.7067,0 7.4267,0.0613 11.1067,0.092 1.2667,0.0293 2.5467,0.0293 3.8267,0.0293 28.28,0.45733 56.6666,2.16 84.8266,5.11066 0.36,0.0293 0.6934,0.06 1.0667,0.0907 4.92,0.51733 9.8133,1.09467 14.7467,1.70267 0.7866,0.092 1.6133,0.18266 2.4266,0.27466 5.6667,0.69867 11.32,1.46 16.9734,2.28 2.9866,0.42667 5.8666,0.944 8.7333,1.552 0.9067,0.18134 1.7867,0.39467 2.7067,0.608 1.36,0.33467 2.8,0.608 4.1333,0.97334 l 85.8267,-92.15867 c 86.2533,-107.199998 20.4666,-182.346663 17.64,-185.479996"
       style="fill:#565352;fill-opacity:1;fill-rule:nonzero;stroke:none;stroke-width:0.133333" />
    <path
       id="path54"
       d="m 1546.6576,-67.161175 c -9.4,2.506666 -69.7867,19.719999 -100.9467,81.799998 -28.6933,57.133332 -11.8533,110.959997 -8.44,121.186667 0,0 -40.7466,-60.626669 -11.64,-126.5733339 0,0 33.6667,-78.1866641 121.0267,-76.4133311"
       style="fill:#888685;fill-opacity:1;fill-rule:nonzero;stroke:none;stroke-width:0.133333" />
    <path
       id="path55"
       d="m 1613.8576,-104.58784 5.2267,-6.57333 v -51.25333 h 49.3066 v -52.02667 h 53.36 l 5.2134,-7.33333 h -63.4 v 52.8 h -49.7067 v 64.38666"
       style="fill:#888685;fill-opacity:1;fill-rule:nonzero;stroke:none;stroke-width:0.133333" />
    <path
       id="path56"
       d="m 1726.9643,-168.9745 -4.04,7.53333 h 53.7466 v -7.53333 h -49.7066"
       style="fill:#888685;fill-opacity:1;fill-rule:nonzero;stroke:none;stroke-width:0.133333" />
    <path
       id="path57"
       d="m 1935.0176,-32.307843 c 0,0 53.4667,64.559999 8.1733,144.000003 -18.9466,33.24 -46.3466,66.30666 -76.0933,91.11999 -31.92,26.6 -64.08,51.03067 -64.08,51.03067 l 42.2,6.55467 76.0267,-81.62533 c 0,0 50.2133,-52.45334 53.64,-108.920005 3.5066,-57.546665 -25.9867,-90.693331 -39.8667,-102.159998"
       style="fill:#454242;fill-opacity:1;fill-rule:nonzero;stroke:none;stroke-width:0.133333" />
    <path
       id="path58"
       d="m 1899.3776,310.39615 c -59.4267,-16.57466 -180.8667,-15.632 -285.52,-14.35466 -74.9333,0.94266 -112.3733,17.88266 -130.7067,32.20799 6.2667,-28.34533 28.44,-50.18266 60.9467,-58.84933 5.2,-1.4 10.76,-2.43333 16.5467,-3.10266 l 5.68,-0.608 c 37.0533,-4.10667 79.0533,-8.72934 125.5466,-8.88134 h 2.8 c 44.6534,0 89.6,3.19334 133.6934,9.45867 5.96,0.88267 11.68,2.09867 17.0666,3.64933 25.24,7.23867 43.92,21.564 53.9467,40.48"
       style="fill:#888685;fill-opacity:1;fill-rule:nonzero;stroke:none;stroke-width:0.133333" />
  </g>
  <g
     id="layer9"
     transform="translate(169.95933,268.40764)"
     style="display:none">
    <path
       id="path42"
       d="m 391.31099,377.00148 c 0,2.18934 -1.78666,3.984 -3.98666,3.984 H -27.328997 c -2.186666,0 -3.973333,-1.79466 -3.973333,-3.984 v -26.09466 c 0,-48.56933 39.5066659,-88.076 88.066664,-88.076 l 0.426667,-0.0307 c 38.933332,-3.64933 78.533329,-5.596 117.639999,-5.748 42.58666,-0.152 85.61333,1.764 127.98666,5.748 l 0.41334,0.0307 c 48.57333,0 88.07999,39.50667 88.07999,88.076 z M 22.791002,41.785489 23.004335,40.812155 C 31.164335,-29.654509 120.391,-109.9745 138.21767,-125.36117 l 0.57333,-4.69333 c -8.17333,-9.26667 -12.70667,-21.22667 -12.70667,-33.6 0,-28.01334 22.77334,-50.82667 50.78667,-50.82667 28.01333,0 50.81333,22.81333 50.81333,50.82667 0,20.89333 -13.10667,39.96 -32.62666,47.41333 l -1.64,1.21333 c -41.30667,65.759998 -43.52,207.573328 -43.61334,213.559994 l -0.0667,4.720006 69.34666,-0.36 -0.0667,-4.506673 c -1.26666,-111.226663 28.08,-172.626662 37.77334,-189.26666 103.93333,113.933329 94.34666,171.226661 94.22666,171.746661 l -0.0933,0.52 v 0.546666 c 2.28,87.626666 -38.96,147.013336 -59.18667,170.739996 -38.8,-3.284 -78.06666,-4.86666 -116.93333,-4.744 -34.37333,0.152 -69.06666,1.73334 -103.413329,4.56134 C -14.18233,154.15882 22.404335,42.878822 22.791002,41.785489 Z M 303.44433,253.70682 c -0.21333,-0.0307 -0.45333,-0.0307 -0.66667,-0.0613 21.93334,-27.31334 59.33333,-86.62 57.26667,-171.500002 1.13333,-6.906667 7,-67.426665 -100.6,-183.599988 l -3.77333,-4.08 -3.28,4.50666 c -1.77334,2.453337 -43.10667,62.639997 -42.52,194.999994 l -50.82667,-0.02667 c 0.76,-25.239999 6.17334,-144.773329 41.12,-202.466654 21.98667,-9.26667 36.65333,-31.13333 36.65333,-55.13333 0,-33.05334 -26.89333,-59.94667 -59.94666,-59.94667 -33.02667,0 -59.92,26.89333 -59.92,59.94667 0,12.58666 3.98667,24.76 11.25333,34.88 -29.346663,25.94666 -106.013328,99.613321 -114.199994,168.093319 -2.64,8.333333 -34.52,116.426671 46.199998,214.082671 -1.213333,0.12266 -2.426666,0.18266 -3.653333,0.30533 -53.4933321,0.12133 -96.986664,43.67333 -96.986664,97.2 v 26.09466 c 0,7.23867 5.88,13.108 13.106666,13.108 H 387.32433 c 7.24,0 13.12,-5.86933 13.12,-13.108 v -26.09469 c 0,-53.52667 -43.49334,-97.07867 -97,-97.2"
       style="fill:#231f20;fill-opacity:1;fill-rule:nonzero;stroke:#231f20;stroke-width:6.66667;stroke-dasharray:none;stroke-opacity:1" />
    <path
       id="path43"
       d="m 391.31099,350.90682 v 26.09466 c 0,2.18934 -1.78666,3.984 -3.98666,3.984 H -27.328997 c -2.186666,0 -3.973333,-1.79466 -3.973333,-3.984 v -26.09466 c 0,-48.56933 39.5066659,-88.076 88.066664,-88.076 l 0.426667,-0.0307 c 38.933332,-3.64933 78.533329,-5.596 117.639999,-5.748 42.58666,-0.152 85.61333,1.764 127.98666,5.748 l 0.41334,0.0307 c 48.57333,0 88.07999,39.50667 88.07999,88.076"
       style="fill:#565352;fill-opacity:1;fill-rule:nonzero;stroke:none;stroke-width:0.133333" />
    <path
       id="path44"
       d="m 350.92433,81.385488 v 0.546666 c 2.28,87.626666 -38.96,147.013336 -59.18667,170.739996 -38.8,-3.284 -78.06666,-4.86666 -116.93333,-4.744 -34.37333,0.152 -69.06666,1.73334 -103.413329,4.56134 C -14.18233,154.15882 22.404335,42.878822 22.791002,41.785489 l 0.213333,-0.973334 C 31.164335,-29.654509 120.391,-109.9745 138.21767,-125.36117 l 0.57333,-4.69333 c -8.17333,-9.26667 -12.70667,-21.22667 -12.70667,-33.6 0,-28.01334 22.77334,-50.82667 50.78667,-50.82667 28.01333,0 50.81333,22.81333 50.81333,50.82667 0,20.89333 -13.10667,39.96 -32.62666,47.41333 l -1.64,1.21333 c -41.30667,65.759998 -43.52,207.573328 -43.61334,213.559994 l -0.0667,4.720006 69.34666,-0.36 -0.0667,-4.506673 c -1.26666,-111.226663 28.08,-172.626662 37.77334,-189.26666 103.93333,113.933329 94.34666,171.226661 94.22666,171.746661 l -0.0933,0.52"
       style="fill:#565352;fill-opacity:1;fill-rule:nonzero;stroke:none;stroke-width:0.133333" />
    <path
       id="path45"
       d="m 304.88433,-31.627843 c 5.85333,10.2 43.70666,78.959998 15.4,161.440003 -28.52,83.13333 -101.54667,114.06666 -112.33333,118.42399 l 83.78666,4.436 c 0,0 30.62667,-34.34 45.86667,-81.69999 13.65333,-42.4 17.85333,-98.133339 8.85333,-122.880005 -9.98666,-27.439999 -16.2,-43.3599989 -41.57333,-79.719998"
       style="fill:#454242;fill-opacity:1;fill-rule:nonzero;stroke:none;stroke-width:0.133333" />
    <path
       id="path46"
       d="m 381.95099,311.46149 c -8.09333,-3.10267 -17,-6.23467 -26.46666,-9.52 -38.08,-13.16934 -213.53333,-8.54534 -303.613329,-5.444 -37.493332,1.27733 -62.106665,12.28666 -78.013331,24.66533 12.226666,-33.972 44.773332,-58.332 82.906664,-58.332 l 0.426667,-0.0307 c 38.933332,-3.64933 78.533329,-5.596 117.639999,-5.748 42.58666,-0.152 85.61333,1.764 127.98666,5.748 l 0.41334,0.0307 c 34.4,0 64.26666,19.82933 78.71999,48.63067"
       style="fill:#888685;fill-opacity:1;fill-rule:nonzero;stroke:none;stroke-width:0.133333" />
    <path
       id="path47"
       d="m 198.25767,-209.7345 c 0,0 28.54666,27.56 11.77333,58.97333 -16.78667,31.41333 -53.45333,44.72 -67.42667,97.519995 -13.98666,52.79999805 -7.64,72.346665 7.13334,156.493335 l 4.26666,-69.560004 c 0,0 8.26667,-69.666665 19.16,-102.266664 11.70667,-30.679996 18.61334,-46.053332 23.05334,-48.133332 5.97333,-1.76 17.43999,-9.21333 23.25333,-19.38666 6.08,-9.81334 9.74666,-20.48 8.02666,-31.97334 -2.06666,-13.76 -6.30666,-29.97333 -29.23999,-41.66666"
       style="fill:#454242;fill-opacity:1;fill-rule:nonzero;stroke:none;stroke-width:0.133333" />
    <path
       id="path48"
       d="m 171.831,-214.22784 c 0,0 -29.64,3.78667 -40.24,27.6 0,0 -15.54667,31.12 7.21333,56.58667 0,0 -0.0133,-0.0133 -0.0133,-0.0133 l -0.57333,4.69333 -4.38667,3.84 -3.85333,3.42667 v 0 c -1.76,1.42666 -9.38667,7.82666 -22.57333,21.693327 C 92.257667,-80.454513 50.097668,-35.374509 38.257668,-5.7611769 26.417669,23.838823 9.8843359,65.785488 14.684336,107.42549 c 4.813333,41.64 5.319999,44.04 5.319999,44.04 2,-15.26667 5.346667,-35.36 11.253333,-58.546669 5.226667,-20.52 13.946667,-61.453332 36.92,-104.679998 21.146666,-39.799999 47.866662,-76.413326 52.680002,-82.573326 7.58666,-9.706667 19.02666,-29.759997 19.02666,-29.773337 0,-0.0133 -0.0667,-6.13333 -0.0667,-6.14666 0.0267,0.29333 -25.82666,-59.14667 32.01334,-83.97334"
       style="fill:#888685;fill-opacity:1;fill-rule:nonzero;stroke:none;stroke-width:0.133333" />
  </g>
  <g
     id="layer10"
     transform="translate(927.4994,264.91135)"
     style="display:none">
    <path
       id="path33"
       d="m -333.22232,370.00682 c 0,6.17333 -5.01333,11.192 -11.18667,11.192 h -401.70132 c -6.17333,0 -11.192,-5.01867 -11.192,-11.192 v -31.964 c 0,-34.428 23.388,-64.112 56.904,-72.17067 3.588,-0.73066 130.71599,-26.24666 316.81599,1.916 30.13333,10.248 50.36,38.44134 50.36,70.25467 z m -343.75866,-155.808 c 16.75733,-27.34667 39.264,-45.68 61.1,-63.44 15.968,-12.98666 31.052,-25.24 42.73066,-40.29333 16.51467,-21.226669 15.38934,-44.893335 8.82,-59.986668 -0.48666,-1.146667 -0.82133,-1.973333 -1.064,-2.613333 -1.03466,-2.706667 -1.612,-3.613334 -4.31866,-5.893334 -1.21734,-0.973333 -2.676,-1.493333 -4.16667,-1.493333 -1.704,0 -3.40667,0.693333 -4.684,2.013333 -5.01867,5.32 -49.72533,52.093332 -72.26133,57.719995 -8.60667,2.13334 -15.78533,1.85334 -22.11067,1.57334 -11.496,-0.45333 -21.44133,-0.84 -30.26133,14.64 -8.424,14.72 -17.97467,24.69333 -22.90133,29.34667 -1.85467,1.76 -4.25733,2.85333 -6.812,3.09333 -36.40533,3.46667 -61.22133,-13.34667 -76.73333,-26.30667 -17.21334,-14.32 -11.43467,-32.626666 -10.73467,-34.599999 1.916,-4.626667 37.07333,-67.466665 52.188,-76.133331 18.096,-10.306667 42.36667,-86.760003 44.98133,-99.906663 2.79867,-13.959997 26.58133,-34.453327 42.36533,-48.053327 l 1.67334,-1.45334 c 9.00266,-7.78666 9.76266,-17.24 10.52266,-26.46666 0.88267,-10.61334 1.79467,-21.56 13.07734,-34.38667 4.19733,-4.81333 10.432,-10.25333 16.21066,-9.09333 6.93467,1.38666 10.736,11.33333 11.132,12.46666 l 0.33334,0.93334 37.68266,38.36 c 3.92267,3.94666 9.06267,6.41333 14.44667,6.93333 31.02133,3.18667 82.572,21.98667 121.04933,51.733327 49.57333,38.320001 79.68,89.2933331 92.05333,155.773331 12.74667,68.546672 -14.81333,171.373332 -23.02667,199.602662 -164.95466,-24.48266 -283.56666,-7.14666 -310.75599,-2.40266 2.464,-13.56 14.38533,-33.94667 19.464,-41.66667 z m 300.14533,46.32 c 8.45333,-29.13333 36.22666,-133.30666 23.12,-203.493332 -12.81334,-68.826665 -44.01334,-121.586663 -95.41334,-161.373328 -39.83733,-30.77333 -93.39466,-50.24 -125.72399,-53.56 -3.284,-0.33333 -6.448,-1.85333 -8.85067,-4.29333 l -36.31333,-36.94667 c -1.612,-4.01333 -6.99467,-15.2 -17.51733,-17.33333 -8.09067,-1.61333 -16.45334,2.4 -24.90934,12.01333 -13.22933,15.08 -14.38533,28.70667 -15.29733,39.74667 -0.72933,8.64 -1.216,14.88 -7.42133,20.22667 l -1.672,1.46666 c -18.67334,16.08 -41.90933,36.12 -45.316,53.186667 -3.68,18.373331 -27.55467,86.3466631 -40.54133,93.7599961 -18.52134,10.5866659 -55.47334,78.3733309 -56.29467,80.9333309 -0.912,2.68 -8.45467,26.453336 13.504,44.706666 16.75733,14.02667 43.612,32.21334 83.424,28.37334 4.592,-0.42667 8.94133,-2.4 12.22533,-5.53334 5.292,-4.98666 15.54133,-15.69333 24.544,-31.48 6.11333,-10.64 11.06933,-10.42666 21.988,-10 6.6,0.26667 14.78133,0.6 24.66533,-1.82666 22.96267,-5.77333 62.68133,-45.680005 74.664,-58.186671 0,0.09333 0.0307,0.16 0.0613,0.253333 0.304,0.72 0.66934,1.666667 1.216,2.973333 5.50534,12.68 6.388,32.666666 -7.63333,50.733335 -11.07066,14.22667 -25.76,26.18667 -41.36133,38.86667 -22.384,18.21333 -45.49867,37.01333 -62.98667,65.57333 -2.128,3.22666 -19.64666,30.29333 -21.228,48.568 -35.82666,10.188 -60.52266,42.66933 -60.52266,80.16933 v 31.964 c 0,11.192 9.124,20.316 20.316,20.316 h 401.70132 c 11.18667,0 20.30667,-9.124 20.30667,-20.316 v -31.964 c 0,-34.39733 -21.01333,-64.99333 -52.73333,-77.524"
       style="fill:#231f20;fill-opacity:1;fill-rule:nonzero;stroke:#231f20;stroke-width:6.66667;stroke-dasharray:none;stroke-opacity:1" />
    <path
       id="path34"
       d="m -385.68899,258.14682 c -164.95466,-24.48133 -283.56666,-7.14667 -310.75599,-2.40267 2.464,-13.55866 14.38533,-33.94533 19.464,-41.66533 16.75733,-27.34667 39.264,-45.68 61.1,-63.44 15.968,-12.98666 31.052,-25.24 42.73066,-40.30666 16.51467,-21.226672 15.38934,-44.880005 8.82,-59.973338 -0.48666,-1.146667 -0.82133,-1.973333 -1.064,-2.613333 -1.03466,-2.706667 -1.612,-3.613334 -4.31866,-5.893334 -1.21734,-0.973333 -2.676,-1.493333 -4.16667,-1.493333 -1.704,0 -3.40667,0.693333 -4.684,2.013333 -5.01867,5.32 -49.72533,52.093332 -72.26133,57.719995 -8.60667,2.12001 -15.78533,1.85334 -22.11067,1.57334 -11.496,-0.45334 -21.44133,-0.85334 -30.26133,14.64 -8.424,14.72 -17.97467,24.69333 -22.90133,29.34667 -1.85467,1.76 -4.25733,2.85333 -6.812,3.09333 -36.40533,3.46667 -61.22133,-13.34667 -76.73333,-26.30667 -17.21334,-14.32 -11.43467,-32.626666 -10.73467,-34.599999 1.916,-4.626667 37.07333,-67.466665 52.188,-76.133331 18.096,-10.306667 42.36667,-86.760003 44.98133,-99.906663 2.79867,-13.959997 26.58133,-34.453327 42.36533,-48.053327 l 1.67334,-1.45334 c 9.00266,-7.78666 9.76266,-17.25333 10.52266,-26.46666 0.88267,-10.61334 1.79467,-21.56 13.07734,-34.38667 4.19733,-4.81333 10.432,-10.25333 16.21066,-9.10667 6.93467,1.4 10.736,11.34667 11.132,12.48 l 0.33334,0.93334 37.68266,38.36 c 3.92267,3.94666 9.06267,6.41333 14.44667,6.93333 31.02133,3.18667 82.572,21.98667 121.04933,51.733327 49.57333,38.320001 79.68,89.2933331 92.05333,155.773331 12.74667,68.546672 -14.81333,171.373332 -23.02667,199.601332"
       style="fill:#565352;fill-opacity:1;fill-rule:nonzero;stroke:none;stroke-width:0.133333" />
    <path
       id="path35"
       d="m -658.62765,-71.561175 c 0,0 -11.38933,14.24 -15.01333,31.319999 0,0 10.16,-6.693333 37.01467,-3.36 27.112,3.36 23.812,-27.373332 13.97733,-33.906667 -4.44,-2.96 -20.18933,-12.17333 -35.97867,5.946668"
       style="fill:#231f20;fill-opacity:1;fill-rule:nonzero;stroke:none;stroke-width:6.66667;stroke-dasharray:none;stroke-opacity:1" />
    <path
       id="path36"
       d="m -497.85832,-124.16117 c 0,0 101.16933,81.079994 83.56933,181.506658 -17.6,100.426672 -74.54266,150.120002 -84.89599,169.786662 -5.98534,11.37334 -2.85334,19.66667 -2.85334,19.66667 0,0 66.78933,3.116 116.34933,11.39867 0,0 40.12,-109.03867 22,-203.252002 0,0 -8.8,-66.706665 -53.84,-116.41333 0,0 -30.33333,-40.173328 -80.32933,-62.693328"
       style="fill:#454242;fill-opacity:1;fill-rule:nonzero;stroke:none;stroke-width:0.133333" />
    <path
       id="path37"
       d="m -641.54498,-206.66784 c 0,0 -10.09467,-1.56 -21.548,19.6 0,0 -4.076,9.52 -5.04667,21.36 -0.97066,11.84 -0.97066,19.98667 -12.424,29.50667 -11.45466,9.50667 -21.54933,19.02667 -21.54933,19.02667 0,0 -14.94667,14.94666 -19.21733,24.066657 l -4.07733,15.53333 -10.09467,29.893337 c 0,0 -9.512,23.88 -10.48267,26.2 -0.97066,2.333333 -8.92933,17.0933331 -9.70666,18.8399991 -0.776,1.74666695 -6.6,11.453333 -14.75334,16.1066669 0,0 -4.20666,3.56 -6.01733,5.893333 -1.812,2.333333 -11.77733,15.013333 -13.26533,17.599999 -1.48934,2.586667 -21.38667,32.706666 -27.57734,45.093332 -1.448,2.76 -3.22533,4.96 -4.00133,9.746667 -1.452,6.053333 64.004,-71.639998 64.004,-71.639998 0,0 37.42133,-54.106666 42.44533,-81.519998 8.54133,-46.613325 46.652,-51.559995 53.9,-79.306665 5.30133,-20.30666 8.38,-17.88 16.39467,-43.62666 5.27466,-16.94667 12.212,-23.52 3.01733,-22.37334"
       style="fill:#888685;fill-opacity:1;fill-rule:nonzero;stroke:none;stroke-width:0.133333" />
    <path
       id="path38"
       d="m -333.22232,338.04282 v 31.964 c 0,6.17333 -5.01333,11.192 -11.18667,11.192 h -401.70132 c -6.17333,0 -11.192,-5.01867 -11.192,-11.192 v -31.964 c 0,-34.428 23.388,-64.112 56.904,-72.17067 3.588,-0.73066 130.71599,-26.24666 316.81599,1.916 30.13333,10.248 50.36,38.44134 50.36,70.25467"
       style="fill:#565352;fill-opacity:1;fill-rule:nonzero;stroke:none;stroke-width:0.133333" />
    <path
       id="path39"
       d="m -338.84899,309.63615 c -6.65333,-4.86666 -13.04,-5.50533 -13.04,-5.50533 -31.54666,-10.73467 -71.6,-16.848 -92.54666,-18.27733 -20.99067,-1.46 -235.312,-5.56534 -280.32399,9.97466 -8.60667,2.95067 -17.092,6.38667 -25.21334,9.976 9.39867,-19.58666 27.22,-34.54933 49.57467,-39.932 3.588,-0.73066 130.71599,-26.24666 316.81599,1.916 20.68,7.02534 36.70667,22.536 44.73333,41.848"
       style="fill:#888685;fill-opacity:1;fill-rule:nonzero;stroke:none;stroke-width:0.133333" />
    <path
       id="path40"
       d="m -577.18498,41.398822 c 0,0 28.29733,-30.653332 31.924,-52.906665 3.62666,-22.266666 9.83866,17.5999991 6.73333,31.053333 -3.10667,13.466666 -10.296,58.893331 -27.29067,79.159997 0,0 6.09067,-11.239999 5.936,-24.533332 -0.14666,-12.733333 -1.956,-19.773333 -8.17066,-30.24 -3.412,-5.746666 -9.132,-2.533333 -9.132,-2.533333"
       style="fill:#454242;fill-opacity:1;fill-rule:nonzero;stroke:none;stroke-width:0.133333" />
    <path
       id="path41"
       d="m -726.18364,145.09216 c 0,0 28.14799,-63.093339 36.49599,-63.293339 8.34667,-0.186667 47.40534,5.573333 62.82134,4.946667 0,0 -14.67867,20.026672 -56.45334,15.120002 0,0 -11.73333,1.30667 -22.932,19.61333 -10.87333,17.78667 -18.96133,23.02667 -19.93199,23.61334"
       style="fill:#454242;fill-opacity:1;fill-rule:nonzero;stroke:none;stroke-width:0.133333" />
  </g>
  <g
     id="layer11"
     transform="translate(-592.18065,260.39497)"
     style="display:none">
    <path
       id="path21"
       d="m 1182.2443,35.132156 -3.6,2.853333 -88.92,223.780001 c -0.76,-0.24267 -1.4933,-0.456 -2.2267,-0.69867 -41.2666,-12.44 -94.78662,-14.17467 -146.51995,-14.17467 -55.26667,0 -117.42667,5.71867 -143.44,12.95734 l -86.58666,-222.144001 -4.01334,-2.92 c -31.22666,-1.733333 -55.68,-27.6399989 -55.68,-58.959999 0,-32.613332 26.52,-59.133333 59.09334,-59.133333 32.59999,0 59.11999,26.520001 59.11999,59.133333 0,11.613333 -3.34666,22.8000001 -9.70666,32.3866661 l 0.46666,5.6266669 64.25334,69.253331 c 1.04,1.12 2.46666,1.693334 3.93333,1.693334 0.64,0 1.26667,-0.08 1.90667,-0.333334 2.04,-0.76 3.41333,-2.666666 3.46666,-4.866666 l 4.10667,-162.306661 -2.85333,-4.34667 c -22.50667,-9.04 -37.04,-30.599997 -37.04,-54.866657 0,-32.57334 26.52,-59.09334 59.09333,-59.09334 32.6,0 59.12,26.52 59.12,59.09334 0,17.54666 -7.73334,34.05333 -21.2,45.346657 l -1.42667,4.89334 43.85333,134.906658 c 0.69334,2.226667 2.73334,3.72 5.08,3.72 2.30667,0 4.37334,-1.466666 5.08,-3.68 l 44.68,-135.533328 -1.34666,-4.89333 c -13.08,-11.213337 -20.56,-27.519997 -20.56,-44.759997 0,-32.57334 26.52,-59.09334 59.09335,-59.09334 32.6,0 59.12,26.52 59.12,59.09334 0,25.29333 -16.08,47.799997 -39.9867,55.959987 l -3.1067,4.56 8.8534,156.440001 c 0.12,2.226667 1.5466,4.08 3.6266,4.773333 0.5734,0.213334 1.1467,0.306667 1.7334,0.306667 1.52,0 3,-0.666667 4.0666,-1.88 l 57.8134,-67.946665 0.52,-5.1466669 c -4.7734,-8.666666 -7.2934,-18.5466661 -7.2934,-28.5199991 0,-32.599999 26.52,-59.12 59.0934,-59.12 32.6,0 59.12,26.520001 59.12,59.12 0,29.2933331 -21.84,54.466666 -50.7867,58.519999 z m -8.3333,-126.773329 c -37.6267,0 -68.2267,30.626664 -68.2267,68.25333 0,10.466667 2.44,20.7733331 7,30.0799991 l -49.76,58.4533319 -8.12,-143.733331 c 25.8,-10.30666 42.92,-35.306657 42.92,-63.346657 0,-37.62667 -30.6267,-68.22667 -68.2533,-68.22667 -37.61335,0 -68.21335,30.6 -68.21335,68.22667 0,18.85333 7.78666,36.76 21.44,49.626657 L 942.55098,29.465489 903.20431,-91.667843 c 14.10667,-12.919997 22.13334,-31.053327 22.13334,-50.266657 0,-37.62667 -30.62667,-68.22667 -68.24,-68.22667 -37.62667,0 -68.22667,30.6 -68.22667,68.22667 0,26.94666 15.54667,50.933327 39.84,62.013327 L 824.88432,70.105488 769.25765,10.158823 c 6.12,-10.37333295 9.33333,-22.146666 9.33333,-34.333333 0,-37.626665 -30.62666,-68.253333 -68.23999,-68.253333 -37.62667,0 -68.21334,30.626668 -68.21334,68.253333 0,35.146666 26.69334,64.319999 61.30667,67.786665 l 85.4,219.095995 c -30.6,11.01067 -68.30667,30.65734 -68.30667,73.388 v 56.59867 h 440.86665 v -56.59867 c 0,-41.84933 -31.6533,-60.55333 -63.0133,-71.472 l 87.8,-220.958661 c 32.0933,-5.826667 55.96,-34.1466659 55.96,-67.053332 0,-37.626666 -30.6267,-68.25333 -68.24,-68.25333 z m -22.9067,414.933323 c 0.8533,4.044 1.28,8.30267 1.28,12.804 v 47.47467 H 729.65765 v -47.47467 c 0,-29.684 21.17333,-50.76 66.64,-66.332 21.74667,-7.45066 87.98666,-13.74666 144.68,-13.74666 51.02666,0 103.75995,1.67333 143.87995,13.808 40.0267,12.07333 61.0134,28.86266 66.1467,53.46666"
       style="fill:#231f20;fill-opacity:1;fill-rule:nonzero;stroke:#231f20;stroke-width:6.66667;stroke-dasharray:none;stroke-opacity:1" />
    <path
       id="path22"
       d="m 1233.031,-23.387843 c 0,29.2933331 -21.84,54.466666 -50.7867,58.519999 l -3.6,2.853333 -88.92,223.780001 c -0.76,-0.24267 -1.4933,-0.456 -2.2267,-0.69867 -41.2666,-12.44 -94.78662,-14.17467 -146.51995,-14.17467 -55.26667,0 -117.42667,5.71867 -143.44,12.95734 l -86.58666,-222.144001 -4.01334,-2.92 c -31.22666,-1.733333 -55.68,-27.6399989 -55.68,-58.959999 0,-32.613332 26.52,-59.133333 59.09334,-59.133333 32.59999,0 59.11999,26.520001 59.11999,59.133333 0,11.613333 -3.34666,22.8000001 -9.70666,32.3866661 l 0.46666,5.6266669 64.25334,69.253331 c 1.04,1.12 2.46666,1.693334 3.93333,1.693334 0.64,0 1.26667,-0.08 1.90667,-0.333334 2.04,-0.76 3.41333,-2.666666 3.46666,-4.866666 l 4.10667,-162.306661 -2.85333,-4.34667 c -22.50667,-9.04 -37.04,-30.599997 -37.04,-54.866657 0,-32.57334 26.52,-59.09334 59.09333,-59.09334 32.6,0 59.12,26.52 59.12,59.09334 0,17.54666 -7.73334,34.05333 -21.2,45.346657 l -1.42667,4.89334 43.85333,134.906658 c 0.69334,2.226667 2.73334,3.72 5.08,3.72 2.30667,0 4.37334,-1.466666 5.08,-3.68 l 44.68,-135.533328 -1.34666,-4.89333 c -13.08,-11.213337 -20.56,-27.519997 -20.56,-44.759997 0,-32.57334 26.52,-59.09334 59.09335,-59.09334 32.6,0 59.12,26.52 59.12,59.09334 0,25.29333 -16.08,47.799997 -39.9867,55.959987 l -3.1067,4.56 8.8534,156.440001 c 0.12,2.226667 1.5466,4.08 3.6266,4.773333 0.5734,0.213334 1.1467,0.306667 1.7334,0.306667 1.52,0 3,-0.666667 4.0666,-1.88 l 57.8134,-67.946665 0.52,-5.1466669 c -4.7734,-8.666666 -7.2934,-18.5466661 -7.2934,-28.5199991 0,-32.599999 26.52,-59.12 59.0934,-59.12 32.6,0 59.12,26.520001 59.12,59.12"
       style="fill:#565352;fill-opacity:1;fill-rule:nonzero;stroke:none;stroke-width:0.133333" />
    <path
       id="path23"
       d="m 1151.0043,323.29215 c -10.4,-22.14133 -64.8133,-26.004 -151,-29.10533 -86.18665,-3.10267 -178.61332,3.86133 -218.21332,6.204 -39.59999,2.34133 -52.13333,35.70533 -52.13333,35.70533 0,-29.684 21.17333,-50.76 66.64,-66.332 21.74667,-7.45066 87.98666,-13.74666 144.68,-13.74666 51.02666,0 103.75995,1.67333 143.87995,13.808 40.0267,12.07333 61.0134,28.86266 66.1467,53.46666"
       style="fill:#888685;fill-opacity:1;fill-rule:nonzero;stroke:none;stroke-width:0.133333" />
    <path
       id="path24"
       d="m 857.09765,-201.02784 c 0,0 -50.66667,0.08 -58.84,53.64 0,0 -0.62667,13.76 3.49333,26.28 0,0 -3.53333,-49.45333 55.34667,-79.92"
       style="fill:#888685;fill-opacity:1;fill-rule:nonzero;stroke:none;stroke-width:0.133333" />
    <path
       id="path25"
       d="m 1028.8976,-201.02784 c 0,0 -36.59995,0.0533 -52.61329,32.97334 -6.06666,12.48 -7.33333,26.76 -4.48,40.34666 0.45334,2.18667 1.65334,4.41334 2.36,6.6 0,0 -4.14666,-49.45333 54.73329,-79.92"
       style="fill:#888685;fill-opacity:1;fill-rule:nonzero;stroke:none;stroke-width:0.133333" />
    <path
       id="path26"
       d="m 1174.4043,-82.587843 c 0,0 -36.6,-0.45333 -53.0667,32.226667 -6.24,12.4 -7.72,26.666666 -5.0666,40.279999 0.4266,2.2000001 1.6,4.4400001 2.28,6.6400001 0,0 -3.44,-49.5199981 55.8533,-79.1466661"
       style="fill:#888685;fill-opacity:1;fill-rule:nonzero;stroke:none;stroke-width:0.133333" />
    <path
       id="path27"
       d="m 709.69765,-83.294513 c 0,0 -5.64,-0.0133 -13.4,1.68 -15.61333,3.41334 -39.56,16.040004 -45.01333,51.74667 0,0 -0.61333,13.746667 3.50667,26.2800001 0,0 -3.96,-49.2399991 54.90666,-79.7066701"
       style="fill:#888685;fill-opacity:1;fill-rule:nonzero;stroke:none;stroke-width:0.133333" />
    <path
       id="path28"
       d="m 1213.4976,-67.254508 c 0,0 15.44,64.3733311 -44.2266,77.999998 0,0 -6.9867,1.56 -10.48,11.653333 -3.4934,10.093333 -46.9867,92.399997 -106,160.733327 -59.01335,68.336 -99.38669,63.81334 -99.38669,63.81334 0,0 57.14669,-3.24 136.30669,14.81333 l 88.9333,-223.786664 c 0,0 2.7867,-2.12 3.6,-2.826667 0.8133,-0.706667 40.88,-2.76 50.1867,-50.199999 0,0 6.6666,-26.933332 -18.9334,-52.199998"
       style="fill:#454242;fill-opacity:1;fill-rule:nonzero;stroke:none;stroke-width:0.133333" />
    <path
       id="path29"
       d="M 1152.2843,383.57082 H 729.65765 v -47.47467 c 0,0 12.53334,-33.364 52.13333,-35.70533 39.6,-2.34267 132.02667,-9.30667 218.21332,-6.204 86.1867,3.10133 140.6,6.964 151,29.10533 l 1.28,60.27867"
       style="fill:#565352;fill-opacity:1;fill-rule:nonzero;stroke:none;stroke-width:0.133333" />
    <path
       id="path30"
       d="m 746.33765,-71.041175 c 0,0 12.16,23.039999 -2.08,46.853332 -13.81333,23.1066661 0.52,42.186666 9.32,49.946666 8.8,7.773333 32.89333,16.359999 32.89333,16.359999 l -26.24,-28.279999 -0.46666,-5.6266669 c 0,0 9.96,-12.199999 9.65333,-34.7333321 -0.30667,-22.52 -15.38667,-39.213333 -23.08,-44.519999"
       style="fill:#454242;fill-opacity:1;fill-rule:nonzero;stroke:none;stroke-width:0.133333" />
    <path
       id="path31"
       d="m 899.25765,-183.32117 c 0,0 4.13333,40.34667 -17.68,62.21333 -28.4,28.466667 37.46666,107.719997 37.46666,107.719997 l -25.45333,-78.30666 1.42667,-4.89334 c 0,0 8.77333,-6.919997 14.96,-18.906657 8.56,-16.61334 12.94666,-42.37334 -10.72,-67.82667"
       style="fill:#454242;fill-opacity:1;fill-rule:nonzero;stroke:none;stroke-width:0.133333" />
    <path
       id="path32"
       d="m 1074.7243,-179.90784 c 0,0 5.76,44.68 -32.0267,58.65334 -37.7866,13.97333 7.6667,125.8666561 7.6667,125.8666561 l -4.8667,-86.0266691 3.1067,-4.56 c 0,0 22.7333,-6.19999 34.8133,-31.813327 12.08,-25.6 0.027,-50.89333 -8.6933,-62.12"
       style="fill:#454242;fill-opacity:1;fill-rule:nonzero;stroke:none;stroke-width:0.133333" />
  </g>
  <g
     id="layer12"
     transform="translate(-2083.7866,215.83964)"
     style="display:none">
    <path
       id="path13"
       d="m 2626.0309,382.33482 h -385.0666 c -5.2,-42.76 9.64,-68.976 18.5866,-84.82133 11.16,-19.61734 25.2934,-30.01867 41.72,-42.032 14.7867,-10.856 31.5734,-23.176 48.0267,-44.376 17.3333,-22.38667 29.7067,-48.57333 36.8267,-77.82667 l -4.44,-5.62666 h -46.7467 c -4.7467,0 -8.84,-3.22667 -10,-7.81334 l -5.08,-20.373333 c -0.9733,-6.239999 2.0933,-12.413333 7.6933,-15.426666 l 46.8934,-25.479999 0.76,-7.52 c -20.64,-17.426666 -32.48,-42.9733319 -32.48,-69.999998 0,-50.586666 41.1466,-91.733324 91.7333,-91.733324 50.5733,0 91.72,41.146658 91.72,91.733324 0,27.9999991 -12.5333,54.093332 -34.4,71.586665 l 0.8,7.639999 43.8267,22.28 c 6.2266,3.173333 9.48,10.373333 7.6933,17.253333 l -4.84,19.973339 c -1.0933,4.62666 -5.2267,7.88 -10,7.88 h -40.9733 l -4.5067,5.26666 c 4.36,27.52 13.84,52.16 28.2,73.29333 16.8533,24.81334 36.28,38.44 53.4,50.456 17.3067,12.13467 33.6133,23.57067 44.96,44.64667 8.24,15.38933 21.92,40.81466 15.6933,81.02 z m -7.6666,-85.33867 c -12.3467,-22.992 -29.5334,-35.036 -47.72,-47.80933 -17.3334,-12.13467 -35.2134,-24.668 -51.12,-48.08133 -12.6934,-18.68 -21.2934,-40.30667 -25.76,-64.33333 h 35.4933 c 9,0 16.7867,-6.10667 18.88,-14.86667 l 4.8,-19.89333 c 2.84,-10.880006 -2.4,-22.506672 -12.4,-27.613339 l -37.7733,-19.213333 c 20.7333,-19.039999 32.5333,-45.6799979 32.5333,-74.146664 0,-55.599997 -45.2533,-100.853324 -100.84,-100.853324 -55.6,0 -100.8533,45.253327 -100.8533,100.853324 0,27.5199991 11.16,53.613332 30.84,72.559998 l -41.24,22.413333 c -9.0667,4.893333 -13.9867,14.959999 -12.32,25.119995 l 5.2,20.92001 c 2.16,8.68 9.92,14.72 18.8533,14.72 h 40.7867 c -6.96,25.70666 -18.2534,48.85333 -33.6667,68.74666 -15.6267,20.18667 -31.1733,31.58667 -46.2,42.60267 -16.5067,12.13466 -32.12,23.57066 -44.2533,44.89066 -9.1467,16.20934 -26.2134,46.38 -19.12,94.55467 l 0.5466,3.892 h 400.6534 l 0.7066,-3.74 c 8.24,-45.52934 -7.5466,-74.93867 -16.0266,-90.72267"
       style="fill:#231f20;fill-opacity:1;fill-rule:nonzero;stroke:#231f20;stroke-width:6.66667;stroke-dasharray:none;stroke-opacity:1" />
    <path
       id="path14"
       d="m 2626.0309,382.33482 h -385.0666 c -5.2,-42.76 9.64,-68.976 18.5866,-84.82133 11.16,-19.61734 25.2934,-30.01867 41.72,-42.032 14.7867,-10.856 31.5734,-23.176 48.0267,-44.376 17.3333,-22.38667 29.7067,-48.57333 36.8267,-77.82667 l -4.44,-5.62666 h -46.7467 c -4.7467,0 -8.84,-3.22667 -10,-7.81334 l -5.08,-20.373333 c -0.9733,-6.239999 2.0933,-12.413333 7.6933,-15.426666 l 46.8934,-25.479999 0.76,-7.52 c -20.64,-17.426666 -32.48,-42.9733319 -32.48,-69.999998 0,-50.586666 41.1466,-91.733324 91.7333,-91.733324 50.5733,0 91.72,41.146658 91.72,91.733324 0,27.9999991 -12.5333,54.093332 -34.4,71.586665 l 0.8,7.639999 43.8267,22.28 c 6.2266,3.173333 9.48,10.373333 7.6933,17.253333 l -4.84,19.973339 c -1.0933,4.62666 -5.2267,7.88 -10,7.88 h -40.9733 l -4.5067,5.26666 c 4.36,27.52 13.84,52.16 28.2,73.29333 16.8533,24.81334 36.28,38.44 53.4,50.456 17.3067,12.13467 33.6133,23.57067 44.96,44.64667 8.24,15.38933 21.92,40.81466 15.6933,81.02"
       style="fill:#565352;fill-opacity:1;fill-rule:nonzero;stroke:none;stroke-width:0.133333" />
    <path
       id="path15"
       d="m 2415.8709,-108.80117 c 0,0 -92.2266,21.346667 -68.4,119.013326 0,0 4.16,-75.759998 86.9867,-120.906656 l -18.5867,1.89333"
       style="fill:#888685;fill-opacity:1;fill-rule:nonzero;stroke:none;stroke-width:0.133333" />
    <path
       id="path16"
       d="m 2372.9776,171.65216 c 0,0 -12.44,38.05333 -51.72,68.42666 -39.28,30.38 -58.7067,43.48667 -71.8933,77.55333 -13.1734,34.06667 -8.4,64.704 -8.4,64.704 0,0 2.48,-44.096 67.7066,-90.68666 65.2267,-46.59734 66.48,-87.81067 64.3067,-119.99733"
       style="fill:#888685;fill-opacity:1;fill-rule:nonzero;stroke:none;stroke-width:0.133333" />
    <path
       id="path17"
       d="m 2374.4309,58.545488 -43.3733,23.573333 c -3.12,1.72 -5.1333,2.386667 -7.5067,5.04 l -2.3333,3.44 h 24.7867 c 3.2266,0 6.2533,-1.493333 8.2133,-4.066667 6.6533,-8.693333 20.2133,-27.986666 20.2133,-27.986666 v 0"
       style="fill:#888685;fill-opacity:1;fill-rule:nonzero;stroke:none;stroke-width:0.133333" />
    <path
       id="path18"
       d="m 2478.8843,-99.187844 c 0,0 87.5866,103.5333341 -52.7067,152.186666 l 65.6133,-0.373333 c 0,0 35,-26.573333 34.3867,-71.586665 0,0 3.3467,-50.719999 -47.2933,-80.226668"
       style="fill:#454242;fill-opacity:1;fill-rule:nonzero;stroke:none;stroke-width:0.133333" />
    <path
       id="path19"
       d="m 2492.5776,60.252155 c 0,0 41.2533,44.213335 -4.2933,67.400005 h 40.9733 c 0,0 7.9333,0.77333 10.0133,-7.88 2.0934,-8.64 4.8267,-19.986673 4.8267,-19.986673 0.1867,-1.026666 0.6,-3.4 0.3867,-5.413333 -0.52,-5.146666 -0.7067,-4.453333 -4.9867,-9.706666 -6.6,-4.653333 -21.44,-10.506667 -46.92,-24.413333"
       style="fill:#454242;fill-opacity:1;fill-rule:nonzero;stroke:none;stroke-width:0.133333" />
    <path
       id="path20"
       d="m 2381.6843,127.65216 h 106.6 c 0,0 -1.68,1.96 -4.5067,5.26666 1.3333,9.49334 2.8267,18.44 15.9067,51.92 13.5466,29.10667 26.3333,42.29333 66.72,72.544 38.1066,22.04 49.44,54.68 49.44,54.68 -41.04,-11.372 -98.44,-32.70933 -157.5734,-74.57067 -34.12,-24.16 -60.8666,-49.52 -81.2533,-71.91999 l 9.1067,-32.29334 -4.44,-5.62666"
       style="fill:#454242;fill-opacity:1;fill-rule:nonzero;stroke:none;stroke-width:0.133333" />
  </g>
  <g
     id="layer13"
     transform="translate(1670.7013,237.90231)"
     style="display:none">
    <path
       id="path3"
       d="m -1103.7383,386.15615 h -433.9973 v -38.656 c 0,-43.308 35.2186,-78.52666 78.5266,-78.52666 h 276.944 c 43.308,0 78.5267,35.21866 78.5267,78.52666 z M -1446.6476,28.585489 c 3.2546,0.453334 6.5693,0.706667 9.9453,0.706667 h 225.2093 c 4.4107,0 8.6987,-0.426667 12.896,-1.186667 l 29.592,232.748001 c -4.3187,-0.66934 -8.76,-1.004 -13.26,-1.004 h -276.944 c -4.5613,0 -9.032,0.33466 -13.3813,1.03466 z m -52.2507,-70.653331 -7.0547,-69.586658 c -0.852,-8.41334 1.916,-16.84 7.6027,-23.10667 5.6573,-6.29333 13.7467,-9.88 22.2013,-9.88 h 38.1694 c 6.508,0 12.2253,4.34667 13.9586,10.61333 l 14.964,53.946667 29.5614,-1.06667 2.7373,-68.546657 c 0.2133,-5.01334 4.288,-8.94667 9.3067,-8.94667 h 87.4986 c 4.8053,0 8.7893,3.62667 9.2453,8.4 l 6.9347,69.373327 35.2187,-1 8.12,-50.586657 c 1.1253,-7.08 7.1466,-12.18667 14.2946,-12.18667 h 34.0934 c 8.4546,0 16.544,3.58667 22.232,9.88 5.656,6.26667 8.424,14.69333 7.572,23.10667 l -7.0254,69.133324 -0.031,0.453334 c 0,34.3066651 -27.888,62.226665 -62.1947,62.226665 h -225.2093 c -34.3067,0 -62.196,-27.9199999 -62.196,-62.226665 z m 339.3506,304.898662 -30.1386,-236.978664 c 28.6186,-9.213333 49.4213,-36.039999 49.512,-67.666665 l 6.996,-68.919991 c 1.1253,-10.98667 -2.464,-21.96 -9.8854,-30.17334 -7.3893,-8.17333 -17.9426,-12.86666 -28.9826,-12.86666 h -34.0934 c -11.6493,0 -21.472,8.37333 -23.2973,19.86666 l -6.9333,43.159997 -19.1614,0.54667 -6.0826,-60.959997 c -0.9427,-9.45333 -8.8494,-16.6 -18.3387,-16.6 h -87.4986 c -9.9454,0 -18.0347,7.78667 -18.4307,17.70667 l -2.4027,60.119997 -13.8986,0.49333 -13.048,-47.026667 c -2.828,-10.18666 -12.164,-17.30666 -22.748,-17.30666 h -38.1694 c -11.0093,0 -21.5933,4.69333 -28.984,12.86666 -7.3893,8.21334 -11.0093,19.18667 -9.884,30.17334 l 6.9947,68.919991 c 0.092,32.6933319 22.2933,60.239999 52.4027,68.546665 l -26.368,236.127994 c -37.3174,10.068 -64.872,44.19067 -64.872,84.64 v 47.78 h 452.2439 v -47.78 c 0,-40.48 -27.584,-74.63333 -64.932,-84.66933"
       style="fill:#231f20;fill-opacity:1;fill-rule:nonzero;stroke:#231f20;stroke-width:6.66667;stroke-dasharray:none;stroke-opacity:1" />
    <path
       id="path4"
       d="m -1103.7383,347.50015 v 38.656 h -433.9973 v -38.656 c 0,-43.308 35.2186,-78.52666 78.5266,-78.52666 h 276.944 c 43.308,0 78.5267,35.21866 78.5267,78.52666"
       style="fill:#565352;fill-opacity:1;fill-rule:nonzero;stroke:none;stroke-width:0.133333" />
    <path
       id="path5"
       d="m -1169.005,260.85349 c -4.3187,-0.66934 -8.76,-1.004 -13.26,-1.004 h -276.944 c -4.5613,0 -9.032,0.33466 -13.3813,1.03466 l 25.9427,-232.298661 c 3.2546,0.453334 6.5693,0.706667 9.9453,0.706667 h 225.2093 c 4.4107,0 8.6987,-0.426667 12.896,-1.186667 l 29.592,232.748001"
       style="fill:#565352;fill-opacity:1;fill-rule:nonzero;stroke:none;stroke-width:0.133333" />
    <path
       id="path6"
       d="m -1142.2423,-111.6545 -7.0254,69.133324 -0.031,0.453334 c 0,34.3066651 -27.888,62.226665 -62.1947,62.226665 h -225.2093 c -34.3067,0 -62.196,-27.9199999 -62.196,-62.226665 l -7.0547,-69.586658 c -0.852,-8.41334 1.916,-16.84 7.6027,-23.10667 5.6573,-6.29333 13.7467,-9.88 22.2013,-9.88 h 38.1694 c 6.508,0 12.2253,4.34667 13.9586,10.61333 l 14.964,53.946667 29.5614,-1.06667 2.7373,-68.546657 c 0.2133,-5.01334 4.288,-8.94667 9.3067,-8.94667 h 87.4986 c 4.8053,0 8.7893,3.62667 9.2453,8.4 l 6.9347,69.373327 35.2187,-1 8.12,-50.586657 c 1.1253,-7.08 7.1466,-12.18667 14.2946,-12.18667 h 34.0934 c 8.4546,0 16.544,3.58667 22.232,9.88 5.656,6.26667 8.424,14.69333 7.572,23.10667"
       style="fill:#565352;fill-opacity:1;fill-rule:nonzero;stroke:none;stroke-width:0.133333" />
    <path
       id="path7"
       d="m -1472.0676,-142.7745 c 0.6733,-0.85334 2.2533,-1.94667 -2.432,-1.94667 -9.0254,0.0133 -34.08,4.66667 -31.5267,32.12 3.1053,33.386657 4.7427,66.599994 8.7707,79.879994 3.6093,11.906666 8.0546,-88.159994 25.188,-110.053324"
       style="fill:#888685;fill-opacity:1;fill-rule:nonzero;stroke:none;stroke-width:0.133333" />
    <path
       id="path8"
       d="m -1376.665,-150.6545 -1.5266,39.36 c 0,0 26.8893,-41.38667 41.9026,-47.34667 h -31.716 c -4.1493,0 -8.372,3.84 -8.66,7.98667"
       style="fill:#888685;fill-opacity:1;fill-rule:nonzero;stroke:none;stroke-width:0.133333" />
    <path
       id="path9"
       d="m -1183.2237,-144.64117 -41.352,37.98667 c 0,0 1.2254,-9.84 2.5267,-18.02667 1.272,-8.01333 2.5533,-14.34667 7.9587,-17.54667 2.3946,-4.26666 30.8666,-2.41333 30.8666,-2.41333"
       style="fill:#888685;fill-opacity:1;fill-rule:nonzero;stroke:none;stroke-width:0.133333" />
    <path
       id="path10"
       d="m -1402.5223,29.638823 c 0,0 156.8546,19.159999 169.5693,119.986667 11.9467,94.73333 16.4947,110.224 16.4947,110.224 l 47.4533,1.004 -29.592,-232.748001 -11.42,1.173334 c -0.6653,0.06667 -1.3347,0.106666 -2.004,0.106666 l -190.5013,0.253334"
       style="fill:#454242;fill-opacity:1;fill-rule:nonzero;stroke:none;stroke-width:0.133333" />
    <path
       id="path11"
       d="m -1186.7023,-3.8011769 c -15.108,11.493333 -33.0414,17.8533329 -33.0427,17.8533329 -10.184,3.613334 -19.2053,5.28 -25.9227,6.106667 0,0 50.0854,3.306666 61.2867,-6.226667 30.4507,-10.0266659 35.6893,-44.559999 38.1067,-77.733331 1.624,-22.279998 4.1053,-48.746665 4.1053,-48.746665 -3.1547,52.933331 -23.9773,93.119997 -44.5333,108.7466631"
       style="fill:#454242;fill-opacity:1;fill-rule:nonzero;stroke:none;stroke-width:0.133333" />
    <path
       id="path12"
       d="m -1104.013,338.83348 c -4.2573,-39.32533 -37.6507,-70.01199 -78.0707,-70.01199 h -138.6533 -138.6546 c -40.4187,0 -73.812,30.68666 -78.0694,70.01199 -0.3053,2.79734 -0.1226,5.26134 2.0974,-2.92 2.7373,-10.03733 9.1853,-18.46133 17.1533,-24.87866 13.1693,-10.644 29.684,-16.18 46.5933,-16.66667 28.832,-0.82133 89.172,-2.31066 150.88,-2.61466 61.708,0.304 122.048,1.79333 150.88,2.61466 16.9093,0.48667 33.424,6.02267 46.5933,16.66667 7.968,6.41733 14.416,14.84133 17.152,24.87866 2.22,8.18134 2.4027,5.71734 2.0987,2.92"
       style="fill:#888685;fill-opacity:1;fill-rule:nonzero;stroke:none;stroke-width:0.133333" />
  </g>
</svg>
