<?xml version="1.0" encoding="UTF-8" standalone="no"?>
<!-- Created with Inkscape (http://www.inkscape.org/) -->

<svg
   version="1.1"
   id="svg1"
   width="583.98297"
   height="629.46796"
   viewBox="0 0 583.98297 629.46797"
   xmlns="http://www.w3.org/2000/svg"
   xmlns:svg="http://www.w3.org/2000/svg">
  <defs
     id="defs1" />
  <g
     id="layer2"
     transform="translate(-3181.6751,-1182.012)">
    <path
       id="path93"
       d="m 25581.6,4193.9 c -0.2,-19.2 -15.8,-34.7 -34.9,-34.7 h -47.2 c -103.1,0 -200.3,40.2 -274,113.4 -133.2,131.6 -354.2,388.2 -336.9,626.3 3.2,45.7 33.5,91.7 83,126.2 39.7,27.4 103.6,56.8 194.8,56.8 96.1,0 222.7,-32.6 383.5,-134.6 21.6,-13.7 35.1,-38.3 34.9,-64.3 z m 4.8,811.3 c -346.7,219.7 -558.4,141.9 -653.8,76 -66.6,-46.3 -107.4,-110.9 -112.4,-177.2 -18,-252.3 184.3,-509.2 357,-680 86.6,-86 201.1,-133.2 322.3,-133.2 h 47.2 c 56.6,0 102.9,46.1 103.3,102.6 l 3.2,689.1 c 0.2,49.3 -25.3,96.3 -66.8,122.7"
       style="fill:#231f20;fill-opacity:1;fill-rule:nonzero;stroke:#231f20;stroke-width:50;stroke-dasharray:none;stroke-opacity:1"
       transform="matrix(0.13333333,0,0,-0.13333333,0,2133.3333)" />
    <path
       id="path94"
       d="m 26871.5,4272.6 h -0.2 c -73.7,-73.2 -171.1,-113.4 -274.2,-113.4 h -47 c -19.2,0 -34.9,15.5 -34.9,34.7 l -3.2,689.1 c -0.2,26 13.2,50.6 34.7,64.3 161,102 287.6,134.6 383.6,134.6 91.3,0 154.9,-29.4 194.6,-56.8 49.5,-34.5 80.1,-80.5 83.3,-126.2 17.3,-238.1 -203.7,-494.7 -336.7,-626.3 z m 405.1,631.4 c -5,66.3 -46.1,130.9 -112.9,177.2 -95.1,65.9 -306.4,143.7 -653.5,-76 -41.5,-26.4 -66.9,-73.2 -66.6,-122.7 l 3.2,-689.1 c 0.2,-56.5 46.7,-102.6 103.3,-102.6 h 47 c 60.7,0 119.5,11.8 174.2,34.4 54.8,22.4 105,55.7 148.3,98.6 172.9,171 375,427.9 357,680.2"
       style="fill:#231f20;fill-opacity:1;fill-rule:nonzero;stroke:#231f20;stroke-width:50;stroke-dasharray:none;stroke-opacity:1"
       transform="matrix(0.13333333,0,0,-0.13333333,0,2133.3333)" />
    <path
       id="path95"
       d="m 27820.8,4116.3 -643.7,-691.1 c -10,2.7 -20.7,4.8 -31,7.3 -6.8,1.6 -13.4,3.2 -20.3,4.6 -21.4,4.5 -43.1,8.4 -65.5,11.6 -42.4,6.1 -84.8,11.8 -127.2,17.1 -6.2,0.7 -12.3,1.4 -18.3,2 -36.9,4.6 -73.7,8.9 -110.6,12.8 -2.7,0.2 -5.3,0.5 -8,0.7 -211.2,22.1 -424,34.9 -636.2,38.3 -9.5,0 -19.1,0 -28.7,0.3 -27.6,0.2 -55.4,0.6 -83.3,0.6 h -21.2 c -352.4,-1.1 -669.2,-36 -948.9,-66.8 l -42.6,-4.8 c -21.7,-2.5 -43.1,-5.7 -63.9,-9.6 -6.8,-1.1 -13.4,-2.7 -20.1,-4.1 -10.2,-2 -20.5,-3.8 -30.3,-6.4 l -636.6,687.5 c -647.1,804.1 -153.8,1367.7 -132.5,1391.2 l 1.6,1.8 c 464.6,591.95 1220.7,324.8 1441.5,228.8 25.1,-10.7 53.6,-10 78,2.3 24.5,12.1 42.2,34.4 48.6,61.1 l 86.7,361.11 H 25442 v 482.89 h 372.7 v 395.98 h 475.6 V 6645.5 h 372.7 v -482.89 h -366.3 l 86.7,-361.11 c 6.3,-26.7 24.1,-49 48.5,-61.1 24.4,-12.3 53,-13 78,-2.3 220.8,96 977,363.15 1441.6,-228.8 l 1.6,-1.8 c 21.2,-23.5 514.6,-587.1 -132.3,-1391.2 z m -174,-1326.6 v -217.6 c 0,-35.8 -29,-64.8 -64.8,-64.8 h -3069.3 c -35.8,0 -64.8,29 -64.8,64.8 v 217.6 c 0,273 180.5,490.7 470.8,568 39,10.5 80.8,18.2 124.1,23.2 l 42.7,4.6 c 277.8,30.8 592.8,65.5 941.6,66.6 h 20.9 c 334.9,0 672,-23.9 1002.8,-70.9 44.7,-6.6 87.6,-15.8 127.9,-27.4 293.1,-84.2 468.1,-295.2 468.1,-564.1 z m 358.1,2762.7 c -495,629.37 -1290.3,349.5 -1522.3,248.7 -8.9,-3.9 -16.5,-1.4 -20.1,0.4 -3.6,1.9 -10.3,6.4 -12.5,16 l -66.6,276.68 h 348 v 619.75 h -372.7 v 395.98 h -612.4 v -395.98 h -372.7 v -619.75 h 348 L 25655,5817.5 c -2.3,-9.6 -8.9,-14.1 -12.5,-16 -3.7,-1.8 -11.2,-4.3 -20.1,-0.4 -232.2,100.8 -1027.3,380.67 -1522.3,-248.7 -26.9,-31.2 -539.9,-646.2 131.6,-1479.9 l 615.9,-664.9 c -290.2,-97.4 -468.1,-329.6 -468.1,-617.9 v -217.6 c 0,-73.4 59.8,-133.2 133.2,-133.2 H 27582 c 73.5,0 133.2,59.8 133.2,133.2 v 217.6 c 0,284.7 -172.9,510.5 -465.5,612.9 l 622,668.1 1.6,1.8 c 671.5,833.7 158.5,1448.9 131.6,1479.9"
       style="fill:#231f20;fill-opacity:1;fill-rule:nonzero;stroke:#231f20;stroke-width:50;stroke-dasharray:none;stroke-opacity:1"
       transform="matrix(0.13333333,0,0,-0.13333333,0,2133.3333)" />
    <path
       id="path96"
       d="m 27646.8,2789.7 v -217.6 c 0,-35.8 -29,-64.8 -64.8,-64.8 h -3069.3 c -35.8,0 -64.8,29 -64.8,64.8 v 217.6 c 0,273 180.5,490.7 470.8,568 39,10.5 80.8,18.2 124.1,23.2 l 42.7,4.6 c 277.8,30.8 592.8,65.5 941.6,66.6 h 20.9 c 334.9,0 672,-23.9 1002.8,-70.9 44.7,-6.6 87.6,-15.8 127.9,-27.4 293.1,-84.2 468.1,-295.2 468.1,-564.1"
       style="fill:#f8f8f8;fill-opacity:1;fill-rule:nonzero;stroke:none"
       transform="matrix(0.13333333,0,0,-0.13333333,0,2133.3333)" />
    <path
       id="path97"
       d="m 26919.6,4223.8 c -43.3,-42.9 -93.5,-76.2 -148.3,-98.6 -54.7,-22.6 -113.5,-34.4 -174.2,-34.4 h -47 c -56.6,0 -103.1,46.1 -103.3,102.6 l -3.2,689.1 c -0.3,49.5 25.1,96.3 66.6,122.7 347.1,219.7 558.4,141.9 653.5,76 66.8,-46.3 107.9,-110.9 112.9,-177.2 18,-252.3 -184.1,-509.2 -357,-680.2 z M 25650,4193.4 c -0.4,-56.5 -46.7,-102.6 -103.3,-102.6 h -47.2 c -121.2,0 -235.7,47.2 -322.3,133.2 -172.7,170.8 -375,427.7 -357,680 5,66.3 45.8,130.9 112.4,177.2 95.4,65.9 307.1,143.7 653.8,-76 41.5,-26.4 67,-73.4 66.8,-122.7 z m 2303.1,1314.1 -1.6,1.8 c -464.6,591.95 -1220.8,324.8 -1441.6,228.8 -25,-10.7 -53.6,-10 -78,2.3 -24.4,12.1 -42.2,34.4 -48.5,61.1 l -86.7,361.11 h 366.3 v 482.89 h -372.7 v 395.98 h -475.6 V 6645.5 H 25442 v -482.89 h 366.3 l -86.7,-361.11 c -6.4,-26.7 -24.1,-49 -48.6,-61.1 -24.4,-12.3 -52.9,-13 -78,-2.3 -220.8,96 -976.9,363.15 -1441.5,-228.8 l -1.6,-1.8 c -21.3,-23.5 -514.6,-587.1 132.5,-1391.2 l 636.6,-687.5 c 9.8,2.6 20.1,4.4 30.3,6.4 6.7,1.4 13.3,3 20.1,4.1 20.8,3.9 42.2,7.1 63.9,9.6 l 42.6,4.8 c 279.7,30.8 596.5,65.7 948.9,66.8 h 21.2 c 27.9,0 55.7,-0.4 83.3,-0.6 9.6,-0.3 19.2,-0.3 28.7,-0.3 212.2,-3.4 425,-16.2 636.2,-38.3 2.7,-0.2 5.3,-0.5 8,-0.7 36.9,-3.9 73.7,-8.2 110.6,-12.8 6,-0.6 12.1,-1.3 18.3,-2 42.4,-5.3 84.8,-11 127.2,-17.1 22.4,-3.2 44.1,-7.1 65.5,-11.6 6.9,-1.4 13.5,-3 20.3,-4.6 10.3,-2.5 21,-4.6 31,-7.3 l 643.7,691.1 c 646.9,804.1 153.5,1367.7 132.3,1391.2"
       style="fill:#f8f8f8;fill-opacity:1;fill-rule:nonzero;stroke:none"
       transform="matrix(0.13333333,0,0,-0.13333333,0,2133.3333)" />
    <path
       id="path98"
       d="m 27850.7,5620.5 c 0,0 401,-484.3 61.2,-1080.1 -142.1,-249.2 -347.6,-497.2 -570.7,-683.3 -239.3,-199.6 -480.6,-382.7 -480.6,-382.7 l 316.5,-49.2 570.2,612.2 c 0,0 376.6,393.4 402.4,816.9 26.2,431.6 -195,680.2 -299,766.2"
       style="fill:#d3d3d3;fill-opacity:1;fill-rule:nonzero;stroke:none"
       transform="matrix(0.13333333,0,0,-0.13333333,0,2133.3333)" />
    <path
       id="path99"
       d="m 27583.4,3050.2 c -445.7,124.3 -1356.5,117.2 -2141.4,107.7 -562.1,-7.1 -842.8,-134.2 -980.4,-241.6 47,212.6 213.3,376.4 457.1,441.4 39,10.5 80.8,18.2 124.1,23.2 l 42.7,4.6 c 277.8,30.8 592.8,65.5 941.6,66.6 h 20.9 c 334.9,0 672,-23.9 1002.8,-70.9 44.7,-6.6 87.6,-15.8 127.9,-27.4 189.4,-54.3 329.4,-161.7 404.7,-303.6"
       style="fill:#ffffff;fill-opacity:1;fill-rule:nonzero;stroke:none"
       transform="matrix(0.13333333,0,0,-0.13333333,0,2133.3333)" />
  </g>
</svg>
