<?xml version="1.0" encoding="UTF-8" standalone="no"?>
<!-- Created with Inkscape (http://www.inkscape.org/) -->

<svg
   version="1.1"
   id="svg1"
   width="700"
   height="700"
   viewBox="0 0 700 700.00001"
   sodipodi:docname="knight_black.svg"
   inkscape:version="1.4 (86a8ad7, 2024-10-11)"
   xmlns:inkscape="http://www.inkscape.org/namespaces/inkscape"
   xmlns:sodipodi="http://sodipodi.sourceforge.net/DTD/sodipodi-0.dtd"
   xmlns="http://www.w3.org/2000/svg"
   xmlns:svg="http://www.w3.org/2000/svg">
  <sodipodi:namedview
     id="namedview1"
     pagecolor="#ffffff"
     bordercolor="#000000"
     borderopacity="0.25"
     inkscape:showpageshadow="2"
     inkscape:pageopacity="0.0"
     inkscape:pagecheckerboard="0"
     inkscape:deskcolor="#d1d1d1"
     inkscape:zoom="1.6671429"
     inkscape:cx="350.29991"
     inkscape:cy="363.19623"
     inkscape:window-width="2560"
     inkscape:window-height="1369"
     inkscape:window-x="1912"
     inkscape:window-y="-8"
     inkscape:window-maximized="1"
     inkscape:current-layer="svg1" />
  <defs
     id="defs1" />
  <g
     id="layer10"
     transform="translate(927.4994,264.91135)"
     style="display:inline">
    <path
       id="path33"
       d="m -333.22232,370.00682 c 0,6.17333 -5.01333,11.192 -11.18667,11.192 h -401.70132 c -6.17333,0 -11.192,-5.01867 -11.192,-11.192 v -31.964 c 0,-34.428 23.388,-64.112 56.904,-72.17067 3.588,-0.73066 130.71599,-26.24666 316.81599,1.916 30.13333,10.248 50.36,38.44134 50.36,70.25467 z m -343.75866,-155.808 c 16.75733,-27.34667 39.264,-45.68 61.1,-63.44 15.968,-12.98666 31.052,-25.24 42.73066,-40.29333 16.51467,-21.226669 15.38934,-44.893335 8.82,-59.986668 -0.48666,-1.146667 -0.82133,-1.973333 -1.064,-2.613333 -1.03466,-2.706667 -1.612,-3.613334 -4.31866,-5.893334 -1.21734,-0.973333 -2.676,-1.493333 -4.16667,-1.493333 -1.704,0 -3.40667,0.693333 -4.684,2.013333 -5.01867,5.32 -49.72533,52.093332 -72.26133,57.719995 -8.60667,2.13334 -15.78533,1.85334 -22.11067,1.57334 -11.496,-0.45333 -21.44133,-0.84 -30.26133,14.64 -8.424,14.72 -17.97467,24.69333 -22.90133,29.34667 -1.85467,1.76 -4.25733,2.85333 -6.812,3.09333 -36.40533,3.46667 -61.22133,-13.34667 -76.73333,-26.30667 -17.21334,-14.32 -11.43467,-32.626666 -10.73467,-34.599999 1.916,-4.626667 37.07333,-67.466665 52.188,-76.133331 18.096,-10.306667 42.36667,-86.760003 44.98133,-99.906663 2.79867,-13.959997 26.58133,-34.453327 42.36533,-48.053327 l 1.67334,-1.45334 c 9.00266,-7.78666 9.76266,-17.24 10.52266,-26.46666 0.88267,-10.61334 1.79467,-21.56 13.07734,-34.38667 4.19733,-4.81333 10.432,-10.25333 16.21066,-9.09333 6.93467,1.38666 10.736,11.33333 11.132,12.46666 l 0.33334,0.93334 37.68266,38.36 c 3.92267,3.94666 9.06267,6.41333 14.44667,6.93333 31.02133,3.18667 82.572,21.98667 121.04933,51.733327 49.57333,38.320001 79.68,89.2933331 92.05333,155.773331 12.74667,68.546672 -14.81333,171.373332 -23.02667,199.602662 -164.95466,-24.48266 -283.56666,-7.14666 -310.75599,-2.40266 2.464,-13.56 14.38533,-33.94667 19.464,-41.66667 z m 300.14533,46.32 c 8.45333,-29.13333 36.22666,-133.30666 23.12,-203.493332 -12.81334,-68.826665 -44.01334,-121.586663 -95.41334,-161.373328 -39.83733,-30.77333 -93.39466,-50.24 -125.72399,-53.56 -3.284,-0.33333 -6.448,-1.85333 -8.85067,-4.29333 l -36.31333,-36.94667 c -1.612,-4.01333 -6.99467,-15.2 -17.51733,-17.33333 -8.09067,-1.61333 -16.45334,2.4 -24.90934,12.01333 -13.22933,15.08 -14.38533,28.70667 -15.29733,39.74667 -0.72933,8.64 -1.216,14.88 -7.42133,20.22667 l -1.672,1.46666 c -18.67334,16.08 -41.90933,36.12 -45.316,53.186667 -3.68,18.373331 -27.55467,86.3466631 -40.54133,93.7599961 -18.52134,10.5866659 -55.47334,78.3733309 -56.29467,80.9333309 -0.912,2.68 -8.45467,26.453336 13.504,44.706666 16.75733,14.02667 43.612,32.21334 83.424,28.37334 4.592,-0.42667 8.94133,-2.4 12.22533,-5.53334 5.292,-4.98666 15.54133,-15.69333 24.544,-31.48 6.11333,-10.64 11.06933,-10.42666 21.988,-10 6.6,0.26667 14.78133,0.6 24.66533,-1.82666 22.96267,-5.77333 62.68133,-45.680005 74.664,-58.186671 0,0.09333 0.0307,0.16 0.0613,0.253333 0.304,0.72 0.66934,1.666667 1.216,2.973333 5.50534,12.68 6.388,32.666666 -7.63333,50.733335 -11.07066,14.22667 -25.76,26.18667 -41.36133,38.86667 -22.384,18.21333 -45.49867,37.01333 -62.98667,65.57333 -2.128,3.22666 -19.64666,30.29333 -21.228,48.568 -35.82666,10.188 -60.52266,42.66933 -60.52266,80.16933 v 31.964 c 0,11.192 9.124,20.316 20.316,20.316 h 401.70132 c 11.18667,0 20.30667,-9.124 20.30667,-20.316 v -31.964 c 0,-34.39733 -21.01333,-64.99333 -52.73333,-77.524"
       style="fill:#231f20;fill-opacity:1;fill-rule:nonzero;stroke:#231f20;stroke-width:6.66667;stroke-dasharray:none;stroke-opacity:1" />
    <path
       id="path34"
       d="m -385.68899,258.14682 c -164.95466,-24.48133 -283.56666,-7.14667 -310.75599,-2.40267 2.464,-13.55866 14.38533,-33.94533 19.464,-41.66533 16.75733,-27.34667 39.264,-45.68 61.1,-63.44 15.968,-12.98666 31.052,-25.24 42.73066,-40.30666 16.51467,-21.226672 15.38934,-44.880005 8.82,-59.973338 -0.48666,-1.146667 -0.82133,-1.973333 -1.064,-2.613333 -1.03466,-2.706667 -1.612,-3.613334 -4.31866,-5.893334 -1.21734,-0.973333 -2.676,-1.493333 -4.16667,-1.493333 -1.704,0 -3.40667,0.693333 -4.684,2.013333 -5.01867,5.32 -49.72533,52.093332 -72.26133,57.719995 -8.60667,2.12001 -15.78533,1.85334 -22.11067,1.57334 -11.496,-0.45334 -21.44133,-0.85334 -30.26133,14.64 -8.424,14.72 -17.97467,24.69333 -22.90133,29.34667 -1.85467,1.76 -4.25733,2.85333 -6.812,3.09333 -36.40533,3.46667 -61.22133,-13.34667 -76.73333,-26.30667 -17.21334,-14.32 -11.43467,-32.626666 -10.73467,-34.599999 1.916,-4.626667 37.07333,-67.466665 52.188,-76.133331 18.096,-10.306667 42.36667,-86.760003 44.98133,-99.906663 2.79867,-13.959997 26.58133,-34.453327 42.36533,-48.053327 l 1.67334,-1.45334 c 9.00266,-7.78666 9.76266,-17.25333 10.52266,-26.46666 0.88267,-10.61334 1.79467,-21.56 13.07734,-34.38667 4.19733,-4.81333 10.432,-10.25333 16.21066,-9.10667 6.93467,1.4 10.736,11.34667 11.132,12.48 l 0.33334,0.93334 37.68266,38.36 c 3.92267,3.94666 9.06267,6.41333 14.44667,6.93333 31.02133,3.18667 82.572,21.98667 121.04933,51.733327 49.57333,38.320001 79.68,89.2933331 92.05333,155.773331 12.74667,68.546672 -14.81333,171.373332 -23.02667,199.601332"
       style="fill:#565352;fill-opacity:1;fill-rule:nonzero;stroke:none;stroke-width:0.133333" />
    <path
       id="path35"
       d="m -658.62765,-71.561175 c 0,0 -11.38933,14.24 -15.01333,31.319999 0,0 10.16,-6.693333 37.01467,-3.36 27.112,3.36 23.812,-27.373332 13.97733,-33.906667 -4.44,-2.96 -20.18933,-12.17333 -35.97867,5.946668"
       style="fill:#231f20;fill-opacity:1;fill-rule:nonzero;stroke:none;stroke-width:6.66667;stroke-dasharray:none;stroke-opacity:1" />
    <path
       id="path36"
       d="m -497.85832,-124.16117 c 0,0 101.16933,81.079994 83.56933,181.506658 -17.6,100.426672 -74.54266,150.120002 -84.89599,169.786662 -5.98534,11.37334 -2.85334,19.66667 -2.85334,19.66667 0,0 66.78933,3.116 116.34933,11.39867 0,0 40.12,-109.03867 22,-203.252002 0,0 -8.8,-66.706665 -53.84,-116.41333 0,0 -30.33333,-40.173328 -80.32933,-62.693328"
       style="fill:#454242;fill-opacity:1;fill-rule:nonzero;stroke:none;stroke-width:0.133333" />
    <path
       id="path37"
       d="m -641.54498,-206.66784 c 0,0 -10.09467,-1.56 -21.548,19.6 0,0 -4.076,9.52 -5.04667,21.36 -0.97066,11.84 -0.97066,19.98667 -12.424,29.50667 -11.45466,9.50667 -21.54933,19.02667 -21.54933,19.02667 0,0 -14.94667,14.94666 -19.21733,24.066657 l -4.07733,15.53333 -10.09467,29.893337 c 0,0 -9.512,23.88 -10.48267,26.2 -0.97066,2.333333 -8.92933,17.0933331 -9.70666,18.8399991 -0.776,1.74666695 -6.6,11.453333 -14.75334,16.1066669 0,0 -4.20666,3.56 -6.01733,5.893333 -1.812,2.333333 -11.77733,15.013333 -13.26533,17.599999 -1.48934,2.586667 -21.38667,32.706666 -27.57734,45.093332 -1.448,2.76 -3.22533,4.96 -4.00133,9.746667 -1.452,6.053333 64.004,-71.639998 64.004,-71.639998 0,0 37.42133,-54.106666 42.44533,-81.519998 8.54133,-46.613325 46.652,-51.559995 53.9,-79.306665 5.30133,-20.30666 8.38,-17.88 16.39467,-43.62666 5.27466,-16.94667 12.212,-23.52 3.01733,-22.37334"
       style="fill:#888685;fill-opacity:1;fill-rule:nonzero;stroke:none;stroke-width:0.133333" />
    <path
       id="path38"
       d="m -333.22232,338.04282 v 31.964 c 0,6.17333 -5.01333,11.192 -11.18667,11.192 h -401.70132 c -6.17333,0 -11.192,-5.01867 -11.192,-11.192 v -31.964 c 0,-34.428 23.388,-64.112 56.904,-72.17067 3.588,-0.73066 130.71599,-26.24666 316.81599,1.916 30.13333,10.248 50.36,38.44134 50.36,70.25467"
       style="fill:#565352;fill-opacity:1;fill-rule:nonzero;stroke:none;stroke-width:0.133333" />
    <path
       id="path39"
       d="m -338.84899,309.63615 c -6.65333,-4.86666 -13.04,-5.50533 -13.04,-5.50533 -31.54666,-10.73467 -71.6,-16.848 -92.54666,-18.27733 -20.99067,-1.46 -235.312,-5.56534 -280.32399,9.97466 -8.60667,2.95067 -17.092,6.38667 -25.21334,9.976 9.39867,-19.58666 27.22,-34.54933 49.57467,-39.932 3.588,-0.73066 130.71599,-26.24666 316.81599,1.916 20.68,7.02534 36.70667,22.536 44.73333,41.848"
       style="fill:#888685;fill-opacity:1;fill-rule:nonzero;stroke:none;stroke-width:0.133333" />
    <path
       id="path40"
       d="m -577.18498,41.398822 c 0,0 28.29733,-30.653332 31.924,-52.906665 3.62666,-22.266666 9.83866,17.5999991 6.73333,31.053333 -3.10667,13.466666 -10.296,58.893331 -27.29067,79.159997 0,0 6.09067,-11.239999 5.936,-24.533332 -0.14666,-12.733333 -1.956,-19.773333 -8.17066,-30.24 -3.412,-5.746666 -9.132,-2.533333 -9.132,-2.533333"
       style="fill:#454242;fill-opacity:1;fill-rule:nonzero;stroke:none;stroke-width:0.133333" />
    <path
       id="path41"
       d="m -726.18364,145.09216 c 0,0 28.14799,-63.093339 36.49599,-63.293339 8.34667,-0.186667 47.40534,5.573333 62.82134,4.946667 0,0 -14.67867,20.026672 -56.45334,15.120002 0,0 -11.73333,1.30667 -22.932,19.61333 -10.87333,17.78667 -18.96133,23.02667 -19.93199,23.61334"
       style="fill:#454242;fill-opacity:1;fill-rule:nonzero;stroke:none;stroke-width:0.133333" />
  </g>
</svg>
