<?xml version="1.0" encoding="UTF-8" standalone="no"?>
<!-- Created with Inkscape (http://www.inkscape.org/) -->

<svg
   version="1.1"
   id="svg1"
   width="700"
   height="700"
   viewBox="0 0 700 700.00001"
   sodipodi:docname="knight_white.svg"
   inkscape:version="1.4 (86a8ad7, 2024-10-11)"
   xmlns:inkscape="http://www.inkscape.org/namespaces/inkscape"
   xmlns:sodipodi="http://sodipodi.sourceforge.net/DTD/sodipodi-0.dtd"
   xmlns="http://www.w3.org/2000/svg"
   xmlns:svg="http://www.w3.org/2000/svg">
  <sodipodi:namedview
     id="namedview1"
     pagecolor="#ffffff"
     bordercolor="#000000"
     borderopacity="0.25"
     inkscape:showpageshadow="2"
     inkscape:pageopacity="0.0"
     inkscape:pagecheckerboard="0"
     inkscape:deskcolor="#d1d1d1"
     inkscape:zoom="1.6671429"
     inkscape:cx="350.29991"
     inkscape:cy="350"
     inkscape:window-width="2560"
     inkscape:window-height="1369"
     inkscape:window-x="1912"
     inkscape:window-y="-8"
     inkscape:window-maximized="1"
     inkscape:current-layer="svg1" />
  <defs
     id="defs1" />
  <g
     id="layer4"
     transform="translate(947.51674,-598.62088)"
     style="display:inline">
    <path
       id="path79"
       d="m -353.23565,1233.5454 c 0,6.1734 -5.02667,11.1867 -11.2,11.1867 h -401.69599 c -6.17334,0 -11.192,-5.0133 -11.192,-11.1867 v -31.9733 c 0,-34.4267 23.388,-64.1067 56.90266,-72.16 3.58933,-0.7333 130.716,-26.2533 316.81199,1.9067 30.14667,10.2533 50.37334,38.4533 50.37334,70.2533 z m -343.76666,-155.8133 c 16.75733,-27.3333 39.264,-45.68 61.1,-63.44 15.96666,-12.9866 31.052,-25.23997 42.73066,-40.2933 16.51467,-21.22666 15.38933,-44.89333 8.82,-59.97333 -0.48667,-1.16 -0.82133,-1.98667 -1.06533,-2.62667 -1.03334,-2.70666 -1.61067,-3.61333 -4.31734,-5.89333 -1.21733,-0.97333 -2.67733,-1.49333 -4.16666,-1.49333 -1.704,0 -3.40667,0.70666 -4.684,2.01333 -5.01867,5.32 -49.72533,52.09333 -72.26133,57.72 -8.608,2.13333 -15.78534,1.85333 -22.11067,1.58667 -11.496,-0.46667 -21.44133,-0.85334 -30.26133,14.62666 -8.424,14.72 -17.97467,24.6933 -22.90133,29.3467 -1.85467,1.76 -4.25734,2.8533 -6.812,3.1066 -36.40534,3.4667 -61.22267,-13.35997 -76.73334,-26.30663 -17.21333,-14.33333 -11.43466,-32.64 -10.736,-34.61333 1.916,-4.62667 37.07467,-67.45334 52.18934,-76.12 18.096,-10.32 42.36533,-86.77333 44.98133,-99.91333 2.79733,-13.96 26.58133,-34.45867 42.36533,-48.05334 l 1.67333,-1.46 c 9.00134,-7.78533 9.76267,-17.24399 10.52267,-26.45866 0.88133,-10.61467 1.79467,-21.564 13.07733,-34.39867 4.19734,-4.804 10.432,-10.248 16.21067,-9.09333 6.93467,1.4 10.736,11.344 11.13067,12.46933 l 0.33466,0.944 37.68267,38.35067 c 3.92267,3.95333 9.06267,6.41733 14.44533,6.93333 31.02133,3.19333 82.572,21.98933 121.04533,51.73333 49.57333,38.32 79.68,89.29333 92.06667,155.77333 12.73333,68.56 -14.81334,171.3866 -23.02667,199.6 -164.964,-24.48 -283.57466,-7.1467 -310.76399,-2.4 2.46266,-13.56 14.38533,-33.9334 19.464,-41.6667 z m 300.15332,46.32 c 8.45334,-29.1333 36.21334,-133.2933 23.10667,-203.4933 -12.8,-68.82666 -44,-121.58666 -95.404,-161.37199 -39.84133,-30.77734 -93.39866,-50.24267 -125.72799,-53.55733 -3.28534,-0.33467 -6.448,-1.85467 -8.85067,-4.288 l -36.31333,-36.952 c -1.612,-4.01467 -6.99467,-15.20667 -17.51867,-17.336 -8.08933,-1.612 -16.45333,2.40266 -24.908,12.01333 -13.22933,15.08533 -14.38533,28.71067 -15.29733,39.75067 -0.73067,8.63733 -1.21734,14.872 -7.42134,20.22399 l -1.67333,1.46 c -18.67333,16.08934 -41.908,36.13067 -45.31466,53.19334 -3.68,18.37066 -27.55467,86.34399 -40.54134,93.75733 -18.52133,10.58666 -55.47333,78.38666 -56.29466,80.93333 -0.912,2.68 -8.45467,26.46667 13.504,44.70666 16.75733,14.02667 43.612,32.21337 83.42266,28.37337 4.59334,-0.4267 8.94134,-2.4 12.22667,-5.5334 5.292,-4.9866 15.54133,-15.6933 24.54266,-31.47997 6.11334,-10.63999 11.07067,-10.42666 21.98934,-9.99999 6.6,0.28 14.78133,0.61333 24.66533,-1.82667 22.96133,-5.77333 62.68133,-45.68 74.664,-58.17333 0,0.08 0.0307,0.14666 0.0613,0.24 0.304,0.73333 0.66934,1.66666 1.216,2.97333 5.50533,12.69333 6.38667,32.66667 -7.63333,50.73333 -11.07067,14.24 -25.76,26.18667 -41.36267,38.8667 -22.384,18.2133 -45.49733,37.0133 -62.98533,65.5733 -2.12933,3.2266 -19.64667,30.2933 -21.228,48.5733 -35.82666,10.1867 -60.52266,42.6667 -60.52266,80.16 v 31.9733 c 0,11.1867 9.124,20.3067 20.316,20.3067 h 401.69599 c 11.2,0 20.32,-9.12 20.32,-20.3067 v -31.9733 c 0,-34.3867 -21.01334,-64.9867 -52.73334,-77.52"
       style="fill:#231f20;fill-opacity:1;fill-rule:nonzero;stroke:#231f20;stroke-width:6.66667;stroke-dasharray:none;stroke-opacity:1" />
    <path
       id="path80"
       d="m -405.70232,1121.6788 c -164.964,-24.48 -283.57466,-7.1467 -310.76399,-2.4 2.46266,-13.56 14.38533,-33.9467 19.464,-41.6667 16.75733,-27.3333 39.264,-45.68 61.1,-63.44 15.96666,-12.9866 31.052,-25.23997 42.73066,-40.2933 16.51467,-21.22666 15.38933,-44.89333 8.82,-59.97333 -0.48667,-1.16 -0.82133,-1.98667 -1.06533,-2.62667 -1.03334,-2.70666 -1.61067,-3.61333 -4.31734,-5.89333 -1.21733,-0.97333 -2.67733,-1.49333 -4.16666,-1.49333 -1.704,0 -3.40667,0.70666 -4.684,2.01333 -5.01867,5.32 -49.72533,52.09333 -72.26133,57.72 -8.608,2.13333 -15.78534,1.85333 -22.11067,1.58667 -11.496,-0.46667 -21.44133,-0.85334 -30.26133,14.62666 -8.424,14.72 -17.97467,24.6933 -22.90133,29.3467 -1.85467,1.76 -4.25734,2.8533 -6.812,3.1066 -36.40534,3.4667 -61.22267,-13.35997 -76.73334,-26.30663 -17.21333,-14.33333 -11.43466,-32.64 -10.736,-34.61333 1.916,-4.62667 37.07467,-67.46667 52.18934,-76.13334 18.096,-10.30666 42.36533,-86.75999 44.98133,-99.90133 2.79733,-13.96 26.58133,-34.45866 42.36533,-48.05333 l 1.67333,-1.46 c 9.00134,-7.78533 9.76267,-17.244 10.52267,-26.45866 0.88133,-10.61467 1.79467,-21.564 13.07733,-34.39867 4.19734,-4.804 10.432,-10.248 16.21067,-9.09333 6.93467,1.4 10.736,11.344 11.13067,12.46933 l 0.33466,0.944 37.68267,38.35067 c 3.92267,3.95333 9.06267,6.41733 14.44533,6.93333 31.02133,3.19333 82.572,21.98933 121.04533,51.73333 49.57333,38.32133 79.68,89.29466 92.06667,155.77466 12.73333,68.56 -14.81334,171.3866 -23.02667,199.6"
       style="fill:#f8f8f8;fill-opacity:1;fill-rule:nonzero;stroke:none;stroke-width:0.133333" />
    <path
       id="path81"
       d="m -678.64898,791.97214 c 0,0 -11.38933,14.24 -15.01333,31.32 0,0 10.15866,-6.69333 37.01333,-3.36 27.11333,3.36 23.81333,-27.37333 13.97733,-33.90667 -4.43866,-2.94666 -20.18933,-12.168 -35.97733,5.94667"
       style="fill:#231f20;fill-opacity:1;fill-rule:nonzero;stroke:none;stroke-width:6.66667;stroke-dasharray:none;stroke-opacity:1" />
    <path
       id="path82"
       d="m -517.87965,739.37614 c 0,0 101.17733,81.076 83.57733,181.50266 -17.61333,100.4267 -74.55066,150.12 -84.904,169.8 -5.98533,11.36 -2.85333,19.6533 -2.85333,19.6533 0,0 66.784,3.12 116.35733,11.4 0,0 40.12,-109.0266 22,-203.2533 0,0 -8.8,-66.70666 -53.84,-116.41333 0,0 -30.34133,-40.17333 -80.33733,-62.68933"
       style="fill:#d3d3d3;fill-opacity:1;fill-rule:nonzero;stroke:none;stroke-width:0.133333" />
    <path
       id="path83"
       d="m -353.23565,1201.5721 v 31.9733 c 0,6.1734 -5.02667,11.1867 -11.2,11.1867 h -401.69599 c -6.17334,0 -11.192,-5.0133 -11.192,-11.1867 v -31.9733 c 0,-34.4267 23.388,-64.1067 56.90266,-72.16 3.58933,-0.7333 130.716,-26.2533 316.81199,1.9067 30.14667,10.2533 50.37334,38.4533 50.37334,70.2533"
       style="fill:#f8f8f8;fill-opacity:1;fill-rule:nonzero;stroke:none;stroke-width:0.133333" />
    <path
       id="path84"
       d="m -358.86232,1173.1721 c -6.66667,-4.8667 -13.05333,-5.5067 -13.05333,-5.5067 -31.53334,-10.7333 -71.58667,-16.8533 -92.54667,-18.28 -20.98533,-1.4533 -235.30799,-5.56 -280.31866,9.9734 -8.608,2.96 -17.09333,6.3866 -25.21333,9.9866 9.39733,-19.5866 27.22,-34.56 49.57333,-39.9333 3.58933,-0.7333 130.716,-26.2533 316.81199,1.9067 20.68,7.0266 36.70667,22.5466 44.74667,41.8533"
       style="fill:#ffffff;fill-opacity:1;fill-rule:nonzero;stroke:none;stroke-width:0.133333" />
    <path
       id="path85"
       d="m -597.20765,904.93214 c 0,0 28.29867,-30.64 31.92533,-52.90667 3.62667,-22.25333 9.83867,17.6 6.732,31.06667 -3.10533,13.45333 -10.29466,58.88 -27.28933,79.14666 0,0 6.08933,-11.24 5.936,-24.53333 -0.148,-12.73333 -1.956,-19.77333 -8.17067,-30.24 -3.41199,-5.74667 -9.13333,-2.53333 -9.13333,-2.53333"
       style="fill:#d3d3d3;fill-opacity:1;fill-rule:nonzero;stroke:none;stroke-width:0.133333" />
    <path
       id="path86"
       d="m -746.20631,1008.6255 c 0,0 28.14933,-63.09336 36.496,-63.29336 8.348,-0.18667 47.40666,5.58666 62.82133,4.94666 0,0 -14.67733,20.04 -56.452,15.13334 0,0 -11.73333,1.30666 -22.932,19.61333 -10.87333,17.77333 -18.96266,23.01333 -19.93333,23.60003"
       style="fill:#d3d3d3;fill-opacity:1;fill-rule:nonzero;stroke:none;stroke-width:0.133333" />
  </g>
</svg>
