<?xml version="1.0" encoding="UTF-8" standalone="no"?>
<!-- Created with Inkscape (http://www.inkscape.org/) -->

<svg
   version="1.1"
   id="svg1"
   width="513.5415"
   height="613.80554"
   viewBox="0 0 513.5415 613.80556"
   xmlns="http://www.w3.org/2000/svg"
   xmlns:svg="http://www.w3.org/2000/svg">
  <defs
     id="defs1" />
  <g
     id="layer4"
     transform="translate(-944.09845,-1196.0877)">
    <path
       id="path79"
       d="m 10838.9,2603.1 c 0,-46.3 -37.7,-83.9 -84,-83.9 H 7742.18 c -46.3,0 -83.94,37.6 -83.94,83.9 v 239.8 c 0,258.2 175.41,480.8 426.77,541.2 26.92,5.5 980.37,196.9 2376.09,-14.3 226.1,-76.9 377.8,-288.4 377.8,-526.9 z M 8260.65,3771.7 c 125.68,205 294.48,342.6 458.25,475.8 119.75,97.4 232.89,189.3 320.48,302.2 123.86,159.2 115.42,336.7 66.15,449.8 -3.65,8.7 -6.16,14.9 -7.99,19.7 -7.75,20.3 -12.08,27.1 -32.38,44.2 -9.13,7.3 -20.08,11.2 -31.25,11.2 -12.78,0 -25.55,-5.3 -35.13,-15.1 -37.64,-39.9 -372.94,-390.7 -541.96,-432.9 -64.56,-16 -118.39,-13.9 -165.83,-11.9 -86.22,3.5 -160.81,6.4 -226.96,-109.7 -63.18,-110.4 -134.81,-185.2 -171.76,-220.1 -13.91,-13.2 -31.93,-21.4 -51.09,-23.3 -273.04,-26 -459.17,100.2 -575.5,197.3 -129.1,107.5 -85.76,244.8 -80.52,259.6 14.37,34.7 278.06,505.9 391.42,570.9 135.72,77.4 317.74,650.8 337.36,749.35 20.98,104.7 199.36,258.44 317.74,360.4 l 12.55,10.95 c 67.51,58.39 73.22,129.33 78.92,198.44 6.61,79.61 13.46,161.73 98.08,257.99 31.48,36.03 78.24,76.86 121.58,68.2 52.01,-10.5 80.52,-85.08 83.48,-93.52 l 2.51,-7.08 282.62,-287.63 c 29.42,-29.65 67.97,-48.13 108.34,-52 232.66,-23.95 619.29,-164.92 907.84,-388 371.8,-287.4 597.6,-669.7 690.5,-1168.3 95.5,-514.2 -111.1,-1285.4 -172.7,-1497 -1237.23,183.6 -2126.81,53.6 -2330.73,18 18.47,101.7 107.89,254.5 145.98,312.5 z m 2251.15,-347.4 c 63.4,218.5 271.6,999.7 173.3,1526.2 -96,516.2 -330,911.9 -715.53,1210.29 -298.81,230.83 -700.49,376.82 -942.96,401.68 -24.64,2.51 -48.36,13.91 -66.38,32.16 l -272.35,277.14 c -12.09,30.11 -52.46,114.05 -131.39,130.02 -60.67,12.09 -123.4,-18.02 -186.81,-90.1 -99.22,-113.14 -107.89,-215.33 -114.73,-298.13 -5.48,-64.78 -9.13,-111.54 -55.66,-151.68 l -12.55,-10.95 c -140.05,-120.67 -314.31,-270.98 -339.86,-398.95 -27.6,-137.78 -206.66,-647.58 -304.06,-703.18 -138.91,-79.4 -416.05,-587.9 -422.21,-607 -6.84,-20.1 -63.41,-198.5 101.28,-335.3 125.68,-105.2 327.09,-241.6 625.67,-212.8 34.45,3.2 67.06,18 91.7,41.5 39.69,37.4 116.56,117.7 184.07,236.1 45.85,79.8 83.03,78.2 164.92,75 49.5,-2.1 110.86,-4.6 184.99,13.7 172.21,43.3 470.11,342.6 559.98,436.3 0,-0.6 0.23,-1.1 0.46,-1.8 2.28,-5.5 5.02,-12.5 9.12,-22.3 41.29,-95.2 47.9,-245 -57.25,-380.5 -83.03,-106.8 -193.2,-196.4 -310.22,-291.5 -167.88,-136.6 -341.23,-277.6 -472.39,-491.8 -15.97,-24.2 -147.35,-227.2 -159.21,-364.3 -268.7,-76.4 -453.92,-320 -453.92,-601.2 v -239.8 c 0,-83.9 68.43,-152.3 152.37,-152.3 h 3012.72 c 84,0 152.4,68.4 152.4,152.3 v 239.8 c 0,257.9 -157.6,487.4 -395.5,581.4"
       style="fill:#231f20;fill-opacity:1;fill-rule:nonzero;stroke:#231f20;stroke-width:50;stroke-dasharray:none;stroke-opacity:1"
       transform="matrix(0.13333333,0,0,-0.13333333,0,2133.3333)" />
    <path
       id="path80"
       d="m 10445.4,3442.1 c -1237.23,183.6 -2126.81,53.6 -2330.73,18 18.47,101.7 107.89,254.6 145.98,312.5 125.68,205 294.48,342.6 458.25,475.8 119.75,97.4 232.89,189.3 320.48,302.2 123.86,159.2 115.42,336.7 66.15,449.8 -3.65,8.7 -6.16,14.9 -7.99,19.7 -7.75,20.3 -12.08,27.1 -32.38,44.2 -9.13,7.3 -20.08,11.2 -31.25,11.2 -12.78,0 -25.55,-5.3 -35.13,-15.1 -37.64,-39.9 -372.94,-390.7 -541.96,-432.9 -64.56,-16 -118.39,-13.9 -165.83,-11.9 -86.22,3.5 -160.81,6.4 -226.96,-109.7 -63.18,-110.4 -134.81,-185.2 -171.76,-220.1 -13.91,-13.2 -31.93,-21.4 -51.09,-23.3 -273.04,-26 -459.17,100.2 -575.5,197.3 -129.1,107.5 -85.76,244.8 -80.52,259.6 14.37,34.7 278.06,506 391.42,571 135.72,77.3 317.74,650.7 337.36,749.26 20.98,104.7 199.36,258.44 317.74,360.4 l 12.55,10.95 c 67.51,58.39 73.22,129.33 78.92,198.44 6.61,79.61 13.46,161.73 98.08,257.99 31.48,36.03 78.24,76.86 121.58,68.2 52.01,-10.5 80.52,-85.08 83.48,-93.52 l 2.51,-7.08 282.62,-287.63 c 29.42,-29.65 67.97,-48.13 108.34,-52 232.66,-23.95 619.29,-164.92 907.84,-388 371.8,-287.41 597.6,-669.71 690.5,-1168.31 95.5,-514.2 -111.1,-1285.4 -172.7,-1497"
       style="fill:#f8f8f8;fill-opacity:1;fill-rule:nonzero;stroke:none"
       transform="matrix(0.13333333,0,0,-0.13333333,0,2133.3333)" />
    <path
       id="path81"
       d="m 8398.3,5914.9 c 0,0 -85.42,-106.8 -112.6,-234.9 0,0 76.19,50.2 277.6,25.2 203.35,-25.2 178.6,205.3 104.83,254.3 -33.29,22.1 -151.42,91.26 -269.83,-44.6"
       style="fill:#231f20;fill-opacity:1;fill-rule:nonzero;stroke:none;stroke-width:50;stroke-dasharray:none;stroke-opacity:1"
       transform="matrix(0.13333333,0,0,-0.13333333,0,2133.3333)" />
    <path
       id="path82"
       d="m 9604.07,6309.37 c 0,0 758.83,-608.07 626.83,-1361.27 -132.1,-753.2 -559.13,-1125.9 -636.78,-1273.5 -44.89,-85.2 -21.4,-147.4 -21.4,-147.4 0,0 500.88,-23.4 872.68,-85.5 0,0 300.9,817.7 165,1524.4 0,0 -66,500.3 -403.8,873.1 0,0 -227.56,301.3 -602.53,470.17"
       style="fill:#d3d3d3;fill-opacity:1;fill-rule:nonzero;stroke:none"
       transform="matrix(0.13333333,0,0,-0.13333333,0,2133.3333)" />
    <path
       id="path83"
       d="m 10838.9,2842.9 v -239.8 c 0,-46.3 -37.7,-83.9 -84,-83.9 H 7742.18 c -46.3,0 -83.94,37.6 -83.94,83.9 v 239.8 c 0,258.2 175.41,480.8 426.77,541.2 26.92,5.5 980.37,196.9 2376.09,-14.3 226.1,-76.9 377.8,-288.4 377.8,-526.9"
       style="fill:#f8f8f8;fill-opacity:1;fill-rule:nonzero;stroke:none"
       transform="matrix(0.13333333,0,0,-0.13333333,0,2133.3333)" />
    <path
       id="path84"
       d="m 10796.7,3055.9 c -50,36.5 -97.9,41.3 -97.9,41.3 -236.5,80.5 -536.9,126.4 -694.1,137.1 -157.39,10.9 -1764.81,41.7 -2102.39,-74.8 -64.56,-22.2 -128.2,-47.9 -189.1,-74.9 70.48,146.9 204.15,259.2 371.8,299.5 26.92,5.5 980.37,196.9 2376.09,-14.3 155.1,-52.7 275.3,-169.1 335.6,-313.9"
       style="fill:#ffffff;fill-opacity:1;fill-rule:nonzero;stroke:none"
       transform="matrix(0.13333333,0,0,-0.13333333,0,2133.3333)" />
    <path
       id="path85"
       d="m 9009.11,5067.7 c 0,0 212.24,229.8 239.44,396.8 27.2,166.9 73.79,-132 50.49,-233 -23.29,-100.9 -77.21,-441.6 -204.67,-593.6 0,0 45.67,84.3 44.52,184 -1.11,95.5 -14.67,148.3 -61.28,226.8 -25.59,43.1 -68.5,19 -68.5,19"
       style="fill:#d3d3d3;fill-opacity:1;fill-rule:nonzero;stroke:none"
       transform="matrix(0.13333333,0,0,-0.13333333,0,2133.3333)" />
    <path
       id="path86"
       d="m 7891.62,4290 c 0,0 211.12,473.2 273.72,474.7 62.61,1.4 355.55,-41.9 471.16,-37.1 0,0 -110.08,-150.3 -423.39,-113.5 0,0 -88,-9.8 -171.99,-147.1 -81.55,-133.3 -142.22,-172.6 -149.5,-177"
       style="fill:#d3d3d3;fill-opacity:1;fill-rule:nonzero;stroke:none"
       transform="matrix(0.13333333,0,0,-0.13333333,0,2133.3333)" />
  </g>
</svg>
