<?xml version="1.0" encoding="UTF-8" standalone="no"?>
<!-- Created with Inkscape (http://www.inkscape.org/) -->

<svg
   version="1.1"
   id="svg1"
   width="412.52853"
   height="517.94666"
   viewBox="0 0 412.52853 517.94667"
   xmlns="http://www.w3.org/2000/svg"
   xmlns:svg="http://www.w3.org/2000/svg">
  <defs
     id="defs1" />
  <g
     id="layer6"
     transform="translate(-4005.8846,-1293.0933)">
    <path
       id="path66"
       d="m 33033.2,2510.7 h -2888 c -39,320.7 72.3,517.3 139.4,636.1 83.7,147.1 189.8,225.2 313,315.3 110.8,81.4 236.7,173.8 360.1,332.8 130,167.8 222.9,364.2 276.3,583.7 l -33.3,42.2 h -350.6 c -35.6,0 -66.4,24.1 -75.1,58.6 l -38.1,152.8 c -7.3,46.8 15.8,93.1 57.7,115.7 l 351.8,191.1 5.7,56.3 c -154.9,130.7 -243.6,322.3 -243.6,525.1 0,379.4 308.6,687.97 687.9,687.97 379.3,0 688,-308.57 688,-687.97 0,-210.1 -94,-405.8 -258,-536.9 l 5.9,-57.3 328.7,-167.2 c 46.8,-23.7 71.2,-77.8 57.7,-129.3 l -36.3,-149.9 c -8.2,-34.6 -39.2,-59 -75,-59 h -307.3 l -33.7,-39.5 c 32.6,-206.4 103.8,-391.2 211.4,-549.7 126.4,-186.1 272.2,-288.3 400.6,-378.4 129.8,-91 252,-176.8 337.1,-334.9 61.8,-115.4 164.5,-306.1 117.7,-607.6 z m -57.5,640 c -92.6,172.4 -221.5,262.8 -357.9,358.6 -130,91 -264.1,185 -383.4,360.6 -95.1,140.1 -159.7,302.2 -193.2,482.4 h 266.2 c 67.5,0 125.9,45.9 141.6,111.6 l 36.1,149.1 c 21.2,81.7 -18,168.8 -93.1,207.2 l -283.3,144.1 c 155.6,142.8 244.1,342.6 244.1,556.1 0,417 -339.4,756.4 -756.4,756.4 -417,0 -756.4,-339.4 -756.4,-756.4 0,-206.4 83.7,-402.1 231.3,-544.2 L 30762,4808.1 c -68,-36.8 -104.9,-112.3 -92.4,-188.4 l 39,-157 c 16.2,-65 74.4,-110.4 141.5,-110.4 h 305.8 c -52.2,-192.7 -136.8,-366.3 -252.5,-515.5 -117.2,-151.4 -233.8,-237 -346.4,-319.5 -123.9,-91.1 -240.9,-176.8 -331.9,-336.7 -68.7,-121.6 -196.6,-347.9 -143.5,-709.2 l 4.1,-29.2 h 3005 l 5.2,28.1 c 61.8,341.4 -56.5,562 -120.2,680.4"
       style="fill:#231f20;fill-opacity:1;fill-rule:nonzero;stroke:#231f20;stroke-width:50;stroke-dasharray:none;stroke-opacity:1"
       transform="matrix(0.13333333,0,0,-0.13333333,0,2133.3333)" />
    <path
       id="path67"
       d="m 33033.2,2510.7 h -2888 c -39,320.7 72.3,517.3 139.4,636.1 83.7,147.1 189.8,225.2 313,315.3 110.8,81.4 236.7,173.8 360.1,332.8 130,167.8 222.9,364.2 276.3,583.7 l -33.3,42.2 h -350.6 c -35.6,0 -66.4,24.1 -75.1,58.6 l -38.1,152.8 c -7.3,46.8 15.8,93.1 57.7,115.7 l 351.8,191.1 5.7,56.3 c -154.9,130.7 -243.6,322.3 -243.6,525.1 0,379.4 308.6,687.97 687.9,687.97 379.3,0 688,-308.57 688,-687.97 0,-210.1 -94,-405.8 -258,-536.9 l 5.9,-57.3 328.7,-167.2 c 46.8,-23.7 71.2,-77.8 57.7,-129.3 l -36.3,-149.9 c -8.2,-34.6 -39.2,-59 -75,-59 h -307.3 l -33.7,-39.5 c 32.6,-206.4 103.8,-391.2 211.4,-549.7 126.4,-186.1 272.2,-288.3 400.6,-378.4 129.8,-91 252,-176.8 337.1,-334.9 61.8,-115.4 164.5,-306.1 117.7,-607.6"
       style="fill:#f8f8f8;fill-opacity:1;fill-rule:nonzero;stroke:none"
       transform="matrix(0.13333333,0,0,-0.13333333,0,2133.3333)" />
    <path
       id="path68"
       d="m 31929.7,6122.12 c 0,0 656.8,-776.52 -395.4,-1141.42 l 492.1,2.8 c 0,0 262.5,199.2 257.9,536.9 0,0 25.2,380.4 -354.6,601.72"
       style="fill:#d3d3d3;fill-opacity:1;fill-rule:nonzero;stroke:none"
       transform="matrix(0.13333333,0,0,-0.13333333,0,2133.3333)" />
    <path
       id="path69"
       d="m 32032.3,4926.3 c 0,0 309.4,-331.6 -32.2,-505.5 h 307.4 c 0,0 59.4,-5.8 75,59 15.7,64.9 36.2,149.9 36.2,149.9 1.5,7.8 4.5,25.6 3,40.7 -4,38.6 -5.4,33.4 -37.5,72.8 -49.5,34.9 -160.7,78.8 -351.9,183.1"
       style="fill:#d3d3d3;fill-opacity:1;fill-rule:nonzero;stroke:none"
       transform="matrix(0.13333333,0,0,-0.13333333,0,2133.3333)" />
    <path
       id="path70"
       d="m 31200.7,4420.8 h 799.4 c 0,0 -12.5,-14.7 -33.7,-39.5 10,-71.3 21.2,-138.3 119.2,-389.4 101.6,-218.3 197.6,-317.2 500.5,-544.1 137.7,-103.2 188.4,-147.1 188.4,-147.1 -284.1,75.3 -689.3,222.6 -1098.6,526.1 -195.9,145.3 -352.4,296.5 -475.2,433.6 l 33.3,118.2 -33.3,42.2"
       style="fill:#d3d3d3;fill-opacity:1;fill-rule:nonzero;stroke:none"
       transform="matrix(0.13333333,0,0,-0.13333333,0,2133.3333)" />
  </g>
</svg>
