<?xml version="1.0" encoding="UTF-8" standalone="no"?>
<!-- Created with Inkscape (http://www.inkscape.org/) -->

<svg
   version="1.1"
   id="svg1"
   width="700"
   height="700"
   viewBox="0 0 700 700.00001"
   sodipodi:docname="pawn_black.svg"
   inkscape:version="1.4 (86a8ad7, 2024-10-11)"
   xmlns:inkscape="http://www.inkscape.org/namespaces/inkscape"
   xmlns:sodipodi="http://sodipodi.sourceforge.net/DTD/sodipodi-0.dtd"
   xmlns="http://www.w3.org/2000/svg"
   xmlns:svg="http://www.w3.org/2000/svg">
  <sodipodi:namedview
     id="namedview1"
     pagecolor="#ffffff"
     bordercolor="#000000"
     borderopacity="0.25"
     inkscape:showpageshadow="2"
     inkscape:pageopacity="0.0"
     inkscape:pagecheckerboard="0"
     inkscape:deskcolor="#d1d1d1"
     inkscape:zoom="1.6671429"
     inkscape:cx="350.29991"
     inkscape:cy="360.79692"
     inkscape:window-width="2560"
     inkscape:window-height="1369"
     inkscape:window-x="1912"
     inkscape:window-y="-8"
     inkscape:window-maximized="1"
     inkscape:current-layer="svg1" />
  <defs
     id="defs1" />
  <g
     id="layer12"
     transform="translate(-2083.7866,215.83964)"
     style="display:inline">
    <path
       id="path13"
       d="m 2626.0309,382.33482 h -385.0666 c -5.2,-42.76 9.64,-68.976 18.5866,-84.82133 11.16,-19.61734 25.2934,-30.01867 41.72,-42.032 14.7867,-10.856 31.5734,-23.176 48.0267,-44.376 17.3333,-22.38667 29.7067,-48.57333 36.8267,-77.82667 l -4.44,-5.62666 h -46.7467 c -4.7467,0 -8.84,-3.22667 -10,-7.81334 l -5.08,-20.373333 c -0.9733,-6.239999 2.0933,-12.413333 7.6933,-15.426666 l 46.8934,-25.479999 0.76,-7.52 c -20.64,-17.426666 -32.48,-42.9733319 -32.48,-69.999998 0,-50.586666 41.1466,-91.733324 91.7333,-91.733324 50.5733,0 91.72,41.146658 91.72,91.733324 0,27.9999991 -12.5333,54.093332 -34.4,71.586665 l 0.8,7.639999 43.8267,22.28 c 6.2266,3.173333 9.48,10.373333 7.6933,17.253333 l -4.84,19.973339 c -1.0933,4.62666 -5.2267,7.88 -10,7.88 h -40.9733 l -4.5067,5.26666 c 4.36,27.52 13.84,52.16 28.2,73.29333 16.8533,24.81334 36.28,38.44 53.4,50.456 17.3067,12.13467 33.6133,23.57067 44.96,44.64667 8.24,15.38933 21.92,40.81466 15.6933,81.02 z m -7.6666,-85.33867 c -12.3467,-22.992 -29.5334,-35.036 -47.72,-47.80933 -17.3334,-12.13467 -35.2134,-24.668 -51.12,-48.08133 -12.6934,-18.68 -21.2934,-40.30667 -25.76,-64.33333 h 35.4933 c 9,0 16.7867,-6.10667 18.88,-14.86667 l 4.8,-19.89333 c 2.84,-10.880006 -2.4,-22.506672 -12.4,-27.613339 l -37.7733,-19.213333 c 20.7333,-19.039999 32.5333,-45.6799979 32.5333,-74.146664 0,-55.599997 -45.2533,-100.853324 -100.84,-100.853324 -55.6,0 -100.8533,45.253327 -100.8533,100.853324 0,27.5199991 11.16,53.613332 30.84,72.559998 l -41.24,22.413333 c -9.0667,4.893333 -13.9867,14.959999 -12.32,25.119995 l 5.2,20.92001 c 2.16,8.68 9.92,14.72 18.8533,14.72 h 40.7867 c -6.96,25.70666 -18.2534,48.85333 -33.6667,68.74666 -15.6267,20.18667 -31.1733,31.58667 -46.2,42.60267 -16.5067,12.13466 -32.12,23.57066 -44.2533,44.89066 -9.1467,16.20934 -26.2134,46.38 -19.12,94.55467 l 0.5466,3.892 h 400.6534 l 0.7066,-3.74 c 8.24,-45.52934 -7.5466,-74.93867 -16.0266,-90.72267"
       style="fill:#231f20;fill-opacity:1;fill-rule:nonzero;stroke:#231f20;stroke-width:6.66667;stroke-dasharray:none;stroke-opacity:1" />
    <path
       id="path14"
       d="m 2626.0309,382.33482 h -385.0666 c -5.2,-42.76 9.64,-68.976 18.5866,-84.82133 11.16,-19.61734 25.2934,-30.01867 41.72,-42.032 14.7867,-10.856 31.5734,-23.176 48.0267,-44.376 17.3333,-22.38667 29.7067,-48.57333 36.8267,-77.82667 l -4.44,-5.62666 h -46.7467 c -4.7467,0 -8.84,-3.22667 -10,-7.81334 l -5.08,-20.373333 c -0.9733,-6.239999 2.0933,-12.413333 7.6933,-15.426666 l 46.8934,-25.479999 0.76,-7.52 c -20.64,-17.426666 -32.48,-42.9733319 -32.48,-69.999998 0,-50.586666 41.1466,-91.733324 91.7333,-91.733324 50.5733,0 91.72,41.146658 91.72,91.733324 0,27.9999991 -12.5333,54.093332 -34.4,71.586665 l 0.8,7.639999 43.8267,22.28 c 6.2266,3.173333 9.48,10.373333 7.6933,17.253333 l -4.84,19.973339 c -1.0933,4.62666 -5.2267,7.88 -10,7.88 h -40.9733 l -4.5067,5.26666 c 4.36,27.52 13.84,52.16 28.2,73.29333 16.8533,24.81334 36.28,38.44 53.4,50.456 17.3067,12.13467 33.6133,23.57067 44.96,44.64667 8.24,15.38933 21.92,40.81466 15.6933,81.02"
       style="fill:#565352;fill-opacity:1;fill-rule:nonzero;stroke:none;stroke-width:0.133333" />
    <path
       id="path15"
       d="m 2415.8709,-108.80117 c 0,0 -92.2266,21.346667 -68.4,119.013326 0,0 4.16,-75.759998 86.9867,-120.906656 l -18.5867,1.89333"
       style="fill:#888685;fill-opacity:1;fill-rule:nonzero;stroke:none;stroke-width:0.133333" />
    <path
       id="path16"
       d="m 2372.9776,171.65216 c 0,0 -12.44,38.05333 -51.72,68.42666 -39.28,30.38 -58.7067,43.48667 -71.8933,77.55333 -13.1734,34.06667 -8.4,64.704 -8.4,64.704 0,0 2.48,-44.096 67.7066,-90.68666 65.2267,-46.59734 66.48,-87.81067 64.3067,-119.99733"
       style="fill:#888685;fill-opacity:1;fill-rule:nonzero;stroke:none;stroke-width:0.133333" />
    <path
       id="path17"
       d="m 2374.4309,58.545488 -43.3733,23.573333 c -3.12,1.72 -5.1333,2.386667 -7.5067,5.04 l -2.3333,3.44 h 24.7867 c 3.2266,0 6.2533,-1.493333 8.2133,-4.066667 6.6533,-8.693333 20.2133,-27.986666 20.2133,-27.986666 v 0"
       style="fill:#888685;fill-opacity:1;fill-rule:nonzero;stroke:none;stroke-width:0.133333" />
    <path
       id="path18"
       d="m 2478.8843,-99.187844 c 0,0 87.5866,103.5333341 -52.7067,152.186666 l 65.6133,-0.373333 c 0,0 35,-26.573333 34.3867,-71.586665 0,0 3.3467,-50.719999 -47.2933,-80.226668"
       style="fill:#454242;fill-opacity:1;fill-rule:nonzero;stroke:none;stroke-width:0.133333" />
    <path
       id="path19"
       d="m 2492.5776,60.252155 c 0,0 41.2533,44.213335 -4.2933,67.400005 h 40.9733 c 0,0 7.9333,0.77333 10.0133,-7.88 2.0934,-8.64 4.8267,-19.986673 4.8267,-19.986673 0.1867,-1.026666 0.6,-3.4 0.3867,-5.413333 -0.52,-5.146666 -0.7067,-4.453333 -4.9867,-9.706666 -6.6,-4.653333 -21.44,-10.506667 -46.92,-24.413333"
       style="fill:#454242;fill-opacity:1;fill-rule:nonzero;stroke:none;stroke-width:0.133333" />
    <path
       id="path20"
       d="m 2381.6843,127.65216 h 106.6 c 0,0 -1.68,1.96 -4.5067,5.26666 1.3333,9.49334 2.8267,18.44 15.9067,51.92 13.5466,29.10667 26.3333,42.29333 66.72,72.544 38.1066,22.04 49.44,54.68 49.44,54.68 -41.04,-11.372 -98.44,-32.70933 -157.5734,-74.57067 -34.12,-24.16 -60.8666,-49.52 -81.2533,-71.91999 l 9.1067,-32.29334 -4.44,-5.62666"
       style="fill:#454242;fill-opacity:1;fill-rule:nonzero;stroke:none;stroke-width:0.133333" />
  </g>
</svg>
