<?xml version="1.0" encoding="UTF-8" standalone="no"?>
<!-- Created with Inkscape (http://www.inkscape.org/) -->

<svg
   version="1.1"
   id="svg1"
   width="700"
   height="700"
   viewBox="0 0 700 700.00001"
   sodipodi:docname="pawn_white.svg"
   inkscape:version="1.4 (86a8ad7, 2024-10-11)"
   xmlns:inkscape="http://www.inkscape.org/namespaces/inkscape"
   xmlns:sodipodi="http://sodipodi.sourceforge.net/DTD/sodipodi-0.dtd"
   xmlns="http://www.w3.org/2000/svg"
   xmlns:svg="http://www.w3.org/2000/svg">
  <sodipodi:namedview
     id="namedview1"
     pagecolor="#ffffff"
     bordercolor="#000000"
     borderopacity="0.25"
     inkscape:showpageshadow="2"
     inkscape:pageopacity="0.0"
     inkscape:pagecheckerboard="0"
     inkscape:deskcolor="#d1d1d1"
     inkscape:zoom="2.357696"
     inkscape:cx="443.22931"
     inkscape:cy="300.92938"
     inkscape:window-width="2560"
     inkscape:window-height="1369"
     inkscape:window-x="1912"
     inkscape:window-y="-8"
     inkscape:window-maximized="1"
     inkscape:current-layer="svg1" />
  <defs
     id="defs1" />
  <g
     id="layer6"
     transform="translate(-2063.7629,-647.69701)"
     style="display:inline">
    <path
       id="path66"
       d="m 2606.0043,1245.8654 h -385.0667 c -5.2,-42.76 9.64,-68.9733 18.5867,-84.8133 11.16,-19.6133 25.3066,-30.0267 41.7333,-42.04 14.7733,-10.8533 31.56,-23.1733 48.0133,-44.3733 17.3334,-22.3734 29.72,-48.56 36.84,-77.82667 l -4.44,-5.62666 h -46.7466 c -4.7467,0 -8.8534,-3.21334 -10.0134,-7.81334 l -5.08,-20.37333 c -0.9733,-6.24 2.1067,-12.41333 7.6934,-15.42666 l 46.9066,-25.48 0.76,-7.50667 c -20.6533,-17.42667 -32.48,-42.97333 -32.48,-70.01333 0,-50.58667 41.1467,-91.72933 91.72,-91.72933 50.5734,0 91.7334,41.14266 91.7334,91.72933 0,28.01333 -12.5334,54.10666 -34.4,71.58666 l 0.7866,7.64 43.8267,22.29334 c 6.24,3.16 9.4933,10.37333 7.6933,17.24 l -4.84,19.98666 c -1.0933,4.61333 -5.2266,7.86667 -10,7.86667 h -40.9733 l -4.4933,5.26666 c 4.3466,27.51997 13.84,52.15997 28.1866,73.29327 16.8534,24.8134 36.2934,38.44 53.4134,50.4534 17.3066,12.1333 33.6,23.5733 44.9466,44.6533 8.24,15.3867 21.9334,40.8133 15.6934,81.0133 z m -7.6667,-85.3333 c -12.3467,-22.9867 -29.5333,-35.04 -47.72,-47.8133 -17.3333,-12.1334 -35.2133,-24.6667 -51.12,-48.08 -12.68,-18.68 -21.2933,-40.2933 -25.76,-64.32 h 35.4933 c 9,0 16.7867,-6.12 18.88,-14.88 l 4.8134,-19.88 c 2.8266,-10.89333 -2.4,-22.50666 -12.4134,-27.62666 l -37.7733,-19.21334 c 20.7467,-19.04 32.5467,-45.68 32.5467,-74.14666 0,-55.6 -45.2534,-100.85333 -100.8534,-100.85333 -55.6,0 -100.8533,45.25333 -100.8533,100.85333 0,27.52 11.16,53.61333 30.84,72.56 l -41.24,22.41333 c -9.0667,4.90667 -13.9867,14.97333 -12.32,25.12 l 5.2,20.93333 c 2.16,8.66667 9.92,14.72 18.8667,14.72 h 40.7733 c -6.96,25.6933 -18.24,48.84 -33.6667,68.7333 -15.6266,20.1867 -31.1733,31.6 -46.1866,42.6 -16.52,12.1467 -32.12,23.5733 -44.2534,44.8933 -9.16,16.2134 -26.2133,46.3867 -19.1333,94.56 l 0.5467,3.8934 h 400.6666 l 0.6934,-3.7467 c 8.24,-45.52 -7.5334,-74.9333 -16.0267,-90.72"
       style="fill:#231f20;fill-opacity:1;fill-rule:nonzero;stroke:#231f20;stroke-width:6.66667;stroke-dasharray:none;stroke-opacity:1" />
    <path
       id="path67"
       d="m 2606.0043,1245.8654 h -385.0667 c -5.2,-42.76 9.64,-68.9733 18.5867,-84.8133 11.16,-19.6133 25.3066,-30.0267 41.7333,-42.04 14.7733,-10.8533 31.56,-23.1733 48.0133,-44.3733 17.3334,-22.3734 29.72,-48.56 36.84,-77.82667 l -4.44,-5.62666 h -46.7466 c -4.7467,0 -8.8534,-3.21334 -10.0134,-7.81334 l -5.08,-20.37333 c -0.9733,-6.24 2.1067,-12.41333 7.6934,-15.42666 l 46.9066,-25.48 0.76,-7.50667 c -20.6533,-17.42667 -32.48,-42.97333 -32.48,-70.01333 0,-50.58667 41.1467,-91.72933 91.72,-91.72933 50.5734,0 91.7334,41.14266 91.7334,91.72933 0,28.01333 -12.5334,54.10666 -34.4,71.58666 l 0.7866,7.64 43.8267,22.29334 c 6.24,3.16 9.4933,10.37333 7.6933,17.24 l -4.84,19.98666 c -1.0933,4.61333 -5.2266,7.86667 -10,7.86667 h -40.9733 l -4.4933,5.26666 c 4.3466,27.51997 13.84,52.15997 28.1866,73.29327 16.8534,24.8134 36.2934,38.44 53.4134,50.4534 17.3066,12.1333 33.6,23.5733 44.9466,44.6533 8.24,15.3867 21.9334,40.8133 15.6934,81.0133"
       style="fill:#f8f8f8;fill-opacity:1;fill-rule:nonzero;stroke:none;stroke-width:0.133333" />
    <path
       id="path68"
       d="m 2458.8709,764.34281 c 0,0 87.5734,103.53599 -52.72,152.18933 l 65.6134,-0.37334 c 0,0 35,-26.56 34.3866,-71.58666 0,0 3.36,-50.72 -47.28,-80.22933"
       style="fill:#d3d3d3;fill-opacity:1;fill-rule:nonzero;stroke:none;stroke-width:0.133333" />
    <path
       id="path69"
       d="m 2472.5509,923.78547 c 0,0 41.2534,44.21333 -4.2933,67.4 h 40.9867 c 0,0 7.92,0.77333 10,-7.86667 2.0933,-8.65333 4.8266,-19.98666 4.8266,-19.98666 0.2,-1.04 0.6,-3.41334 0.4,-5.42667 -0.5333,-5.14667 -0.72,-4.45333 -5,-9.70667 -6.6,-4.65333 -21.4266,-10.50666 -46.92,-24.41333"
       style="fill:#d3d3d3;fill-opacity:1;fill-rule:nonzero;stroke:none;stroke-width:0.133333" />
    <path
       id="path70"
       d="m 2361.6709,991.18547 h 106.5867 c 0,0 -1.6667,1.96 -4.4933,5.26666 1.3333,9.50667 2.8266,18.43997 15.8933,51.91997 13.5467,29.1067 26.3467,42.2933 66.7333,72.5467 18.36,13.76 25.12,19.6133 25.12,19.6133 -37.88,-10.04 -91.9066,-29.68 -146.48,-70.1467 -26.12,-19.3733 -46.9866,-39.5333 -63.36,-57.8133 l 4.44,-15.75997 -4.44,-5.62666"
       style="fill:#d3d3d3;fill-opacity:1;fill-rule:nonzero;stroke:none;stroke-width:0.133333" />
  </g>
</svg>
