<?xml version="1.0" encoding="UTF-8" standalone="no"?>
<!-- Created with Inkscape (http://www.inkscape.org/) -->

<svg
   version="1.1"
   id="svg1"
   width="412.53183"
   height="517.94"
   viewBox="0 0 412.53183 517.94001"
   xmlns="http://www.w3.org/2000/svg"
   xmlns:svg="http://www.w3.org/2000/svg">
  <defs
     id="defs1" />
  <g
     id="layer12"
     transform="translate(-4025.9066,-429.56001)">
    <path
       id="path13"
       d="m 33183.4,8987.18 h -2888 c -39,320.7 72.3,517.32 139.4,636.16 83.7,147.13 189.7,225.14 312.9,315.24 110.9,81.42 236.8,173.82 360.2,332.82 130,167.9 222.8,364.3 276.2,583.7 l -33.3,42.2 h -350.6 c -35.6,0 -66.3,24.2 -75,58.6 l -38.1,152.8 c -7.3,46.8 15.7,93.1 57.7,115.7 l 351.7,191.1 5.7,56.4 c -154.8,130.7 -243.6,322.3 -243.6,525 0,379.4 308.6,688 688,688 379.3,0 687.9,-308.6 687.9,-688 0,-210 -94,-405.7 -258,-536.9 l 6,-57.3 328.7,-167.1 c 46.7,-23.8 71.1,-77.8 57.7,-129.4 l -36.3,-149.8 c -8.2,-34.7 -39.2,-59.1 -75,-59.1 h -307.3 l -33.8,-39.5 c 32.7,-206.4 103.8,-391.2 211.5,-549.7 126.4,-186.1 272.1,-288.3 400.5,-378.42 129.8,-91.01 252.1,-176.78 337.2,-334.85 61.8,-115.42 164.4,-306.11 117.7,-607.65 z m -57.5,640.04 c -92.6,172.44 -221.5,262.77 -357.9,358.57 -130,91.01 -264.1,185.01 -383.4,360.61 -95.2,140.1 -159.7,302.3 -193.2,482.5 h 266.2 c 67.5,0 125.9,45.8 141.6,111.5 l 36,149.2 c 21.3,81.6 -18,168.8 -93,207.1 l -283.3,144.1 c 155.5,142.8 244,342.6 244,556.1 0,417 -339.4,756.4 -756.3,756.4 -417,0 -756.4,-339.4 -756.4,-756.4 0,-206.4 83.7,-402.1 231.3,-544.2 l -309.3,-168.1 c -68,-36.7 -104.9,-112.2 -92.4,-188.4 l 39,-156.9 c 16.2,-65.1 74.4,-110.4 141.4,-110.4 h 305.9 c -52.2,-192.8 -136.9,-366.4 -252.5,-515.6 -117.2,-151.4 -233.8,-236.9 -346.5,-319.52 -123.8,-91.01 -240.9,-176.78 -331.9,-336.68 -68.6,-121.57 -196.6,-347.85 -143.4,-709.16 l 4.1,-29.19 h 3004.9 l 5.3,28.05 c 61.8,341.47 -56.6,562.04 -120.2,680.42"
       style="fill:#231f20;fill-opacity:1;fill-rule:nonzero;stroke:#231f20;stroke-width:50;stroke-dasharray:none;stroke-opacity:1"
       transform="matrix(0.13333333,0,0,-0.13333333,0,2133.3333)" />
    <path
       id="path14"
       d="m 33183.4,8987.18 h -2888 c -39,320.7 72.3,517.32 139.4,636.16 83.7,147.13 189.7,225.14 312.9,315.24 110.9,81.42 236.8,173.82 360.2,332.82 130,167.9 222.8,364.3 276.2,583.7 l -33.3,42.2 h -350.6 c -35.6,0 -66.3,24.2 -75,58.6 l -38.1,152.8 c -7.3,46.8 15.7,93.1 57.7,115.7 l 351.7,191.1 5.7,56.4 c -154.8,130.7 -243.6,322.3 -243.6,525 0,379.4 308.6,688 688,688 379.3,0 687.9,-308.6 687.9,-688 0,-210 -94,-405.7 -258,-536.9 l 6,-57.3 328.7,-167.1 c 46.7,-23.8 71.1,-77.8 57.7,-129.4 l -36.3,-149.8 c -8.2,-34.7 -39.2,-59.1 -75,-59.1 h -307.3 l -33.8,-39.5 c 32.7,-206.4 103.8,-391.2 211.5,-549.7 126.4,-186.1 272.1,-288.3 400.5,-378.42 129.8,-91.01 252.1,-176.78 337.2,-334.85 61.8,-115.42 164.4,-306.11 117.7,-607.65"
       style="fill:#565352;fill-opacity:1;fill-rule:nonzero;stroke:none"
       transform="matrix(0.13333333,0,0,-0.13333333,0,2133.3333)" />
    <path
       id="path15"
       d="m 31607.2,12670.7 c 0,0 -691.7,-160.1 -513,-892.6 0,0 31.2,568.2 652.4,906.8 l -139.4,-14.2"
       style="fill:#888685;fill-opacity:1;fill-rule:nonzero;stroke:none"
       transform="matrix(0.13333333,0,0,-0.13333333,0,2133.3333)" />
    <path
       id="path16"
       d="m 31285.5,10567.3 c 0,0 -93.3,-285.4 -387.9,-513.2 -294.6,-227.85 -440.3,-326.15 -539.2,-581.65 -98.8,-255.5 -63,-485.28 -63,-485.28 0,0 18.6,330.72 507.8,680.15 489.2,349.48 498.6,658.58 482.3,899.98"
       style="fill:#888685;fill-opacity:1;fill-rule:nonzero;stroke:none"
       transform="matrix(0.13333333,0,0,-0.13333333,0,2133.3333)" />
    <path
       id="path17"
       d="m 31296.4,11415.6 -325.3,-176.8 c -23.4,-12.9 -38.5,-17.9 -56.3,-37.8 l -17.5,-25.8 h 185.9 c 24.2,0 46.9,11.2 61.6,30.5 49.9,65.2 151.6,209.9 151.6,209.9 v 0"
       style="fill:#888685;fill-opacity:1;fill-rule:nonzero;stroke:none"
       transform="matrix(0.13333333,0,0,-0.13333333,0,2133.3333)" />
    <path
       id="path18"
       d="m 32079.8,12598.6 c 0,0 656.9,-776.5 -395.3,-1141.4 l 492.1,2.8 c 0,0 262.5,199.3 257.9,536.9 0,0 25.1,380.4 -354.7,601.7"
       style="fill:#454242;fill-opacity:1;fill-rule:nonzero;stroke:none"
       transform="matrix(0.13333333,0,0,-0.13333333,0,2133.3333)" />
    <path
       id="path19"
       d="m 32182.5,11402.8 c 0,0 309.4,-331.6 -32.2,-505.5 h 307.3 c 0,0 59.5,-5.8 75.1,59.1 15.7,64.8 36.2,149.9 36.2,149.9 1.4,7.7 4.5,25.5 2.9,40.6 -3.9,38.6 -5.3,33.4 -37.4,72.8 -49.5,34.9 -160.8,78.8 -351.9,183.1"
       style="fill:#454242;fill-opacity:1;fill-rule:nonzero;stroke:none"
       transform="matrix(0.13333333,0,0,-0.13333333,0,2133.3333)" />
    <path
       id="path20"
       d="m 31350.8,10897.3 h 799.5 c 0,0 -12.6,-14.7 -33.8,-39.5 10,-71.2 21.2,-138.3 119.3,-389.4 101.6,-218.3 197.5,-317.2 500.4,-544.08 285.8,-165.3 370.8,-410.1 370.8,-410.1 -307.8,85.29 -738.3,245.32 -1181.8,559.28 -255.9,181.2 -456.5,371.4 -609.4,539.4 l 68.3,242.2 -33.3,42.2"
       style="fill:#454242;fill-opacity:1;fill-rule:nonzero;stroke:none"
       transform="matrix(0.13333333,0,0,-0.13333333,0,2133.3333)" />
  </g>
</svg>
