<?xml version="1.0" encoding="UTF-8" standalone="no"?>
<!-- Created with Inkscape (http://www.inkscape.org/) -->

<svg
   version="1.1"
   id="svg1"
   width="513.53351"
   height="613.8114"
   viewBox="0 0 513.53351 613.81142"
   xmlns="http://www.w3.org/2000/svg"
   xmlns:svg="http://www.w3.org/2000/svg">
  <defs
     id="defs1" />
  <g
     id="layer10"
     transform="translate(-964.11981,-332.55259)">
    <path
       id="path33"
       d="m 10989,9079.64 c 0,-46.3 -37.6,-83.94 -83.9,-83.94 H 7892.34 c -46.3,0 -83.94,37.64 -83.94,83.94 v 239.73 c 0,258.21 175.41,480.84 426.78,541.28 26.91,5.48 980.37,196.85 2376.12,-14.37 226,-76.86 377.7,-288.31 377.7,-526.91 z M 8410.81,10248.2 c 125.68,205.1 294.48,342.6 458.25,475.8 119.76,97.4 232.89,189.3 320.48,302.2 123.86,159.2 115.42,336.7 66.15,449.9 -3.65,8.6 -6.16,14.8 -7.98,19.6 -7.76,20.3 -12.09,27.1 -32.39,44.2 -9.13,7.3 -20.07,11.2 -31.25,11.2 -12.78,0 -25.55,-5.2 -35.13,-15.1 -37.64,-39.9 -372.94,-390.7 -541.96,-432.9 -64.55,-16 -118.39,-13.9 -165.83,-11.8 -86.22,3.4 -160.81,6.3 -226.96,-109.8 -63.18,-110.4 -134.81,-185.2 -171.76,-220.1 -13.91,-13.2 -31.93,-21.4 -51.09,-23.2 -273.04,-26 -459.16,100.1 -575.5,197.3 -129.1,107.4 -85.76,244.7 -80.51,259.5 14.37,34.7 278.05,506 391.41,571 135.72,77.3 317.75,650.7 337.36,749.3 20.99,104.7 199.36,258.4 317.74,360.4 l 12.55,10.9 c 67.52,58.4 73.22,129.3 78.92,198.5 6.62,79.6 13.46,161.7 98.08,257.9 31.48,36.1 78.24,76.9 121.58,68.2 52.01,-10.4 80.52,-85 83.49,-93.5 l 2.5,-7 282.62,-287.7 c 29.42,-29.6 67.97,-48.1 108.35,-52 232.66,-23.9 619.29,-164.9 907.87,-388 371.8,-287.4 597.6,-669.7 690.4,-1168.3 95.6,-514.1 -111.1,-1285.3 -172.7,-1497.02 -1237.16,183.62 -2126.75,53.6 -2330.67,18.02 18.48,101.7 107.89,254.6 145.98,312.5 z m 2251.09,-347.4 c 63.4,218.5 271.7,999.8 173.4,1526.2 -96.1,516.2 -330.1,911.9 -715.6,1210.3 -298.78,230.8 -700.46,376.8 -942.93,401.7 -24.63,2.5 -48.36,13.9 -66.38,32.2 l -272.35,277.1 c -12.09,30.1 -52.46,114 -131.38,130 -60.68,12.1 -123.4,-18 -186.82,-90.1 -99.22,-113.1 -107.89,-215.3 -114.73,-298.1 -5.47,-64.8 -9.12,-111.6 -55.66,-151.7 l -12.54,-11 c -140.05,-120.6 -314.32,-270.9 -339.87,-398.9 -27.6,-137.8 -206.66,-647.6 -304.06,-703.2 -138.91,-79.4 -416.05,-587.8 -422.21,-607 -6.84,-20.1 -63.41,-198.4 101.28,-335.3 125.68,-105.2 327.09,-241.6 625.68,-212.8 34.44,3.2 67.06,18 91.69,41.5 39.69,37.4 116.56,117.7 184.08,236.1 45.85,79.8 83.02,78.2 164.91,75 49.5,-2 110.86,-4.5 184.99,13.7 172.22,43.3 470.11,342.6 559.98,436.4 0,-0.7 0.23,-1.2 0.46,-1.9 2.28,-5.4 5.02,-12.5 9.12,-22.3 41.29,-95.1 47.91,-245 -57.25,-380.5 -83.03,-106.7 -193.2,-196.4 -310.21,-291.5 -167.88,-136.6 -341.24,-277.6 -472.4,-491.8 -15.96,-24.2 -147.35,-227.2 -159.21,-364.26 -268.7,-76.41 -453.92,-320.02 -453.92,-601.27 v -239.73 c 0,-83.94 68.43,-152.37 152.37,-152.37 h 3012.76 c 83.9,0 152.3,68.43 152.3,152.37 v 239.73 c 0,257.98 -157.6,487.45 -395.5,581.43"
       style="fill:#231f20;fill-opacity:1;fill-rule:nonzero;stroke:#231f20;stroke-width:50;stroke-dasharray:none;stroke-opacity:1"
       transform="matrix(0.13333333,0,0,-0.13333333,0,2133.3333)" />
    <path
       id="path34"
       d="m 10595.5,9918.59 c -1237.16,183.61 -2126.75,53.6 -2330.67,18.02 18.48,101.69 107.89,254.59 145.98,312.49 125.68,205.1 294.48,342.6 458.25,475.8 119.76,97.4 232.89,189.3 320.48,302.3 123.86,159.2 115.42,336.6 66.15,449.8 -3.65,8.6 -6.16,14.8 -7.98,19.6 -7.76,20.3 -12.09,27.1 -32.39,44.2 -9.13,7.3 -20.07,11.2 -31.25,11.2 -12.78,0 -25.55,-5.2 -35.13,-15.1 -37.64,-39.9 -372.94,-390.7 -541.96,-432.9 -64.55,-15.9 -118.39,-13.9 -165.83,-11.8 -86.22,3.4 -160.81,6.4 -226.96,-109.8 -63.18,-110.4 -134.81,-185.2 -171.76,-220.1 -13.91,-13.2 -31.93,-21.4 -51.09,-23.2 -273.04,-26 -459.16,100.1 -575.5,197.3 -129.1,107.4 -85.76,244.7 -80.51,259.5 14.37,34.7 278.05,506 391.41,571 135.72,77.3 317.75,650.7 337.36,749.3 20.99,104.7 199.36,258.4 317.74,360.4 l 12.55,10.9 c 67.52,58.4 73.22,129.4 78.92,198.5 6.62,79.6 13.46,161.7 98.08,257.9 31.48,36.1 78.24,76.9 121.58,68.3 52.01,-10.5 80.52,-85.1 83.49,-93.6 l 2.5,-7 282.62,-287.7 c 29.42,-29.6 67.97,-48.1 108.35,-52 232.66,-23.9 619.29,-164.9 907.87,-388 371.8,-287.4 597.6,-669.7 690.4,-1168.3 95.6,-514.1 -111.1,-1285.3 -172.7,-1497.01"
       style="fill:#565352;fill-opacity:1;fill-rule:nonzero;stroke:none"
       transform="matrix(0.13333333,0,0,-0.13333333,0,2133.3333)" />
    <path
       id="path35"
       d="m 8548.46,12391.4 c 0,0 -85.42,-106.8 -112.6,-234.9 0,0 76.2,50.2 277.61,25.2 203.34,-25.2 178.59,205.3 104.83,254.3 -33.3,22.2 -151.42,91.3 -269.84,-44.6"
       style="fill:#231f20;fill-opacity:1;fill-rule:nonzero;stroke:none;stroke-width:50;stroke-dasharray:none;stroke-opacity:1"
       transform="matrix(0.13333333,0,0,-0.13333333,0,2133.3333)" />
    <path
       id="path36"
       d="m 9754.23,12785.9 c 0,0 758.77,-608.1 626.77,-1361.3 -132,-753.2 -559.07,-1125.9 -636.72,-1273.4 -44.89,-85.3 -21.4,-147.5 -21.4,-147.5 0,0 500.92,-23.37 872.62,-85.49 0,0 300.9,817.79 165,1524.39 0,0 -66,500.3 -403.8,873.1 0,0 -227.5,301.3 -602.47,470.2"
       style="fill:#454242;fill-opacity:1;fill-rule:nonzero;stroke:none"
       transform="matrix(0.13333333,0,0,-0.13333333,0,2133.3333)" />
    <path
       id="path37"
       d="m 8676.58,13404.7 c 0,0 -75.71,11.7 -161.61,-147 0,0 -30.57,-71.4 -37.85,-160.2 -7.28,-88.8 -7.28,-149.9 -93.18,-221.3 -85.91,-71.3 -161.62,-142.7 -161.62,-142.7 0,0 -112.1,-112.1 -144.13,-180.5 l -30.58,-116.5 -75.71,-224.2 c 0,0 -71.34,-179.1 -78.62,-196.5 -7.28,-17.5 -66.97,-128.2 -72.8,-141.3 -5.82,-13.1 -49.5,-85.9 -110.65,-120.8 0,0 -31.55,-26.7 -45.13,-44.2 -13.59,-17.5 -88.33,-112.6 -99.49,-132 -11.17,-19.4 -160.4,-245.3 -206.83,-338.2 -10.86,-20.7 -24.19,-37.2 -30.01,-73.1 -10.89,-45.4 480.03,537.3 480.03,537.3 0,0 280.66,405.8 318.34,611.4 64.06,349.6 349.89,386.7 404.25,594.8 39.76,152.3 62.85,134.1 122.96,327.2 39.56,127.1 91.59,176.4 22.63,167.8"
       style="fill:#888685;fill-opacity:1;fill-rule:nonzero;stroke:none"
       transform="matrix(0.13333333,0,0,-0.13333333,0,2133.3333)" />
    <path
       id="path38"
       d="m 10989,9319.37 v -239.73 c 0,-46.3 -37.6,-83.94 -83.9,-83.94 H 7892.34 c -46.3,0 -83.94,37.64 -83.94,83.94 v 239.73 c 0,258.21 175.41,480.84 426.78,541.28 26.91,5.48 980.37,196.85 2376.12,-14.37 226,-76.86 377.7,-288.31 377.7,-526.91"
       style="fill:#565352;fill-opacity:1;fill-rule:nonzero;stroke:none"
       transform="matrix(0.13333333,0,0,-0.13333333,0,2133.3333)" />
    <path
       id="path39"
       d="m 10946.8,9532.42 c -49.9,36.5 -97.8,41.29 -97.8,41.29 -236.6,80.51 -537,126.36 -694.1,137.08 -157.43,10.95 -1764.84,41.74 -2102.43,-74.81 -64.55,-22.13 -128.19,-47.9 -189.1,-74.82 70.49,146.9 204.15,259.12 371.81,299.49 26.91,5.48 980.37,196.85 2376.12,-14.37 155.1,-52.69 275.3,-169.02 335.5,-313.86"
       style="fill:#888685;fill-opacity:1;fill-rule:nonzero;stroke:none"
       transform="matrix(0.13333333,0,0,-0.13333333,0,2133.3333)" />
    <path
       id="path40"
       d="m 9159.28,11544.2 c 0,0 212.23,229.9 239.43,396.8 27.2,167 73.79,-132 50.5,-232.9 -23.3,-101 -77.22,-441.7 -204.68,-593.7 0,0 45.68,84.3 44.52,184 -1.1,95.5 -14.67,148.3 -61.28,226.8 -25.59,43.1 -68.49,19 -68.49,19"
       style="fill:#454242;fill-opacity:1;fill-rule:nonzero;stroke:none"
       transform="matrix(0.13333333,0,0,-0.13333333,0,2133.3333)" />
    <path
       id="path41"
       d="m 8041.79,10766.5 c 0,0 211.11,473.2 273.72,474.7 62.6,1.4 355.54,-41.8 471.16,-37.1 0,0 -110.09,-150.2 -423.4,-113.4 0,0 -88,-9.8 -171.99,-147.1 -81.55,-133.4 -142.21,-172.7 -149.49,-177.1"
       style="fill:#454242;fill-opacity:1;fill-rule:nonzero;stroke:none"
       transform="matrix(0.13333333,0,0,-0.13333333,0,2133.3333)" />
  </g>
</svg>
