<?xml version="1.0" encoding="UTF-8" standalone="no"?>
<!-- Created with Inkscape (http://www.inkscape.org/) -->

<svg
   version="1.1"
   id="svg1"
   width="606.6933"
   height="609.51196"
   viewBox="0 0 606.6933 609.51198"
   xmlns="http://www.w3.org/2000/svg"
   xmlns:svg="http://www.w3.org/2000/svg">
  <defs
     id="defs1" />
  <g
     id="layer5"
     transform="translate(-2417.1999,-1202.7547)">
    <path
       id="path71"
       d="m 22204.8,5114.7 -26.9,-21.4 -667,-1678.4 c -5.7,1.9 -11.2,3.5 -16.6,5.3 -309.6,93.3 -711,106.3 -1099,106.3 -414.5,0 -880.7,-42.9 -1075.7,-97.2 l -649.4,1666 -30.1,21.9 c -234.3,13 -417.7,207.4 -417.7,442.3 0,244.5 198.9,443.44 443.2,443.44 244.5,0 443.4,-198.94 443.4,-443.44 0,-87.1 -25,-171.1 -72.7,-242.9 l 3.4,-42.2 482,-519.4 c 7.7,-8.4 18.4,-12.8 29.4,-12.8 4.8,0 9.6,0.7 14.4,2.5 15.3,5.7 25.5,20.1 26,36.5 l 30.8,1217.4 -21.5,32.63 c -168.8,67.74 -277.8,229.46 -277.8,411.49 0,244.29 198.9,443.19 443.2,443.19 244.5,0 443.4,-198.9 443.4,-443.19 0,-131.62 -57.9,-255.47 -159,-340.1 l -10.7,-36.72 328.9,-1011.9 c 5.3,-16.6 20.6,-27.8 38.1,-27.8 17.4,0 32.9,11 38.1,27.6 l 335.1,1016.43 -10,36.73 c -98.1,84.16 -154.2,206.42 -154.2,335.76 0,244.29 198.9,443.19 443.2,443.19 244.5,0 443.4,-198.9 443.4,-443.19 0,-189.78 -120.7,-358.57 -300,-419.7 l -23.2,-34.22 66.3,-1173.3 c 1,-16.7 11.7,-30.6 27.2,-35.9 4.3,-1.6 8.7,-2.2 13,-2.2 11.4,0 22.6,5 30.6,14.1 l 433.6,509.6 3.9,38.5 c -35.9,65 -54.8,139.2 -54.8,214 0,244.5 198.9,443.4 443.2,443.4 244.5,0 443.4,-198.9 443.4,-443.4 0,-219.7 -163.7,-408.5 -380.9,-438.9 z m -62.5,950.74 c -282.2,0 -511.6,-229.74 -511.6,-511.84 0,-78.5 18.2,-155.8 52.4,-225.6 l -373.1,-438.4 -60.9,1078 c 193.4,77.31 321.8,264.81 321.8,475.12 0,282.15 -229.7,511.62 -511.8,511.62 -282.2,0 -511.7,-229.47 -511.7,-511.62 0,-141.42 58.4,-275.77 160.8,-372.26 l -301,-913.26 -295.2,908.47 c 105.8,96.94 166,232.89 166,377.05 0,282.15 -229.6,511.62 -511.8,511.62 -282.2,0 -511.6,-229.47 -511.6,-511.62 0,-202.1 116.5,-382.07 298.8,-465.12 l -28.8,-1125.2 -417.2,449.6 c 45.9,77.8 70.1,166 70.1,257.5 0,282.2 -229.7,511.87 -511.9,511.87 -282.1,0 -511.6,-229.67 -511.6,-511.87 0,-263.7 200.3,-482.4 459.8,-508.4 l 640.5,-1643.2 c -229.4,-82.6 -512.3,-230 -512.3,-550.4 V 2433 h 3306.6 v 424.5 c 0,313.8 -237.5,454.1 -472.7,536 l 658.6,1657.1 c 240.6,43.8 419.7,256.2 419.7,503 0,282.1 -229.7,511.84 -511.9,511.84 z M 21970.5,2953.5 c 6.4,-30.4 9.6,-62.3 9.6,-96 v -356.1 h -3169.6 v 356.1 c 0,222.6 158.7,380.7 499.7,497.4 163.1,55.9 659.9,103.1 1085.1,103.1 382.7,0 778.3,-12.5 1079.1,-103.5 300.2,-90.6 457.6,-216.5 496.1,-401"
       style="fill:#231f20;fill-opacity:1;fill-rule:nonzero;stroke:#231f20;stroke-width:50;stroke-dasharray:none;stroke-opacity:1"
       transform="matrix(0.13333333,0,0,-0.13333333,0,2133.3333)" />
    <path
       id="path72"
       d="m 22585.7,5553.6 c 0,-219.7 -163.7,-408.5 -380.9,-438.9 l -26.9,-21.4 -667,-1678.4 c -5.7,1.9 -11.2,3.5 -16.6,5.3 -309.6,93.3 -711,106.3 -1099,106.3 -414.5,0 -880.7,-42.9 -1075.7,-97.2 l -649.4,1666 -30.1,21.9 c -234.3,13 -417.7,207.4 -417.7,442.3 0,244.5 198.9,443.44 443.2,443.44 244.5,0 443.4,-198.94 443.4,-443.44 0,-87.1 -25,-171.1 -72.7,-242.9 l 3.4,-42.2 482,-519.4 c 7.7,-8.4 18.4,-12.8 29.4,-12.8 4.8,0 9.6,0.7 14.4,2.5 15.3,5.7 25.5,20.1 26,36.5 l 30.8,1217.4 -21.5,32.63 c -168.8,67.74 -277.8,229.46 -277.8,411.49 0,244.29 198.9,443.19 443.2,443.19 244.5,0 443.4,-198.9 443.4,-443.19 0,-131.62 -57.9,-255.47 -159,-340.1 l -10.7,-36.72 328.9,-1011.9 c 5.3,-16.6 20.6,-27.8 38.1,-27.8 17.4,0 32.9,11 38.1,27.6 l 335.1,1016.43 -10,36.73 c -98.1,84.16 -154.2,206.42 -154.2,335.76 0,244.29 198.9,443.19 443.2,443.19 244.5,0 443.4,-198.9 443.4,-443.19 0,-189.78 -120.7,-358.57 -300,-419.7 l -23.2,-34.22 66.3,-1173.3 c 1,-16.7 11.7,-30.6 27.2,-35.9 4.3,-1.6 8.7,-2.2 13,-2.2 11.4,0 22.6,5 30.6,14.1 l 433.6,509.6 3.9,38.5 c -35.9,65 -54.8,139.2 -54.8,214 0,244.5 198.9,443.4 443.2,443.4 244.5,0 443.4,-198.9 443.4,-443.4"
       style="fill:#f8f8f8;fill-opacity:1;fill-rule:nonzero;stroke:none"
       transform="matrix(0.13333333,0,0,-0.13333333,0,2133.3333)" />
    <path
       id="path73"
       d="m 21970.5,2953.5 c -78,166 -486,195 -1132.5,218.3 -646.4,23.2 -1339.6,-29 -1636.6,-46.6 -297,-17.5 -390.9,-267.7 -390.9,-267.7 0,222.6 158.7,380.7 499.7,497.4 163.1,55.9 659.9,103.1 1085.1,103.1 382.7,0 778.3,-12.5 1079.1,-103.5 300.2,-90.6 457.6,-216.5 496.1,-401"
       style="fill:#ffffff;fill-opacity:1;fill-rule:nonzero;stroke:none"
       transform="matrix(0.13333333,0,0,-0.13333333,0,2133.3333)" />
    <path
       id="path74"
       d="m 22439.3,5882.6 c 0,0 115.8,-482.8 -331.8,-585.1 0,0 -52.4,-11.6 -78.6,-87.3 -26.2,-75.7 -352.3,-693 -794.9,-1205.5 -442.6,-512.5 -745.5,-478.6 -745.5,-478.6 0,0 428.6,24.3 1022.4,-111.1 l 666.9,1678.4 c 0,0 20.9,15.9 27,21.2 6.1,5.3 306.6,20.6 376.5,376.5 0,0 49.9,202 -142,391.5"
       style="fill:#d3d3d3;fill-opacity:1;fill-rule:nonzero;stroke:none"
       transform="matrix(0.13333333,0,0,-0.13333333,0,2133.3333)" />
    <path
       id="path75"
       d="m 21980.1,2501.4 h -3169.6 v 356.1 c 0,0 93.9,250.2 390.9,267.7 297,17.6 990.2,69.8 1636.6,46.6 646.5,-23.3 1054.5,-52.3 1132.5,-218.3 l 9.6,-452.1"
       style="fill:#f8f8f8;fill-opacity:1;fill-rule:nonzero;stroke:none"
       transform="matrix(0.13333333,0,0,-0.13333333,0,2133.3333)" />
    <path
       id="path76"
       d="m 18935.5,5911 c 0,0 91.2,-172.8 -15.5,-351.4 -103.6,-173.3 3.9,-316.4 69.9,-374.7 66,-58.2 246.6,-122.6 246.6,-122.6 l -196.8,212.1 -3.4,42.2 c 0,0 74.7,91.5 72.4,260.4 -2.4,169 -115.4,294.2 -173.2,334"
       style="fill:#d3d3d3;fill-opacity:1;fill-rule:nonzero;stroke:none"
       transform="matrix(0.13333333,0,0,-0.13333333,0,2133.3333)" />
    <path
       id="path77"
       d="m 20082.4,6753.04 c 0,0 31,-302.59 -132.6,-466.59 -212.9,-213.47 281,-807.85 281,-807.85 l -190.9,587.3 10.7,36.72 c 0,0 65.9,51.88 112.2,141.8 64.2,124.56 97.1,317.8 -80.4,508.62"
       style="fill:#d3d3d3;fill-opacity:1;fill-rule:nonzero;stroke:none"
       transform="matrix(0.13333333,0,0,-0.13333333,0,2133.3333)" />
    <path
       id="path78"
       d="m 21398.4,6727.53 c 0,0 43.3,-335.11 -240.1,-439.94 -283.5,-104.83 57.5,-944.09 57.5,-944.09 l -36.5,645.3 23.2,34.22 c 0,0 170.5,46.5 261.1,238.52 90.7,192.03 0.3,381.78 -65.2,465.99"
       style="fill:#d3d3d3;fill-opacity:1;fill-rule:nonzero;stroke:none"
       transform="matrix(0.13333333,0,0,-0.13333333,0,2133.3333)" />
  </g>
</svg>
