<?xml version="1.0" encoding="UTF-8" standalone="no"?>
<!-- Created with Inkscape (http://www.inkscape.org/) -->

<svg
   version="1.1"
   id="svg1"
   width="700"
   height="700"
   viewBox="0 0 700 700.00001"
   sodipodi:docname="queen_white.svg"
   inkscape:version="1.4 (86a8ad7, 2024-10-11)"
   xmlns:inkscape="http://www.inkscape.org/namespaces/inkscape"
   xmlns:sodipodi="http://sodipodi.sourceforge.net/DTD/sodipodi-0.dtd"
   xmlns="http://www.w3.org/2000/svg"
   xmlns:svg="http://www.w3.org/2000/svg">
  <sodipodi:namedview
     id="namedview1"
     pagecolor="#ffffff"
     bordercolor="#000000"
     borderopacity="0.25"
     inkscape:showpageshadow="2"
     inkscape:pageopacity="0.0"
     inkscape:pagecheckerboard="0"
     inkscape:deskcolor="#d1d1d1"
     inkscape:zoom="1.6671429"
     inkscape:cx="350.29991"
     inkscape:cy="350"
     inkscape:window-width="2560"
     inkscape:window-height="1369"
     inkscape:window-x="1912"
     inkscape:window-y="-8"
     inkscape:window-maximized="1"
     inkscape:current-layer="svg1" />
  <defs
     id="defs1" />
  <g
     id="layer5"
     transform="translate(-572.16065,-603.14101)"
     style="display:inline">
    <path
       id="path71"
       d="m 1162.2176,898.66547 -3.5866,2.85333 -88.9334,223.7866 c -0.76,-0.2533 -1.4933,-0.4666 -2.2133,-0.7066 -41.28,-12.44 -94.79999,-14.1734 -146.53332,-14.1734 -55.26666,0 -117.42666,5.72 -143.42666,12.96 l -86.58667,-222.13326 -4.01333,-2.92 c -31.24,-1.73334 -55.69333,-27.65334 -55.69333,-58.97333 0,-32.6 26.52,-59.12534 59.09333,-59.12534 32.6,0 59.12,26.52534 59.12,59.12534 0,11.61333 -3.33334,22.81333 -9.69333,32.38666 l 0.45333,5.62667 64.26666,69.25333 c 1.02667,1.12 2.45334,1.70667 3.92,1.70667 0.64,0 1.28,-0.0933 1.92,-0.33334 2.04,-0.76 3.4,-2.68 3.46667,-4.86666 l 4.10667,-162.32 -2.86667,-4.35067 c -22.50667,-9.032 -37.04,-30.59466 -37.04,-54.86533 0,-32.572 26.52,-59.092 59.09333,-59.092 32.6,0 59.12,26.52 59.12,59.092 0,17.54933 -7.72,34.06267 -21.2,45.34667 l -1.42666,4.896 43.85333,134.91999 c 0.70666,2.21334 2.74666,3.70667 5.08,3.70667 2.32,0 4.38666,-1.46667 5.08,-3.68 l 44.68,-135.524 -1.33334,-4.89733 c -13.08,-11.22133 -20.56,-27.52267 -20.56,-44.768 0,-32.572 26.52,-59.092 59.09329,-59.092 32.6,0 59.12,26.52 59.12,59.092 0,25.304 -16.0933,47.80933 -40,55.96 l -3.0933,4.56267 8.84,156.43999 c 0.1333,2.22667 1.56,4.08 3.6267,4.78667 0.5733,0.21333 1.16,0.29333 1.7333,0.29333 1.52,0 3.0133,-0.66666 4.08,-1.88 l 57.8133,-67.94666 0.52,-5.13334 c -4.7866,-8.66666 -7.3066,-18.56 -7.3066,-28.53333 0,-32.6 26.52,-59.12 59.0933,-59.12 32.6,0 59.12,26.52 59.12,59.12 0,29.29333 -21.8267,54.46667 -50.7867,58.52 z m -8.3333,-126.76533 c -37.6267,0 -68.2133,30.632 -68.2133,68.24533 0,10.46667 2.4266,20.77333 6.9866,30.08 l -49.7466,58.45333 -8.12,-143.73333 c 25.7866,-10.308 42.9066,-35.308 42.9066,-63.34933 0,-37.62 -30.6266,-68.216 -68.24,-68.216 -37.62662,0 -68.22662,30.596 -68.22662,68.216 0,18.856 7.78667,36.76933 21.44,49.63467 l -40.13333,121.76799 -39.36,-121.12933 c 14.10666,-12.92533 22.13333,-31.052 22.13333,-50.27333 0,-37.62 -30.61333,-68.216 -68.24,-68.216 -37.62666,0 -68.21333,30.596 -68.21333,68.216 0,26.94667 15.53333,50.94267 39.84,62.016 l -3.84,150.02666 -55.62667,-59.94666 c 6.12,-10.37334 9.34667,-22.13334 9.34667,-34.33333 0,-37.62667 -30.62666,-68.24934 -68.25333,-68.24934 -37.61333,0 -68.21333,30.62267 -68.21333,68.24934 0,35.15999 26.70666,64.31999 61.30666,67.78666 l 85.4,219.09333 c -30.58666,11.0133 -68.30666,30.6666 -68.30666,73.3866 v 56.6 H 1141.391 v -56.6 c 0,-41.84 -31.6667,-60.5466 -63.0267,-71.4666 l 87.8133,-220.94666 c 32.08,-5.84 55.96,-34.16 55.96,-67.06667 0,-37.61333 -30.6266,-68.24533 -68.2533,-68.24533 z m -22.9067,414.92526 c 0.8534,4.0534 1.28,8.3067 1.28,12.8 v 47.48 H 709.64432 v -47.48 c 0,-29.68 21.16,-50.76 66.62666,-66.32 21.74667,-7.4533 87.98667,-13.7466 144.68,-13.7466 51.02667,0 103.77332,1.6666 143.88002,13.8 40.0266,12.08 61.0133,28.8666 66.1466,53.4666"
       style="fill:#231f20;fill-opacity:1;fill-rule:nonzero;stroke:#231f20;stroke-width:6.66667;stroke-dasharray:none;stroke-opacity:1" />
    <path
       id="path72"
       d="m 1213.0043,840.14547 c 0,29.29333 -21.8267,54.46667 -50.7867,58.52 l -3.5866,2.85333 -88.9334,223.7866 c -0.76,-0.2533 -1.4933,-0.4666 -2.2133,-0.7066 -41.28,-12.44 -94.79999,-14.1734 -146.53332,-14.1734 -55.26666,0 -117.42666,5.72 -143.42666,12.96 l -86.58667,-222.13326 -4.01333,-2.92 c -31.24,-1.73334 -55.69333,-27.65334 -55.69333,-58.97333 0,-32.6 26.52,-59.12534 59.09333,-59.12534 32.6,0 59.12,26.52534 59.12,59.12534 0,11.61333 -3.33334,22.81333 -9.69333,32.38666 l 0.45333,5.62667 64.26666,69.25333 c 1.02667,1.12 2.45334,1.70667 3.92,1.70667 0.64,0 1.28,-0.0933 1.92,-0.33334 2.04,-0.76 3.4,-2.68 3.46667,-4.86666 l 4.10667,-162.32 -2.86667,-4.35067 c -22.50667,-9.032 -37.04,-30.59466 -37.04,-54.86533 0,-32.572 26.52,-59.092 59.09333,-59.092 32.6,0 59.12,26.52 59.12,59.092 0,17.54933 -7.72,34.06267 -21.2,45.34667 l -1.42666,4.896 43.85333,134.91999 c 0.70666,2.21334 2.74666,3.70667 5.08,3.70667 2.32,0 4.38666,-1.46667 5.08,-3.68 l 44.68,-135.524 -1.33334,-4.89733 c -13.08,-11.22133 -20.56,-27.52267 -20.56,-44.768 0,-32.572 26.52,-59.092 59.09329,-59.092 32.6,0 59.12,26.52 59.12,59.092 0,25.304 -16.0933,47.80933 -40,55.96 l -3.0933,4.56267 8.84,156.43999 c 0.1333,2.22667 1.56,4.08 3.6267,4.78667 0.5733,0.21333 1.16,0.29333 1.7333,0.29333 1.52,0 3.0133,-0.66666 4.08,-1.88 l 57.8133,-67.94666 0.52,-5.13334 c -4.7866,-8.66666 -7.3066,-18.56 -7.3066,-28.53333 0,-32.6 26.52,-59.12 59.0933,-59.12 32.6,0 59.12,26.52 59.12,59.12"
       style="fill:#f8f8f8;fill-opacity:1;fill-rule:nonzero;stroke:none;stroke-width:0.133333" />
    <path
       id="path73"
       d="m 1130.9776,1186.8254 c -10.4,-22.1333 -64.8,-26 -150.99995,-29.1066 -86.18667,-3.0934 -178.61333,3.8666 -218.21333,6.2133 -39.6,2.3333 -52.12,35.6933 -52.12,35.6933 0,-29.68 21.16,-50.76 66.62666,-66.32 21.74667,-7.4533 87.98667,-13.7466 144.68,-13.7466 51.02667,0 103.77332,1.6666 143.88002,13.8 40.0266,12.08 61.0133,28.8666 66.1466,53.4666"
       style="fill:#ffffff;fill-opacity:1;fill-rule:nonzero;stroke:none;stroke-width:0.133333" />
    <path
       id="path74"
       d="m 1193.4843,796.27881 c 0,0 15.44,64.37333 -44.24,78.01333 0,0 -6.9867,1.54666 -10.48,11.64 -3.4933,10.09333 -46.9733,92.4 -105.9867,160.73326 -59.01329,68.3334 -99.39995,63.8134 -99.39995,63.8134 0,0 57.14666,-3.24 136.31995,14.8133 l 88.92,-223.78663 c 0,0 2.7867,-2.12 3.6,-2.82667 0.8134,-0.70666 40.88,-2.74666 50.2,-50.2 0,0 6.6534,-26.93333 -18.9333,-52.19999"
       style="fill:#d3d3d3;fill-opacity:1;fill-rule:nonzero;stroke:none;stroke-width:0.133333" />
    <path
       id="path75"
       d="M 1132.2576,1247.1054 H 709.64432 v -47.48 c 0,0 12.52,-33.36 52.12,-35.6933 39.6,-2.3467 132.02666,-9.3067 218.21333,-6.2133 86.19995,3.1066 140.59995,6.9733 150.99995,29.1066 l 1.28,60.28"
       style="fill:#f8f8f8;fill-opacity:1;fill-rule:nonzero;stroke:none;stroke-width:0.133333" />
    <path
       id="path76"
       d="m 726.31099,792.49214 c 0,0 12.16,23.04 -2.06667,46.85333 -13.81333,23.10667 0.52,42.18667 9.32,49.96 8.8,7.76 32.88,16.34667 32.88,16.34667 l -26.24,-28.28 -0.45333,-5.62667 c 0,0 9.95999,-12.2 9.65333,-34.72 -0.32,-22.53333 -15.38667,-39.22666 -23.09333,-44.53333"
       style="fill:#d3d3d3;fill-opacity:1;fill-rule:nonzero;stroke:none;stroke-width:0.133333" />
    <path
       id="path77"
       d="m 879.23098,680.22014 c 0,0 4.13333,40.34533 -17.68,62.212 -28.38666,28.46267 37.46667,107.71333 37.46667,107.71333 l -25.45333,-78.30666 1.42666,-4.896 c 0,0 8.78667,-6.91734 14.96,-18.90667 8.56,-16.608 12.94667,-42.37333 -10.72,-67.816"
       style="fill:#d3d3d3;fill-opacity:1;fill-rule:nonzero;stroke:none;stroke-width:0.133333" />
    <path
       id="path78"
       d="m 1054.6976,683.62148 c 0,0 5.7734,44.68133 -32.0133,58.65866 -37.79999,13.97733 7.6667,125.87866 7.6667,125.87866 l -4.8667,-86.03999 3.0933,-4.56267 c 0,0 22.7334,-6.2 34.8134,-31.80267 12.0933,-25.604 0.04,-50.90399 -8.6934,-62.13199"
       style="fill:#d3d3d3;fill-opacity:1;fill-rule:nonzero;stroke:none;stroke-width:0.133333" />
  </g>
</svg>
