<?xml version="1.0" encoding="UTF-8" standalone="no"?>
<!-- Created with Inkscape (http://www.inkscape.org/) -->

<svg
   version="1.1"
   id="svg1"
   width="606.67999"
   height="609.52264"
   viewBox="0 0 606.67999 609.52266"
   xmlns="http://www.w3.org/2000/svg"
   xmlns:svg="http://www.w3.org/2000/svg">
  <defs
     id="defs1" />
  <g
     id="layer11"
     transform="translate(-2437.2266,-339.21334)">
    <path
       id="path21"
       d="m 22355,11591.2 -27,-21.4 -666.9,-1678.35 c -5.7,1.82 -11.2,3.42 -16.7,5.24 -309.5,93.3 -710.9,106.31 -1098.9,106.31 -414.5,0 -880.7,-42.89 -1075.8,-97.18 l -649.4,1666.08 -30.1,21.9 c -234.2,13 -417.6,207.3 -417.6,442.2 0,244.6 198.9,443.5 443.2,443.5 244.5,0 443.4,-198.9 443.4,-443.5 0,-87.1 -25.1,-171 -72.8,-242.9 l 3.5,-42.2 481.9,-519.4 c 7.8,-8.4 18.5,-12.7 29.5,-12.7 4.8,0 9.5,0.6 14.3,2.5 15.3,5.7 25.6,20 26,36.5 l 30.8,1217.3 -21.4,32.6 c -168.8,67.8 -277.8,229.5 -277.8,411.5 0,244.3 198.9,443.2 443.2,443.2 244.5,0 443.4,-198.9 443.4,-443.2 0,-131.6 -58,-255.4 -159,-340.1 l -10.7,-36.7 328.9,-1011.8 c 5.2,-16.7 20.5,-27.9 38.1,-27.9 17.3,0 32.8,11 38.1,27.6 l 335.1,1016.5 -10.1,36.7 c -98.1,84.1 -154.2,206.4 -154.2,335.7 0,244.3 198.9,443.2 443.2,443.2 244.5,0 443.4,-198.9 443.4,-443.2 0,-189.7 -120.6,-358.5 -299.9,-419.7 l -23.3,-34.2 66.4,-1173.3 c 0.9,-16.7 11.6,-30.6 27.2,-35.8 4.3,-1.6 8.6,-2.3 13,-2.3 11.4,0 22.5,5 30.5,14.1 l 433.6,509.6 3.9,38.6 c -35.8,65 -54.7,139.1 -54.7,213.9 0,244.5 198.9,443.4 443.2,443.4 244.5,0 443.4,-198.9 443.4,-443.4 0,-219.7 -163.8,-408.5 -380.9,-438.9 z m -62.5,950.8 c -282.2,0 -511.7,-229.7 -511.7,-511.9 0,-78.5 18.3,-155.8 52.5,-225.6 l -373.2,-438.4 -60.9,1078 c 193.5,77.3 321.9,264.8 321.9,475.1 0,282.2 -229.7,511.7 -511.9,511.7 -282.1,0 -511.6,-229.5 -511.6,-511.7 0,-141.4 58.4,-275.7 160.8,-372.2 l -301.1,-913.3 -295.1,908.5 c 105.8,96.9 166,232.9 166,377 0,282.2 -229.7,511.7 -511.8,511.7 -282.2,0 -511.7,-229.5 -511.7,-511.7 0,-202.1 116.6,-382 298.8,-465.1 l -28.7,-1125.2 -417.2,449.6 c 45.9,77.8 70,166.1 70,257.5 0,282.2 -229.7,511.9 -511.8,511.9 -282.2,0 -511.6,-229.7 -511.6,-511.9 0,-263.6 200.2,-482.4 459.8,-508.4 l 640.5,-1643.22 c -229.5,-82.58 -512.3,-229.93 -512.3,-550.41 v -424.49 h 3306.5 v 424.49 c 0,313.87 -237.4,454.15 -472.6,536.04 l 658.5,1657.19 c 240.7,43.7 419.7,256.1 419.7,502.9 0,282.2 -229.7,511.9 -511.8,511.9 z m -171.8,-3112 c 6.4,-30.33 9.6,-62.27 9.6,-96.03 v -356.06 h -3169.7 v 356.06 c 0,222.63 158.8,380.7 499.8,497.49 163.1,55.88 659.9,103.1 1085.1,103.1 382.7,0 778.2,-12.55 1079.1,-103.56 300.2,-90.55 457.6,-216.47 496.1,-401"
       style="fill:#231f20;fill-opacity:1;fill-rule:nonzero;stroke:#231f20;stroke-width:50;stroke-dasharray:none;stroke-opacity:1"
       transform="matrix(0.13333333,0,0,-0.13333333,0,2133.3333)" />
    <path
       id="path22"
       d="m 22735.9,12030.1 c 0,-219.7 -163.8,-408.5 -380.9,-438.9 l -27,-21.4 -666.9,-1678.35 c -5.7,1.82 -11.2,3.42 -16.7,5.24 -309.5,93.3 -710.9,106.31 -1098.9,106.31 -414.5,0 -880.7,-42.89 -1075.8,-97.18 l -649.4,1666.08 -30.1,21.9 c -234.2,13 -417.6,207.3 -417.6,442.2 0,244.6 198.9,443.5 443.2,443.5 244.5,0 443.4,-198.9 443.4,-443.5 0,-87.1 -25.1,-171 -72.8,-242.9 l 3.5,-42.2 481.9,-519.4 c 7.8,-8.4 18.5,-12.7 29.5,-12.7 4.8,0 9.5,0.6 14.3,2.5 15.3,5.7 25.6,20 26,36.5 l 30.8,1217.3 -21.4,32.6 c -168.8,67.8 -277.8,229.5 -277.8,411.5 0,244.3 198.9,443.2 443.2,443.2 244.5,0 443.4,-198.9 443.4,-443.2 0,-131.6 -58,-255.4 -159,-340.1 l -10.7,-36.7 328.9,-1011.8 c 5.2,-16.7 20.5,-27.9 38.1,-27.9 17.3,0 32.8,11 38.1,27.6 l 335.1,1016.5 -10.1,36.7 c -98.1,84.1 -154.2,206.4 -154.2,335.7 0,244.3 198.9,443.2 443.2,443.2 244.5,0 443.4,-198.9 443.4,-443.2 0,-189.7 -120.6,-358.5 -299.9,-419.7 l -23.3,-34.2 66.4,-1173.3 c 0.9,-16.7 11.6,-30.6 27.2,-35.8 4.3,-1.6 8.6,-2.3 13,-2.3 11.4,0 22.5,5 30.5,14.1 l 433.6,509.6 3.9,38.6 c -35.8,65 -54.7,139.1 -54.7,213.9 0,244.5 198.9,443.4 443.2,443.4 244.5,0 443.4,-198.9 443.4,-443.4"
       style="fill:#565352;fill-opacity:1;fill-rule:nonzero;stroke:none"
       transform="matrix(0.13333333,0,0,-0.13333333,0,2133.3333)" />
    <path
       id="path23"
       d="m 22120.7,9430 c -78,166.06 -486.1,195.03 -1132.5,218.29 -646.4,23.27 -1339.6,-28.96 -1636.6,-46.53 -297,-17.56 -391,-267.79 -391,-267.79 0,222.63 158.8,380.7 499.8,497.49 163.1,55.88 659.9,103.1 1085.1,103.1 382.7,0 778.2,-12.55 1079.1,-103.56 300.2,-90.55 457.6,-216.47 496.1,-401"
       style="fill:#888685;fill-opacity:1;fill-rule:nonzero;stroke:none"
       transform="matrix(0.13333333,0,0,-0.13333333,0,2133.3333)" />
    <path
       id="path24"
       d="m 19916.4,13362.4 c 0,0 -380,-0.6 -441.3,-402.3 0,0 -4.7,-103.2 26.2,-197.1 0,0 -26.5,370.9 415.1,599.4"
       style="fill:#888685;fill-opacity:1;fill-rule:nonzero;stroke:none"
       transform="matrix(0.13333333,0,0,-0.13333333,0,2133.3333)" />
    <path
       id="path25"
       d="m 21204.9,13362.4 c 0,0 -274.5,-0.4 -394.6,-247.3 -45.5,-93.6 -55,-200.7 -33.6,-302.6 3.4,-16.4 12.4,-33.1 17.7,-49.5 0,0 -31.1,370.9 410.5,599.4"
       style="fill:#888685;fill-opacity:1;fill-rule:nonzero;stroke:none"
       transform="matrix(0.13333333,0,0,-0.13333333,0,2133.3333)" />
    <path
       id="path26"
       d="m 22296.2,12474.1 c 0,0 -274.5,3.4 -398,-241.7 -46.8,-93 -57.9,-200 -38,-302.1 3.2,-16.5 12,-33.3 17.1,-49.8 0,0 -25.8,371.4 418.9,593.6"
       style="fill:#888685;fill-opacity:1;fill-rule:nonzero;stroke:none"
       transform="matrix(0.13333333,0,0,-0.13333333,0,2133.3333)" />
    <path
       id="path27"
       d="m 18810.9,12479.4 c 0,0 -42.3,0.1 -100.5,-12.6 -117.1,-25.6 -296.7,-120.3 -337.6,-388.1 0,0 -4.6,-103.1 26.3,-197.1 0,0 -29.7,369.3 411.8,597.8"
       style="fill:#888685;fill-opacity:1;fill-rule:nonzero;stroke:none"
       transform="matrix(0.13333333,0,0,-0.13333333,0,2133.3333)" />
    <path
       id="path28"
       d="m 22589.4,12359.1 c 0,0 115.8,-482.8 -331.7,-585 0,0 -52.4,-11.7 -78.6,-87.4 -26.2,-75.7 -352.4,-693 -795,-1205.5 -442.6,-512.52 -745.4,-478.6 -745.4,-478.6 0,0 428.6,24.3 1022.3,-111.1 l 667,1678.4 c 0,0 20.9,15.9 27,21.2 6.1,5.3 306.6,20.7 376.4,376.5 0,0 50,202 -142,391.5"
       style="fill:#454242;fill-opacity:1;fill-rule:nonzero;stroke:none"
       transform="matrix(0.13333333,0,0,-0.13333333,0,2133.3333)" />
    <path
       id="path29"
       d="m 22130.3,8977.91 h -3169.7 v 356.06 c 0,0 94,250.23 391,267.79 297,17.57 990.2,69.8 1636.6,46.53 646.4,-23.26 1054.5,-52.23 1132.5,-218.29 l 9.6,-452.09"
       style="fill:#565352;fill-opacity:1;fill-rule:nonzero;stroke:none"
       transform="matrix(0.13333333,0,0,-0.13333333,0,2133.3333)" />
    <path
       id="path30"
       d="m 19085.7,12387.5 c 0,0 91.2,-172.8 -15.6,-351.4 -103.6,-173.3 3.9,-316.4 69.9,-374.6 66,-58.3 246.7,-122.7 246.7,-122.7 l -196.8,212.1 -3.5,42.2 c 0,0 74.7,91.5 72.4,260.5 -2.3,168.9 -115.4,294.1 -173.1,333.9"
       style="fill:#454242;fill-opacity:1;fill-rule:nonzero;stroke:none"
       transform="matrix(0.13333333,0,0,-0.13333333,0,2133.3333)" />
    <path
       id="path31"
       d="m 20232.6,13229.6 c 0,0 31,-302.6 -132.6,-466.6 -213,-213.5 281,-807.9 281,-807.9 l -190.9,587.3 10.7,36.7 c 0,0 65.8,51.9 112.2,141.8 64.2,124.6 97.1,317.8 -80.4,508.7"
       style="fill:#454242;fill-opacity:1;fill-rule:nonzero;stroke:none"
       transform="matrix(0.13333333,0,0,-0.13333333,0,2133.3333)" />
    <path
       id="path32"
       d="m 21548.6,13204 c 0,0 43.2,-335.1 -240.2,-439.9 -283.4,-104.8 57.5,-944 57.5,-944 l -36.5,645.2 23.3,34.2 c 0,0 170.5,46.5 261.1,238.6 90.6,192 0.2,381.7 -65.2,465.9"
       style="fill:#454242;fill-opacity:1;fill-rule:nonzero;stroke:none"
       transform="matrix(0.13333333,0,0,-0.13333333,0,2133.3333)" />
  </g>
</svg>
