<?xml version="1.0" encoding="UTF-8" standalone="no"?>
<!-- Created with Inkscape (http://www.inkscape.org/) -->

<svg
   version="1.1"
   id="svg1"
   width="458.91064"
   height="569.70264"
   viewBox="0 0 458.91064 569.70265"
   xmlns="http://www.w3.org/2000/svg"
   xmlns:svg="http://www.w3.org/2000/svg">
  <defs
     id="defs1" />
  <g
     id="layer7"
     transform="translate(-228.20799,-1245.1507)">
    <path
       id="path59"
       d="M 5059.96,2482 H 1804.99 v 289.9 c 0,324.8 264.14,589 588.95,589 h 2077.07 c 324.82,0 588.95,-264.2 588.95,-589 z M 2488.15,5163.8 c 24.4,-3.5 49.27,-5.3 74.58,-5.3 h 1689.08 c 33.07,0 65.24,3.2 96.71,8.9 l 221.94,-1745.6 c -32.39,5 -65.69,7.5 -99.45,7.5 H 2393.94 c -34.21,0 -67.74,-2.5 -100.36,-7.8 z m -391.88,529.8 -52.92,521.93 c -6.38,63.18 14.37,126.37 57.03,173.36 42.42,47.21 103.1,74.13 166.51,74.13 h 286.26 c 48.82,0 91.7,-32.62 104.7,-79.61 l 112.23,-404.61 221.71,7.9 20.53,514.18 c 1.6,37.64 32.16,67.06 69.8,67.06 h 656.24 c 36.04,0 65.92,-27.14 69.34,-62.95 l 52,-520.29 264.14,7.5 60.91,379.35 c 8.44,53.15 53.6,91.47 107.2,91.47 h 255.7 c 63.41,0 124.09,-26.92 166.74,-74.13 42.43,-46.99 63.19,-110.18 56.8,-173.36 l -52.69,-518.43 -0.23,-3.5 c 0,-257.3 -209.17,-466.7 -466.46,-466.7 H 2562.73 c -257.29,0 -466.46,209.4 -466.46,466.7 z M 4641.4,3406.9 4415.36,5184.3 c 214.64,69.1 370.66,270.3 371.34,507.5 l 52.46,516.89 c 8.44,82.34 -18.47,164.69 -74.13,226.27 -55.43,61.36 -134.58,96.49 -217.38,96.49 h -255.7 c -87.36,0 -161.03,-62.73 -174.72,-148.95 l -52.01,-323.67 -143.7,-4.11 -45.62,457.11 c -7.07,70.94 -66.38,124.54 -137.54,124.54 h -656.24 c -74.59,0 -135.27,-58.39 -138.23,-132.75 l -18.02,-450.95 -104.24,-3.65 -97.86,352.64 c -21.21,76.41 -91.24,129.79 -170.62,129.79 h -286.26 c -82.57,0 -161.95,-35.13 -217.38,-96.49 -55.43,-61.58 -82.57,-143.93 -74.13,-226.27 l 52.46,-516.89 c 0.69,-245.2 167.2,-451.9 393.02,-514.1 l -197.77,-1771 c -279.87,-75.5 -486.53,-331.4 -486.53,-634.8 v -358.3 h 3391.83 v 358.3 c 0,303.6 -206.88,559.8 -486.99,635"
       style="fill:#231f20;fill-opacity:1;fill-rule:nonzero;stroke:#231f20;stroke-width:50;stroke-dasharray:none;stroke-opacity:1"
       transform="matrix(0.13333333,0,0,-0.13333333,0,2133.3333)" />
    <path
       id="path60"
       d="M 5059.96,2771.9 V 2482 H 1804.99 v 289.9 c 0,324.8 264.14,589 588.95,589 h 2077.07 c 324.82,0 588.95,-264.2 588.95,-589"
       style="fill:#f8f8f8;fill-opacity:1;fill-rule:nonzero;stroke:none"
       transform="matrix(0.13333333,0,0,-0.13333333,0,2133.3333)" />
    <path
       id="path61"
       d="m 4570.46,3421.8 c -32.39,5 -65.69,7.5 -99.45,7.5 H 2393.94 c -34.21,0 -67.74,-2.5 -100.36,-7.8 l 194.57,1742.3 c 24.4,-3.5 49.27,-5.3 74.58,-5.3 h 1689.08 c 33.07,0 65.24,3.2 96.71,8.9 l 221.94,-1745.6"
       style="fill:#f8f8f8;fill-opacity:1;fill-rule:nonzero;stroke:none"
       transform="matrix(0.13333333,0,0,-0.13333333,0,2133.3333)" />
    <path
       id="path62"
       d="m 4771.19,6215.53 -52.69,-518.43 -0.23,-3.5 c 0,-257.3 -209.17,-466.7 -466.46,-466.7 H 2562.73 c -257.29,0 -466.46,209.4 -466.46,466.7 l -52.92,521.93 c -6.38,63.18 14.37,126.37 57.03,173.36 42.42,47.21 103.1,74.13 166.51,74.13 h 286.26 c 48.82,0 91.7,-32.62 104.7,-79.61 l 112.23,-404.61 221.71,7.9 20.53,514.18 c 1.6,37.64 32.16,67.06 69.8,67.06 h 656.24 c 36.04,0 65.92,-27.14 69.34,-62.95 l 52,-520.29 264.14,7.5 60.91,379.35 c 8.44,53.15 53.6,91.47 107.2,91.47 h 255.7 c 63.41,0 124.09,-26.92 166.74,-74.13 42.43,-46.99 63.19,-110.18 56.8,-173.36"
       style="fill:#f8f8f8;fill-opacity:1;fill-rule:nonzero;stroke:none"
       transform="matrix(0.13333333,0,0,-0.13333333,0,2133.3333)" />
    <path
       id="path63"
       d="m 2886.94,5156 c 0,0 1108.56,-92.6 1203.92,-900 84,-711.2 123.71,-826.7 123.71,-826.7 l 355.89,-7.5 -221.94,1745.6 -85.64,-8.9 c -4.99,-0.5 -10.01,-0.7 -15.03,-0.7 L 2886.94,5156"
       style="fill:#d3d3d3;fill-opacity:1;fill-rule:nonzero;stroke:none"
       transform="matrix(0.13333333,0,0,-0.13333333,0,2133.3333)" />
    <path
       id="path64"
       d="m 4437.74,5406.7 c -113.31,-86.2 -247.82,-133.9 -247.82,-133.9 -76.38,-27.1 -144.05,-39.7 -194.42,-45.9 0,0 375.63,-24.7 459.65,46.8 228.38,75.2 267.67,334.2 285.8,582.9 12.18,167.23 30.79,365.7 30.79,365.7 -23.67,-397 -179.84,-698.4 -334,-815.6"
       style="fill:#d3d3d3;fill-opacity:1;fill-rule:nonzero;stroke:none"
       transform="matrix(0.13333333,0,0,-0.13333333,0,2133.3333)" />
    <path
       id="path65"
       d="m 5057.91,2836.9 c -31.93,295 -282.39,525.1 -585.53,525.1 H 3432.48 2392.57 c -303.14,0 -553.59,-230.1 -585.53,-525.1 -2.28,-21 -0.91,-39.4 15.74,21.9 20.53,75.3 68.89,138.5 128.65,186.6 98.76,79.8 222.62,121.4 349.45,125 216.23,6.2 668.78,17.3 1131.6,19.6 462.81,-2.3 915.36,-13.4 1131.6,-19.6 126.82,-3.6 250.68,-45.2 349.44,-125 59.77,-48.1 108.12,-111.3 128.65,-186.6 16.65,-61.3 18.02,-42.9 15.74,-21.9"
       style="fill:#ffffff;fill-opacity:1;fill-rule:nonzero;stroke:none"
       transform="matrix(0.13333333,0,0,-0.13333333,0,2133.3333)" />
  </g>
</svg>
