<?xml version="1.0" encoding="UTF-8" standalone="no"?>
<!-- Created with Inkscape (http://www.inkscape.org/) -->

<svg
   version="1.1"
   id="svg1"
   width="700"
   height="700"
   viewBox="0 0 700 700.00001"
   sodipodi:docname="queen_black.svg"
   inkscape:version="1.4 (86a8ad7, 2024-10-11)"
   xmlns:inkscape="http://www.inkscape.org/namespaces/inkscape"
   xmlns:sodipodi="http://sodipodi.sourceforge.net/DTD/sodipodi-0.dtd"
   xmlns="http://www.w3.org/2000/svg"
   xmlns:svg="http://www.w3.org/2000/svg">
  <sodipodi:namedview
     id="namedview1"
     pagecolor="#ffffff"
     bordercolor="#000000"
     borderopacity="0.25"
     inkscape:showpageshadow="2"
     inkscape:pageopacity="0.0"
     inkscape:pagecheckerboard="0"
     inkscape:deskcolor="#d1d1d1"
     inkscape:zoom="1.6671429"
     inkscape:cx="340.70266"
     inkscape:cy="384.79006"
     inkscape:window-width="2560"
     inkscape:window-height="1369"
     inkscape:window-x="1912"
     inkscape:window-y="-8"
     inkscape:window-maximized="1"
     inkscape:current-layer="svg1" />
  <defs
     id="defs1" />
  <g
     id="layer11"
     transform="translate(-592.18065,260.39497)"
     style="display:inline">
    <path
       id="path21"
       d="m 1182.2443,35.132156 -3.6,2.853333 -88.92,223.780001 c -0.76,-0.24267 -1.4933,-0.456 -2.2267,-0.69867 -41.2666,-12.44 -94.78662,-14.17467 -146.51995,-14.17467 -55.26667,0 -117.42667,5.71867 -143.44,12.95734 l -86.58666,-222.144001 -4.01334,-2.92 c -31.22666,-1.733333 -55.68,-27.6399989 -55.68,-58.959999 0,-32.613332 26.52,-59.133333 59.09334,-59.133333 32.59999,0 59.11999,26.520001 59.11999,59.133333 0,11.613333 -3.34666,22.8000001 -9.70666,32.3866661 l 0.46666,5.6266669 64.25334,69.253331 c 1.04,1.12 2.46666,1.693334 3.93333,1.693334 0.64,0 1.26667,-0.08 1.90667,-0.333334 2.04,-0.76 3.41333,-2.666666 3.46666,-4.866666 l 4.10667,-162.306661 -2.85333,-4.34667 c -22.50667,-9.04 -37.04,-30.599997 -37.04,-54.866657 0,-32.57334 26.52,-59.09334 59.09333,-59.09334 32.6,0 59.12,26.52 59.12,59.09334 0,17.54666 -7.73334,34.05333 -21.2,45.346657 l -1.42667,4.89334 43.85333,134.906658 c 0.69334,2.226667 2.73334,3.72 5.08,3.72 2.30667,0 4.37334,-1.466666 5.08,-3.68 l 44.68,-135.533328 -1.34666,-4.89333 c -13.08,-11.213337 -20.56,-27.519997 -20.56,-44.759997 0,-32.57334 26.52,-59.09334 59.09335,-59.09334 32.6,0 59.12,26.52 59.12,59.09334 0,25.29333 -16.08,47.799997 -39.9867,55.959987 l -3.1067,4.56 8.8534,156.440001 c 0.12,2.226667 1.5466,4.08 3.6266,4.773333 0.5734,0.213334 1.1467,0.306667 1.7334,0.306667 1.52,0 3,-0.666667 4.0666,-1.88 l 57.8134,-67.946665 0.52,-5.1466669 c -4.7734,-8.666666 -7.2934,-18.5466661 -7.2934,-28.5199991 0,-32.599999 26.52,-59.12 59.0934,-59.12 32.6,0 59.12,26.520001 59.12,59.12 0,29.2933331 -21.84,54.466666 -50.7867,58.519999 z m -8.3333,-126.773329 c -37.6267,0 -68.2267,30.626664 -68.2267,68.25333 0,10.466667 2.44,20.7733331 7,30.0799991 l -49.76,58.4533319 -8.12,-143.733331 c 25.8,-10.30666 42.92,-35.306657 42.92,-63.346657 0,-37.62667 -30.6267,-68.22667 -68.2533,-68.22667 -37.61335,0 -68.21335,30.6 -68.21335,68.22667 0,18.85333 7.78666,36.76 21.44,49.626657 L 942.55098,29.465489 903.20431,-91.667843 c 14.10667,-12.919997 22.13334,-31.053327 22.13334,-50.266657 0,-37.62667 -30.62667,-68.22667 -68.24,-68.22667 -37.62667,0 -68.22667,30.6 -68.22667,68.22667 0,26.94666 15.54667,50.933327 39.84,62.013327 L 824.88432,70.105488 769.25765,10.158823 c 6.12,-10.37333295 9.33333,-22.146666 9.33333,-34.333333 0,-37.626665 -30.62666,-68.253333 -68.23999,-68.253333 -37.62667,0 -68.21334,30.626668 -68.21334,68.253333 0,35.146666 26.69334,64.319999 61.30667,67.786665 l 85.4,219.095995 c -30.6,11.01067 -68.30667,30.65734 -68.30667,73.388 v 56.59867 h 440.86665 v -56.59867 c 0,-41.84933 -31.6533,-60.55333 -63.0133,-71.472 l 87.8,-220.958661 c 32.0933,-5.826667 55.96,-34.1466659 55.96,-67.053332 0,-37.626666 -30.6267,-68.25333 -68.24,-68.25333 z m -22.9067,414.933323 c 0.8533,4.044 1.28,8.30267 1.28,12.804 v 47.47467 H 729.65765 v -47.47467 c 0,-29.684 21.17333,-50.76 66.64,-66.332 21.74667,-7.45066 87.98666,-13.74666 144.68,-13.74666 51.02666,0 103.75995,1.67333 143.87995,13.808 40.0267,12.07333 61.0134,28.86266 66.1467,53.46666"
       style="fill:#231f20;fill-opacity:1;fill-rule:nonzero;stroke:#231f20;stroke-width:6.66667;stroke-dasharray:none;stroke-opacity:1" />
    <path
       id="path22"
       d="m 1233.031,-23.387843 c 0,29.2933331 -21.84,54.466666 -50.7867,58.519999 l -3.6,2.853333 -88.92,223.780001 c -0.76,-0.24267 -1.4933,-0.456 -2.2267,-0.69867 -41.2666,-12.44 -94.78662,-14.17467 -146.51995,-14.17467 -55.26667,0 -117.42667,5.71867 -143.44,12.95734 l -86.58666,-222.144001 -4.01334,-2.92 c -31.22666,-1.733333 -55.68,-27.6399989 -55.68,-58.959999 0,-32.613332 26.52,-59.133333 59.09334,-59.133333 32.59999,0 59.11999,26.520001 59.11999,59.133333 0,11.613333 -3.34666,22.8000001 -9.70666,32.3866661 l 0.46666,5.6266669 64.25334,69.253331 c 1.04,1.12 2.46666,1.693334 3.93333,1.693334 0.64,0 1.26667,-0.08 1.90667,-0.333334 2.04,-0.76 3.41333,-2.666666 3.46666,-4.866666 l 4.10667,-162.306661 -2.85333,-4.34667 c -22.50667,-9.04 -37.04,-30.599997 -37.04,-54.866657 0,-32.57334 26.52,-59.09334 59.09333,-59.09334 32.6,0 59.12,26.52 59.12,59.09334 0,17.54666 -7.73334,34.05333 -21.2,45.346657 l -1.42667,4.89334 43.85333,134.906658 c 0.69334,2.226667 2.73334,3.72 5.08,3.72 2.30667,0 4.37334,-1.466666 5.08,-3.68 l 44.68,-135.533328 -1.34666,-4.89333 c -13.08,-11.213337 -20.56,-27.519997 -20.56,-44.759997 0,-32.57334 26.52,-59.09334 59.09335,-59.09334 32.6,0 59.12,26.52 59.12,59.09334 0,25.29333 -16.08,47.799997 -39.9867,55.959987 l -3.1067,4.56 8.8534,156.440001 c 0.12,2.226667 1.5466,4.08 3.6266,4.773333 0.5734,0.213334 1.1467,0.306667 1.7334,0.306667 1.52,0 3,-0.666667 4.0666,-1.88 l 57.8134,-67.946665 0.52,-5.1466669 c -4.7734,-8.666666 -7.2934,-18.5466661 -7.2934,-28.5199991 0,-32.599999 26.52,-59.12 59.0934,-59.12 32.6,0 59.12,26.520001 59.12,59.12"
       style="fill:#565352;fill-opacity:1;fill-rule:nonzero;stroke:none;stroke-width:0.133333" />
    <path
       id="path23"
       d="m 1151.0043,323.29215 c -10.4,-22.14133 -64.8133,-26.004 -151,-29.10533 -86.18665,-3.10267 -178.61332,3.86133 -218.21332,6.204 -39.59999,2.34133 -52.13333,35.70533 -52.13333,35.70533 0,-29.684 21.17333,-50.76 66.64,-66.332 21.74667,-7.45066 87.98666,-13.74666 144.68,-13.74666 51.02666,0 103.75995,1.67333 143.87995,13.808 40.0267,12.07333 61.0134,28.86266 66.1467,53.46666"
       style="fill:#888685;fill-opacity:1;fill-rule:nonzero;stroke:none;stroke-width:0.133333" />
    <path
       id="path24"
       d="m 857.09765,-201.02784 c 0,0 -50.66667,0.08 -58.84,53.64 0,0 -0.62667,13.76 3.49333,26.28 0,0 -3.53333,-49.45333 55.34667,-79.92"
       style="fill:#888685;fill-opacity:1;fill-rule:nonzero;stroke:none;stroke-width:0.133333" />
    <path
       id="path25"
       d="m 1028.8976,-201.02784 c 0,0 -36.59995,0.0533 -52.61329,32.97334 -6.06666,12.48 -7.33333,26.76 -4.48,40.34666 0.45334,2.18667 1.65334,4.41334 2.36,6.6 0,0 -4.14666,-49.45333 54.73329,-79.92"
       style="fill:#888685;fill-opacity:1;fill-rule:nonzero;stroke:none;stroke-width:0.133333" />
    <path
       id="path26"
       d="m 1174.4043,-82.587843 c 0,0 -36.6,-0.45333 -53.0667,32.226667 -6.24,12.4 -7.72,26.666666 -5.0666,40.279999 0.4266,2.2000001 1.6,4.4400001 2.28,6.6400001 0,0 -3.44,-49.5199981 55.8533,-79.1466661"
       style="fill:#888685;fill-opacity:1;fill-rule:nonzero;stroke:none;stroke-width:0.133333" />
    <path
       id="path27"
       d="m 709.69765,-83.294513 c 0,0 -5.64,-0.0133 -13.4,1.68 -15.61333,3.41334 -39.56,16.040004 -45.01333,51.74667 0,0 -0.61333,13.746667 3.50667,26.2800001 0,0 -3.96,-49.2399991 54.90666,-79.7066701"
       style="fill:#888685;fill-opacity:1;fill-rule:nonzero;stroke:none;stroke-width:0.133333" />
    <path
       id="path28"
       d="m 1213.4976,-67.254508 c 0,0 15.44,64.3733311 -44.2266,77.999998 0,0 -6.9867,1.56 -10.48,11.653333 -3.4934,10.093333 -46.9867,92.399997 -106,160.733327 -59.01335,68.336 -99.38669,63.81334 -99.38669,63.81334 0,0 57.14669,-3.24 136.30669,14.81333 l 88.9333,-223.786664 c 0,0 2.7867,-2.12 3.6,-2.826667 0.8133,-0.706667 40.88,-2.76 50.1867,-50.199999 0,0 6.6666,-26.933332 -18.9334,-52.199998"
       style="fill:#454242;fill-opacity:1;fill-rule:nonzero;stroke:none;stroke-width:0.133333" />
    <path
       id="path29"
       d="M 1152.2843,383.57082 H 729.65765 v -47.47467 c 0,0 12.53334,-33.364 52.13333,-35.70533 39.6,-2.34267 132.02667,-9.30667 218.21332,-6.204 86.1867,3.10133 140.6,6.964 151,29.10533 l 1.28,60.27867"
       style="fill:#565352;fill-opacity:1;fill-rule:nonzero;stroke:none;stroke-width:0.133333" />
    <path
       id="path30"
       d="m 746.33765,-71.041175 c 0,0 12.16,23.039999 -2.08,46.853332 -13.81333,23.1066661 0.52,42.186666 9.32,49.946666 8.8,7.773333 32.89333,16.359999 32.89333,16.359999 l -26.24,-28.279999 -0.46666,-5.6266669 c 0,0 9.96,-12.199999 9.65333,-34.7333321 -0.30667,-22.52 -15.38667,-39.213333 -23.08,-44.519999"
       style="fill:#454242;fill-opacity:1;fill-rule:nonzero;stroke:none;stroke-width:0.133333" />
    <path
       id="path31"
       d="m 899.25765,-183.32117 c 0,0 4.13333,40.34667 -17.68,62.21333 -28.4,28.466667 37.46666,107.719997 37.46666,107.719997 l -25.45333,-78.30666 1.42667,-4.89334 c 0,0 8.77333,-6.919997 14.96,-18.906657 8.56,-16.61334 12.94666,-42.37334 -10.72,-67.82667"
       style="fill:#454242;fill-opacity:1;fill-rule:nonzero;stroke:none;stroke-width:0.133333" />
    <path
       id="path32"
       d="m 1074.7243,-179.90784 c 0,0 5.76,44.68 -32.0267,58.65334 -37.7866,13.97333 7.6667,125.8666561 7.6667,125.8666561 l -4.8667,-86.0266691 3.1067,-4.56 c 0,0 22.7333,-6.19999 34.8133,-31.813327 12.08,-25.6 0.027,-50.89333 -8.6933,-62.12"
       style="fill:#454242;fill-opacity:1;fill-rule:nonzero;stroke:none;stroke-width:0.133333" />
  </g>
</svg>
