<?xml version="1.0" encoding="UTF-8" standalone="no"?>
<!-- Created with Inkscape (http://www.inkscape.org/) -->

<svg
   version="1.1"
   id="svg1"
   width="700"
   height="700"
   viewBox="0 0 700 700.00001"
   sodipodi:docname="rook_white.svg"
   inkscape:version="1.4 (86a8ad7, 2024-10-11)"
   xmlns:inkscape="http://www.inkscape.org/namespaces/inkscape"
   xmlns:sodipodi="http://sodipodi.sourceforge.net/DTD/sodipodi-0.dtd"
   xmlns="http://www.w3.org/2000/svg"
   xmlns:svg="http://www.w3.org/2000/svg">
  <sodipodi:namedview
     id="namedview1"
     pagecolor="#ffffff"
     bordercolor="#000000"
     borderopacity="0.25"
     inkscape:showpageshadow="2"
     inkscape:pageopacity="0.0"
     inkscape:pagecheckerboard="0"
     inkscape:deskcolor="#d1d1d1"
     inkscape:zoom="1.6671429"
     inkscape:cx="350.29991"
     inkscape:cy="350"
     inkscape:window-width="2560"
     inkscape:window-height="1369"
     inkscape:window-x="1912"
     inkscape:window-y="-8"
     inkscape:window-maximized="1"
     inkscape:current-layer="svg1" />
  <defs
     id="defs1" />
  <g
     id="layer7"
     transform="translate(1690.7226,-625.63234)"
     style="display:inline">
    <path
       id="path59"
       d="m -1123.761,1249.6921 h -433.996 v -38.6533 c 0,-43.3067 35.2187,-78.5334 78.5267,-78.5334 h 276.9426 c 43.3094,0 78.5267,35.2267 78.5267,78.5334 z m -342.908,-357.5733 c 3.2534,0.46667 6.5694,0.70667 9.944,0.70667 h 225.2107 c 4.4093,0 8.6986,-0.42667 12.8946,-1.18667 l 29.592,232.7466 c -4.3186,-0.6666 -8.7586,-1 -13.26,-1 h -276.9426 c -4.5613,0 -9.032,0.3334 -13.3813,1.04 z m -52.2506,-70.63999 -7.056,-69.59067 c -0.8507,-8.424 1.916,-16.84933 7.604,-23.11467 5.656,-6.29466 13.7466,-9.884 22.2013,-9.884 h 38.168 c 6.5093,0 12.2267,4.34934 13.96,10.61467 l 14.964,53.948 29.5613,-1.05333 2.7374,-68.55733 c 0.2133,-5.01867 4.288,-8.94134 9.3066,-8.94134 h 87.4987 c 4.8053,0 8.7893,3.61867 9.2453,8.39334 l 6.9333,69.37199 35.2187,-1 8.1213,-50.58 c 1.1254,-7.08666 7.1467,-12.196 14.2934,-12.196 h 34.0933 c 8.4547,0 16.5453,3.58934 22.232,9.884 5.6573,6.26534 8.4253,14.69067 7.5733,23.11467 l -7.0253,69.124 -0.031,0.46667 c 0,34.30666 -27.8893,62.22666 -62.1946,62.22666 h -225.2107 c -34.3053,0 -62.1946,-27.92 -62.1946,-62.22666 z m 339.3506,304.89329 -30.1387,-236.98663 c 28.6187,-9.21333 49.4214,-36.04 49.512,-67.66666 l 6.9947,-68.91867 c 1.1253,-10.97867 -2.4627,-21.95867 -9.884,-30.16933 -7.3907,-8.18134 -17.944,-12.86533 -28.984,-12.86533 h -34.0933 c -11.648,0 -21.4707,8.36399 -23.296,19.85999 l -6.9347,43.156 -19.16,0.548 -6.0827,-60.94799 c -0.9426,-9.45867 -8.8506,-16.60534 -18.3386,-16.60534 h -87.4987 c -9.9453,0 -18.036,7.78534 -18.4306,17.7 l -2.4027,60.12667 -13.8987,0.48666 -13.048,-47.01866 c -2.828,-10.188 -12.1653,-17.30533 -22.7493,-17.30533 h -38.168 c -11.0093,0 -21.5933,4.68399 -28.984,12.86533 -7.3907,8.21066 -11.0093,19.19066 -9.884,30.16933 l 6.9947,68.91867 c 0.092,32.69333 22.2933,60.25333 52.4026,68.54666 l -26.3693,236.13333 c -37.316,10.0666 -64.8707,44.1866 -64.8707,84.64 v 47.7733 h 452.244 v -47.7733 c 0,-40.48 -27.584,-74.64 -64.932,-84.6667"
       style="fill:#231f20;fill-opacity:1;fill-rule:nonzero;stroke:#231f20;stroke-width:6.66667;stroke-dasharray:none;stroke-opacity:1" />
    <path
       id="path60"
       d="m -1123.761,1211.0388 v 38.6533 h -433.996 v -38.6533 c 0,-43.3067 35.2187,-78.5334 78.5267,-78.5334 h 276.9426 c 43.3094,0 78.5267,35.2267 78.5267,78.5334"
       style="fill:#f8f8f8;fill-opacity:1;fill-rule:nonzero;stroke:none;stroke-width:0.133333" />
    <path
       id="path61"
       d="m -1189.0277,1124.3854 c -4.3186,-0.6666 -8.7586,-1 -13.26,-1 h -276.9426 c -4.5613,0 -9.032,0.3334 -13.3813,1.04 l 25.9426,-232.3066 c 3.2534,0.46667 6.5694,0.70667 9.944,0.70667 h 225.2107 c 4.4093,0 8.6986,-0.42667 12.8946,-1.18667 l 29.592,232.7466"
       style="fill:#f8f8f8;fill-opacity:1;fill-rule:nonzero;stroke:none;stroke-width:0.133333" />
    <path
       id="path62"
       d="m -1162.2637,751.88814 -7.0253,69.124 -0.031,0.46667 c 0,34.30666 -27.8893,62.22666 -62.1946,62.22666 h -225.2107 c -34.3053,0 -62.1946,-27.92 -62.1946,-62.22666 l -7.056,-69.59067 c -0.8507,-8.424 1.916,-16.84933 7.604,-23.11467 5.656,-6.29466 13.7466,-9.884 22.2013,-9.884 h 38.168 c 6.5093,0 12.2267,4.34934 13.96,10.61467 l 14.964,53.948 29.5613,-1.05333 2.7374,-68.55733 c 0.2133,-5.01867 4.288,-8.94134 9.3066,-8.94134 h 87.4987 c 4.8053,0 8.7893,3.61867 9.2453,8.39334 l 6.9333,69.37199 35.2187,-1 8.1213,-50.58 c 1.1254,-7.08666 7.1467,-12.196 14.2934,-12.196 h 34.0933 c 8.4547,0 16.5453,3.58934 22.232,9.884 5.6573,6.26534 8.4253,14.69067 7.5733,23.11467"
       style="fill:#f8f8f8;fill-opacity:1;fill-rule:nonzero;stroke:none;stroke-width:0.133333" />
    <path
       id="path63"
       d="m -1413.497,893.1588 c 0,0 147.808,12.34667 160.5227,120 11.2,94.8266 16.4946,110.2266 16.4946,110.2266 l 47.452,1 -29.592,-232.7466 -11.4186,1.18667 c -0.6654,0.0667 -1.3347,0.0933 -2.004,0.0933 l -181.4547,0.24"
       style="fill:#d3d3d3;fill-opacity:1;fill-rule:nonzero;stroke:none;stroke-width:0.133333" />
    <path
       id="path64"
       d="m -1206.7237,859.73214 c -15.108,11.49333 -33.0426,17.85333 -33.0426,17.85333 -10.184,3.61333 -19.2067,5.29333 -25.9227,6.12 0,0 50.084,3.29333 61.2867,-6.24 30.4506,-10.02667 35.6893,-44.56 38.1066,-77.72 1.624,-22.29733 4.1054,-48.76 4.1054,-48.76 -3.156,52.93334 -23.9787,93.12 -44.5334,108.74667"
       style="fill:#d3d3d3;fill-opacity:1;fill-rule:nonzero;stroke:none;stroke-width:0.133333" />
    <path
       id="path65"
       d="m -1124.0343,1202.3721 c -4.2574,-39.3333 -37.652,-70.0133 -78.0707,-70.0133 h -138.6533 -138.6547 c -40.4186,0 -73.812,30.68 -78.0706,70.0133 -0.304,2.8 -0.1214,5.2533 2.0986,-2.92 2.7374,-10.04 9.1854,-18.4667 17.1534,-24.88 13.168,-10.64 29.6826,-16.1867 46.5933,-16.6667 28.8307,-0.8266 89.1707,-2.3066 150.88,-2.6133 61.708,0.3067 122.048,1.7867 150.88,2.6133 16.9093,0.48 33.424,6.0267 46.592,16.6667 7.9693,6.4133 14.416,14.84 17.1533,24.88 2.22,8.1733 2.4027,5.72 2.0987,2.92"
       style="fill:#ffffff;fill-opacity:1;fill-rule:nonzero;stroke:none;stroke-width:0.133333" />
  </g>
</svg>
