<?xml version="1.0" encoding="UTF-8" standalone="no"?>
<!-- Created with Inkscape (http://www.inkscape.org/) -->

<svg
   version="1.1"
   id="svg1"
   width="700"
   height="700"
   viewBox="0 0 700 700.00001"
   sodipodi:docname="rook_black.svg"
   inkscape:version="1.4 (86a8ad7, 2024-10-11)"
   xmlns:inkscape="http://www.inkscape.org/namespaces/inkscape"
   xmlns:sodipodi="http://sodipodi.sourceforge.net/DTD/sodipodi-0.dtd"
   xmlns="http://www.w3.org/2000/svg"
   xmlns:svg="http://www.w3.org/2000/svg">
  <sodipodi:namedview
     id="namedview1"
     pagecolor="#ffffff"
     bordercolor="#000000"
     borderopacity="0.25"
     inkscape:showpageshadow="2"
     inkscape:pageopacity="0.0"
     inkscape:pagecheckerboard="0"
     inkscape:deskcolor="#d1d1d1"
     inkscape:zoom="1.6671429"
     inkscape:cx="350.29991"
     inkscape:cy="350"
     inkscape:window-width="2560"
     inkscape:window-height="1369"
     inkscape:window-x="1912"
     inkscape:window-y="-8"
     inkscape:window-maximized="1"
     inkscape:current-layer="svg1" />
  <defs
     id="defs1" />
  <g
     id="layer13"
     transform="translate(1670.7013,237.90231)"
     style="display:inline">
    <path
       id="path3"
       d="m -1103.7383,386.15615 h -433.9973 v -38.656 c 0,-43.308 35.2186,-78.52666 78.5266,-78.52666 h 276.944 c 43.308,0 78.5267,35.21866 78.5267,78.52666 z M -1446.6476,28.585489 c 3.2546,0.453334 6.5693,0.706667 9.9453,0.706667 h 225.2093 c 4.4107,0 8.6987,-0.426667 12.896,-1.186667 l 29.592,232.748001 c -4.3187,-0.66934 -8.76,-1.004 -13.26,-1.004 h -276.944 c -4.5613,0 -9.032,0.33466 -13.3813,1.03466 z m -52.2507,-70.653331 -7.0547,-69.586658 c -0.852,-8.41334 1.916,-16.84 7.6027,-23.10667 5.6573,-6.29333 13.7467,-9.88 22.2013,-9.88 h 38.1694 c 6.508,0 12.2253,4.34667 13.9586,10.61333 l 14.964,53.946667 29.5614,-1.06667 2.7373,-68.546657 c 0.2133,-5.01334 4.288,-8.94667 9.3067,-8.94667 h 87.4986 c 4.8053,0 8.7893,3.62667 9.2453,8.4 l 6.9347,69.373327 35.2187,-1 8.12,-50.586657 c 1.1253,-7.08 7.1466,-12.18667 14.2946,-12.18667 h 34.0934 c 8.4546,0 16.544,3.58667 22.232,9.88 5.656,6.26667 8.424,14.69333 7.572,23.10667 l -7.0254,69.133324 -0.031,0.453334 c 0,34.3066651 -27.888,62.226665 -62.1947,62.226665 h -225.2093 c -34.3067,0 -62.196,-27.9199999 -62.196,-62.226665 z m 339.3506,304.898662 -30.1386,-236.978664 c 28.6186,-9.213333 49.4213,-36.039999 49.512,-67.666665 l 6.996,-68.919991 c 1.1253,-10.98667 -2.464,-21.96 -9.8854,-30.17334 -7.3893,-8.17333 -17.9426,-12.86666 -28.9826,-12.86666 h -34.0934 c -11.6493,0 -21.472,8.37333 -23.2973,19.86666 l -6.9333,43.159997 -19.1614,0.54667 -6.0826,-60.959997 c -0.9427,-9.45333 -8.8494,-16.6 -18.3387,-16.6 h -87.4986 c -9.9454,0 -18.0347,7.78667 -18.4307,17.70667 l -2.4027,60.119997 -13.8986,0.49333 -13.048,-47.026667 c -2.828,-10.18666 -12.164,-17.30666 -22.748,-17.30666 h -38.1694 c -11.0093,0 -21.5933,4.69333 -28.984,12.86666 -7.3893,8.21334 -11.0093,19.18667 -9.884,30.17334 l 6.9947,68.919991 c 0.092,32.6933319 22.2933,60.239999 52.4027,68.546665 l -26.368,236.127994 c -37.3174,10.068 -64.872,44.19067 -64.872,84.64 v 47.78 h 452.2439 v -47.78 c 0,-40.48 -27.584,-74.63333 -64.932,-84.66933"
       style="fill:#231f20;fill-opacity:1;fill-rule:nonzero;stroke:#231f20;stroke-width:6.66667;stroke-dasharray:none;stroke-opacity:1" />
    <path
       id="path4"
       d="m -1103.7383,347.50015 v 38.656 h -433.9973 v -38.656 c 0,-43.308 35.2186,-78.52666 78.5266,-78.52666 h 276.944 c 43.308,0 78.5267,35.21866 78.5267,78.52666"
       style="fill:#565352;fill-opacity:1;fill-rule:nonzero;stroke:none;stroke-width:0.133333" />
    <path
       id="path5"
       d="m -1169.005,260.85349 c -4.3187,-0.66934 -8.76,-1.004 -13.26,-1.004 h -276.944 c -4.5613,0 -9.032,0.33466 -13.3813,1.03466 l 25.9427,-232.298661 c 3.2546,0.453334 6.5693,0.706667 9.9453,0.706667 h 225.2093 c 4.4107,0 8.6987,-0.426667 12.896,-1.186667 l 29.592,232.748001"
       style="fill:#565352;fill-opacity:1;fill-rule:nonzero;stroke:none;stroke-width:0.133333" />
    <path
       id="path6"
       d="m -1142.2423,-111.6545 -7.0254,69.133324 -0.031,0.453334 c 0,34.3066651 -27.888,62.226665 -62.1947,62.226665 h -225.2093 c -34.3067,0 -62.196,-27.9199999 -62.196,-62.226665 l -7.0547,-69.586658 c -0.852,-8.41334 1.916,-16.84 7.6027,-23.10667 5.6573,-6.29333 13.7467,-9.88 22.2013,-9.88 h 38.1694 c 6.508,0 12.2253,4.34667 13.9586,10.61333 l 14.964,53.946667 29.5614,-1.06667 2.7373,-68.546657 c 0.2133,-5.01334 4.288,-8.94667 9.3067,-8.94667 h 87.4986 c 4.8053,0 8.7893,3.62667 9.2453,8.4 l 6.9347,69.373327 35.2187,-1 8.12,-50.586657 c 1.1253,-7.08 7.1466,-12.18667 14.2946,-12.18667 h 34.0934 c 8.4546,0 16.544,3.58667 22.232,9.88 5.656,6.26667 8.424,14.69333 7.572,23.10667"
       style="fill:#565352;fill-opacity:1;fill-rule:nonzero;stroke:none;stroke-width:0.133333" />
    <path
       id="path7"
       d="m -1472.0676,-142.7745 c 0.6733,-0.85334 2.2533,-1.94667 -2.432,-1.94667 -9.0254,0.0133 -34.08,4.66667 -31.5267,32.12 3.1053,33.386657 4.7427,66.599994 8.7707,79.879994 3.6093,11.906666 8.0546,-88.159994 25.188,-110.053324"
       style="fill:#888685;fill-opacity:1;fill-rule:nonzero;stroke:none;stroke-width:0.133333" />
    <path
       id="path8"
       d="m -1376.665,-150.6545 -1.5266,39.36 c 0,0 26.8893,-41.38667 41.9026,-47.34667 h -31.716 c -4.1493,0 -8.372,3.84 -8.66,7.98667"
       style="fill:#888685;fill-opacity:1;fill-rule:nonzero;stroke:none;stroke-width:0.133333" />
    <path
       id="path9"
       d="m -1183.2237,-144.64117 -41.352,37.98667 c 0,0 1.2254,-9.84 2.5267,-18.02667 1.272,-8.01333 2.5533,-14.34667 7.9587,-17.54667 2.3946,-4.26666 30.8666,-2.41333 30.8666,-2.41333"
       style="fill:#888685;fill-opacity:1;fill-rule:nonzero;stroke:none;stroke-width:0.133333" />
    <path
       id="path10"
       d="m -1402.5223,29.638823 c 0,0 156.8546,19.159999 169.5693,119.986667 11.9467,94.73333 16.4947,110.224 16.4947,110.224 l 47.4533,1.004 -29.592,-232.748001 -11.42,1.173334 c -0.6653,0.06667 -1.3347,0.106666 -2.004,0.106666 l -190.5013,0.253334"
       style="fill:#454242;fill-opacity:1;fill-rule:nonzero;stroke:none;stroke-width:0.133333" />
    <path
       id="path11"
       d="m -1186.7023,-3.8011769 c -15.108,11.493333 -33.0414,17.8533329 -33.0427,17.8533329 -10.184,3.613334 -19.2053,5.28 -25.9227,6.106667 0,0 50.0854,3.306666 61.2867,-6.226667 30.4507,-10.0266659 35.6893,-44.559999 38.1067,-77.733331 1.624,-22.279998 4.1053,-48.746665 4.1053,-48.746665 -3.1547,52.933331 -23.9773,93.119997 -44.5333,108.7466631"
       style="fill:#454242;fill-opacity:1;fill-rule:nonzero;stroke:none;stroke-width:0.133333" />
    <path
       id="path12"
       d="m -1104.013,338.83348 c -4.2573,-39.32533 -37.6507,-70.01199 -78.0707,-70.01199 h -138.6533 -138.6546 c -40.4187,0 -73.812,30.68666 -78.0694,70.01199 -0.3053,2.79734 -0.1226,5.26134 2.0974,-2.92 2.7373,-10.03733 9.1853,-18.46133 17.1533,-24.87866 13.1693,-10.644 29.684,-16.18 46.5933,-16.66667 28.832,-0.82133 89.172,-2.31066 150.88,-2.61466 61.708,0.304 122.048,1.79333 150.88,2.61466 16.9093,0.48667 33.424,6.02267 46.5933,16.66667 7.968,6.41733 14.416,14.84133 17.152,24.87866 2.22,8.18134 2.4027,5.71734 2.0987,2.92"
       style="fill:#888685;fill-opacity:1;fill-rule:nonzero;stroke:none;stroke-width:0.133333" />
  </g>
</svg>
