<?xml version="1.0" encoding="UTF-8" standalone="no"?>
<!-- Created with Inkscape (http://www.inkscape.org/) -->

<svg
   version="1.1"
   id="svg1"
   width="4666.6665"
   height="2133.3333"
   viewBox="0 0 4666.6665 2133.3333"
   sodipodi:docname="vecteezy_chess-pieces-king-queen-bishop-knight-rook-and-pawn-and_49089132 (1).svg"
   inkscape:version="1.4 (86a8ad7, 2024-10-11)"
   xmlns:inkscape="http://www.inkscape.org/namespaces/inkscape"
   xmlns:sodipodi="http://sodipodi.sourceforge.net/DTD/sodipodi-0.dtd"
   xmlns="http://www.w3.org/2000/svg"
   xmlns:svg="http://www.w3.org/2000/svg">
  <defs
     id="defs1" />
  <sodipodi:namedview
     id="namedview1"
     pagecolor="#ffffff"
     bordercolor="#000000"
     borderopacity="0.25"
     inkscape:showpageshadow="2"
     inkscape:pageopacity="0.0"
     inkscape:pagecheckerboard="0"
     inkscape:deskcolor="#d1d1d1"
     inkscape:zoom="0.27578572"
     inkscape:cx="1919.9689"
     inkscape:cy="799.53377"
     inkscape:window-width="1920"
     inkscape:window-height="1009"
     inkscape:window-x="-8"
     inkscape:window-y="-8"
     inkscape:window-maximized="1"
     inkscape:current-layer="svg1">
    <inkscape:page
       x="0"
       y="0"
       inkscape:label="1"
       id="page1"
       width="4666.6665"
       height="2133.3333"
       margin="0"
       bleed="0" />
  </sodipodi:namedview>
  <g
     inkscape:groupmode="layer"
     id="layer2"
     inkscape:label="Layer 1">
    <path
       id="path93"
       d="m 25581.6,4193.9 c -0.2,-19.2 -15.8,-34.7 -34.9,-34.7 h -47.2 c -103.1,0 -200.3,40.2 -274,113.4 -133.2,131.6 -354.2,388.2 -336.9,626.3 3.2,45.7 33.5,91.7 83,126.2 39.7,27.4 103.6,56.8 194.8,56.8 96.1,0 222.7,-32.6 383.5,-134.6 21.6,-13.7 35.1,-38.3 34.9,-64.3 z m 4.8,811.3 c -346.7,219.7 -558.4,141.9 -653.8,76 -66.6,-46.3 -107.4,-110.9 -112.4,-177.2 -18,-252.3 184.3,-509.2 357,-680 86.6,-86 201.1,-133.2 322.3,-133.2 h 47.2 c 56.6,0 102.9,46.1 103.3,102.6 l 3.2,689.1 c 0.2,49.3 -25.3,96.3 -66.8,122.7"
       style="fill:#231f20;fill-opacity:1;fill-rule:nonzero;stroke:#231f20;stroke-opacity:1;stroke-width:50.00000128;stroke-dasharray:none"
       transform="matrix(0.13333333,0,0,-0.13333333,0,2133.3333)" />
    <path
       id="path94"
       d="m 26871.5,4272.6 h -0.2 c -73.7,-73.2 -171.1,-113.4 -274.2,-113.4 h -47 c -19.2,0 -34.9,15.5 -34.9,34.7 l -3.2,689.1 c -0.2,26 13.2,50.6 34.7,64.3 161,102 287.6,134.6 383.6,134.6 91.3,0 154.9,-29.4 194.6,-56.8 49.5,-34.5 80.1,-80.5 83.3,-126.2 17.3,-238.1 -203.7,-494.7 -336.7,-626.3 z m 405.1,631.4 c -5,66.3 -46.1,130.9 -112.9,177.2 -95.1,65.9 -306.4,143.7 -653.5,-76 -41.5,-26.4 -66.9,-73.2 -66.6,-122.7 l 3.2,-689.1 c 0.2,-56.5 46.7,-102.6 103.3,-102.6 h 47 c 60.7,0 119.5,11.8 174.2,34.4 54.8,22.4 105,55.7 148.3,98.6 172.9,171 375,427.9 357,680.2"
       style="fill:#231f20;fill-opacity:1;fill-rule:nonzero;stroke:#231f20;stroke-opacity:1;stroke-width:50.00000128;stroke-dasharray:none"
       transform="matrix(0.13333333,0,0,-0.13333333,0,2133.3333)" />
    <path
       id="path95"
       d="m 27820.8,4116.3 -643.7,-691.1 c -10,2.7 -20.7,4.8 -31,7.3 -6.8,1.6 -13.4,3.2 -20.3,4.6 -21.4,4.5 -43.1,8.4 -65.5,11.6 -42.4,6.1 -84.8,11.8 -127.2,17.1 -6.2,0.7 -12.3,1.4 -18.3,2 -36.9,4.6 -73.7,8.9 -110.6,12.8 -2.7,0.2 -5.3,0.5 -8,0.7 -211.2,22.1 -424,34.9 -636.2,38.3 -9.5,0 -19.1,0 -28.7,0.3 -27.6,0.2 -55.4,0.6 -83.3,0.6 h -21.2 c -352.4,-1.1 -669.2,-36 -948.9,-66.8 l -42.6,-4.8 c -21.7,-2.5 -43.1,-5.7 -63.9,-9.6 -6.8,-1.1 -13.4,-2.7 -20.1,-4.1 -10.2,-2 -20.5,-3.8 -30.3,-6.4 l -636.6,687.5 c -647.1,804.1 -153.8,1367.7 -132.5,1391.2 l 1.6,1.8 c 464.6,591.95 1220.7,324.8 1441.5,228.8 25.1,-10.7 53.6,-10 78,2.3 24.5,12.1 42.2,34.4 48.6,61.1 l 86.7,361.11 H 25442 v 482.89 h 372.7 v 395.98 h 475.6 V 6645.5 h 372.7 v -482.89 h -366.3 l 86.7,-361.11 c 6.3,-26.7 24.1,-49 48.5,-61.1 24.4,-12.3 53,-13 78,-2.3 220.8,96 977,363.15 1441.6,-228.8 l 1.6,-1.8 c 21.2,-23.5 514.6,-587.1 -132.3,-1391.2 z m -174,-1326.6 v -217.6 c 0,-35.8 -29,-64.8 -64.8,-64.8 h -3069.3 c -35.8,0 -64.8,29 -64.8,64.8 v 217.6 c 0,273 180.5,490.7 470.8,568 39,10.5 80.8,18.2 124.1,23.2 l 42.7,4.6 c 277.8,30.8 592.8,65.5 941.6,66.6 h 20.9 c 334.9,0 672,-23.9 1002.8,-70.9 44.7,-6.6 87.6,-15.8 127.9,-27.4 293.1,-84.2 468.1,-295.2 468.1,-564.1 z m 358.1,2762.7 c -495,629.37 -1290.3,349.5 -1522.3,248.7 -8.9,-3.9 -16.5,-1.4 -20.1,0.4 -3.6,1.9 -10.3,6.4 -12.5,16 l -66.6,276.68 h 348 v 619.75 h -372.7 v 395.98 h -612.4 v -395.98 h -372.7 v -619.75 h 348 L 25655,5817.5 c -2.3,-9.6 -8.9,-14.1 -12.5,-16 -3.7,-1.8 -11.2,-4.3 -20.1,-0.4 -232.2,100.8 -1027.3,380.67 -1522.3,-248.7 -26.9,-31.2 -539.9,-646.2 131.6,-1479.9 l 615.9,-664.9 c -290.2,-97.4 -468.1,-329.6 -468.1,-617.9 v -217.6 c 0,-73.4 59.8,-133.2 133.2,-133.2 H 27582 c 73.5,0 133.2,59.8 133.2,133.2 v 217.6 c 0,284.7 -172.9,510.5 -465.5,612.9 l 622,668.1 1.6,1.8 c 671.5,833.7 158.5,1448.9 131.6,1479.9"
       style="fill:#231f20;fill-opacity:1;fill-rule:nonzero;stroke:#231f20;stroke-opacity:1;stroke-width:50.00000128;stroke-dasharray:none"
       transform="matrix(0.13333333,0,0,-0.13333333,0,2133.3333)" />
    <path
       id="path96"
       d="m 27646.8,2789.7 v -217.6 c 0,-35.8 -29,-64.8 -64.8,-64.8 h -3069.3 c -35.8,0 -64.8,29 -64.8,64.8 v 217.6 c 0,273 180.5,490.7 470.8,568 39,10.5 80.8,18.2 124.1,23.2 l 42.7,4.6 c 277.8,30.8 592.8,65.5 941.6,66.6 h 20.9 c 334.9,0 672,-23.9 1002.8,-70.9 44.7,-6.6 87.6,-15.8 127.9,-27.4 293.1,-84.2 468.1,-295.2 468.1,-564.1"
       style="fill:#f8f8f8;fill-opacity:1;fill-rule:nonzero;stroke:none"
       transform="matrix(0.13333333,0,0,-0.13333333,0,2133.3333)" />
    <path
       id="path97"
       d="m 26919.6,4223.8 c -43.3,-42.9 -93.5,-76.2 -148.3,-98.6 -54.7,-22.6 -113.5,-34.4 -174.2,-34.4 h -47 c -56.6,0 -103.1,46.1 -103.3,102.6 l -3.2,689.1 c -0.3,49.5 25.1,96.3 66.6,122.7 347.1,219.7 558.4,141.9 653.5,76 66.8,-46.3 107.9,-110.9 112.9,-177.2 18,-252.3 -184.1,-509.2 -357,-680.2 z M 25650,4193.4 c -0.4,-56.5 -46.7,-102.6 -103.3,-102.6 h -47.2 c -121.2,0 -235.7,47.2 -322.3,133.2 -172.7,170.8 -375,427.7 -357,680 5,66.3 45.8,130.9 112.4,177.2 95.4,65.9 307.1,143.7 653.8,-76 41.5,-26.4 67,-73.4 66.8,-122.7 z m 2303.1,1314.1 -1.6,1.8 c -464.6,591.95 -1220.8,324.8 -1441.6,228.8 -25,-10.7 -53.6,-10 -78,2.3 -24.4,12.1 -42.2,34.4 -48.5,61.1 l -86.7,361.11 h 366.3 v 482.89 h -372.7 v 395.98 h -475.6 V 6645.5 H 25442 v -482.89 h 366.3 l -86.7,-361.11 c -6.4,-26.7 -24.1,-49 -48.6,-61.1 -24.4,-12.3 -52.9,-13 -78,-2.3 -220.8,96 -976.9,363.15 -1441.5,-228.8 l -1.6,-1.8 c -21.3,-23.5 -514.6,-587.1 132.5,-1391.2 l 636.6,-687.5 c 9.8,2.6 20.1,4.4 30.3,6.4 6.7,1.4 13.3,3 20.1,4.1 20.8,3.9 42.2,7.1 63.9,9.6 l 42.6,4.8 c 279.7,30.8 596.5,65.7 948.9,66.8 h 21.2 c 27.9,0 55.7,-0.4 83.3,-0.6 9.6,-0.3 19.2,-0.3 28.7,-0.3 212.2,-3.4 425,-16.2 636.2,-38.3 2.7,-0.2 5.3,-0.5 8,-0.7 36.9,-3.9 73.7,-8.2 110.6,-12.8 6,-0.6 12.1,-1.3 18.3,-2 42.4,-5.3 84.8,-11 127.2,-17.1 22.4,-3.2 44.1,-7.1 65.5,-11.6 6.9,-1.4 13.5,-3 20.3,-4.6 10.3,-2.5 21,-4.6 31,-7.3 l 643.7,691.1 c 646.9,804.1 153.5,1367.7 132.3,1391.2"
       style="fill:#f8f8f8;fill-opacity:1;fill-rule:nonzero;stroke:none"
       transform="matrix(0.13333333,0,0,-0.13333333,0,2133.3333)" />
    <path
       id="path98"
       d="m 27850.7,5620.5 c 0,0 401,-484.3 61.2,-1080.1 -142.1,-249.2 -347.6,-497.2 -570.7,-683.3 -239.3,-199.6 -480.6,-382.7 -480.6,-382.7 l 316.5,-49.2 570.2,612.2 c 0,0 376.6,393.4 402.4,816.9 26.2,431.6 -195,680.2 -299,766.2"
       style="fill:#d3d3d3;fill-opacity:1;fill-rule:nonzero;stroke:none"
       transform="matrix(0.13333333,0,0,-0.13333333,0,2133.3333)" />
    <path
       id="path99"
       d="m 27583.4,3050.2 c -445.7,124.3 -1356.5,117.2 -2141.4,107.7 -562.1,-7.1 -842.8,-134.2 -980.4,-241.6 47,212.6 213.3,376.4 457.1,441.4 39,10.5 80.8,18.2 124.1,23.2 l 42.7,4.6 c 277.8,30.8 592.8,65.5 941.6,66.6 h 20.9 c 334.9,0 672,-23.9 1002.8,-70.9 44.7,-6.6 87.6,-15.8 127.9,-27.4 189.4,-54.3 329.4,-161.7 404.7,-303.6"
       style="fill:#ffffff;fill-opacity:1;fill-rule:nonzero;stroke:none"
       transform="matrix(0.13333333,0,0,-0.13333333,0,2133.3333)" />
  </g>
  <g
     inkscape:groupmode="layer"
     id="layer3"
     inkscape:label="Layer 2">
    <path
       id="path87"
       d="m 16272.9,2550.7 c 0,-16.5 -13.5,-29.9 -29.9,-29.9 h -3109.9 c -16.4,0 -29.9,13.4 -29.9,29.9 v 195.7 c 0,364.2 296.3,660.5 660.6,660.5 l 3.2,0.3 c 291.9,27.3 588.9,41.9 882.2,43.1 319.4,1.1 642.1,-13.2 959.9,-43.1 l 3.2,-0.3 c 364.3,0 660.6,-296.3 660.6,-660.5 z m -2763.9,2514.1 1.6,7.3 c 61.1,528.5 730.4,1130.88 864,1246.3 l 4.4,35.13 c -61.4,69.57 -95.4,159.21 -95.4,252.05 0,210.08 170.9,381.15 380.9,381.15 210.1,0 381.2,-171.07 381.2,-381.15 0,-156.7 -98.3,-299.72 -244.8,-355.61 l -12.3,-9.12 C 14478.9,5747.7 14462.2,4684.1 14461.5,4639.1 l -0.4,-35.3 520,2.7 -0.4,33.8 c -9.6,834.1 210.5,1294.7 283.3,1419.44 779.4,-854.44 707.5,-1284.24 706.6,-1288.04 l -0.7,-3.9 v -4.1 c 17.2,-657.2 -292.2,-1102.7 -443.8,-1280.6 -291.1,24.7 -585.6,36.5 -877.1,35.6 -257.7,-1.1 -518,-13 -775.5,-34.2 -641.9,737.4 -367.5,1572.1 -364.5,1580.3 z m 2104.9,-1589.4 c -1.6,0.2 -3.4,0.2 -5,0.4 164.4,204.9 445,649.7 429.5,1286.3 8.4,51.8 52.4,505.7 -754.6,1377.02 l -28.3,30.56 -24.6,-33.76 C 15217.7,6117.45 14907.7,5666 14912,4673.4 l -381.1,0.2 c 5.7,189.3 46.3,1085.7 308.4,1518.44 164.9,69.57 274.8,233.57 274.8,413.54 0,247.94 -201.6,449.58 -449.6,449.58 -247.7,0 -449.3,-201.64 -449.3,-449.58 0,-94.43 29.9,-185.67 84.4,-261.63 -220.1,-194.57 -795.2,-747.05 -856.5,-1260.75 -19.9,-62.5 -258.9,-873.1 346.4,-1605.5 -9.1,-1 -18.2,-1.4 -27.3,-2.3 -401.3,-0.9 -727.4,-327.6 -727.4,-729 v -195.7 c 0,-54.3 44,-98.3 98.3,-98.3 H 16243 c 54.3,0 98.3,44 98.3,98.3 v 195.7 c 0,401.4 -326.2,728.1 -727.4,729"
       style="fill:#231f20;fill-opacity:1;fill-rule:nonzero;stroke:#231f20;stroke-opacity:1;stroke-width:50.00000128;stroke-dasharray:none"
       transform="matrix(0.13333333,0,0,-0.13333333,0,2133.3333)" />
    <path
       id="path88"
       d="m 16272.9,2746.4 v -195.7 c 0,-16.5 -13.5,-29.9 -29.9,-29.9 h -3109.9 c -16.4,0 -29.9,13.4 -29.9,29.9 v 195.7 c 0,364.2 296.3,660.5 660.6,660.5 l 3.2,0.3 c 291.9,27.3 588.9,41.9 882.2,43.1 319.4,1.1 642.1,-13.2 959.9,-43.1 l 3.2,-0.3 c 364.3,0 660.6,-296.3 660.6,-660.5"
       style="fill:#f8f8f8;fill-opacity:1;fill-rule:nonzero;stroke:none"
       transform="matrix(0.13333333,0,0,-0.13333333,0,2133.3333)" />
    <path
       id="path89"
       d="m 15969.9,4767.8 v -4.1 c 17.2,-657.2 -292.2,-1102.7 -443.8,-1280.6 -291.1,24.7 -585.6,36.5 -877.1,35.6 -257.7,-1.1 -518,-13 -775.5,-34.2 -641.9,737.4 -367.5,1572.1 -364.5,1580.3 l 1.6,7.3 c 61.1,528.5 730.4,1130.88 864,1246.3 l 4.4,35.13 c -61.4,69.57 -95.4,159.21 -95.4,252.05 0,210.08 170.9,381.15 380.9,381.15 210.1,0 381.2,-171.07 381.2,-381.15 0,-156.7 -98.3,-299.72 -244.8,-355.61 l -12.3,-9.12 C 14478.9,5747.7 14462.2,4684.1 14461.5,4639.1 l -0.4,-35.3 520,2.7 -0.4,33.8 c -9.6,834.1 210.5,1294.7 283.3,1419.44 779.4,-854.44 707.5,-1284.24 706.6,-1288.04 l -0.7,-3.9"
       style="fill:#f8f8f8;fill-opacity:1;fill-rule:nonzero;stroke:none"
       transform="matrix(0.13333333,0,0,-0.13333333,0,2133.3333)" />
    <path
       id="path90"
       d="m 15624.7,5615.4 c 43.8,-76.5 327.7,-592.2 115.5,-1210.8 -213.9,-623.5 -761.6,-855.5 -842.6,-888.2 l 628.5,-33.3 c 0,0 229.6,257.5 344,612.8 102.3,317.9 133.9,736 66.3,921.6 -74.9,205.8 -121.5,325.2 -311.7,597.9"
       style="fill:#d3d3d3;fill-opacity:1;fill-rule:nonzero;stroke:none"
       transform="matrix(0.13333333,0,0,-0.13333333,0,2133.3333)" />
    <path
       id="path91"
       d="m 16202.6,3042.2 c -60.7,23.3 -127.5,46.8 -198.4,71.4 -285.6,98.8 -1601.5,64.1 -2277.2,40.8 -281.2,-9.5 -465.7,-92.1 -585,-184.9 91.7,254.7 335.7,437.4 621.8,437.4 l 3.2,0.3 c 291.9,27.3 588.9,41.9 882.2,43.1 319.4,1.1 642.1,-13.2 959.9,-43.1 l 3.2,-0.3 c 258,0 482,-148.7 590.3,-364.7"
       style="fill:#ffffff;fill-opacity:1;fill-rule:nonzero;stroke:none"
       transform="matrix(0.13333333,0,0,-0.13333333,0,2133.3333)" />
    <path
       id="path92"
       d="m 14825,6951.16 c 0,0 214,-206.64 88.2,-442.26 -125.9,-235.63 -400.9,-335.41 -505.7,-731.4 -104.8,-396 -57.3,-542.6 53.6,-1173.7 l 31.9,521.7 c 0,0 62,522.4 143.7,767 87.9,230.12 139.6,345.36 172.9,361 44.9,13.22 130.9,69.07 174.4,145.38 45.7,73.62 73.2,153.63 60.2,239.83 -15.5,103.14 -47.3,224.75 -219.2,312.45"
       style="fill:#d3d3d3;fill-opacity:1;fill-rule:nonzero;stroke:none"
       transform="matrix(0.13333333,0,0,-0.13333333,0,2133.3333)" />
  </g>
  <g
     inkscape:groupmode="layer"
     id="layer4"
     inkscape:label="Layer 3">
    <path
       id="path79"
       d="m 10838.9,2603.1 c 0,-46.3 -37.7,-83.9 -84,-83.9 H 7742.18 c -46.3,0 -83.94,37.6 -83.94,83.9 v 239.8 c 0,258.2 175.41,480.8 426.77,541.2 26.92,5.5 980.37,196.9 2376.09,-14.3 226.1,-76.9 377.8,-288.4 377.8,-526.9 z M 8260.65,3771.7 c 125.68,205 294.48,342.6 458.25,475.8 119.75,97.4 232.89,189.3 320.48,302.2 123.86,159.2 115.42,336.7 66.15,449.8 -3.65,8.7 -6.16,14.9 -7.99,19.7 -7.75,20.3 -12.08,27.1 -32.38,44.2 -9.13,7.3 -20.08,11.2 -31.25,11.2 -12.78,0 -25.55,-5.3 -35.13,-15.1 -37.64,-39.9 -372.94,-390.7 -541.96,-432.9 -64.56,-16 -118.39,-13.9 -165.83,-11.9 -86.22,3.5 -160.81,6.4 -226.96,-109.7 -63.18,-110.4 -134.81,-185.2 -171.76,-220.1 -13.91,-13.2 -31.93,-21.4 -51.09,-23.3 -273.04,-26 -459.17,100.2 -575.5,197.3 -129.1,107.5 -85.76,244.8 -80.52,259.6 14.37,34.7 278.06,505.9 391.42,570.9 135.72,77.4 317.74,650.8 337.36,749.35 20.98,104.7 199.36,258.44 317.74,360.4 l 12.55,10.95 c 67.51,58.39 73.22,129.33 78.92,198.44 6.61,79.61 13.46,161.73 98.08,257.99 31.48,36.03 78.24,76.86 121.58,68.2 52.01,-10.5 80.52,-85.08 83.48,-93.52 l 2.51,-7.08 282.62,-287.63 c 29.42,-29.65 67.97,-48.13 108.34,-52 232.66,-23.95 619.29,-164.92 907.84,-388 371.8,-287.4 597.6,-669.7 690.5,-1168.3 95.5,-514.2 -111.1,-1285.4 -172.7,-1497 -1237.23,183.6 -2126.81,53.6 -2330.73,18 18.47,101.7 107.89,254.5 145.98,312.5 z m 2251.15,-347.4 c 63.4,218.5 271.6,999.7 173.3,1526.2 -96,516.2 -330,911.9 -715.53,1210.29 -298.81,230.83 -700.49,376.82 -942.96,401.68 -24.64,2.51 -48.36,13.91 -66.38,32.16 l -272.35,277.14 c -12.09,30.11 -52.46,114.05 -131.39,130.02 -60.67,12.09 -123.4,-18.02 -186.81,-90.1 -99.22,-113.14 -107.89,-215.33 -114.73,-298.13 -5.48,-64.78 -9.13,-111.54 -55.66,-151.68 l -12.55,-10.95 c -140.05,-120.67 -314.31,-270.98 -339.86,-398.95 -27.6,-137.78 -206.66,-647.58 -304.06,-703.18 -138.91,-79.4 -416.05,-587.9 -422.21,-607 -6.84,-20.1 -63.41,-198.5 101.28,-335.3 125.68,-105.2 327.09,-241.6 625.67,-212.8 34.45,3.2 67.06,18 91.7,41.5 39.69,37.4 116.56,117.7 184.07,236.1 45.85,79.8 83.03,78.2 164.92,75 49.5,-2.1 110.86,-4.6 184.99,13.7 172.21,43.3 470.11,342.6 559.98,436.3 0,-0.6 0.23,-1.1 0.46,-1.8 2.28,-5.5 5.02,-12.5 9.12,-22.3 41.29,-95.2 47.9,-245 -57.25,-380.5 -83.03,-106.8 -193.2,-196.4 -310.22,-291.5 -167.88,-136.6 -341.23,-277.6 -472.39,-491.8 -15.97,-24.2 -147.35,-227.2 -159.21,-364.3 -268.7,-76.4 -453.92,-320 -453.92,-601.2 v -239.8 c 0,-83.9 68.43,-152.3 152.37,-152.3 h 3012.72 c 84,0 152.4,68.4 152.4,152.3 v 239.8 c 0,257.9 -157.6,487.4 -395.5,581.4"
       style="fill:#231f20;fill-opacity:1;fill-rule:nonzero;stroke:#231f20;stroke-opacity:1;stroke-width:50.00000128;stroke-dasharray:none"
       transform="matrix(0.13333333,0,0,-0.13333333,0,2133.3333)" />
    <path
       id="path80"
       d="m 10445.4,3442.1 c -1237.23,183.6 -2126.81,53.6 -2330.73,18 18.47,101.7 107.89,254.6 145.98,312.5 125.68,205 294.48,342.6 458.25,475.8 119.75,97.4 232.89,189.3 320.48,302.2 123.86,159.2 115.42,336.7 66.15,449.8 -3.65,8.7 -6.16,14.9 -7.99,19.7 -7.75,20.3 -12.08,27.1 -32.38,44.2 -9.13,7.3 -20.08,11.2 -31.25,11.2 -12.78,0 -25.55,-5.3 -35.13,-15.1 -37.64,-39.9 -372.94,-390.7 -541.96,-432.9 -64.56,-16 -118.39,-13.9 -165.83,-11.9 -86.22,3.5 -160.81,6.4 -226.96,-109.7 -63.18,-110.4 -134.81,-185.2 -171.76,-220.1 -13.91,-13.2 -31.93,-21.4 -51.09,-23.3 -273.04,-26 -459.17,100.2 -575.5,197.3 -129.1,107.5 -85.76,244.8 -80.52,259.6 14.37,34.7 278.06,506 391.42,571 135.72,77.3 317.74,650.7 337.36,749.26 20.98,104.7 199.36,258.44 317.74,360.4 l 12.55,10.95 c 67.51,58.39 73.22,129.33 78.92,198.44 6.61,79.61 13.46,161.73 98.08,257.99 31.48,36.03 78.24,76.86 121.58,68.2 52.01,-10.5 80.52,-85.08 83.48,-93.52 l 2.51,-7.08 282.62,-287.63 c 29.42,-29.65 67.97,-48.13 108.34,-52 232.66,-23.95 619.29,-164.92 907.84,-388 371.8,-287.41 597.6,-669.71 690.5,-1168.31 95.5,-514.2 -111.1,-1285.4 -172.7,-1497"
       style="fill:#f8f8f8;fill-opacity:1;fill-rule:nonzero;stroke:none"
       transform="matrix(0.13333333,0,0,-0.13333333,0,2133.3333)" />
    <path
       id="path81"
       d="m 8398.3,5914.9 c 0,0 -85.42,-106.8 -112.6,-234.9 0,0 76.19,50.2 277.6,25.2 203.35,-25.2 178.6,205.3 104.83,254.3 -33.29,22.1 -151.42,91.26 -269.83,-44.6"
       style="fill:#231f20;fill-opacity:1;fill-rule:nonzero;stroke:none;stroke-opacity:1;stroke-width:50.00000128;stroke-dasharray:none"
       transform="matrix(0.13333333,0,0,-0.13333333,0,2133.3333)" />
    <path
       id="path82"
       d="m 9604.07,6309.37 c 0,0 758.83,-608.07 626.83,-1361.27 -132.1,-753.2 -559.13,-1125.9 -636.78,-1273.5 -44.89,-85.2 -21.4,-147.4 -21.4,-147.4 0,0 500.88,-23.4 872.68,-85.5 0,0 300.9,817.7 165,1524.4 0,0 -66,500.3 -403.8,873.1 0,0 -227.56,301.3 -602.53,470.17"
       style="fill:#d3d3d3;fill-opacity:1;fill-rule:nonzero;stroke:none"
       transform="matrix(0.13333333,0,0,-0.13333333,0,2133.3333)" />
    <path
       id="path83"
       d="m 10838.9,2842.9 v -239.8 c 0,-46.3 -37.7,-83.9 -84,-83.9 H 7742.18 c -46.3,0 -83.94,37.6 -83.94,83.9 v 239.8 c 0,258.2 175.41,480.8 426.77,541.2 26.92,5.5 980.37,196.9 2376.09,-14.3 226.1,-76.9 377.8,-288.4 377.8,-526.9"
       style="fill:#f8f8f8;fill-opacity:1;fill-rule:nonzero;stroke:none"
       transform="matrix(0.13333333,0,0,-0.13333333,0,2133.3333)" />
    <path
       id="path84"
       d="m 10796.7,3055.9 c -50,36.5 -97.9,41.3 -97.9,41.3 -236.5,80.5 -536.9,126.4 -694.1,137.1 -157.39,10.9 -1764.81,41.7 -2102.39,-74.8 -64.56,-22.2 -128.2,-47.9 -189.1,-74.9 70.48,146.9 204.15,259.2 371.8,299.5 26.92,5.5 980.37,196.9 2376.09,-14.3 155.1,-52.7 275.3,-169.1 335.6,-313.9"
       style="fill:#ffffff;fill-opacity:1;fill-rule:nonzero;stroke:none"
       transform="matrix(0.13333333,0,0,-0.13333333,0,2133.3333)" />
    <path
       id="path85"
       d="m 9009.11,5067.7 c 0,0 212.24,229.8 239.44,396.8 27.2,166.9 73.79,-132 50.49,-233 -23.29,-100.9 -77.21,-441.6 -204.67,-593.6 0,0 45.67,84.3 44.52,184 -1.11,95.5 -14.67,148.3 -61.28,226.8 -25.59,43.1 -68.5,19 -68.5,19"
       style="fill:#d3d3d3;fill-opacity:1;fill-rule:nonzero;stroke:none"
       transform="matrix(0.13333333,0,0,-0.13333333,0,2133.3333)" />
    <path
       id="path86"
       d="m 7891.62,4290 c 0,0 211.12,473.2 273.72,474.7 62.61,1.4 355.55,-41.9 471.16,-37.1 0,0 -110.08,-150.3 -423.39,-113.5 0,0 -88,-9.8 -171.99,-147.1 -81.55,-133.3 -142.22,-172.6 -149.5,-177"
       style="fill:#d3d3d3;fill-opacity:1;fill-rule:nonzero;stroke:none"
       transform="matrix(0.13333333,0,0,-0.13333333,0,2133.3333)" />
  </g>
  <g
     inkscape:groupmode="layer"
     id="layer5"
     inkscape:label="Layer 4">
    <path
       id="path71"
       d="m 22204.8,5114.7 -26.9,-21.4 -667,-1678.4 c -5.7,1.9 -11.2,3.5 -16.6,5.3 -309.6,93.3 -711,106.3 -1099,106.3 -414.5,0 -880.7,-42.9 -1075.7,-97.2 l -649.4,1666 -30.1,21.9 c -234.3,13 -417.7,207.4 -417.7,442.3 0,244.5 198.9,443.44 443.2,443.44 244.5,0 443.4,-198.94 443.4,-443.44 0,-87.1 -25,-171.1 -72.7,-242.9 l 3.4,-42.2 482,-519.4 c 7.7,-8.4 18.4,-12.8 29.4,-12.8 4.8,0 9.6,0.7 14.4,2.5 15.3,5.7 25.5,20.1 26,36.5 l 30.8,1217.4 -21.5,32.63 c -168.8,67.74 -277.8,229.46 -277.8,411.49 0,244.29 198.9,443.19 443.2,443.19 244.5,0 443.4,-198.9 443.4,-443.19 0,-131.62 -57.9,-255.47 -159,-340.1 l -10.7,-36.72 328.9,-1011.9 c 5.3,-16.6 20.6,-27.8 38.1,-27.8 17.4,0 32.9,11 38.1,27.6 l 335.1,1016.43 -10,36.73 c -98.1,84.16 -154.2,206.42 -154.2,335.76 0,244.29 198.9,443.19 443.2,443.19 244.5,0 443.4,-198.9 443.4,-443.19 0,-189.78 -120.7,-358.57 -300,-419.7 l -23.2,-34.22 66.3,-1173.3 c 1,-16.7 11.7,-30.6 27.2,-35.9 4.3,-1.6 8.7,-2.2 13,-2.2 11.4,0 22.6,5 30.6,14.1 l 433.6,509.6 3.9,38.5 c -35.9,65 -54.8,139.2 -54.8,214 0,244.5 198.9,443.4 443.2,443.4 244.5,0 443.4,-198.9 443.4,-443.4 0,-219.7 -163.7,-408.5 -380.9,-438.9 z m -62.5,950.74 c -282.2,0 -511.6,-229.74 -511.6,-511.84 0,-78.5 18.2,-155.8 52.4,-225.6 l -373.1,-438.4 -60.9,1078 c 193.4,77.31 321.8,264.81 321.8,475.12 0,282.15 -229.7,511.62 -511.8,511.62 -282.2,0 -511.7,-229.47 -511.7,-511.62 0,-141.42 58.4,-275.77 160.8,-372.26 l -301,-913.26 -295.2,908.47 c 105.8,96.94 166,232.89 166,377.05 0,282.15 -229.6,511.62 -511.8,511.62 -282.2,0 -511.6,-229.47 -511.6,-511.62 0,-202.1 116.5,-382.07 298.8,-465.12 l -28.8,-1125.2 -417.2,449.6 c 45.9,77.8 70.1,166 70.1,257.5 0,282.2 -229.7,511.87 -511.9,511.87 -282.1,0 -511.6,-229.67 -511.6,-511.87 0,-263.7 200.3,-482.4 459.8,-508.4 l 640.5,-1643.2 c -229.4,-82.6 -512.3,-230 -512.3,-550.4 V 2433 h 3306.6 v 424.5 c 0,313.8 -237.5,454.1 -472.7,536 l 658.6,1657.1 c 240.6,43.8 419.7,256.2 419.7,503 0,282.1 -229.7,511.84 -511.9,511.84 z M 21970.5,2953.5 c 6.4,-30.4 9.6,-62.3 9.6,-96 v -356.1 h -3169.6 v 356.1 c 0,222.6 158.7,380.7 499.7,497.4 163.1,55.9 659.9,103.1 1085.1,103.1 382.7,0 778.3,-12.5 1079.1,-103.5 300.2,-90.6 457.6,-216.5 496.1,-401"
       style="fill:#231f20;fill-opacity:1;fill-rule:nonzero;stroke:#231f20;stroke-opacity:1;stroke-width:50.00000128;stroke-dasharray:none"
       transform="matrix(0.13333333,0,0,-0.13333333,0,2133.3333)" />
    <path
       id="path72"
       d="m 22585.7,5553.6 c 0,-219.7 -163.7,-408.5 -380.9,-438.9 l -26.9,-21.4 -667,-1678.4 c -5.7,1.9 -11.2,3.5 -16.6,5.3 -309.6,93.3 -711,106.3 -1099,106.3 -414.5,0 -880.7,-42.9 -1075.7,-97.2 l -649.4,1666 -30.1,21.9 c -234.3,13 -417.7,207.4 -417.7,442.3 0,244.5 198.9,443.44 443.2,443.44 244.5,0 443.4,-198.94 443.4,-443.44 0,-87.1 -25,-171.1 -72.7,-242.9 l 3.4,-42.2 482,-519.4 c 7.7,-8.4 18.4,-12.8 29.4,-12.8 4.8,0 9.6,0.7 14.4,2.5 15.3,5.7 25.5,20.1 26,36.5 l 30.8,1217.4 -21.5,32.63 c -168.8,67.74 -277.8,229.46 -277.8,411.49 0,244.29 198.9,443.19 443.2,443.19 244.5,0 443.4,-198.9 443.4,-443.19 0,-131.62 -57.9,-255.47 -159,-340.1 l -10.7,-36.72 328.9,-1011.9 c 5.3,-16.6 20.6,-27.8 38.1,-27.8 17.4,0 32.9,11 38.1,27.6 l 335.1,1016.43 -10,36.73 c -98.1,84.16 -154.2,206.42 -154.2,335.76 0,244.29 198.9,443.19 443.2,443.19 244.5,0 443.4,-198.9 443.4,-443.19 0,-189.78 -120.7,-358.57 -300,-419.7 l -23.2,-34.22 66.3,-1173.3 c 1,-16.7 11.7,-30.6 27.2,-35.9 4.3,-1.6 8.7,-2.2 13,-2.2 11.4,0 22.6,5 30.6,14.1 l 433.6,509.6 3.9,38.5 c -35.9,65 -54.8,139.2 -54.8,214 0,244.5 198.9,443.4 443.2,443.4 244.5,0 443.4,-198.9 443.4,-443.4"
       style="fill:#f8f8f8;fill-opacity:1;fill-rule:nonzero;stroke:none"
       transform="matrix(0.13333333,0,0,-0.13333333,0,2133.3333)" />
    <path
       id="path73"
       d="m 21970.5,2953.5 c -78,166 -486,195 -1132.5,218.3 -646.4,23.2 -1339.6,-29 -1636.6,-46.6 -297,-17.5 -390.9,-267.7 -390.9,-267.7 0,222.6 158.7,380.7 499.7,497.4 163.1,55.9 659.9,103.1 1085.1,103.1 382.7,0 778.3,-12.5 1079.1,-103.5 300.2,-90.6 457.6,-216.5 496.1,-401"
       style="fill:#ffffff;fill-opacity:1;fill-rule:nonzero;stroke:none"
       transform="matrix(0.13333333,0,0,-0.13333333,0,2133.3333)" />
    <path
       id="path74"
       d="m 22439.3,5882.6 c 0,0 115.8,-482.8 -331.8,-585.1 0,0 -52.4,-11.6 -78.6,-87.3 -26.2,-75.7 -352.3,-693 -794.9,-1205.5 -442.6,-512.5 -745.5,-478.6 -745.5,-478.6 0,0 428.6,24.3 1022.4,-111.1 l 666.9,1678.4 c 0,0 20.9,15.9 27,21.2 6.1,5.3 306.6,20.6 376.5,376.5 0,0 49.9,202 -142,391.5"
       style="fill:#d3d3d3;fill-opacity:1;fill-rule:nonzero;stroke:none"
       transform="matrix(0.13333333,0,0,-0.13333333,0,2133.3333)" />
    <path
       id="path75"
       d="m 21980.1,2501.4 h -3169.6 v 356.1 c 0,0 93.9,250.2 390.9,267.7 297,17.6 990.2,69.8 1636.6,46.6 646.5,-23.3 1054.5,-52.3 1132.5,-218.3 l 9.6,-452.1"
       style="fill:#f8f8f8;fill-opacity:1;fill-rule:nonzero;stroke:none"
       transform="matrix(0.13333333,0,0,-0.13333333,0,2133.3333)" />
    <path
       id="path76"
       d="m 18935.5,5911 c 0,0 91.2,-172.8 -15.5,-351.4 -103.6,-173.3 3.9,-316.4 69.9,-374.7 66,-58.2 246.6,-122.6 246.6,-122.6 l -196.8,212.1 -3.4,42.2 c 0,0 74.7,91.5 72.4,260.4 -2.4,169 -115.4,294.2 -173.2,334"
       style="fill:#d3d3d3;fill-opacity:1;fill-rule:nonzero;stroke:none"
       transform="matrix(0.13333333,0,0,-0.13333333,0,2133.3333)" />
    <path
       id="path77"
       d="m 20082.4,6753.04 c 0,0 31,-302.59 -132.6,-466.59 -212.9,-213.47 281,-807.85 281,-807.85 l -190.9,587.3 10.7,36.72 c 0,0 65.9,51.88 112.2,141.8 64.2,124.56 97.1,317.8 -80.4,508.62"
       style="fill:#d3d3d3;fill-opacity:1;fill-rule:nonzero;stroke:none"
       transform="matrix(0.13333333,0,0,-0.13333333,0,2133.3333)" />
    <path
       id="path78"
       d="m 21398.4,6727.53 c 0,0 43.3,-335.11 -240.1,-439.94 -283.5,-104.83 57.5,-944.09 57.5,-944.09 l -36.5,645.3 23.2,34.22 c 0,0 170.5,46.5 261.1,238.52 90.7,192.03 0.3,381.78 -65.2,465.99"
       style="fill:#d3d3d3;fill-opacity:1;fill-rule:nonzero;stroke:none"
       transform="matrix(0.13333333,0,0,-0.13333333,0,2133.3333)" />
  </g>
  <g
     inkscape:groupmode="layer"
     id="layer6"
     inkscape:label="Layer 5">
    <path
       id="path66"
       d="m 33033.2,2510.7 h -2888 c -39,320.7 72.3,517.3 139.4,636.1 83.7,147.1 189.8,225.2 313,315.3 110.8,81.4 236.7,173.8 360.1,332.8 130,167.8 222.9,364.2 276.3,583.7 l -33.3,42.2 h -350.6 c -35.6,0 -66.4,24.1 -75.1,58.6 l -38.1,152.8 c -7.3,46.8 15.8,93.1 57.7,115.7 l 351.8,191.1 5.7,56.3 c -154.9,130.7 -243.6,322.3 -243.6,525.1 0,379.4 308.6,687.97 687.9,687.97 379.3,0 688,-308.57 688,-687.97 0,-210.1 -94,-405.8 -258,-536.9 l 5.9,-57.3 328.7,-167.2 c 46.8,-23.7 71.2,-77.8 57.7,-129.3 l -36.3,-149.9 c -8.2,-34.6 -39.2,-59 -75,-59 h -307.3 l -33.7,-39.5 c 32.6,-206.4 103.8,-391.2 211.4,-549.7 126.4,-186.1 272.2,-288.3 400.6,-378.4 129.8,-91 252,-176.8 337.1,-334.9 61.8,-115.4 164.5,-306.1 117.7,-607.6 z m -57.5,640 c -92.6,172.4 -221.5,262.8 -357.9,358.6 -130,91 -264.1,185 -383.4,360.6 -95.1,140.1 -159.7,302.2 -193.2,482.4 h 266.2 c 67.5,0 125.9,45.9 141.6,111.6 l 36.1,149.1 c 21.2,81.7 -18,168.8 -93.1,207.2 l -283.3,144.1 c 155.6,142.8 244.1,342.6 244.1,556.1 0,417 -339.4,756.4 -756.4,756.4 -417,0 -756.4,-339.4 -756.4,-756.4 0,-206.4 83.7,-402.1 231.3,-544.2 L 30762,4808.1 c -68,-36.8 -104.9,-112.3 -92.4,-188.4 l 39,-157 c 16.2,-65 74.4,-110.4 141.5,-110.4 h 305.8 c -52.2,-192.7 -136.8,-366.3 -252.5,-515.5 -117.2,-151.4 -233.8,-237 -346.4,-319.5 -123.9,-91.1 -240.9,-176.8 -331.9,-336.7 -68.7,-121.6 -196.6,-347.9 -143.5,-709.2 l 4.1,-29.2 h 3005 l 5.2,28.1 c 61.8,341.4 -56.5,562 -120.2,680.4"
       style="fill:#231f20;fill-opacity:1;fill-rule:nonzero;stroke:#231f20;stroke-opacity:1;stroke-width:50.00000128;stroke-dasharray:none"
       transform="matrix(0.13333333,0,0,-0.13333333,0,2133.3333)" />
    <path
       id="path67"
       d="m 33033.2,2510.7 h -2888 c -39,320.7 72.3,517.3 139.4,636.1 83.7,147.1 189.8,225.2 313,315.3 110.8,81.4 236.7,173.8 360.1,332.8 130,167.8 222.9,364.2 276.3,583.7 l -33.3,42.2 h -350.6 c -35.6,0 -66.4,24.1 -75.1,58.6 l -38.1,152.8 c -7.3,46.8 15.8,93.1 57.7,115.7 l 351.8,191.1 5.7,56.3 c -154.9,130.7 -243.6,322.3 -243.6,525.1 0,379.4 308.6,687.97 687.9,687.97 379.3,0 688,-308.57 688,-687.97 0,-210.1 -94,-405.8 -258,-536.9 l 5.9,-57.3 328.7,-167.2 c 46.8,-23.7 71.2,-77.8 57.7,-129.3 l -36.3,-149.9 c -8.2,-34.6 -39.2,-59 -75,-59 h -307.3 l -33.7,-39.5 c 32.6,-206.4 103.8,-391.2 211.4,-549.7 126.4,-186.1 272.2,-288.3 400.6,-378.4 129.8,-91 252,-176.8 337.1,-334.9 61.8,-115.4 164.5,-306.1 117.7,-607.6"
       style="fill:#f8f8f8;fill-opacity:1;fill-rule:nonzero;stroke:none"
       transform="matrix(0.13333333,0,0,-0.13333333,0,2133.3333)" />
    <path
       id="path68"
       d="m 31929.7,6122.12 c 0,0 656.8,-776.52 -395.4,-1141.42 l 492.1,2.8 c 0,0 262.5,199.2 257.9,536.9 0,0 25.2,380.4 -354.6,601.72"
       style="fill:#d3d3d3;fill-opacity:1;fill-rule:nonzero;stroke:none"
       transform="matrix(0.13333333,0,0,-0.13333333,0,2133.3333)" />
    <path
       id="path69"
       d="m 32032.3,4926.3 c 0,0 309.4,-331.6 -32.2,-505.5 h 307.4 c 0,0 59.4,-5.8 75,59 15.7,64.9 36.2,149.9 36.2,149.9 1.5,7.8 4.5,25.6 3,40.7 -4,38.6 -5.4,33.4 -37.5,72.8 -49.5,34.9 -160.7,78.8 -351.9,183.1"
       style="fill:#d3d3d3;fill-opacity:1;fill-rule:nonzero;stroke:none"
       transform="matrix(0.13333333,0,0,-0.13333333,0,2133.3333)" />
    <path
       id="path70"
       d="m 31200.7,4420.8 h 799.4 c 0,0 -12.5,-14.7 -33.7,-39.5 10,-71.3 21.2,-138.3 119.2,-389.4 101.6,-218.3 197.6,-317.2 500.5,-544.1 137.7,-103.2 188.4,-147.1 188.4,-147.1 -284.1,75.3 -689.3,222.6 -1098.6,526.1 -195.9,145.3 -352.4,296.5 -475.2,433.6 l 33.3,118.2 -33.3,42.2"
       style="fill:#d3d3d3;fill-opacity:1;fill-rule:nonzero;stroke:none"
       transform="matrix(0.13333333,0,0,-0.13333333,0,2133.3333)" />
  </g>
  <g
     inkscape:groupmode="layer"
     id="layer7"
     inkscape:label="Layer 6">
    <path
       id="path59"
       d="M 5059.96,2482 H 1804.99 v 289.9 c 0,324.8 264.14,589 588.95,589 h 2077.07 c 324.82,0 588.95,-264.2 588.95,-589 z M 2488.15,5163.8 c 24.4,-3.5 49.27,-5.3 74.58,-5.3 h 1689.08 c 33.07,0 65.24,3.2 96.71,8.9 l 221.94,-1745.6 c -32.39,5 -65.69,7.5 -99.45,7.5 H 2393.94 c -34.21,0 -67.74,-2.5 -100.36,-7.8 z m -391.88,529.8 -52.92,521.93 c -6.38,63.18 14.37,126.37 57.03,173.36 42.42,47.21 103.1,74.13 166.51,74.13 h 286.26 c 48.82,0 91.7,-32.62 104.7,-79.61 l 112.23,-404.61 221.71,7.9 20.53,514.18 c 1.6,37.64 32.16,67.06 69.8,67.06 h 656.24 c 36.04,0 65.92,-27.14 69.34,-62.95 l 52,-520.29 264.14,7.5 60.91,379.35 c 8.44,53.15 53.6,91.47 107.2,91.47 h 255.7 c 63.41,0 124.09,-26.92 166.74,-74.13 42.43,-46.99 63.19,-110.18 56.8,-173.36 l -52.69,-518.43 -0.23,-3.5 c 0,-257.3 -209.17,-466.7 -466.46,-466.7 H 2562.73 c -257.29,0 -466.46,209.4 -466.46,466.7 z M 4641.4,3406.9 4415.36,5184.3 c 214.64,69.1 370.66,270.3 371.34,507.5 l 52.46,516.89 c 8.44,82.34 -18.47,164.69 -74.13,226.27 -55.43,61.36 -134.58,96.49 -217.38,96.49 h -255.7 c -87.36,0 -161.03,-62.73 -174.72,-148.95 l -52.01,-323.67 -143.7,-4.11 -45.62,457.11 c -7.07,70.94 -66.38,124.54 -137.54,124.54 h -656.24 c -74.59,0 -135.27,-58.39 -138.23,-132.75 l -18.02,-450.95 -104.24,-3.65 -97.86,352.64 c -21.21,76.41 -91.24,129.79 -170.62,129.79 h -286.26 c -82.57,0 -161.95,-35.13 -217.38,-96.49 -55.43,-61.58 -82.57,-143.93 -74.13,-226.27 l 52.46,-516.89 c 0.69,-245.2 167.2,-451.9 393.02,-514.1 l -197.77,-1771 c -279.87,-75.5 -486.53,-331.4 -486.53,-634.8 v -358.3 h 3391.83 v 358.3 c 0,303.6 -206.88,559.8 -486.99,635"
       style="fill:#231f20;fill-opacity:1;fill-rule:nonzero;stroke:#231f20;stroke-opacity:1;stroke-width:50.00000128;stroke-dasharray:none"
       transform="matrix(0.13333333,0,0,-0.13333333,0,2133.3333)" />
    <path
       id="path60"
       d="M 5059.96,2771.9 V 2482 H 1804.99 v 289.9 c 0,324.8 264.14,589 588.95,589 h 2077.07 c 324.82,0 588.95,-264.2 588.95,-589"
       style="fill:#f8f8f8;fill-opacity:1;fill-rule:nonzero;stroke:none"
       transform="matrix(0.13333333,0,0,-0.13333333,0,2133.3333)" />
    <path
       id="path61"
       d="m 4570.46,3421.8 c -32.39,5 -65.69,7.5 -99.45,7.5 H 2393.94 c -34.21,0 -67.74,-2.5 -100.36,-7.8 l 194.57,1742.3 c 24.4,-3.5 49.27,-5.3 74.58,-5.3 h 1689.08 c 33.07,0 65.24,3.2 96.71,8.9 l 221.94,-1745.6"
       style="fill:#f8f8f8;fill-opacity:1;fill-rule:nonzero;stroke:none"
       transform="matrix(0.13333333,0,0,-0.13333333,0,2133.3333)" />
    <path
       id="path62"
       d="m 4771.19,6215.53 -52.69,-518.43 -0.23,-3.5 c 0,-257.3 -209.17,-466.7 -466.46,-466.7 H 2562.73 c -257.29,0 -466.46,209.4 -466.46,466.7 l -52.92,521.93 c -6.38,63.18 14.37,126.37 57.03,173.36 42.42,47.21 103.1,74.13 166.51,74.13 h 286.26 c 48.82,0 91.7,-32.62 104.7,-79.61 l 112.23,-404.61 221.71,7.9 20.53,514.18 c 1.6,37.64 32.16,67.06 69.8,67.06 h 656.24 c 36.04,0 65.92,-27.14 69.34,-62.95 l 52,-520.29 264.14,7.5 60.91,379.35 c 8.44,53.15 53.6,91.47 107.2,91.47 h 255.7 c 63.41,0 124.09,-26.92 166.74,-74.13 42.43,-46.99 63.19,-110.18 56.8,-173.36"
       style="fill:#f8f8f8;fill-opacity:1;fill-rule:nonzero;stroke:none"
       transform="matrix(0.13333333,0,0,-0.13333333,0,2133.3333)" />
    <path
       id="path63"
       d="m 2886.94,5156 c 0,0 1108.56,-92.6 1203.92,-900 84,-711.2 123.71,-826.7 123.71,-826.7 l 355.89,-7.5 -221.94,1745.6 -85.64,-8.9 c -4.99,-0.5 -10.01,-0.7 -15.03,-0.7 L 2886.94,5156"
       style="fill:#d3d3d3;fill-opacity:1;fill-rule:nonzero;stroke:none"
       transform="matrix(0.13333333,0,0,-0.13333333,0,2133.3333)" />
    <path
       id="path64"
       d="m 4437.74,5406.7 c -113.31,-86.2 -247.82,-133.9 -247.82,-133.9 -76.38,-27.1 -144.05,-39.7 -194.42,-45.9 0,0 375.63,-24.7 459.65,46.8 228.38,75.2 267.67,334.2 285.8,582.9 12.18,167.23 30.79,365.7 30.79,365.7 -23.67,-397 -179.84,-698.4 -334,-815.6"
       style="fill:#d3d3d3;fill-opacity:1;fill-rule:nonzero;stroke:none"
       transform="matrix(0.13333333,0,0,-0.13333333,0,2133.3333)" />
    <path
       id="path65"
       d="m 5057.91,2836.9 c -31.93,295 -282.39,525.1 -585.53,525.1 H 3432.48 2392.57 c -303.14,0 -553.59,-230.1 -585.53,-525.1 -2.28,-21 -0.91,-39.4 15.74,21.9 20.53,75.3 68.89,138.5 128.65,186.6 98.76,79.8 222.62,121.4 349.45,125 216.23,6.2 668.78,17.3 1131.6,19.6 462.81,-2.3 915.36,-13.4 1131.6,-19.6 126.82,-3.6 250.68,-45.2 349.44,-125 59.77,-48.1 108.12,-111.3 128.65,-186.6 16.65,-61.3 18.02,-42.9 15.74,-21.9"
       style="fill:#ffffff;fill-opacity:1;fill-rule:nonzero;stroke:none"
       transform="matrix(0.13333333,0,0,-0.13333333,0,2133.3333)" />
  </g>
  <g
     inkscape:groupmode="layer"
     id="layer8"
     inkscape:label="Layer 7">
    <path
       id="path49"
       d="m 25731.7,10670.4 c -0.2,-19.1 -15.7,-34.7 -34.9,-34.7 h -47.2 c -103.1,0 -200.2,40.2 -273.9,113.4 -133.2,131.6 -354.3,388.2 -336.9,626.4 3.2,45.6 33.5,91.7 83,126.1 39.7,27.4 103.6,56.8 194.8,56.8 96,0 222.6,-32.6 383.4,-134.6 21.7,-13.7 35.2,-38.3 34.9,-64.3 z m 4.8,811.4 c -346.7,219.6 -558.4,141.8 -653.7,75.9 -66.6,-46.3 -107.4,-110.8 -112.4,-177.2 -18.1,-252.3 184.3,-509.1 356.9,-680 86.7,-86 201.2,-133.2 322.3,-133.2 h 47.2 c 56.6,0 102.9,46.1 103.4,102.6 l 3.2,689.1 c 0.2,49.3 -25.4,96.3 -66.9,122.8"
       style="fill:#231f20;fill-opacity:1;fill-rule:nonzero;stroke:#231f20;stroke-opacity:1;stroke-width:50.00000128;stroke-dasharray:none"
       transform="matrix(0.13333333,0,0,-0.13333333,0,2133.3333)" />
    <path
       id="path50"
       d="m 27021.6,10749.1 h -0.2 c -73.7,-73.2 -171.1,-113.4 -274.2,-113.4 h -46.9 c -19.2,0 -34.9,15.6 -34.9,34.7 l -3.2,689.1 c -0.3,26 13.2,50.6 34.6,64.3 161.1,102 287.7,134.6 383.7,134.6 91.2,0 154.9,-29.4 194.6,-56.8 49.5,-34.4 80,-80.5 83.2,-126.1 17.4,-238.2 -203.7,-494.8 -336.7,-626.4 z m 405.1,631.4 c -5,66.4 -46,130.9 -112.9,177.2 -95.1,65.9 -306.3,143.7 -653.5,-75.9 -41.5,-26.5 -66.8,-73.3 -66.6,-122.8 l 3.2,-689.1 c 0.3,-56.5 46.8,-102.6 103.4,-102.6 h 46.9 c 60.7,0 119.6,11.9 174.3,34.5 54.8,22.3 104.9,55.6 148.3,98.5 172.9,171.1 375,427.9 356.9,680.2"
       style="fill:#231f20;fill-opacity:1;fill-rule:nonzero;stroke:#231f20;stroke-opacity:1;stroke-width:50.00000128;stroke-dasharray:none"
       transform="matrix(0.13333333,0,0,-0.13333333,0,2133.3333)" />
    <path
       id="path51"
       d="m 27971,10592.9 -643.7,-691.19 c -10,2.74 -20.8,4.79 -31,7.3 -6.9,1.6 -13.5,3.2 -20.3,4.56 -21.5,4.56 -43.1,8.44 -65.5,11.64 -42.4,6.15 -84.8,11.86 -127.3,17.1 -6.1,0.69 -12.3,1.37 -18.2,2.06 -37,4.56 -73.7,8.89 -110.6,12.77 -2.8,0.23 -5.3,0.46 -8,0.68 -211.2,22.13 -424.1,34.9 -636.2,38.33 -9.6,0 -19.2,0 -28.7,0.22 -27.6,0.23 -55.5,0.69 -83.3,0.69 h -21.2 c -352.4,-1.14 -669.2,-36.04 -948.9,-66.84 l -42.7,-4.79 c -21.6,-2.5 -43.1,-5.7 -63.8,-9.58 -6.9,-1.14 -13.5,-2.73 -20.1,-4.1 -10.3,-2.05 -20.5,-3.88 -30.3,-6.39 l -636.7,687.54 c -647.1,804 -153.7,1367.6 -132.5,1391.1 l 1.6,1.9 c 464.7,591.9 1220.8,324.8 1441.6,228.7 25.1,-10.7 53.6,-10 78,2.3 24.4,12.1 42.2,34.5 48.6,61.2 l 86.7,361 h -366.4 v 482.9 h 372.8 v 396 h 475.5 v -396 h 372.8 v -482.9 h -366.4 l 86.7,-361 c 6.4,-26.7 24.2,-49.1 48.6,-61.2 24.4,-12.3 52.9,-13 78,-2.3 220.8,96.1 977,363.2 1441.6,-228.7 l 1.6,-1.9 c 21.2,-23.5 514.6,-587.1 -132.3,-1391.1 z m -174,-1326.67 v -217.61 c 0,-35.81 -29,-64.78 -64.8,-64.78 h -3069.3 c -35.8,0 -64.8,28.97 -64.8,64.78 v 217.61 c 0,273.03 180.4,490.64 470.8,567.96 39,10.5 80.7,18.25 124.1,23.27 l 42.6,4.56 c 277.9,30.8 592.9,65.47 941.6,66.61 h 21 c 334.9,0 672,-23.95 1002.7,-70.94 44.7,-6.62 87.6,-15.74 128,-27.37 293.1,-84.17 468.1,-295.16 468.1,-564.09 z m 358.1,2762.77 c -495,629.3 -1290.4,349.4 -1522.4,248.6 -8.9,-3.9 -16.4,-1.4 -20,0.5 -3.7,1.8 -10.3,6.3 -12.6,15.9 l -66.6,276.7 h 348.1 v 619.7 h -372.7 v 396 h -612.5 v -396 h -372.7 v -619.7 h 348.1 l -66.6,-276.7 c -2.3,-9.6 -8.9,-14.1 -12.6,-15.9 -3.6,-1.9 -11.1,-4.4 -20,-0.5 -232.2,100.8 -1027.4,380.7 -1522.4,-248.6 -26.9,-31.3 -539.9,-646.2 131.7,-1479.9 l 615.8,-664.95 c -290.1,-97.4 -468,-329.61 -468,-617.92 v -217.61 c 0,-73.45 59.7,-133.21 133.2,-133.21 h 3069.3 c 73.4,0 133.2,59.76 133.2,133.21 v 217.61 c 0,284.67 -172.9,510.48 -465.6,612.9 l 622.1,668.07 1.6,1.9 c 671.5,833.7 158.5,1448.8 131.6,1479.9"
       style="fill:#231f20;fill-opacity:1;fill-rule:nonzero;stroke:#231f20;stroke-opacity:1;stroke-width:50.00000128;stroke-dasharray:none"
       transform="matrix(0.13333333,0,0,-0.13333333,0,2133.3333)" />
    <path
       id="path52"
       d="m 27797,9266.23 v -217.61 c 0,-35.81 -29,-64.78 -64.8,-64.78 h -3069.3 c -35.8,0 -64.8,28.97 -64.8,64.78 v 217.61 c 0,273.03 180.4,490.64 470.8,567.96 39,10.5 80.7,18.25 124.1,23.27 l 42.6,4.56 c 277.9,30.8 592.9,65.47 941.6,66.61 h 21 c 334.9,0 672,-23.95 1002.7,-70.94 44.7,-6.62 87.6,-15.74 128,-27.37 293.1,-84.17 468.1,-295.16 468.1,-564.09"
       style="fill:#565352;fill-opacity:1;fill-rule:nonzero;stroke:none"
       transform="matrix(0.13333333,0,0,-0.13333333,0,2133.3333)" />
    <path
       id="path53"
       d="m 27069.8,10700.3 c -43.4,-42.9 -93.5,-76.2 -148.3,-98.5 -54.7,-22.6 -113.6,-34.5 -174.3,-34.5 h -46.9 c -56.6,0 -103.1,46.1 -103.4,102.6 l -3.2,689.1 c -0.2,49.5 25.1,96.3 66.6,122.8 347.2,219.6 558.4,141.8 653.5,75.9 66.9,-46.3 107.9,-110.8 112.9,-177.2 18.1,-252.3 -184,-509.1 -356.9,-680.2 z m -1269.6,-30.4 c -0.5,-56.5 -46.8,-102.6 -103.4,-102.6 h -47.2 c -121.1,0 -235.6,47.2 -322.3,133.2 -172.6,170.9 -375,427.7 -356.9,680 5,66.4 45.8,130.9 112.4,177.2 95.3,65.9 307,143.7 653.7,-75.9 41.5,-26.5 67.1,-73.5 66.9,-122.8 z m 2303.1,1314.1 -1.6,1.9 c -464.6,591.9 -1220.8,324.8 -1441.6,228.7 -25.1,-10.7 -53.6,-10 -78,2.3 -24.4,12.1 -42.2,34.5 -48.6,61.2 l -86.7,361 h 366.4 v 482.9 h -372.8 v 396 h -475.5 v -396 h -372.8 v -482.9 h 366.4 l -86.7,-361 c -6.4,-26.7 -24.2,-49.1 -48.6,-61.2 -24.4,-12.3 -52.9,-13 -78,-2.3 -220.8,96.1 -976.9,363.2 -1441.6,-228.7 l -1.6,-1.9 c -21.2,-23.5 -514.6,-587.1 132.5,-1391.1 l 636.7,-687.54 c 9.8,2.51 20,4.34 30.3,6.39 6.6,1.37 13.2,2.96 20.1,4.1 20.7,3.88 42.2,7.08 63.8,9.58 l 42.7,4.79 c 279.7,30.8 596.5,65.7 948.9,66.84 h 21.2 c 27.8,0 55.7,-0.46 83.3,-0.69 9.5,-0.22 19.1,-0.22 28.7,-0.22 212.1,-3.43 425,-16.2 636.2,-38.33 2.7,-0.22 5.2,-0.45 8,-0.68 36.9,-3.88 73.6,-8.21 110.6,-12.77 5.9,-0.69 12.1,-1.37 18.2,-2.06 42.5,-5.24 84.9,-10.95 127.3,-17.1 22.4,-3.2 44,-7.08 65.5,-11.64 6.8,-1.36 13.4,-2.96 20.3,-4.56 10.2,-2.51 21,-4.56 31,-7.3 l 643.7,691.19 c 646.9,804 153.5,1367.6 132.3,1391.1"
       style="fill:#565352;fill-opacity:1;fill-rule:nonzero;stroke:none"
       transform="matrix(0.13333333,0,0,-0.13333333,0,2133.3333)" />
    <path
       id="path54"
       d="m 25088.1,12358.4 c -70.5,-18.8 -523.4,-147.9 -757.1,-613.5 -215.2,-428.5 -88.9,-832.2 -63.3,-908.9 0,0 -305.6,454.7 -87.3,949.3 0,0 252.5,586.4 907.7,573.1"
       style="fill:#888685;fill-opacity:1;fill-rule:nonzero;stroke:none"
       transform="matrix(0.13333333,0,0,-0.13333333,0,2133.3333)" />
    <path
       id="path55"
       d="m 25592.1,12639.1 39.2,49.3 v 384.4 h 369.8 v 390.2 h 400.2 l 39.1,55 h -475.5 v -396 h -372.8 v -482.9"
       style="fill:#888685;fill-opacity:1;fill-rule:nonzero;stroke:none"
       transform="matrix(0.13333333,0,0,-0.13333333,0,2133.3333)" />
    <path
       id="path56"
       d="m 26440.4,13122 -30.3,-56.5 h 403.1 v 56.5 h -372.8"
       style="fill:#888685;fill-opacity:1;fill-rule:nonzero;stroke:none"
       transform="matrix(0.13333333,0,0,-0.13333333,0,2133.3333)" />
    <path
       id="path57"
       d="m 28000.8,12097 c 0,0 401,-484.2 61.3,-1080 -142.1,-249.3 -347.6,-497.3 -570.7,-683.4 -239.4,-199.5 -480.6,-382.73 -480.6,-382.73 l 316.5,-49.16 570.2,612.19 c 0,0 376.6,393.4 402.3,816.9 26.3,431.6 -194.9,680.2 -299,766.2"
       style="fill:#454242;fill-opacity:1;fill-rule:nonzero;stroke:none"
       transform="matrix(0.13333333,0,0,-0.13333333,0,2133.3333)" />
    <path
       id="path58"
       d="m 27733.5,9526.72 c -445.7,124.31 -1356.5,117.24 -2141.4,107.66 -562,-7.07 -842.8,-134.12 -980.3,-241.56 47,212.59 213.3,376.37 457.1,441.37 39,10.5 80.7,18.25 124.1,23.27 l 42.6,4.56 c 277.9,30.8 592.9,65.47 941.6,66.61 h 21 c 334.9,0 672,-23.95 1002.7,-70.94 44.7,-6.62 87.6,-15.74 128,-27.37 189.3,-54.29 329.4,-161.73 404.6,-303.6"
       style="fill:#888685;fill-opacity:1;fill-rule:nonzero;stroke:none"
       transform="matrix(0.13333333,0,0,-0.13333333,0,2133.3333)" />
  </g>
  <g
     inkscape:groupmode="layer"
     id="layer9"
     inkscape:label="Layer 8">
    <path
       id="path42"
       d="m 16423,9027.18 c 0,-16.42 -13.4,-29.88 -29.9,-29.88 h -3109.9 c -16.4,0 -29.8,13.46 -29.8,29.88 v 195.71 c 0,364.27 296.3,660.57 660.5,660.57 l 3.2,0.23 c 292,27.37 589,41.97 882.3,43.11 319.4,1.14 642.1,-13.23 959.9,-43.11 l 3.1,-0.23 c 364.3,0 660.6,-296.3 660.6,-660.57 z m -2763.9,2514.12 1.6,7.3 c 61.2,528.5 730.4,1130.9 864.1,1246.3 l 4.3,35.2 c -61.3,69.5 -95.3,159.2 -95.3,252 0,210.1 170.8,381.2 380.9,381.2 210.1,0 381.1,-171.1 381.1,-381.2 0,-156.7 -98.3,-299.7 -244.7,-355.6 l -12.3,-9.1 c -309.8,-493.2 -326.4,-1556.8 -327.1,-1601.7 l -0.5,-35.4 520.1,2.7 -0.5,33.8 c -9.5,834.2 210.6,1294.7 283.3,1419.5 779.5,-854.5 707.6,-1284.2 706.7,-1288.1 l -0.7,-3.9 v -4.1 c 17.1,-657.2 -292.2,-1102.6 -443.9,-1280.55 -291,24.63 -585.5,36.5 -877,35.58 -257.8,-1.14 -518,-13 -775.6,-34.21 -641.8,737.48 -367.4,1572.08 -364.5,1580.28 z M 15764,9951.89 c -1.6,0.23 -3.4,0.23 -5,0.46 164.5,204.85 445,649.65 429.5,1286.25 8.5,51.8 52.5,505.7 -754.5,1377 l -28.3,30.6 -24.6,-33.8 c -13.3,-18.4 -323.3,-469.8 -318.9,-1462.5 l -381.2,0.2 c 5.7,189.3 46.3,1085.8 308.4,1518.5 164.9,69.5 274.9,233.5 274.9,413.5 0,247.9 -201.7,449.6 -449.6,449.6 -247.7,0 -449.4,-201.7 -449.4,-449.6 0,-94.4 29.9,-185.7 84.4,-261.6 -220.1,-194.6 -795.1,-747.1 -856.5,-1260.7 -19.8,-62.5 -258.9,-873.2 346.5,-1605.62 -9.1,-0.92 -18.2,-1.37 -27.4,-2.29 -401.2,-0.91 -727.4,-327.55 -727.4,-729 v -195.71 c 0,-54.29 44.1,-98.31 98.3,-98.31 h 3109.9 c 54.3,0 98.4,44.02 98.4,98.31 v 195.71 c 0,401.45 -326.2,728.09 -727.5,729"
       style="fill:#231f20;fill-opacity:1;fill-rule:nonzero;stroke:#231f20;stroke-opacity:1;stroke-width:50.00000128;stroke-dasharray:none"
       transform="matrix(0.13333333,0,0,-0.13333333,0,2133.3333)" />
    <path
       id="path43"
       d="m 16423,9222.89 v -195.71 c 0,-16.42 -13.4,-29.88 -29.9,-29.88 h -3109.9 c -16.4,0 -29.8,13.46 -29.8,29.88 v 195.71 c 0,364.27 296.3,660.57 660.5,660.57 l 3.2,0.23 c 292,27.37 589,41.97 882.3,43.11 319.4,1.14 642.1,-13.23 959.9,-43.11 l 3.1,-0.23 c 364.3,0 660.6,-296.3 660.6,-660.57"
       style="fill:#565352;fill-opacity:1;fill-rule:nonzero;stroke:none"
       transform="matrix(0.13333333,0,0,-0.13333333,0,2133.3333)" />
    <path
       id="path44"
       d="m 16120.1,11244.3 v -4.1 c 17.1,-657.2 -292.2,-1102.6 -443.9,-1280.55 -291,24.63 -585.5,36.5 -877,35.58 -257.8,-1.14 -518,-13 -775.6,-34.21 -641.8,737.48 -367.4,1572.08 -364.5,1580.28 l 1.6,7.3 c 61.2,528.5 730.4,1130.9 864.1,1246.3 l 4.3,35.2 c -61.3,69.5 -95.3,159.2 -95.3,252 0,210.1 170.8,381.2 380.9,381.2 210.1,0 381.1,-171.1 381.1,-381.2 0,-156.7 -98.3,-299.7 -244.7,-355.6 l -12.3,-9.1 c -309.8,-493.2 -326.4,-1556.8 -327.1,-1601.7 l -0.5,-35.4 520.1,2.7 -0.5,33.8 c -9.5,834.2 210.6,1294.7 283.3,1419.5 779.5,-854.5 707.6,-1284.2 706.7,-1288.1 l -0.7,-3.9"
       style="fill:#565352;fill-opacity:1;fill-rule:nonzero;stroke:none"
       transform="matrix(0.13333333,0,0,-0.13333333,0,2133.3333)" />
    <path
       id="path45"
       d="m 15774.8,12091.9 c 43.9,-76.5 327.8,-592.2 115.5,-1210.8 -213.9,-623.5 -761.6,-855.5 -842.5,-888.18 l 628.4,-33.27 c 0,0 229.7,257.55 344,612.75 102.4,318 133.9,736 66.4,921.6 -74.9,205.8 -121.5,325.2 -311.8,597.9"
       style="fill:#454242;fill-opacity:1;fill-rule:nonzero;stroke:none"
       transform="matrix(0.13333333,0,0,-0.13333333,0,2133.3333)" />
    <path
       id="path46"
       d="m 16352.8,9518.73 c -60.7,23.27 -127.5,46.76 -198.5,71.4 -285.6,98.77 -1601.5,64.09 -2277.1,40.83 -281.2,-9.58 -465.8,-92.15 -585.1,-184.99 91.7,254.79 335.8,437.49 621.8,437.49 l 3.2,0.23 c 292,27.37 589,41.97 882.3,43.11 319.4,1.14 642.1,-13.23 959.9,-43.11 l 3.1,-0.23 c 258,0 482,-148.72 590.4,-364.73"
       style="fill:#888685;fill-opacity:1;fill-rule:nonzero;stroke:none"
       transform="matrix(0.13333333,0,0,-0.13333333,0,2133.3333)" />
    <path
       id="path47"
       d="m 14975.1,13427.7 c 0,0 214.1,-206.7 88.3,-442.3 -125.9,-235.6 -400.9,-335.4 -505.7,-731.4 -104.9,-396 -57.3,-542.6 53.5,-1173.7 l 32,521.7 c 0,0 62,522.5 143.7,767 87.8,230.1 139.6,345.4 172.9,361 44.8,13.2 130.8,69.1 174.4,145.4 45.6,73.6 73.1,153.6 60.2,239.8 -15.5,103.2 -47.3,224.8 -219.3,312.5"
       style="fill:#454242;fill-opacity:1;fill-rule:nonzero;stroke:none"
       transform="matrix(0.13333333,0,0,-0.13333333,0,2133.3333)" />
    <path
       id="path48"
       d="m 14776.9,13461.4 c 0,0 -222.3,-28.4 -301.8,-207 0,0 -116.6,-233.4 54.1,-424.4 0,0 -0.1,0.1 -0.1,0.1 l -4.3,-35.2 -32.9,-28.8 -28.9,-25.7 v 0 c -13.2,-10.7 -70.4,-58.7 -169.3,-162.7 -113.6,-119.6 -429.8,-457.7 -518.6,-679.8 -88.8,-222 -212.8,-536.6 -176.8,-848.9 36.1,-312.3 39.9,-330.3 39.9,-330.3 15,114.5 40.1,265.2 84.4,439.1 39.2,153.9 104.6,460.9 276.9,785.1 158.6,298.5 359,573.1 395.1,619.3 56.9,72.8 142.7,223.2 142.7,223.3 0,0.1 -0.5,46 -0.5,46.1 0.2,-2.2 -193.7,443.6 240.1,629.8"
       style="fill:#888685;fill-opacity:1;fill-rule:nonzero;stroke:none"
       transform="matrix(0.13333333,0,0,-0.13333333,0,2133.3333)" />
  </g>
  <g
     inkscape:groupmode="layer"
     id="layer10"
     inkscape:label="Layer 9">
    <path
       id="path33"
       d="m 10989,9079.64 c 0,-46.3 -37.6,-83.94 -83.9,-83.94 H 7892.34 c -46.3,0 -83.94,37.64 -83.94,83.94 v 239.73 c 0,258.21 175.41,480.84 426.78,541.28 26.91,5.48 980.37,196.85 2376.12,-14.37 226,-76.86 377.7,-288.31 377.7,-526.91 z M 8410.81,10248.2 c 125.68,205.1 294.48,342.6 458.25,475.8 119.76,97.4 232.89,189.3 320.48,302.2 123.86,159.2 115.42,336.7 66.15,449.9 -3.65,8.6 -6.16,14.8 -7.98,19.6 -7.76,20.3 -12.09,27.1 -32.39,44.2 -9.13,7.3 -20.07,11.2 -31.25,11.2 -12.78,0 -25.55,-5.2 -35.13,-15.1 -37.64,-39.9 -372.94,-390.7 -541.96,-432.9 -64.55,-16 -118.39,-13.9 -165.83,-11.8 -86.22,3.4 -160.81,6.3 -226.96,-109.8 -63.18,-110.4 -134.81,-185.2 -171.76,-220.1 -13.91,-13.2 -31.93,-21.4 -51.09,-23.2 -273.04,-26 -459.16,100.1 -575.5,197.3 -129.1,107.4 -85.76,244.7 -80.51,259.5 14.37,34.7 278.05,506 391.41,571 135.72,77.3 317.75,650.7 337.36,749.3 20.99,104.7 199.36,258.4 317.74,360.4 l 12.55,10.9 c 67.52,58.4 73.22,129.3 78.92,198.5 6.62,79.6 13.46,161.7 98.08,257.9 31.48,36.1 78.24,76.9 121.58,68.2 52.01,-10.4 80.52,-85 83.49,-93.5 l 2.5,-7 282.62,-287.7 c 29.42,-29.6 67.97,-48.1 108.35,-52 232.66,-23.9 619.29,-164.9 907.87,-388 371.8,-287.4 597.6,-669.7 690.4,-1168.3 95.6,-514.1 -111.1,-1285.3 -172.7,-1497.02 -1237.16,183.62 -2126.75,53.6 -2330.67,18.02 18.48,101.7 107.89,254.6 145.98,312.5 z m 2251.09,-347.4 c 63.4,218.5 271.7,999.8 173.4,1526.2 -96.1,516.2 -330.1,911.9 -715.6,1210.3 -298.78,230.8 -700.46,376.8 -942.93,401.7 -24.63,2.5 -48.36,13.9 -66.38,32.2 l -272.35,277.1 c -12.09,30.1 -52.46,114 -131.38,130 -60.68,12.1 -123.4,-18 -186.82,-90.1 -99.22,-113.1 -107.89,-215.3 -114.73,-298.1 -5.47,-64.8 -9.12,-111.6 -55.66,-151.7 l -12.54,-11 c -140.05,-120.6 -314.32,-270.9 -339.87,-398.9 -27.6,-137.8 -206.66,-647.6 -304.06,-703.2 -138.91,-79.4 -416.05,-587.8 -422.21,-607 -6.84,-20.1 -63.41,-198.4 101.28,-335.3 125.68,-105.2 327.09,-241.6 625.68,-212.8 34.44,3.2 67.06,18 91.69,41.5 39.69,37.4 116.56,117.7 184.08,236.1 45.85,79.8 83.02,78.2 164.91,75 49.5,-2 110.86,-4.5 184.99,13.7 172.22,43.3 470.11,342.6 559.98,436.4 0,-0.7 0.23,-1.2 0.46,-1.9 2.28,-5.4 5.02,-12.5 9.12,-22.3 41.29,-95.1 47.91,-245 -57.25,-380.5 -83.03,-106.7 -193.2,-196.4 -310.21,-291.5 -167.88,-136.6 -341.24,-277.6 -472.4,-491.8 -15.96,-24.2 -147.35,-227.2 -159.21,-364.26 -268.7,-76.41 -453.92,-320.02 -453.92,-601.27 v -239.73 c 0,-83.94 68.43,-152.37 152.37,-152.37 h 3012.76 c 83.9,0 152.3,68.43 152.3,152.37 v 239.73 c 0,257.98 -157.6,487.45 -395.5,581.43"
       style="fill:#231f20;fill-opacity:1;fill-rule:nonzero;stroke:#231f20;stroke-opacity:1;stroke-width:50.00000128;stroke-dasharray:none"
       transform="matrix(0.13333333,0,0,-0.13333333,0,2133.3333)" />
    <path
       id="path34"
       d="m 10595.5,9918.59 c -1237.16,183.61 -2126.75,53.6 -2330.67,18.02 18.48,101.69 107.89,254.59 145.98,312.49 125.68,205.1 294.48,342.6 458.25,475.8 119.76,97.4 232.89,189.3 320.48,302.3 123.86,159.2 115.42,336.6 66.15,449.8 -3.65,8.6 -6.16,14.8 -7.98,19.6 -7.76,20.3 -12.09,27.1 -32.39,44.2 -9.13,7.3 -20.07,11.2 -31.25,11.2 -12.78,0 -25.55,-5.2 -35.13,-15.1 -37.64,-39.9 -372.94,-390.7 -541.96,-432.9 -64.55,-15.9 -118.39,-13.9 -165.83,-11.8 -86.22,3.4 -160.81,6.4 -226.96,-109.8 -63.18,-110.4 -134.81,-185.2 -171.76,-220.1 -13.91,-13.2 -31.93,-21.4 -51.09,-23.2 -273.04,-26 -459.16,100.1 -575.5,197.3 -129.1,107.4 -85.76,244.7 -80.51,259.5 14.37,34.7 278.05,506 391.41,571 135.72,77.3 317.75,650.7 337.36,749.3 20.99,104.7 199.36,258.4 317.74,360.4 l 12.55,10.9 c 67.52,58.4 73.22,129.4 78.92,198.5 6.62,79.6 13.46,161.7 98.08,257.9 31.48,36.1 78.24,76.9 121.58,68.3 52.01,-10.5 80.52,-85.1 83.49,-93.6 l 2.5,-7 282.62,-287.7 c 29.42,-29.6 67.97,-48.1 108.35,-52 232.66,-23.9 619.29,-164.9 907.87,-388 371.8,-287.4 597.6,-669.7 690.4,-1168.3 95.6,-514.1 -111.1,-1285.3 -172.7,-1497.01"
       style="fill:#565352;fill-opacity:1;fill-rule:nonzero;stroke:none"
       transform="matrix(0.13333333,0,0,-0.13333333,0,2133.3333)" />
    <path
       id="path35"
       d="m 8548.46,12391.4 c 0,0 -85.42,-106.8 -112.6,-234.9 0,0 76.2,50.2 277.61,25.2 203.34,-25.2 178.59,205.3 104.83,254.3 -33.3,22.2 -151.42,91.3 -269.84,-44.6"
       style="fill:#231f20;fill-opacity:1;fill-rule:nonzero;stroke:none;stroke-opacity:1;stroke-width:50.00000128;stroke-dasharray:none"
       transform="matrix(0.13333333,0,0,-0.13333333,0,2133.3333)" />
    <path
       id="path36"
       d="m 9754.23,12785.9 c 0,0 758.77,-608.1 626.77,-1361.3 -132,-753.2 -559.07,-1125.9 -636.72,-1273.4 -44.89,-85.3 -21.4,-147.5 -21.4,-147.5 0,0 500.92,-23.37 872.62,-85.49 0,0 300.9,817.79 165,1524.39 0,0 -66,500.3 -403.8,873.1 0,0 -227.5,301.3 -602.47,470.2"
       style="fill:#454242;fill-opacity:1;fill-rule:nonzero;stroke:none"
       transform="matrix(0.13333333,0,0,-0.13333333,0,2133.3333)" />
    <path
       id="path37"
       d="m 8676.58,13404.7 c 0,0 -75.71,11.7 -161.61,-147 0,0 -30.57,-71.4 -37.85,-160.2 -7.28,-88.8 -7.28,-149.9 -93.18,-221.3 -85.91,-71.3 -161.62,-142.7 -161.62,-142.7 0,0 -112.1,-112.1 -144.13,-180.5 l -30.58,-116.5 -75.71,-224.2 c 0,0 -71.34,-179.1 -78.62,-196.5 -7.28,-17.5 -66.97,-128.2 -72.8,-141.3 -5.82,-13.1 -49.5,-85.9 -110.65,-120.8 0,0 -31.55,-26.7 -45.13,-44.2 -13.59,-17.5 -88.33,-112.6 -99.49,-132 -11.17,-19.4 -160.4,-245.3 -206.83,-338.2 -10.86,-20.7 -24.19,-37.2 -30.01,-73.1 -10.89,-45.4 480.03,537.3 480.03,537.3 0,0 280.66,405.8 318.34,611.4 64.06,349.6 349.89,386.7 404.25,594.8 39.76,152.3 62.85,134.1 122.96,327.2 39.56,127.1 91.59,176.4 22.63,167.8"
       style="fill:#888685;fill-opacity:1;fill-rule:nonzero;stroke:none"
       transform="matrix(0.13333333,0,0,-0.13333333,0,2133.3333)" />
    <path
       id="path38"
       d="m 10989,9319.37 v -239.73 c 0,-46.3 -37.6,-83.94 -83.9,-83.94 H 7892.34 c -46.3,0 -83.94,37.64 -83.94,83.94 v 239.73 c 0,258.21 175.41,480.84 426.78,541.28 26.91,5.48 980.37,196.85 2376.12,-14.37 226,-76.86 377.7,-288.31 377.7,-526.91"
       style="fill:#565352;fill-opacity:1;fill-rule:nonzero;stroke:none"
       transform="matrix(0.13333333,0,0,-0.13333333,0,2133.3333)" />
    <path
       id="path39"
       d="m 10946.8,9532.42 c -49.9,36.5 -97.8,41.29 -97.8,41.29 -236.6,80.51 -537,126.36 -694.1,137.08 -157.43,10.95 -1764.84,41.74 -2102.43,-74.81 -64.55,-22.13 -128.19,-47.9 -189.1,-74.82 70.49,146.9 204.15,259.12 371.81,299.49 26.91,5.48 980.37,196.85 2376.12,-14.37 155.1,-52.69 275.3,-169.02 335.5,-313.86"
       style="fill:#888685;fill-opacity:1;fill-rule:nonzero;stroke:none"
       transform="matrix(0.13333333,0,0,-0.13333333,0,2133.3333)" />
    <path
       id="path40"
       d="m 9159.28,11544.2 c 0,0 212.23,229.9 239.43,396.8 27.2,167 73.79,-132 50.5,-232.9 -23.3,-101 -77.22,-441.7 -204.68,-593.7 0,0 45.68,84.3 44.52,184 -1.1,95.5 -14.67,148.3 -61.28,226.8 -25.59,43.1 -68.49,19 -68.49,19"
       style="fill:#454242;fill-opacity:1;fill-rule:nonzero;stroke:none"
       transform="matrix(0.13333333,0,0,-0.13333333,0,2133.3333)" />
    <path
       id="path41"
       d="m 8041.79,10766.5 c 0,0 211.11,473.2 273.72,474.7 62.6,1.4 355.54,-41.8 471.16,-37.1 0,0 -110.09,-150.2 -423.4,-113.4 0,0 -88,-9.8 -171.99,-147.1 -81.55,-133.4 -142.21,-172.7 -149.49,-177.1"
       style="fill:#454242;fill-opacity:1;fill-rule:nonzero;stroke:none"
       transform="matrix(0.13333333,0,0,-0.13333333,0,2133.3333)" />
  </g>
  <g
     inkscape:groupmode="layer"
     id="layer11"
     inkscape:label="Layer 10">
    <path
       id="path21"
       d="m 22355,11591.2 -27,-21.4 -666.9,-1678.35 c -5.7,1.82 -11.2,3.42 -16.7,5.24 -309.5,93.3 -710.9,106.31 -1098.9,106.31 -414.5,0 -880.7,-42.89 -1075.8,-97.18 l -649.4,1666.08 -30.1,21.9 c -234.2,13 -417.6,207.3 -417.6,442.2 0,244.6 198.9,443.5 443.2,443.5 244.5,0 443.4,-198.9 443.4,-443.5 0,-87.1 -25.1,-171 -72.8,-242.9 l 3.5,-42.2 481.9,-519.4 c 7.8,-8.4 18.5,-12.7 29.5,-12.7 4.8,0 9.5,0.6 14.3,2.5 15.3,5.7 25.6,20 26,36.5 l 30.8,1217.3 -21.4,32.6 c -168.8,67.8 -277.8,229.5 -277.8,411.5 0,244.3 198.9,443.2 443.2,443.2 244.5,0 443.4,-198.9 443.4,-443.2 0,-131.6 -58,-255.4 -159,-340.1 l -10.7,-36.7 328.9,-1011.8 c 5.2,-16.7 20.5,-27.9 38.1,-27.9 17.3,0 32.8,11 38.1,27.6 l 335.1,1016.5 -10.1,36.7 c -98.1,84.1 -154.2,206.4 -154.2,335.7 0,244.3 198.9,443.2 443.2,443.2 244.5,0 443.4,-198.9 443.4,-443.2 0,-189.7 -120.6,-358.5 -299.9,-419.7 l -23.3,-34.2 66.4,-1173.3 c 0.9,-16.7 11.6,-30.6 27.2,-35.8 4.3,-1.6 8.6,-2.3 13,-2.3 11.4,0 22.5,5 30.5,14.1 l 433.6,509.6 3.9,38.6 c -35.8,65 -54.7,139.1 -54.7,213.9 0,244.5 198.9,443.4 443.2,443.4 244.5,0 443.4,-198.9 443.4,-443.4 0,-219.7 -163.8,-408.5 -380.9,-438.9 z m -62.5,950.8 c -282.2,0 -511.7,-229.7 -511.7,-511.9 0,-78.5 18.3,-155.8 52.5,-225.6 l -373.2,-438.4 -60.9,1078 c 193.5,77.3 321.9,264.8 321.9,475.1 0,282.2 -229.7,511.7 -511.9,511.7 -282.1,0 -511.6,-229.5 -511.6,-511.7 0,-141.4 58.4,-275.7 160.8,-372.2 l -301.1,-913.3 -295.1,908.5 c 105.8,96.9 166,232.9 166,377 0,282.2 -229.7,511.7 -511.8,511.7 -282.2,0 -511.7,-229.5 -511.7,-511.7 0,-202.1 116.6,-382 298.8,-465.1 l -28.7,-1125.2 -417.2,449.6 c 45.9,77.8 70,166.1 70,257.5 0,282.2 -229.7,511.9 -511.8,511.9 -282.2,0 -511.6,-229.7 -511.6,-511.9 0,-263.6 200.2,-482.4 459.8,-508.4 l 640.5,-1643.22 c -229.5,-82.58 -512.3,-229.93 -512.3,-550.41 v -424.49 h 3306.5 v 424.49 c 0,313.87 -237.4,454.15 -472.6,536.04 l 658.5,1657.19 c 240.7,43.7 419.7,256.1 419.7,502.9 0,282.2 -229.7,511.9 -511.8,511.9 z m -171.8,-3112 c 6.4,-30.33 9.6,-62.27 9.6,-96.03 v -356.06 h -3169.7 v 356.06 c 0,222.63 158.8,380.7 499.8,497.49 163.1,55.88 659.9,103.1 1085.1,103.1 382.7,0 778.2,-12.55 1079.1,-103.56 300.2,-90.55 457.6,-216.47 496.1,-401"
       style="fill:#231f20;fill-opacity:1;fill-rule:nonzero;stroke:#231f20;stroke-opacity:1;stroke-width:50.00000128;stroke-dasharray:none"
       transform="matrix(0.13333333,0,0,-0.13333333,0,2133.3333)" />
    <path
       id="path22"
       d="m 22735.9,12030.1 c 0,-219.7 -163.8,-408.5 -380.9,-438.9 l -27,-21.4 -666.9,-1678.35 c -5.7,1.82 -11.2,3.42 -16.7,5.24 -309.5,93.3 -710.9,106.31 -1098.9,106.31 -414.5,0 -880.7,-42.89 -1075.8,-97.18 l -649.4,1666.08 -30.1,21.9 c -234.2,13 -417.6,207.3 -417.6,442.2 0,244.6 198.9,443.5 443.2,443.5 244.5,0 443.4,-198.9 443.4,-443.5 0,-87.1 -25.1,-171 -72.8,-242.9 l 3.5,-42.2 481.9,-519.4 c 7.8,-8.4 18.5,-12.7 29.5,-12.7 4.8,0 9.5,0.6 14.3,2.5 15.3,5.7 25.6,20 26,36.5 l 30.8,1217.3 -21.4,32.6 c -168.8,67.8 -277.8,229.5 -277.8,411.5 0,244.3 198.9,443.2 443.2,443.2 244.5,0 443.4,-198.9 443.4,-443.2 0,-131.6 -58,-255.4 -159,-340.1 l -10.7,-36.7 328.9,-1011.8 c 5.2,-16.7 20.5,-27.9 38.1,-27.9 17.3,0 32.8,11 38.1,27.6 l 335.1,1016.5 -10.1,36.7 c -98.1,84.1 -154.2,206.4 -154.2,335.7 0,244.3 198.9,443.2 443.2,443.2 244.5,0 443.4,-198.9 443.4,-443.2 0,-189.7 -120.6,-358.5 -299.9,-419.7 l -23.3,-34.2 66.4,-1173.3 c 0.9,-16.7 11.6,-30.6 27.2,-35.8 4.3,-1.6 8.6,-2.3 13,-2.3 11.4,0 22.5,5 30.5,14.1 l 433.6,509.6 3.9,38.6 c -35.8,65 -54.7,139.1 -54.7,213.9 0,244.5 198.9,443.4 443.2,443.4 244.5,0 443.4,-198.9 443.4,-443.4"
       style="fill:#565352;fill-opacity:1;fill-rule:nonzero;stroke:none"
       transform="matrix(0.13333333,0,0,-0.13333333,0,2133.3333)" />
    <path
       id="path23"
       d="m 22120.7,9430 c -78,166.06 -486.1,195.03 -1132.5,218.29 -646.4,23.27 -1339.6,-28.96 -1636.6,-46.53 -297,-17.56 -391,-267.79 -391,-267.79 0,222.63 158.8,380.7 499.8,497.49 163.1,55.88 659.9,103.1 1085.1,103.1 382.7,0 778.2,-12.55 1079.1,-103.56 300.2,-90.55 457.6,-216.47 496.1,-401"
       style="fill:#888685;fill-opacity:1;fill-rule:nonzero;stroke:none"
       transform="matrix(0.13333333,0,0,-0.13333333,0,2133.3333)" />
    <path
       id="path24"
       d="m 19916.4,13362.4 c 0,0 -380,-0.6 -441.3,-402.3 0,0 -4.7,-103.2 26.2,-197.1 0,0 -26.5,370.9 415.1,599.4"
       style="fill:#888685;fill-opacity:1;fill-rule:nonzero;stroke:none"
       transform="matrix(0.13333333,0,0,-0.13333333,0,2133.3333)" />
    <path
       id="path25"
       d="m 21204.9,13362.4 c 0,0 -274.5,-0.4 -394.6,-247.3 -45.5,-93.6 -55,-200.7 -33.6,-302.6 3.4,-16.4 12.4,-33.1 17.7,-49.5 0,0 -31.1,370.9 410.5,599.4"
       style="fill:#888685;fill-opacity:1;fill-rule:nonzero;stroke:none"
       transform="matrix(0.13333333,0,0,-0.13333333,0,2133.3333)" />
    <path
       id="path26"
       d="m 22296.2,12474.1 c 0,0 -274.5,3.4 -398,-241.7 -46.8,-93 -57.9,-200 -38,-302.1 3.2,-16.5 12,-33.3 17.1,-49.8 0,0 -25.8,371.4 418.9,593.6"
       style="fill:#888685;fill-opacity:1;fill-rule:nonzero;stroke:none"
       transform="matrix(0.13333333,0,0,-0.13333333,0,2133.3333)" />
    <path
       id="path27"
       d="m 18810.9,12479.4 c 0,0 -42.3,0.1 -100.5,-12.6 -117.1,-25.6 -296.7,-120.3 -337.6,-388.1 0,0 -4.6,-103.1 26.3,-197.1 0,0 -29.7,369.3 411.8,597.8"
       style="fill:#888685;fill-opacity:1;fill-rule:nonzero;stroke:none"
       transform="matrix(0.13333333,0,0,-0.13333333,0,2133.3333)" />
    <path
       id="path28"
       d="m 22589.4,12359.1 c 0,0 115.8,-482.8 -331.7,-585 0,0 -52.4,-11.7 -78.6,-87.4 -26.2,-75.7 -352.4,-693 -795,-1205.5 -442.6,-512.52 -745.4,-478.6 -745.4,-478.6 0,0 428.6,24.3 1022.3,-111.1 l 667,1678.4 c 0,0 20.9,15.9 27,21.2 6.1,5.3 306.6,20.7 376.4,376.5 0,0 50,202 -142,391.5"
       style="fill:#454242;fill-opacity:1;fill-rule:nonzero;stroke:none"
       transform="matrix(0.13333333,0,0,-0.13333333,0,2133.3333)" />
    <path
       id="path29"
       d="m 22130.3,8977.91 h -3169.7 v 356.06 c 0,0 94,250.23 391,267.79 297,17.57 990.2,69.8 1636.6,46.53 646.4,-23.26 1054.5,-52.23 1132.5,-218.29 l 9.6,-452.09"
       style="fill:#565352;fill-opacity:1;fill-rule:nonzero;stroke:none"
       transform="matrix(0.13333333,0,0,-0.13333333,0,2133.3333)" />
    <path
       id="path30"
       d="m 19085.7,12387.5 c 0,0 91.2,-172.8 -15.6,-351.4 -103.6,-173.3 3.9,-316.4 69.9,-374.6 66,-58.3 246.7,-122.7 246.7,-122.7 l -196.8,212.1 -3.5,42.2 c 0,0 74.7,91.5 72.4,260.5 -2.3,168.9 -115.4,294.1 -173.1,333.9"
       style="fill:#454242;fill-opacity:1;fill-rule:nonzero;stroke:none"
       transform="matrix(0.13333333,0,0,-0.13333333,0,2133.3333)" />
    <path
       id="path31"
       d="m 20232.6,13229.6 c 0,0 31,-302.6 -132.6,-466.6 -213,-213.5 281,-807.9 281,-807.9 l -190.9,587.3 10.7,36.7 c 0,0 65.8,51.9 112.2,141.8 64.2,124.6 97.1,317.8 -80.4,508.7"
       style="fill:#454242;fill-opacity:1;fill-rule:nonzero;stroke:none"
       transform="matrix(0.13333333,0,0,-0.13333333,0,2133.3333)" />
    <path
       id="path32"
       d="m 21548.6,13204 c 0,0 43.2,-335.1 -240.2,-439.9 -283.4,-104.8 57.5,-944 57.5,-944 l -36.5,645.2 23.3,34.2 c 0,0 170.5,46.5 261.1,238.6 90.6,192 0.2,381.7 -65.2,465.9"
       style="fill:#454242;fill-opacity:1;fill-rule:nonzero;stroke:none"
       transform="matrix(0.13333333,0,0,-0.13333333,0,2133.3333)" />
  </g>
  <g
     inkscape:groupmode="layer"
     id="layer12"
     inkscape:label="Layer 11">
    <path
       id="path13"
       d="m 33183.4,8987.18 h -2888 c -39,320.7 72.3,517.32 139.4,636.16 83.7,147.13 189.7,225.14 312.9,315.24 110.9,81.42 236.8,173.82 360.2,332.82 130,167.9 222.8,364.3 276.2,583.7 l -33.3,42.2 h -350.6 c -35.6,0 -66.3,24.2 -75,58.6 l -38.1,152.8 c -7.3,46.8 15.7,93.1 57.7,115.7 l 351.7,191.1 5.7,56.4 c -154.8,130.7 -243.6,322.3 -243.6,525 0,379.4 308.6,688 688,688 379.3,0 687.9,-308.6 687.9,-688 0,-210 -94,-405.7 -258,-536.9 l 6,-57.3 328.7,-167.1 c 46.7,-23.8 71.1,-77.8 57.7,-129.4 l -36.3,-149.8 c -8.2,-34.7 -39.2,-59.1 -75,-59.1 h -307.3 l -33.8,-39.5 c 32.7,-206.4 103.8,-391.2 211.5,-549.7 126.4,-186.1 272.1,-288.3 400.5,-378.42 129.8,-91.01 252.1,-176.78 337.2,-334.85 61.8,-115.42 164.4,-306.11 117.7,-607.65 z m -57.5,640.04 c -92.6,172.44 -221.5,262.77 -357.9,358.57 -130,91.01 -264.1,185.01 -383.4,360.61 -95.2,140.1 -159.7,302.3 -193.2,482.5 h 266.2 c 67.5,0 125.9,45.8 141.6,111.5 l 36,149.2 c 21.3,81.6 -18,168.8 -93,207.1 l -283.3,144.1 c 155.5,142.8 244,342.6 244,556.1 0,417 -339.4,756.4 -756.3,756.4 -417,0 -756.4,-339.4 -756.4,-756.4 0,-206.4 83.7,-402.1 231.3,-544.2 l -309.3,-168.1 c -68,-36.7 -104.9,-112.2 -92.4,-188.4 l 39,-156.9 c 16.2,-65.1 74.4,-110.4 141.4,-110.4 h 305.9 c -52.2,-192.8 -136.9,-366.4 -252.5,-515.6 -117.2,-151.4 -233.8,-236.9 -346.5,-319.52 -123.8,-91.01 -240.9,-176.78 -331.9,-336.68 -68.6,-121.57 -196.6,-347.85 -143.4,-709.16 l 4.1,-29.19 h 3004.9 l 5.3,28.05 c 61.8,341.47 -56.6,562.04 -120.2,680.42"
       style="fill:#231f20;fill-opacity:1;fill-rule:nonzero;stroke:#231f20;stroke-opacity:1;stroke-width:50.00000128;stroke-dasharray:none"
       transform="matrix(0.13333333,0,0,-0.13333333,0,2133.3333)" />
    <path
       id="path14"
       d="m 33183.4,8987.18 h -2888 c -39,320.7 72.3,517.32 139.4,636.16 83.7,147.13 189.7,225.14 312.9,315.24 110.9,81.42 236.8,173.82 360.2,332.82 130,167.9 222.8,364.3 276.2,583.7 l -33.3,42.2 h -350.6 c -35.6,0 -66.3,24.2 -75,58.6 l -38.1,152.8 c -7.3,46.8 15.7,93.1 57.7,115.7 l 351.7,191.1 5.7,56.4 c -154.8,130.7 -243.6,322.3 -243.6,525 0,379.4 308.6,688 688,688 379.3,0 687.9,-308.6 687.9,-688 0,-210 -94,-405.7 -258,-536.9 l 6,-57.3 328.7,-167.1 c 46.7,-23.8 71.1,-77.8 57.7,-129.4 l -36.3,-149.8 c -8.2,-34.7 -39.2,-59.1 -75,-59.1 h -307.3 l -33.8,-39.5 c 32.7,-206.4 103.8,-391.2 211.5,-549.7 126.4,-186.1 272.1,-288.3 400.5,-378.42 129.8,-91.01 252.1,-176.78 337.2,-334.85 61.8,-115.42 164.4,-306.11 117.7,-607.65"
       style="fill:#565352;fill-opacity:1;fill-rule:nonzero;stroke:none"
       transform="matrix(0.13333333,0,0,-0.13333333,0,2133.3333)" />
    <path
       id="path15"
       d="m 31607.2,12670.7 c 0,0 -691.7,-160.1 -513,-892.6 0,0 31.2,568.2 652.4,906.8 l -139.4,-14.2"
       style="fill:#888685;fill-opacity:1;fill-rule:nonzero;stroke:none"
       transform="matrix(0.13333333,0,0,-0.13333333,0,2133.3333)" />
    <path
       id="path16"
       d="m 31285.5,10567.3 c 0,0 -93.3,-285.4 -387.9,-513.2 -294.6,-227.85 -440.3,-326.15 -539.2,-581.65 -98.8,-255.5 -63,-485.28 -63,-485.28 0,0 18.6,330.72 507.8,680.15 489.2,349.48 498.6,658.58 482.3,899.98"
       style="fill:#888685;fill-opacity:1;fill-rule:nonzero;stroke:none"
       transform="matrix(0.13333333,0,0,-0.13333333,0,2133.3333)" />
    <path
       id="path17"
       d="m 31296.4,11415.6 -325.3,-176.8 c -23.4,-12.9 -38.5,-17.9 -56.3,-37.8 l -17.5,-25.8 h 185.9 c 24.2,0 46.9,11.2 61.6,30.5 49.9,65.2 151.6,209.9 151.6,209.9 v 0"
       style="fill:#888685;fill-opacity:1;fill-rule:nonzero;stroke:none"
       transform="matrix(0.13333333,0,0,-0.13333333,0,2133.3333)" />
    <path
       id="path18"
       d="m 32079.8,12598.6 c 0,0 656.9,-776.5 -395.3,-1141.4 l 492.1,2.8 c 0,0 262.5,199.3 257.9,536.9 0,0 25.1,380.4 -354.7,601.7"
       style="fill:#454242;fill-opacity:1;fill-rule:nonzero;stroke:none"
       transform="matrix(0.13333333,0,0,-0.13333333,0,2133.3333)" />
    <path
       id="path19"
       d="m 32182.5,11402.8 c 0,0 309.4,-331.6 -32.2,-505.5 h 307.3 c 0,0 59.5,-5.8 75.1,59.1 15.7,64.8 36.2,149.9 36.2,149.9 1.4,7.7 4.5,25.5 2.9,40.6 -3.9,38.6 -5.3,33.4 -37.4,72.8 -49.5,34.9 -160.8,78.8 -351.9,183.1"
       style="fill:#454242;fill-opacity:1;fill-rule:nonzero;stroke:none"
       transform="matrix(0.13333333,0,0,-0.13333333,0,2133.3333)" />
    <path
       id="path20"
       d="m 31350.8,10897.3 h 799.5 c 0,0 -12.6,-14.7 -33.8,-39.5 10,-71.2 21.2,-138.3 119.3,-389.4 101.6,-218.3 197.5,-317.2 500.4,-544.08 285.8,-165.3 370.8,-410.1 370.8,-410.1 -307.8,85.29 -738.3,245.32 -1181.8,559.28 -255.9,181.2 -456.5,371.4 -609.4,539.4 l 68.3,242.2 -33.3,42.2"
       style="fill:#454242;fill-opacity:1;fill-rule:nonzero;stroke:none"
       transform="matrix(0.13333333,0,0,-0.13333333,0,2133.3333)" />
  </g>
  <g
     inkscape:groupmode="layer"
     id="layer13"
     inkscape:label="Layer 12">
    <path
       id="path3"
       d="M 5210.13,8958.52 H 1955.15 v 289.92 c 0,324.81 264.14,588.95 588.95,588.95 h 2077.08 c 324.81,0 588.95,-264.14 588.95,-588.95 z M 2638.31,11640.3 c 24.41,-3.4 49.27,-5.3 74.59,-5.3 h 1689.07 c 33.08,0 65.24,3.2 96.72,8.9 l 221.94,-1745.61 c -32.39,5.02 -65.7,7.53 -99.45,7.53 H 2544.1 c -34.21,0 -67.74,-2.51 -100.36,-7.76 z m -391.88,529.9 -52.91,521.9 c -6.39,63.1 14.37,126.3 57.02,173.3 42.43,47.2 103.1,74.1 166.51,74.1 h 286.27 c 48.81,0 91.69,-32.6 104.69,-79.6 l 112.23,-404.6 221.71,8 20.53,514.1 c 1.6,37.6 32.16,67.1 69.8,67.1 h 656.24 c 36.04,0 65.92,-27.2 69.34,-63 l 52.01,-520.3 264.14,7.5 60.9,379.4 c 8.44,53.1 53.6,91.4 107.21,91.4 h 255.7 c 63.41,0 124.08,-26.9 166.74,-74.1 42.42,-47 63.18,-110.2 56.79,-173.3 l -52.69,-518.5 -0.23,-3.4 c 0,-257.3 -209.16,-466.7 -466.46,-466.7 H 2712.9 c -257.3,0 -466.47,209.4 -466.47,466.7 z M 4791.56,9883.46 4565.52,11660.8 c 214.64,69.1 370.66,270.3 371.34,507.5 l 52.47,516.9 c 8.44,82.4 -18.48,164.7 -74.14,226.3 -55.42,61.3 -134.57,96.5 -217.37,96.5 h -255.7 c -87.37,0 -161.04,-62.8 -174.73,-149 l -52,-323.7 -143.71,-4.1 -45.62,457.2 c -7.07,70.9 -66.37,124.5 -137.54,124.5 h -656.24 c -74.59,0 -135.26,-58.4 -138.23,-132.8 l -18.02,-450.9 -104.24,-3.7 -97.86,352.7 c -21.21,76.4 -91.23,129.8 -170.61,129.8 h -286.27 c -82.57,0 -161.95,-35.2 -217.38,-96.5 -55.42,-61.6 -82.57,-143.9 -74.13,-226.3 l 52.46,-516.9 c 0.69,-245.2 167.2,-451.8 393.02,-514.1 L 2373.26,9883.24 c -279.88,-75.51 -486.54,-331.43 -486.54,-634.8 v -358.35 h 3391.83 v 358.35 c 0,303.6 -206.88,559.75 -486.99,635.02"
       style="fill:#231f20;fill-opacity:1;fill-rule:nonzero;stroke:#231f20;stroke-opacity:1;stroke-width:50.00000128;stroke-dasharray:none"
       transform="matrix(0.13333333,0,0,-0.13333333,0,2133.3333)" />
    <path
       id="path4"
       d="M 5210.13,9248.44 V 8958.52 H 1955.15 v 289.92 c 0,324.81 264.14,588.95 588.95,588.95 h 2077.08 c 324.81,0 588.95,-264.14 588.95,-588.95"
       style="fill:#565352;fill-opacity:1;fill-rule:nonzero;stroke:none"
       transform="matrix(0.13333333,0,0,-0.13333333,0,2133.3333)" />
    <path
       id="path5"
       d="m 4720.63,9898.29 c -32.39,5.02 -65.7,7.53 -99.45,7.53 H 2544.1 c -34.21,0 -67.74,-2.51 -100.36,-7.76 l 194.57,1742.24 c 24.41,-3.4 49.27,-5.3 74.59,-5.3 h 1689.07 c 33.08,0 65.24,3.2 96.72,8.9 l 221.94,-1745.61"
       style="fill:#565352;fill-opacity:1;fill-rule:nonzero;stroke:none"
       transform="matrix(0.13333333,0,0,-0.13333333,0,2133.3333)" />
    <path
       id="path6"
       d="m 4921.35,12692.1 -52.69,-518.5 -0.23,-3.4 c 0,-257.3 -209.16,-466.7 -466.46,-466.7 H 2712.9 c -257.3,0 -466.47,209.4 -466.47,466.7 l -52.91,521.9 c -6.39,63.1 14.37,126.3 57.02,173.3 42.43,47.2 103.1,74.1 166.51,74.1 h 286.27 c 48.81,0 91.69,-32.6 104.69,-79.6 l 112.23,-404.6 221.71,8 20.53,514.1 c 1.6,37.6 32.16,67.1 69.8,67.1 h 656.24 c 36.04,0 65.92,-27.2 69.34,-63 l 52.01,-520.3 264.14,7.5 60.9,379.4 c 8.44,53.1 53.6,91.4 107.21,91.4 h 255.7 c 63.41,0 124.08,-26.9 166.74,-74.1 42.42,-47 63.18,-110.2 56.79,-173.3"
       style="fill:#565352;fill-opacity:1;fill-rule:nonzero;stroke:none"
       transform="matrix(0.13333333,0,0,-0.13333333,0,2133.3333)" />
    <path
       id="path7"
       d="m 2447.66,12925.5 c 5.05,6.4 16.9,14.6 -18.24,14.6 -67.69,-0.1 -255.6,-35 -236.45,-240.9 23.29,-250.4 35.57,-499.5 65.78,-599.1 27.07,-89.3 60.41,661.2 188.91,825.4"
       style="fill:#888685;fill-opacity:1;fill-rule:nonzero;stroke:none"
       transform="matrix(0.13333333,0,0,-0.13333333,0,2133.3333)" />
    <path
       id="path8"
       d="m 3163.18,12984.6 -11.45,-295.2 c 0,0 201.67,310.4 314.27,355.1 h -237.87 c -31.12,0 -62.79,-28.8 -64.95,-59.9"
       style="fill:#888685;fill-opacity:1;fill-rule:nonzero;stroke:none"
       transform="matrix(0.13333333,0,0,-0.13333333,0,2133.3333)" />
    <path
       id="path9"
       d="m 4613.99,12939.5 -310.14,-284.9 c 0,0 9.19,73.8 18.95,135.2 9.54,60.1 19.15,107.6 59.69,131.6 17.96,32 231.5,18.1 231.5,18.1"
       style="fill:#888685;fill-opacity:1;fill-rule:nonzero;stroke:none"
       transform="matrix(0.13333333,0,0,-0.13333333,0,2133.3333)" />
    <path
       id="path10"
       d="m 2969.25,11632.4 c 0,0 1176.41,-143.7 1271.77,-899.9 89.6,-710.5 123.71,-826.68 123.71,-826.68 l 355.9,-7.53 -221.94,1745.61 -85.65,-8.8 c -4.99,-0.5 -10.01,-0.8 -15.03,-0.8 l -1428.76,-1.9"
       style="fill:#454242;fill-opacity:1;fill-rule:nonzero;stroke:none"
       transform="matrix(0.13333333,0,0,-0.13333333,0,2133.3333)" />
    <path
       id="path11"
       d="m 4587.9,11883.2 c -113.31,-86.2 -247.81,-133.9 -247.82,-133.9 -76.38,-27.1 -144.04,-39.6 -194.42,-45.8 0,0 375.64,-24.8 459.65,46.7 228.38,75.2 267.67,334.2 285.8,583 12.18,167.1 30.79,365.6 30.79,365.6 -23.66,-397 -179.83,-698.4 -334,-815.6"
       style="fill:#454242;fill-opacity:1;fill-rule:nonzero;stroke:none"
       transform="matrix(0.13333333,0,0,-0.13333333,0,2133.3333)" />
    <path
       id="path12"
       d="m 5208.07,9313.44 c -31.93,294.94 -282.38,525.09 -585.53,525.09 H 3582.64 2542.73 c -303.14,0 -553.59,-230.15 -585.52,-525.09 -2.29,-20.98 -0.92,-39.46 15.73,21.9 20.53,75.28 68.89,138.46 128.65,186.59 98.77,79.83 222.63,121.35 349.45,125 216.24,6.16 668.79,17.33 1131.6,19.61 462.81,-2.28 915.36,-13.45 1131.6,-19.61 126.82,-3.65 250.68,-45.17 349.45,-125 59.76,-48.13 108.12,-111.31 128.64,-186.59 16.65,-61.36 18.02,-42.88 15.74,-21.9"
       style="fill:#888685;fill-opacity:1;fill-rule:nonzero;stroke:none"
       transform="matrix(0.13333333,0,0,-0.13333333,0,2133.3333)" />
  </g>
</svg>
