<?xml version="1.0" encoding="UTF-8" standalone="no"?>
    <!DOCTYPE svg PUBLIC "-//W3C//DTD SVG 1.1//EN" "http://www.w3.org/Graphics/SVG/1.1/DTD/svg11.dtd">
    <svg xmlns="http://www.w3.org/2000/svg" class="" width="100%" height="100%" viewBox="0 0 18 19">
        <g id="fast_win">
    <g>
      <path class="icon-shadow" opacity="0.3" d="M9,.5a9,9,0,1,0,9,9A9,9,0,0,0,9,.5Z"></path>
      <path class="icon-background" fill="#96af8b" d="M9,0a9,9,0,1,0,9,9A9,9,0,0,0,9,0Z"></path>
    </g>
    <g class="icon-component-shadow" opacity="0.2">
      <path d="M4.85,4.7,9.67,9.19a.18.18,0,0,1,.05.07.21.21,0,0,1,0,.18l-.05.07L4.85,14a.24.24,0,0,1-.11.06.3.3,0,0,1-.13,0A.23.23,0,0,1,4.52,14a.28.28,0,0,1,0-.12v-9a.28.28,0,0,1,0-.12.23.23,0,0,1,.09-.08.3.3,0,0,1,.13,0A.24.24,0,0,1,4.85,4.7Z"></path>
      <path d="M10,4.7l4.82,4.49a.18.18,0,0,1,.05.07.21.21,0,0,1,0,.18l-.05.07L10,14a.24.24,0,0,1-.11.06.27.27,0,0,1-.13,0A.18.18,0,0,1,9.7,14a.19.19,0,0,1,0-.12v-9a.19.19,0,0,1,0-.12.18.18,0,0,1,.09-.08.27.27,0,0,1,.13,0A.24.24,0,0,1,10,4.7Z"></path>
    </g>
    <g>
      <path class="icon-component" fill="#fff" d="M4.85,4.2,9.67,8.69a.18.18,0,0,1,.05.07.21.21,0,0,1,0,.18L9.67,9,4.85,13.5a.24.24,0,0,1-.11.06.3.3,0,0,1-.13,0,.23.23,0,0,1-.09-.08.28.28,0,0,1,0-.12v-9a.28.28,0,0,1,0-.12.23.23,0,0,1,.09-.08.3.3,0,0,1,.13,0A.24.24,0,0,1,4.85,4.2Z"></path>
      <path class="icon-component" fill="#fff" d="M10,4.2l4.82,4.49a.18.18,0,0,1,.05.07.21.21,0,0,1,0,.18L14.85,9,10,13.5a.24.24,0,0,1-.11.06.27.27,0,0,1-.13,0,.18.18,0,0,1-.09-.08.19.19,0,0,1,0-.12v-9a.19.19,0,0,1,0-.12.18.18,0,0,1,.09-.08.27.27,0,0,1,.13,0A.24.24,0,0,1,10,4.2Z"></path>
    </g>
  </g>
    </svg>