<?xml version="1.0" encoding="UTF-8" standalone="no"?>
<svg
   class=""
   width="100%"
   height="100%"
   viewBox="0 0 18 19"
   version="1.1"
   id="svg6"
   sodipodi:docname="incorrect.svg"
   inkscape:version="1.4 (86a8ad7, 2024-10-11)"
   xmlns:inkscape="http://www.inkscape.org/namespaces/inkscape"
   xmlns:sodipodi="http://sodipodi.sourceforge.net/DTD/sodipodi-0.dtd"
   xmlns="http://www.w3.org/2000/svg"
   xmlns:svg="http://www.w3.org/2000/svg">
  <defs
     id="defs6" />
  <sodipodi:namedview
     id="namedview6"
     pagecolor="#ffffff"
     bordercolor="#000000"
     borderopacity="0.25"
     inkscape:showpageshadow="2"
     inkscape:pageopacity="0.0"
     inkscape:pagecheckerboard="0"
     inkscape:deskcolor="#d1d1d1"
     inkscape:zoom="61.421053"
     inkscape:cx="9.2720651"
     inkscape:cy="10.216367"
     inkscape:window-width="2560"
     inkscape:window-height="1369"
     inkscape:window-x="1912"
     inkscape:window-y="-8"
     inkscape:window-maximized="1"
     inkscape:current-layer="svg6" />
  <g
     id="inaccuracy">
    <path
       class="icon-shadow"
       opacity="0.3"
       d="M9,.5a9,9,0,1,0,9,9A9,9,0,0,0,9,.5Z"
       id="path1" />
    <path
       class="icon-background"
       fill="#f7c045"
       d="M9,0a9,9,0,1,0,9,9A9,9,0,0,0,9,0Z"
       id="path2"
       style="fill:#e58f2a;fill-opacity:1" />
    <g
       class="icon-component-shadow"
       opacity="0.2"
       id="g4">
      <path
         d="M13.66,14.8a.28.28,0,0,1,0,.13.23.23,0,0,1-.08.11.28.28,0,0,1-.11.08l-.12,0h-2l-.13,0a.27.27,0,0,1-.1-.08A.36.36,0,0,1,11,14.8V12.9a.59.59,0,0,1,0-.13.36.36,0,0,1,.07-.1l.1-.08.13,0h2a.33.33,0,0,1,.23.1.39.39,0,0,1,.08.1.28.28,0,0,1,0,.13Zm-.12-3.93a.31.31,0,0,1,0,.13.3.3,0,0,1-.07.1.3.3,0,0,1-.23.08H11.43a.31.31,0,0,1-.34-.31L10.94,4.1A.5.5,0,0,1,11,3.86l.11-.08.13,0h2.11a.35.35,0,0,1,.26.1.41.41,0,0,1,.08.24Z"
         id="path3" />
      <path
         d="M7.65,14.82a.27.27,0,0,1,0,.12.26.26,0,0,1-.07.11l-.1.07-.13,0H5.43a.25.25,0,0,1-.12,0,.27.27,0,0,1-.1-.08.31.31,0,0,1-.09-.22V13a.36.36,0,0,1,.09-.23l.1-.07.12,0H7.32a.32.32,0,0,1,.23.09.3.3,0,0,1,.07.1.28.28,0,0,1,0,.13Zm2.2-7.17a3.1,3.1,0,0,1-.36.73A5.58,5.58,0,0,1,9,9a4.85,4.85,0,0,1-.52.49,8,8,0,0,0-.65.63,1,1,0,0,0-.27.7V11a.21.21,0,0,1,0,.12.17.17,0,0,1-.06.1.23.23,0,0,1-.1.07l-.12,0H5.53a.21.21,0,0,1-.12,0,.18.18,0,0,1-.1-.07.2.2,0,0,1-.08-.1.37.37,0,0,1,0-.12v-.35a2.68,2.68,0,0,1,.13-.84,2.91,2.91,0,0,1,.33-.66,3.38,3.38,0,0,1,.45-.55c.16-.15.33-.29.49-.42a7.84,7.84,0,0,0,.65-.64,1,1,0,0,0,.25-.67.77.77,0,0,0-.07-.34.67.67,0,0,0-.23-.27A1.16,1.16,0,0,0,6.49,6,1.61,1.61,0,0,0,6,6.11a3,3,0,0,0-.41.18,1.75,1.75,0,0,0-.29.18l-.11.09A.5.5,0,0,1,5,6.62a.31.31,0,0,1-.21-.13l-1-1.21a.3.3,0,0,1,0-.4A1.36,1.36,0,0,1,4,4.68a3.07,3.07,0,0,1,.56-.38,5.49,5.49,0,0,1,.9-.37,3.69,3.69,0,0,1,1.19-.17,3.92,3.92,0,0,1,2.3.75,2.85,2.85,0,0,1,.77.92A2.82,2.82,0,0,1,10,6.71,3,3,0,0,1,9.85,7.65Z"
         id="path4" />
    </g>
    <g
       id="g6">
      <path
         class="icon-component"
         fill="#fff"
         d="M13.66,14.3a.28.28,0,0,1,0,.13.23.23,0,0,1-.08.11.28.28,0,0,1-.11.08l-.12,0h-2l-.13,0a.27.27,0,0,1-.1-.08A.36.36,0,0,1,11,14.3V12.4a.59.59,0,0,1,0-.13.36.36,0,0,1,.07-.1l.1-.08.13,0h2a.33.33,0,0,1,.23.1.39.39,0,0,1,.08.1.28.28,0,0,1,0,.13Zm-.12-3.93a.31.31,0,0,1,0,.13.3.3,0,0,1-.07.1.3.3,0,0,1-.23.08H11.43a.31.31,0,0,1-.34-.31L10.94,3.6A.5.5,0,0,1,11,3.36l.11-.08.13,0h2.11a.35.35,0,0,1,.26.1.41.41,0,0,1,.08.24Z"
         id="path5" />
      <path
         class="icon-component"
         fill="#fff"
         d="M7.65,14.32a.27.27,0,0,1,0,.12.26.26,0,0,1-.07.11l-.1.07-.13,0H5.43a.25.25,0,0,1-.12,0,.27.27,0,0,1-.1-.08.31.31,0,0,1-.09-.22V12.49a.36.36,0,0,1,.09-.23l.1-.07.12,0H7.32a.32.32,0,0,1,.23.09.3.3,0,0,1,.07.1.28.28,0,0,1,0,.13Zm2.2-7.17a3.1,3.1,0,0,1-.36.73,5.58,5.58,0,0,1-.49.6A4.85,4.85,0,0,1,8.48,9a8,8,0,0,0-.65.63,1,1,0,0,0-.27.7v.22a.21.21,0,0,1,0,.12.17.17,0,0,1-.06.1.23.23,0,0,1-.1.07l-.12,0H5.53a.21.21,0,0,1-.12,0,.18.18,0,0,1-.1-.07.2.2,0,0,1-.08-.1.37.37,0,0,1,0-.12v-.35a2.68,2.68,0,0,1,.13-.84,2.91,2.91,0,0,1,.33-.66,3.38,3.38,0,0,1,.45-.55c.16-.15.33-.29.49-.42a7.84,7.84,0,0,0,.65-.64,1,1,0,0,0,.25-.67.77.77,0,0,0-.07-.34.67.67,0,0,0-.23-.27,1.16,1.16,0,0,0-.72-.24A1.61,1.61,0,0,0,6,5.61a3,3,0,0,0-.41.18A1.75,1.75,0,0,0,5.3,6l-.11.09A.5.5,0,0,1,5,6.12.31.31,0,0,1,4.74,6l-1-1.21a.3.3,0,0,1,0-.4A1.36,1.36,0,0,1,4,4.18a3.07,3.07,0,0,1,.56-.38,5.49,5.49,0,0,1,.9-.37,3.69,3.69,0,0,1,1.19-.17A3.92,3.92,0,0,1,8.93,4a2.85,2.85,0,0,1,.77.92A2.82,2.82,0,0,1,10,6.21,3,3,0,0,1,9.85,7.15Z"
         id="path6" />
    </g>
  </g>
</svg>
