<?xml version="1.0" encoding="UTF-8" standalone="no"?>
<svg
   class=""
   width="100%"
   height="100%"
   viewBox="0 0 18 19"
   version="1.1"
   id="svg10"
   sodipodi:docname="invalid.svg"
   inkscape:version="1.4 (86a8ad7, 2024-10-11)"
   xml:space="preserve"
   xmlns:inkscape="http://www.inkscape.org/namespaces/inkscape"
   xmlns:sodipodi="http://sodipodi.sourceforge.net/DTD/sodipodi-0.dtd"
   xmlns="http://www.w3.org/2000/svg"
   xmlns:svg="http://www.w3.org/2000/svg"><defs
     id="defs10" /><sodipodi:namedview
     id="namedview10"
     pagecolor="#ffffff"
     bordercolor="#000000"
     borderopacity="0.25"
     inkscape:showpageshadow="2"
     inkscape:pageopacity="0.0"
     inkscape:pagecheckerboard="0"
     inkscape:deskcolor="#d1d1d1"
     inkscape:zoom="64"
     inkscape:cx="5.0859375"
     inkscape:cy="10.492187"
     inkscape:window-width="2560"
     inkscape:window-height="1369"
     inkscape:window-x="1912"
     inkscape:window-y="-8"
     inkscape:window-maximized="1"
     inkscape:current-layer="blunder" /><g
     id="blunder"><path
       class="icon-shadow"
       opacity="0.3"
       d="m 9,0.5 a 9,9 0 1 0 9,9 9,9 0 0 0 -9,-9 z"
       id="path1"
       style="display:inline;fill:#000000;fill-opacity:1" /><path
       class="icon-background"
       fill="#ca3431"
       d="M 9,0 A 9,9 0 1 0 18,9 9,9 0 0 0 9,0 Z"
       id="path2"
       style="display:inline;fill:#7979a1;fill-opacity:1" /><g
       id="incorrect"
       transform="translate(-3.8443e-4,-0.00130095)"><g
         class="icon-component-shadow"
         opacity="0.2"
         id="g3"
         style="display:inline"><path
           d="m 14,12.51 a 0.57,0.57 0 0 1 0.08,0.13 0.39,0.39 0 0 1 0,0.3 0.5,0.5 0 0 1 -0.08,0.12 l -1.38,1.38 A 0.5,0.5 0 0 1 12.5,14.52 H 12.35 12.2 A 0.57,0.57 0 0 1 12.07,14.44 L 9,11.37 5.94,14.44 A 0.57,0.57 0 0 1 5.81,14.52 H 5.66 5.51 A 0.36,0.36 0 0 1 5.39,14.44 L 4,13.06 A 0.39,0.39 0 0 1 3.89,12.79 0.41,0.41 0 0 1 4,12.51 L 7.07,9.45 4,6.39 A 0.43,0.43 0 0 1 3.89,6.11 0.39,0.39 0 0 1 4,5.84 L 5.39,4.46 A 0.39,0.39 0 0 1 5.66,4.35 0.43,0.43 0 0 1 5.94,4.46 L 9,7.52 12.06,4.46 a 0.41,0.41 0 0 1 0.28,-0.11 0.39,0.39 0 0 1 0.27,0.11 L 14,5.84 a 0.36,0.36 0 0 1 0.08,0.12 0.39,0.39 0 0 1 0,0.3 A 0.57,0.57 0 0 1 14,6.39 l -3.08,3.06 z"
           id="path3" /></g><path
         class="icon-component"
         fill="#f1f2f2"
         d="m 14,12 a 0.57,0.57 0 0 1 0.08,0.13 0.39,0.39 0 0 1 0,0.3 0.5,0.5 0 0 1 -0.08,0.12 l -1.38,1.38 A 0.5,0.5 0 0 1 12.5,14.01 H 12.35 12.2 A 0.57,0.57 0 0 1 12.07,13.93 L 9,10.87 5.94,13.94 A 0.57,0.57 0 0 1 5.81,14.02 H 5.66 5.51 A 0.36,0.36 0 0 1 5.39,13.94 L 4,12.56 A 0.39,0.39 0 0 1 3.89,12.29 0.41,0.41 0 0 1 4,12 L 7.07,9 4,5.89 A 0.43,0.43 0 0 1 3.89,5.61 0.39,0.39 0 0 1 4,5.34 L 5.39,4 A 0.39,0.39 0 0 1 5.66,3.89 0.43,0.43 0 0 1 5.94,4 L 9,7 12.06,4 A 0.41,0.41 0 0 1 12.34,3.89 0.39,0.39 0 0 1 12.61,4 L 14,5.34 a 0.36,0.36 0 0 1 0.08,0.12 0.39,0.39 0 0 1 0,0.3 A 0.57,0.57 0 0 1 14,5.89 L 10.92,9 Z"
         id="path4"
         style="display:inline;fill:#ffffff;fill-opacity:1" /></g></g></svg>
