<?xml version="1.0" encoding="UTF-8" standalone="no"?>
<svg
   class=""
   width="100%"
   height="100%"
   viewBox="0 0 18 19"
   version="1.1"
   id="svg4"
   sodipodi:docname="player_black.svg"
   inkscape:version="1.4 (86a8ad7, 2024-10-11)"
   xml:space="preserve"
   xmlns:inkscape="http://www.inkscape.org/namespaces/inkscape"
   xmlns:sodipodi="http://sodipodi.sourceforge.net/DTD/sodipodi-0.dtd"
   xmlns="http://www.w3.org/2000/svg"
   xmlns:svg="http://www.w3.org/2000/svg"><defs
     id="defs4" /><sodipodi:namedview
     id="namedview4"
     pagecolor="#ffffff"
     bordercolor="#000000"
     borderopacity="0.25"
     inkscape:showpageshadow="2"
     inkscape:pageopacity="0.0"
     inkscape:pagecheckerboard="0"
     inkscape:deskcolor="#d1d1d1"
     inkscape:zoom="128"
     inkscape:cx="13.058594"
     inkscape:cy="15.230469"
     inkscape:window-width="2560"
     inkscape:window-height="1369"
     inkscape:window-x="1912"
     inkscape:window-y="-8"
     inkscape:window-maximized="1"
     inkscape:current-layer="missed_win" /><g
     id="missed_win"><g
       id="g2"
       style="display:inline;fill:#333333;fill-opacity:1"><path
         class="icon-shadow"
         opacity="0.3"
         d="m 9,0.5 a 9,9 0 1 0 9,9 9,9 0 0 0 -9,-9 z"
         id="path1"
         style="fill:#000000;fill-opacity:1" /><path
         class="icon-background"
         fill="#dbac16"
         d="M 9,0 A 9,9 0 1 0 18,9 9,9 0 0 0 9,0 Z"
         id="path2"
         style="fill:#333333;fill-opacity:1" /></g><g
       id="g4"
       style="display:inline"><g
         class="icon-component-shadow"
         opacity="0.2"
         id="g3" /></g><g
       id="g1"
       transform="matrix(0.01912803,0,0,0.01912803,2.3058837,1.9296581)"
       style="display:inline"><g
         id="layer12"
         transform="translate(-2083.7866,215.83964)"
         style="display:inline"><path
           id="path14-8"
           d="m 2627.1142,408.33543 h -385.0666 c -5.2,-42.76 9.64,-68.976 18.5866,-84.82133 11.16,-19.61734 25.2934,-30.01867 41.72,-42.032 14.7867,-10.856 31.5734,-23.176 48.0267,-44.376 17.3333,-22.38667 29.7067,-48.57333 36.8267,-77.82667 l -4.44,-5.62666 h -46.7467 c -4.7467,0 -8.84,-3.22667 -10,-7.81334 l -5.08,-20.37333 c -0.9733,-6.24 2.0933,-12.41334 7.6933,-15.42667 l 46.8934,-25.480007 0.76,-7.52 c -20.64,-17.42666 -32.48,-42.97333 -32.48,-69.9999957 0,-50.5866663 41.1466,-91.7333243 91.7333,-91.7333243 50.5733,0 91.72,41.146658 91.72,91.7333243 0,27.9999957 -12.5333,54.0933357 -34.4,71.5866657 l 0.8,7.64 43.8267,22.280007 c 6.2266,3.17333 9.48,10.37333 7.6933,17.25333 l -4.84,19.97334 c -1.0933,4.62666 -5.2267,7.88 -10,7.88 h -40.9733 l -4.5067,5.26666 c 4.36,27.52 13.84,52.16 28.2,73.29333 16.8533,24.81334 36.28,38.44 53.4,50.456 17.3067,12.13467 33.6133,23.57067 44.96,44.64667 8.24,15.38933 21.92,40.81466 15.6933,81.02"
           style="display:inline;fill:#000000;fill-opacity:0.199203;fill-rule:nonzero;stroke:none;stroke-width:0.156838;stroke-dasharray:none;stroke-opacity:0.201195" /><path
           id="path14"
           d="m 2626.0309,382.33482 h -385.0666 c -5.2,-42.76 9.64,-68.976 18.5866,-84.82133 11.16,-19.61734 25.2934,-30.01867 41.72,-42.032 14.7867,-10.856 31.5734,-23.176 48.0267,-44.376 17.3333,-22.38667 29.7067,-48.57333 36.8267,-77.82667 l -4.44,-5.62666 h -46.7467 c -4.7467,0 -8.84,-3.22667 -10,-7.81334 l -5.08,-20.373333 c -0.9733,-6.239999 2.0933,-12.413333 7.6933,-15.426666 l 46.8934,-25.479999 0.76,-7.52 c -20.64,-17.426666 -32.48,-42.9733319 -32.48,-69.999998 0,-50.586666 41.1466,-91.733324 91.7333,-91.733324 50.5733,0 91.72,41.146658 91.72,91.733324 0,27.9999991 -12.5333,54.093332 -34.4,71.586665 l 0.8,7.639999 43.8267,22.28 c 6.2266,3.173333 9.48,10.373333 7.6933,17.253333 l -4.84,19.973339 c -1.0933,4.62666 -5.2267,7.88 -10,7.88 h -40.9733 l -4.5067,5.26666 c 4.36,27.52 13.84,52.16 28.2,73.29333 16.8533,24.81334 36.28,38.44 53.4,50.456 17.3067,12.13467 33.6133,23.57067 44.96,44.64667 8.24,15.38933 21.92,40.81466 15.6933,81.02"
           style="display:inline;fill:#565352;fill-opacity:1;fill-rule:nonzero;stroke:none;stroke-width:0.133333" /><path
           id="path15"
           d="m 2415.8709,-108.80117 c 0,0 -92.2266,21.346667 -68.4,119.013326 0,0 4.16,-75.759998 86.9867,-120.906656 l -18.5867,1.89333"
           style="display:inline;fill:#888685;fill-opacity:1;fill-rule:nonzero;stroke:none;stroke-width:0.133333" /><path
           id="path16"
           d="m 2372.9776,171.65216 c 0,0 -12.44,38.05333 -51.72,68.42666 -39.28,30.38 -58.7067,43.48667 -71.8933,77.55333 -13.1734,34.06667 -8.4,64.704 -8.4,64.704 0,0 2.48,-44.096 67.7066,-90.68666 65.2267,-46.59734 66.48,-87.81067 64.3067,-119.99733"
           style="display:inline;fill:#888685;fill-opacity:1;fill-rule:nonzero;stroke:none;stroke-width:0.133333" /><path
           id="path17"
           d="m 2374.4309,58.545488 -43.3733,23.573333 c -3.12,1.72 -5.1333,2.386667 -7.5067,5.04 l -2.3333,3.44 h 24.7867 c 3.2266,0 6.2533,-1.493333 8.2133,-4.066667 6.6533,-8.693333 20.2133,-27.986666 20.2133,-27.986666 v 0"
           style="display:inline;fill:#888685;fill-opacity:1;fill-rule:nonzero;stroke:none;stroke-width:0.133333" /><path
           id="path18"
           d="m 2478.8843,-99.187844 c 0,0 87.5866,103.5333341 -52.7067,152.186666 l 65.6133,-0.373333 c 0,0 35,-26.573333 34.3867,-71.586665 0,0 3.3467,-50.719999 -47.2933,-80.226668"
           style="display:inline;fill:#454242;fill-opacity:1;fill-rule:nonzero;stroke:none;stroke-width:0.133333" /><path
           id="path19"
           d="m 2492.5776,60.252155 c 0,0 41.2533,44.213335 -4.2933,67.400005 h 40.9733 c 0,0 7.9333,0.77333 10.0133,-7.88 2.0934,-8.64 4.8267,-19.986673 4.8267,-19.986673 0.1867,-1.026666 0.6,-3.4 0.3867,-5.413333 -0.52,-5.146666 -0.7067,-4.453333 -4.9867,-9.706666 -6.6,-4.653333 -21.44,-10.506667 -46.92,-24.413333"
           style="display:inline;fill:#454242;fill-opacity:1;fill-rule:nonzero;stroke:none;stroke-width:0.133333" /><path
           id="path20"
           d="m 2381.6843,127.65216 h 106.6 c 0,0 -1.68,1.96 -4.5067,5.26666 1.3333,9.49334 2.8267,18.44 15.9067,51.92 13.5466,29.10667 26.3333,42.29333 66.72,72.544 38.1066,22.04 49.44,54.68 49.44,54.68 -41.04,-11.372 -98.44,-32.70933 -157.5734,-74.57067 -34.12,-24.16 -60.8666,-49.52 -81.2533,-71.91999 l 9.1067,-32.29334 -4.44,-5.62666"
           style="fill:#454242;fill-opacity:1;fill-rule:nonzero;stroke:none;stroke-width:0.133333" /></g></g></g></svg>
