<?xml version="1.0" encoding="UTF-8" standalone="no"?>
<svg
   class=""
   width="100%"
   height="100%"
   viewBox="0 0 18 19"
   version="1.1"
   id="svg4"
   sodipodi:docname="player_white.svg"
   inkscape:version="1.4 (86a8ad7, 2024-10-11)"
   xml:space="preserve"
   xmlns:inkscape="http://www.inkscape.org/namespaces/inkscape"
   xmlns:sodipodi="http://sodipodi.sourceforge.net/DTD/sodipodi-0.dtd"
   xmlns="http://www.w3.org/2000/svg"
   xmlns:svg="http://www.w3.org/2000/svg"><defs
     id="defs4" /><sodipodi:namedview
     id="namedview4"
     pagecolor="#ffffff"
     bordercolor="#000000"
     borderopacity="0.25"
     inkscape:showpageshadow="2"
     inkscape:pageopacity="0.0"
     inkscape:pagecheckerboard="0"
     inkscape:deskcolor="#d1d1d1"
     inkscape:zoom="45.254834"
     inkscape:cx="15.876757"
     inkscape:cy="13.865922"
     inkscape:window-width="2560"
     inkscape:window-height="1369"
     inkscape:window-x="1912"
     inkscape:window-y="-8"
     inkscape:window-maximized="1"
     inkscape:current-layer="g1" /><g
     id="missed_win"><g
       id="g2"
       style="display:inline;fill:#e5e5e5;fill-opacity:1"><path
         class="icon-shadow"
         opacity="0.3"
         d="m 9,0.5 a 9,9 0 1 0 9,9 9,9 0 0 0 -9,-9 z"
         id="path1"
         style="fill:#000000;fill-opacity:1" /><path
         class="icon-background"
         fill="#dbac16"
         d="M 9,0 A 9,9 0 1 0 18,9 9,9 0 0 0 9,0 Z"
         id="path2"
         style="fill:#ebebeb;fill-opacity:1" /></g><g
       id="g4"
       style="display:inline"><g
         class="icon-component-shadow"
         opacity="0.2"
         id="g3" /></g><g
       id="g1"
       transform="matrix(0.01912803,0,0,0.01912803,2.3058837,1.9296581)"
       style="display:inline"><g
         id="layer6"
         transform="translate(-2063.7629,-647.69701)"
         style="display:inline"><path
           id="path14-8-2"
           d="M 2607.0906,1271.4637 H 2222.024 c -5.2,-42.76 9.64,-68.976 18.5866,-84.8213 11.16,-19.6174 25.2934,-30.0187 41.72,-42.032 14.7867,-10.856 31.5734,-23.176 48.0267,-44.376 17.3333,-22.3867 29.7067,-48.5734 36.8267,-77.8267 l -4.44,-5.6267 h -46.7467 c -4.7467,0 -8.84,-3.2266 -10,-7.8133 l -5.08,-20.37331 c -0.9733,-6.24 2.0933,-12.4134 7.6933,-15.4267 l 46.8934,-25.48 0.76,-7.52 c -20.64,-17.4267 -32.48,-42.9733 -32.48,-70 0,-50.58667 41.1466,-91.73333 91.7333,-91.73333 50.5733,0 91.72,41.14666 91.72,91.73333 0,28 -12.5333,54.0933 -34.4,71.5867 l 0.8,7.64 43.8267,22.28 c 6.2266,3.1733 9.48,10.3733 7.6933,17.2533 l -4.84,19.97331 c -1.0933,4.6267 -5.2267,7.88 -10,7.88 h -40.9733 l -4.5067,5.2667 c 4.36,27.52 13.84,52.16 28.2,73.2933 16.8533,24.8134 36.28,38.44 53.4,50.456 17.3067,12.1347 33.6133,23.5707 44.96,44.6467 8.24,15.3893 21.92,40.8147 15.6933,81.02"
           style="display:inline;fill:#000000;fill-opacity:1;fill-rule:nonzero;stroke:none;stroke-width:0.156838;stroke-dasharray:none;stroke-opacity:0.201195;opacity:0.2" /><path
           id="path67"
           d="m 2606.0043,1245.8654 h -385.0667 c -5.2,-42.76 9.64,-68.9733 18.5867,-84.8133 11.16,-19.6133 25.3066,-30.0267 41.7333,-42.04 14.7733,-10.8533 31.56,-23.1733 48.0133,-44.3733 17.3334,-22.3734 29.72,-48.56 36.84,-77.82667 l -4.44,-5.62666 h -46.7466 c -4.7467,0 -8.8534,-3.21334 -10.0134,-7.81334 l -5.08,-20.37333 c -0.9733,-6.24 2.1067,-12.41333 7.6934,-15.42666 l 46.9066,-25.48 0.76,-7.50667 c -20.6533,-17.42667 -32.48,-42.97333 -32.48,-70.01333 0,-50.58667 41.1467,-91.72933 91.72,-91.72933 50.5734,0 91.7334,41.14266 91.7334,91.72933 0,28.01333 -12.5334,54.10666 -34.4,71.58666 l 0.7866,7.64 43.8267,22.29334 c 6.24,3.16 9.4933,10.37333 7.6933,17.24 l -4.84,19.98666 c -1.0933,4.61333 -5.2266,7.86667 -10,7.86667 h -40.9733 l -4.4933,5.26666 c 4.3466,27.51997 13.84,52.15997 28.1866,73.29327 16.8534,24.8134 36.2934,38.44 53.4134,50.4534 17.3066,12.1333 33.6,23.5733 44.9466,44.6533 8.24,15.3867 21.9334,40.8133 15.6934,81.0133"
           style="display:inline;fill:#ffffff;fill-opacity:1;fill-rule:nonzero;stroke:none;stroke-width:0.133333" /><path
           id="path68"
           d="m 2458.8709,764.34281 c 0,0 87.5734,103.53599 -52.72,152.18933 l 65.6134,-0.37334 c 0,0 35,-26.56 34.3866,-71.58666 0,0 3.36,-50.72 -47.28,-80.22933"
           style="display:inline;fill:#d3d3d3;fill-opacity:1;fill-rule:nonzero;stroke:none;stroke-width:0.133333" /><path
           id="path69"
           d="m 2472.5509,923.78547 c 0,0 41.2534,44.21333 -4.2933,67.4 h 40.9867 c 0,0 7.92,0.77333 10,-7.86667 2.0933,-8.65333 4.8266,-19.98666 4.8266,-19.98666 0.2,-1.04 0.6,-3.41334 0.4,-5.42667 -0.5333,-5.14667 -0.72,-4.45333 -5,-9.70667 -6.6,-4.65333 -21.4266,-10.50666 -46.92,-24.41333"
           style="display:inline;fill:#d3d3d3;fill-opacity:1;fill-rule:nonzero;stroke:none;stroke-width:0.133333" /><path
           id="path70"
           d="m 2361.6709,991.18547 h 106.5867 c 0,0 -1.6667,1.96 -4.4933,5.26666 1.3333,9.50667 2.8266,18.43997 15.8933,51.91997 13.5467,29.1067 26.3467,42.2933 66.7333,72.5467 18.36,13.76 25.12,19.6133 25.12,19.6133 -37.88,-10.04 -91.9066,-29.68 -146.48,-70.1467 -26.12,-19.3733 -46.9866,-39.5333 -63.36,-57.8133 l 4.44,-15.75997 -4.44,-5.62666"
           style="display:inline;fill:#d3d3d3;fill-opacity:1;fill-rule:nonzero;stroke:none;stroke-width:0.133333" /></g></g></g></svg>
