<?xml version="1.0" encoding="UTF-8" standalone="no"?>
<svg
   class=""
   width="100%"
   height="100%"
   viewBox="0 0 18 19"
   version="1.1"
   id="svg4"
   sodipodi:docname="search.svg"
   inkscape:version="1.4 (86a8ad7, 2024-10-11)"
   xml:space="preserve"
   xmlns:inkscape="http://www.inkscape.org/namespaces/inkscape"
   xmlns:sodipodi="http://sodipodi.sourceforge.net/DTD/sodipodi-0.dtd"
   xmlns="http://www.w3.org/2000/svg"
   xmlns:svg="http://www.w3.org/2000/svg"><defs
     id="defs4" /><sodipodi:namedview
     id="namedview4"
     pagecolor="#ffffff"
     bordercolor="#000000"
     borderopacity="0.25"
     inkscape:showpageshadow="2"
     inkscape:pageopacity="0.0"
     inkscape:pagecheckerboard="0"
     inkscape:deskcolor="#d1d1d1"
     inkscape:zoom="181.01934"
     inkscape:cx="10.084558"
     inkscape:cy="17.862733"
     inkscape:window-width="2560"
     inkscape:window-height="1369"
     inkscape:window-x="1912"
     inkscape:window-y="-8"
     inkscape:window-maximized="1"
     inkscape:current-layer="missed_win" /><g
     id="missed_win"><g
       id="g2"><path
         class="icon-shadow"
         opacity="0.3"
         d="M9,.5a9,9,0,1,0,9,9A9,9,0,0,0,9,.5Z"
         id="path1"
         style="fill:#000000;fill-opacity:1" /><path
         class="icon-background"
         fill="#dbac16"
         d="M9,0a9,9,0,1,0,9,9A9,9,0,0,0,9,0Z"
         id="path2"
         style="fill:#7979a1;fill-opacity:1" /></g><g
       id="g4"><g
         class="icon-component-shadow"
         opacity="0.2"
         id="g3" /></g><path
       fill="none"
       stroke="#000000"
       stroke-width="1.04783"
       d="m 10.70129,10.771573 3.081307,3.081307 z m -2.5677589,1.0271 c 1.9853869,0 3.5948609,-1.60947 3.5948609,-3.5948577 0,-1.9853855 -1.609474,-3.5948599 -3.5948609,-3.5948599 -1.9853849,0 -3.5948583,1.6094744 -3.5948583,3.5948599 0,1.9853877 1.6094734,3.5948577 3.5948583,3.5948577 z"
       id="path1-0-9"
       style="fill:none;fill-opacity:1;stroke:#000000;stroke-width:1.02752;stroke-linecap:round;stroke-linejoin:round;stroke-dasharray:none;stroke-opacity:0.201195"
       sodipodi:nodetypes="cccsssss" /><path
       fill="none"
       stroke="#000000"
       stroke-width="1.04783"
       d="m 10.701881,10.245343 3.081307,3.081307 z m -2.5677592,1.0271 c 1.9853872,0 3.5948612,-1.6094705 3.5948612,-3.5948579 0,-1.9853851 -1.609474,-3.5948595 -3.5948612,-3.5948595 -1.9853849,0 -3.5948583,1.6094744 -3.5948583,3.5948595 0,1.9853874 1.6094734,3.5948579 3.5948583,3.5948579 z"
       id="path1-0"
       style="fill:none;fill-opacity:1;stroke:#ffffff;stroke-width:1.02752;stroke-linecap:round;stroke-linejoin:round;stroke-dasharray:none;stroke-opacity:1"
       sodipodi:nodetypes="cccsssss" /></g></svg>
