<?xml version="1.0" encoding="UTF-8" standalone="no"?>
<svg
   class=""
   width="100%"
   height="100%"
   viewBox="0 0 18 19"
   version="1.1"
   id="svg4"
   sodipodi:docname="search.svg"
   inkscape:version="1.4 (86a8ad7, 2024-10-11)"
   xml:space="preserve"
   xmlns:inkscape="http://www.inkscape.org/namespaces/inkscape"
   xmlns:sodipodi="http://sodipodi.sourceforge.net/DTD/sodipodi-0.dtd"
   xmlns="http://www.w3.org/2000/svg"
   xmlns:svg="http://www.w3.org/2000/svg"><defs
     id="defs4" /><sodipodi:namedview
     id="namedview4"
     pagecolor="#ffffff"
     bordercolor="#000000"
     borderopacity="0.25"
     inkscape:showpageshadow="2"
     inkscape:pageopacity="0.0"
     inkscape:pagecheckerboard="0"
     inkscape:deskcolor="#d1d1d1"
     inkscape:zoom="45.254834"
     inkscape:cx="10.683942"
     inkscape:cy="10.043126"
     inkscape:window-width="2560"
     inkscape:window-height="1369"
     inkscape:window-x="1912"
     inkscape:window-y="-8"
     inkscape:window-maximized="1"
     inkscape:current-layer="missed_win" /><g
     id="missed_win"><g
       id="g2"><path
         class="icon-shadow"
         opacity="0.3"
         d="M9,.5a9,9,0,1,0,9,9A9,9,0,0,0,9,.5Z"
         id="path1"
         style="fill:#000000;fill-opacity:1" /><path
         class="icon-background"
         fill="#dbac16"
         d="M9,0a9,9,0,1,0,9,9A9,9,0,0,0,9,0Z"
         id="path2"
         style="fill:#7979a1;fill-opacity:1" /></g><g
       id="g4"><g
         class="icon-component-shadow"
         opacity="0.2"
         id="g3" /></g><path
       fill="none"
       stroke="#000000"
       stroke-width="1.04783"
       d="m 10.659448,10.723001 3.002578,3.002578 z m -2.5021508,1.000857 c 1.9346588,0 3.5030098,-1.568347 3.5030098,-3.5030069 0,-1.9346577 -1.568351,-3.5030091 -3.5030098,-3.5030091 -1.9346571,0 -3.5030075,1.5683514 -3.5030075,3.5030091 0,1.9346599 1.5683504,3.5030069 3.5030075,3.5030069 z"
       id="path1-0-9"
       style="fill:none;fill-opacity:1;stroke:#000000;stroke-width:1.5;stroke-linecap:round;stroke-linejoin:round;stroke-dasharray:none;stroke-opacity:0.201195"
       sodipodi:nodetypes="cccsssss" /><path
       fill="none"
       stroke="#000000"
       stroke-width="1.04783"
       d="m 10.660024,10.210217 3.002578,3.002577 z m -2.5021512,1.000856 c 1.9346592,0 3.5030102,-1.5683471 3.5030102,-3.5030066 0,-1.9346573 -1.568351,-3.5030087 -3.5030102,-3.5030087 -1.9346571,0 -3.5030075,1.5683514 -3.5030075,3.5030087 0,1.9346595 1.5683504,3.5030066 3.5030075,3.5030066 z"
       id="path1-0"
       style="display:inline;fill:none;fill-opacity:1;stroke:#ffffff;stroke-width:1.5;stroke-linecap:round;stroke-linejoin:round;stroke-dasharray:none;stroke-opacity:1"
       sodipodi:nodetypes="cccsssss" /></g></svg>
