<?xml version="1.0" encoding="UTF-8" standalone="no"?>
<svg
   class=""
   width="100%"
   height="100%"
   viewBox="0 0 18 19"
   version="1.1"
   id="svg4"
   sodipodi:docname="search.svg"
   inkscape:version="1.4 (86a8ad7, 2024-10-11)"
   xml:space="preserve"
   xmlns:inkscape="http://www.inkscape.org/namespaces/inkscape"
   xmlns:sodipodi="http://sodipodi.sourceforge.net/DTD/sodipodi-0.dtd"
   xmlns="http://www.w3.org/2000/svg"
   xmlns:svg="http://www.w3.org/2000/svg"><defs
     id="defs4" /><sodipodi:namedview
     id="namedview4"
     pagecolor="#ffffff"
     bordercolor="#000000"
     borderopacity="0.25"
     inkscape:showpageshadow="2"
     inkscape:pageopacity="0.0"
     inkscape:pagecheckerboard="0"
     inkscape:deskcolor="#d1d1d1"
     inkscape:zoom="64"
     inkscape:cx="11.179688"
     inkscape:cy="10.804688"
     inkscape:window-width="2560"
     inkscape:window-height="1369"
     inkscape:window-x="1912"
     inkscape:window-y="-8"
     inkscape:window-maximized="1"
     inkscape:current-layer="missed_win" /><g
     id="missed_win"><g
       id="g2"><path
         class="icon-shadow"
         opacity="0.3"
         d="M9,.5a9,9,0,1,0,9,9A9,9,0,0,0,9,.5Z"
         id="path1"
         style="fill:#000000;fill-opacity:1" /><path
         class="icon-background"
         fill="#dbac16"
         d="M9,0a9,9,0,1,0,9,9A9,9,0,0,0,9,0Z"
         id="path2"
         style="fill:#7979a1;fill-opacity:1" /></g><g
       id="g4"><g
         class="icon-component-shadow"
         opacity="0.2"
         id="g3" /></g><path
       fill="none"
       stroke="#000000"
       stroke-width="1.04783"
       d="m 10.576417,10.697052 2.84781,2.84781 z M 8.2032401,11.64632 c 1.8349369,0 3.3224469,-1.487506 3.3224469,-3.3224442 0,-1.8349353 -1.48751,-3.3224458 -3.3224469,-3.3224458 -1.8349348,0 -3.3224443,1.4875105 -3.3224443,3.3224458 0,1.8349382 1.4875095,3.3224442 3.3224443,3.3224442 z"
       id="path1-0-9"
       style="fill:none;fill-opacity:1;stroke:#000000;stroke-width:1.42268;stroke-linecap:round;stroke-linejoin:round;stroke-dasharray:none;stroke-opacity:0.201195"
       sodipodi:nodetypes="cccsssss" /><path
       fill="none"
       stroke="#000000"
       stroke-width="1.04783"
       d="m 10.576963,10.140387 2.84781,2.847809 z m -2.3731769,0.949267 c 1.8349369,0 3.3224469,-1.4875067 3.3224469,-3.3224438 0,-1.834935 -1.48751,-3.3224454 -3.3224469,-3.3224454 -1.8349349,0 -3.3224443,1.4875104 -3.3224443,3.3224454 0,1.8349371 1.4875094,3.3224438 3.3224443,3.3224438 z"
       id="path1-0"
       style="display:inline;fill:none;fill-opacity:1;stroke:#ffffff;stroke-width:1.42268;stroke-linecap:round;stroke-linejoin:round;stroke-dasharray:none;stroke-opacity:1"
       sodipodi:nodetypes="cccsssss" /></g></svg>
