<?xml version="1.0" encoding="UTF-8" standalone="no"?>
    <!DOCTYPE svg PUBLIC "-//W3C//DTD SVG 1.1//EN" "http://www.w3.org/Graphics/SVG/1.1/DTD/svg11.dtd">
    <svg xmlns="http://www.w3.org/2000/svg" class="" width="100%" height="100%" viewBox="0 0 18 19">
        <g id="take_back">
    <g>
      <path class="icon-shadow" opacity="0.3" d="M9,.5a9,9,0,1,0,9,9A9,9,0,0,0,9,.5Z"></path>
      <path class="icon-background" fill="#96af8b" d="M9,0a9,9,0,1,0,9,9A9,9,0,0,0,9,0Z"></path>
    </g>
    <g class="icon-component-shadow" opacity="0.2">
      <path d="M3.67,10.38a.25.25,0,0,1,.24-.31L5,9.93a.49.49,0,0,1,.2.05.26.26,0,0,1,.1.2,3.77,3.77,0,0,0,1.26,2.34,3.87,3.87,0,0,0,2.52.94,3.53,3.53,0,0,0,1.47-.31,3.72,3.72,0,0,0,1.22-.81,4.13,4.13,0,0,0,.82-1.2,3.74,3.74,0,0,0,0-3A3.94,3.94,0,0,0,11.77,7a3.72,3.72,0,0,0-1.22-.81,3.53,3.53,0,0,0-1.47-.31,3.43,3.43,0,0,0-1.23.22,3.07,3.07,0,0,0-1.09.6L7.85,7.75c.16.14.22.29.16.38s-.18.16-.4.16H4.45a.33.33,0,0,1-.19,0,1,1,0,0,1-.17-.1A.57.57,0,0,1,4,8a.46.46,0,0,1,0-.21V4.6a.4.4,0,0,1,.16-.38c.11,0,.26,0,.42.17L5.6,5.49a5.93,5.93,0,0,1,1.63-1,5.42,5.42,0,0,1,4,.11A5.17,5.17,0,0,1,12.93,5.8a5.48,5.48,0,0,1,1.16,1.73,5.17,5.17,0,0,1,.44,2.12,5,5,0,0,1-.44,2.12,5.54,5.54,0,0,1-2.88,2.91,5.77,5.77,0,0,1-2.13.42,5.39,5.39,0,0,1-1.94-.37,5.36,5.36,0,0,1-2.85-2.48A5.43,5.43,0,0,1,3.67,10.38Z"></path>
    </g>
    <path class="icon-component" fill="#fff" d="M3.67,9.88a.25.25,0,0,1,.24-.31L5,9.43a.49.49,0,0,1,.2.05.26.26,0,0,1,.1.2A3.77,3.77,0,0,0,6.56,12,3.87,3.87,0,0,0,9.08,13a3.53,3.53,0,0,0,1.47-.31,3.72,3.72,0,0,0,1.22-.81,4.13,4.13,0,0,0,.82-1.2,3.74,3.74,0,0,0,0-3,3.94,3.94,0,0,0-.82-1.2,3.72,3.72,0,0,0-1.22-.81,3.53,3.53,0,0,0-1.47-.31,3.43,3.43,0,0,0-1.23.22,3.07,3.07,0,0,0-1.09.6L7.85,7.25c.16.14.22.29.16.38s-.18.16-.4.16H4.45a.33.33,0,0,1-.19,0,1,1,0,0,1-.17-.1A.57.57,0,0,1,4,7.47a.46.46,0,0,1,0-.21V4.1a.4.4,0,0,1,.16-.38c.11-.05.26,0,.42.17L5.6,5A5.93,5.93,0,0,1,7.23,4a5.42,5.42,0,0,1,4,.11A5.17,5.17,0,0,1,12.93,5.3,5.48,5.48,0,0,1,14.09,7a5.17,5.17,0,0,1,.44,2.12,5,5,0,0,1-.44,2.12,5.54,5.54,0,0,1-2.88,2.91,5.77,5.77,0,0,1-2.13.42,5.39,5.39,0,0,1-1.94-.37,5.63,5.63,0,0,1-1.65-1,5.59,5.59,0,0,1-1.2-1.5A5.43,5.43,0,0,1,3.67,9.88Z"></path>
  </g>
    </svg>