<?xml version="1.0" encoding="UTF-8" standalone="no"?>
    <!DOCTYPE svg PUBLIC "-//W3C//DTD SVG 1.1//EN" "http://www.w3.org/Graphics/SVG/1.1/DTD/svg11.dtd">
    <svg xmlns="http://www.w3.org/2000/svg" class="" width="100%" height="100%" viewBox="0 0 18 19">
        <path class="icon-shadow" opacity="0.3" d="M9,.5a9,9,0,1,0,9,9A9,9,0,0,0,9,.5Z"></path>
<path class="icon-background" fill="#7979a1" d="M9,0a9,9,0,1,0,9,9A9,9,0,0,0,9,0Z"></path>
<g class="icon-component-shadow" opacity="0.1">
    <polygon points="11.29 11.34 11.29 8.56 7.79 11.3 7.79 11.34 5.39 11.34 9.54 16.5 13.73 11.34 11.29 11.34"></polygon>
    <polygon points="7.83 7.51 7.83 10.32 11.33 7.58 11.33 7.5 13.73 7.5 9.58 2.35 5.39 7.51 7.83 7.51"></polygon>
  </g>
<g>
    <polygon class="icon-component" fill="#fff" points="10.9 10.92 10.9 8.13 7.4 10.87 7.4 10.92 5 10.92 9.15 16.07 13.34 10.92 10.9 10.92"></polygon>
    <polygon class="icon-component" fill="#fff" points="7.44 7.08 7.44 9.9 10.94 7.16 10.94 7.08 13.34 7.08 9.19 1.93 5 7.08 7.44 7.08"></polygon>
  </g>
    </svg>